<svg width="20" height="24" viewBox="0 0 20 24" fill="none" xmlns="http://www.w3.org/2000/svg">
<path fill-rule="evenodd" clip-rule="evenodd" d="M13.6128 3.83148C14.4705 2.81748 15.0487 1.40519 14.8905 0C13.6544 0.0480004 12.1591 0.805384 11.2728 1.81818C10.4769 2.71698 9.78216 4.15311 9.96894 5.53072C11.3477 5.6351 12.7551 4.84667 13.6128 3.83148ZM16.7047 12.7501C16.7392 16.3825 19.9643 17.5908 20 17.6064C19.9738 17.6916 19.4849 19.3281 18.3012 21.0201C17.2769 22.4817 16.2146 23.9374 14.5407 23.9686C12.8966 23.9986 12.3673 23.0158 10.4864 23.0158C8.60679 23.0158 8.01911 23.9373 6.46306 23.9985C4.84752 24.0573 3.61624 22.4171 2.58482 20.9604C0.474394 17.9808 -1.13757 12.5402 1.02758 8.86825C2.10302 7.04545 4.02429 5.8894 6.11092 5.8606C7.69671 5.8306 9.19448 6.90358 10.164 6.90358C11.1336 6.90358 12.9537 5.61358 14.8667 5.80318C15.6673 5.83558 17.9157 6.11868 19.3588 8.18386C19.2422 8.25467 16.6761 9.71414 16.7047 12.7501Z" fill="black"/>
</svg>
