<svg width="21" height="21" viewBox="0 0 21 21" fill="none" xmlns="http://www.w3.org/2000/svg">
<path d="M10.5 0C4.70101 0 0 4.70101 0 10.5C0 15.5807 3.60856 19.8186 8.40252 20.7905V12.9385H6.1446V10.3849H8.40252V8.55708C8.40252 7.75068 8.58172 7.03388 8.94012 6.40668C9.29852 5.77948 9.79132 5.28668 10.4185 4.92828C11.0457 4.56988 11.7715 4.39068 12.5958 4.39068C13.1692 4.39068 13.7068 4.4982 14.2086 4.71324C14.7104 4.92828 15.1136 5.215 15.4182 5.5734L14.4774 7.69692C14.2444 7.48188 13.9846 7.31164 13.6979 7.1862C13.4291 7.04284 13.1692 6.97116 12.9184 6.97116C12.542 6.97116 12.2195 7.03388 11.9507 7.15932C11.6998 7.26684 11.5116 7.44604 11.3862 7.69692C11.2608 7.92988 11.198 8.2166 11.198 8.55708V10.3849H14.5312V12.9385H11.198V20.9772C16.6716 20.6179 21 16.0644 21 10.5C21 4.70101 16.299 0 10.5 0Z" fill="#4285F4"/>
</svg>
