<svg width="76" height="12" viewBox="0 0 76 12" fill="none" xmlns="http://www.w3.org/2000/svg">
<path d="M6.048 7.248H2.48V11.312H0V0.528H6.576V2.496H2.48V5.28H6.048V7.248Z" fill="#4285F4"/>
<path d="M12.1097 9.712C12.4404 9.712 12.6964 9.61067 12.8777 9.408C13.0591 9.20533 13.1497 8.928 13.1497 8.576V7.984H12.3977C12.0031 7.984 11.6991 8.06933 11.4858 8.24C11.2724 8.41067 11.1657 8.62933 11.1657 8.896C11.1657 9.44 11.4804 9.712 12.1097 9.712ZM13.2618 10.32C12.9204 11.0133 12.2484 11.36 11.2457 11.36C10.4564 11.36 9.83775 11.136 9.38975 10.688C8.95242 10.24 8.73375 9.68 8.73375 9.008C8.73375 8.22933 9.01642 7.62667 9.58175 7.2C10.1578 6.76267 11.0057 6.544 12.1257 6.544H13.1497V5.984C13.1497 5.30133 12.6964 4.96 11.7898 4.96C10.9151 4.96 10.1044 5.20533 9.35775 5.696V3.6C9.99775 3.23733 10.9204 3.056 12.1257 3.056C13.2778 3.056 14.1364 3.30667 14.7017 3.808C15.2671 4.29867 15.5498 5.06667 15.5498 6.112V11.312H13.2618V10.32Z" fill="#4285F4"/>
<path d="M24.5677 10.928C23.9384 11.2693 23.1811 11.44 22.2957 11.44C21.0798 11.44 20.0771 11.056 19.2878 10.288C18.4984 9.50933 18.1038 8.50667 18.1038 7.28C18.1251 6.064 18.5198 5.06133 19.2878 4.272C20.0557 3.472 21.1064 3.072 22.4398 3.072C23.2611 3.072 23.9704 3.22667 24.5677 3.536V5.536C24.0024 5.184 23.3731 5.008 22.6798 5.008C22.0291 5.008 21.5011 5.20533 21.0958 5.6C20.6904 5.984 20.4824 6.544 20.4718 7.28C20.5144 7.99467 20.7277 8.54933 21.1117 8.944C21.4958 9.33867 22.0024 9.536 22.6318 9.536C23.3037 9.536 23.9491 9.34933 24.5677 8.976V10.928Z" fill="#4285F4"/>
<path d="M33.4918 10.848C32.9371 11.2107 32.0891 11.392 30.9478 11.392C29.6144 11.392 28.5744 11.008 27.8278 10.24C27.0918 9.46133 26.7238 8.464 26.7238 7.248C26.7238 5.95733 27.0811 4.94933 27.7957 4.224C28.5211 3.488 29.4118 3.12 30.4678 3.12C31.5557 3.12 32.4144 3.44 33.0438 4.08C33.6731 4.70933 33.9878 5.65333 33.9878 6.912C33.9878 7.15733 33.9451 7.57867 33.8598 8.176H29.0918C29.2518 8.624 29.5291 8.97067 29.9237 9.216C30.3184 9.46133 30.7931 9.584 31.3477 9.584C32.1691 9.584 32.8838 9.35467 33.4918 8.896V10.848ZM30.5638 4.896C30.1904 4.896 29.8598 5.03467 29.5718 5.312C29.2838 5.57867 29.0918 5.97867 28.9958 6.512H31.8118V6.32C31.7371 5.37067 31.3211 4.896 30.5638 4.896Z" fill="#4285F4"/>
<path d="M39.111 11.312H36.775V0H39.111V4.448C39.6657 3.552 40.471 3.104 41.527 3.104C42.5403 3.104 43.3777 3.472 44.039 4.208C44.7003 4.944 45.031 5.952 45.031 7.232C45.031 8.37333 44.711 9.35467 44.071 10.176C43.4417 10.9973 42.599 11.408 41.543 11.408C40.4657 11.408 39.655 10.9547 39.111 10.048V11.312ZM39.111 7.168C39.111 7.86133 39.2763 8.416 39.607 8.832C39.9377 9.248 40.3697 9.456 40.903 9.456C41.3937 9.456 41.8097 9.25867 42.151 8.864C42.4923 8.45867 42.663 7.93067 42.663 7.28C42.663 6.576 42.4923 6.02667 42.151 5.632C41.8203 5.23733 41.4097 5.04 40.919 5.04C40.4283 5.04 40.0017 5.22667 39.639 5.6C39.287 5.97333 39.111 6.496 39.111 7.168Z" fill="#4285F4"/>
<path d="M55.2282 7.216C55.2282 8.44267 54.8762 9.456 54.1722 10.256C53.4789 11.0453 52.5083 11.44 51.2603 11.44C49.9909 11.44 49.0096 11.0613 48.3162 10.304C47.6229 9.536 47.2762 8.55467 47.2762 7.36C47.2762 6.112 47.6389 5.088 48.3643 4.288C49.0896 3.47733 50.0549 3.072 51.2603 3.072C52.5189 3.072 53.4949 3.46133 54.1882 4.24C54.8816 5.01867 55.2282 6.01067 55.2282 7.216ZM50.0922 5.568C49.8362 6.00533 49.7082 6.57067 49.7082 7.264C49.7082 7.95733 49.8362 8.528 50.0922 8.976C50.3589 9.41333 50.7536 9.632 51.2762 9.632C51.7882 9.632 52.1669 9.41867 52.4122 8.992C52.6682 8.55467 52.7962 7.98933 52.7962 7.296C52.7962 5.70667 52.2789 4.912 51.2442 4.912C50.7322 4.912 50.3482 5.13067 50.0922 5.568Z" fill="#4285F4"/>
<path d="M65.4264 7.216C65.4264 8.44267 65.0744 9.456 64.3704 10.256C63.677 11.0453 62.7064 11.44 61.4584 11.44C60.189 11.44 59.2077 11.0613 58.5144 10.304C57.821 9.536 57.4744 8.55467 57.4744 7.36C57.4744 6.112 57.837 5.088 58.5624 4.288C59.2877 3.47733 60.253 3.072 61.4584 3.072C62.717 3.072 63.693 3.46133 64.3864 4.24C65.0797 5.01867 65.4264 6.01067 65.4264 7.216ZM60.2904 5.568C60.0344 6.00533 59.9064 6.57067 59.9064 7.264C59.9064 7.95733 60.0344 8.528 60.2904 8.976C60.557 9.41333 60.9517 9.632 61.4744 9.632C61.9864 9.632 62.365 9.41867 62.6104 8.992C62.8664 8.55467 62.9944 7.98933 62.9944 7.296C62.9944 5.70667 62.477 4.912 61.4424 4.912C60.9304 4.912 60.5464 5.13067 60.2904 5.568Z" fill="#4285F4"/>
<path d="M70.4085 11.312H68.0725V0.271999H70.4085V6.832L72.9685 3.2H75.6565L72.8405 7.088L75.7045 11.312H73.0005L70.4085 7.328V11.312Z" fill="#4285F4"/>
</svg>
