<svg width="332" height="302" viewBox="0 0 332 302" fill="none" xmlns="http://www.w3.org/2000/svg">
<path d="M331.749 237.108C331.749 272.947 257.485 302 165.875 302C74.2646 302 0 272.947 0 237.108C0 201.269 79.8685 209.853 171.479 209.853C263.089 209.853 331.749 201.269 331.749 237.108Z" fill="#ECF3FC"/>
<path d="M72.8498 32.6447V43.9015C72.8498 43.9015 82.0991 42.6158 84.515 47.2785C86.9309 51.9413 81.5987 60.7867 81.5987 60.7867C81.5987 60.7867 86.1174 64.4636 90.3476 67.5408C92.111 60.1659 95.7008 57.2205 99.0965 50.6556C99.4062 50.0569 99.7426 49.4492 100.101 48.8361C95.0073 46.9483 91.3197 41.4209 91.3197 34.8961C91.3197 26.814 96.9776 20.2622 103.957 20.2622C109.304 20.2622 113.875 24.1077 115.721 29.5406L130.204 18.0109L126.315 11.2568C126.315 11.2568 117.745 18.129 113.678 14.6338C109.969 11.4468 111.734 1.12568 111.734 1.12568L99.0965 0C99.0965 0 99.2746 10.3084 95.2081 12.3825C91.0102 14.5236 84.515 6.75408 84.515 6.75408L77.7103 15.7595C77.7103 15.7595 84.7749 22.0922 83.5429 27.0163C82.2664 32.1183 72.8498 32.6447 72.8498 32.6447Z" fill="#ECB3B3"/>
<path d="M231.733 57.0326L233.246 60.7867L235.504 68.6284C237.105 66.5779 239.42 65.2894 241.995 65.2894C246.827 65.2894 250.744 69.8253 250.744 75.4205C250.744 81.0158 246.827 85.5517 241.995 85.5517C241.056 85.5517 240.152 85.3803 239.304 85.0632L241.023 95.6828L244.912 101.311L251.716 97.9341C251.716 97.9341 249.431 90.7438 251.716 87.803C254.256 84.5355 261.437 87.803 261.437 87.803L263.381 79.9233C263.381 79.9233 255.258 76.6993 255.605 72.0435C255.882 68.3271 261.437 65.2894 261.437 65.2894L256.577 56.284C256.577 56.284 249.814 62.7161 246.856 59.661C244.572 57.3018 245.884 50.6556 245.884 50.6556H238.107C238.107 50.6556 238.771 61.2321 235.191 60.7867C233.687 60.5996 232.466 58.5965 231.733 57.0326Z" fill="#F0D3C1"/>
<path d="M235.191 127.202L236.163 122.699C236.163 122.699 237.968 115.31 236.163 111.442C234.753 108.422 233.114 106.997 230.33 105.814C227.479 104.602 222.553 105.814 222.553 105.814C222.553 105.814 218.933 107.015 218.665 109.191C218.558 110.058 219.008 110.872 219.637 111.564C219.643 111.571 219.649 111.578 219.655 111.584C219.795 111.736 219.942 111.882 220.094 112.021C221.206 113.038 222.553 113.694 222.553 113.694L224.497 115.945C224.497 115.945 222.697 118.627 224.497 119.322C226.298 120.017 225.895 115.752 227.414 117.071C228.093 117.66 228.386 120.448 228.386 120.448L227.414 123.825L223.861 131.229L223.633 131.705L223.599 131.777L223.312 132.374L222.553 133.956C222.553 133.956 218.033 139.82 218.665 144.087C219.127 147.211 222.553 150.841 222.553 150.841C222.553 150.841 225.989 153.256 228.386 153.092C230.427 152.953 233.246 150.841 233.246 150.841L236.163 148.815L238.107 147.464L236.163 141.836L235.191 133.956V127.202Z" fill="black"/>
<path d="M211.86 163.224L213.804 150.841H211.86L211.5 150.859C211.35 150.97 211.191 151.08 211.028 151.186C210.367 151.613 209.617 151.967 208.944 151.967C208.247 151.967 207.378 151.588 206.77 151.27C206.603 151.183 206.456 151.1 206.337 151.031C206.144 150.918 206.028 150.841 206.028 150.841H194.362C196.548 155.168 198.251 163.224 198.251 163.224C198.251 163.224 201.927 165.596 205.055 165.475C207.818 165.368 211.86 163.224 211.86 163.224Z" fill="#5896D2"/>
<path d="M192.418 127.202L195.334 130.579L197.279 135.082L202.139 144.087L206.019 150.826L206.173 150.925L206.77 151.27C207.378 151.588 208.247 151.967 208.944 151.967C209.617 151.967 210.367 151.613 211.028 151.186L211.5 150.859C211.686 150.722 211.861 150.584 212.017 150.455C212.51 150.046 212.832 149.715 212.832 149.715C212.832 149.715 210.756 148.715 209.916 147.464C208.728 145.695 208.944 141.836 208.944 141.836L207.972 142.961H207L201.167 133.956L197.279 128.327V126.076C197.279 126.076 197.463 124.784 197.279 123.825C197.114 122.966 197.066 121.573 196.307 121.573C195.77 121.573 195.334 122.699 195.334 122.699V124.95C195.334 124.95 194.532 124.415 194.362 123.825C194.242 123.408 194.482 123.116 194.362 122.699C194.094 121.767 192.418 121.573 192.418 121.573C192.418 121.573 191.786 121.377 191.446 121.573C190.767 121.967 191.446 123.825 191.446 123.825L192.418 127.202Z" fill="#F7CEB5"/>
<path d="M223.525 183.486C220.47 183.281 215.749 182.36 215.749 182.36L213.26 180.439L209.916 194.743L207.972 202.622L207 207.125V213.879L207.972 221.759L209.916 236.393L210.888 248.775L211.86 260.032H213.804H219.637L218.665 233.016L217.693 217.256V213.879L216.721 208.251L219.637 204.874L217.693 209.376L218.665 216.131L220.609 225.136L222.553 233.016L227.414 249.901L229.358 254.404L230.816 253.841C230.816 253.841 231.722 253.55 232.274 253.278C233.534 252.657 235.191 251.027 235.191 251.027L232.274 237.518L229.358 226.262L228.386 220.633L226.442 215.005V212.753L229.358 200.371L231.302 193.617C231.302 193.617 232.668 190.963 233.246 189.114C234.417 185.371 234.218 178.983 234.218 178.983L233.246 180.109C233.246 180.109 231.748 182.602 230.33 183.486C228.717 184.492 227.355 184.195 225.795 183.856C225.092 183.703 224.349 183.541 223.525 183.486Z" fill="#123457"/>
<path d="M219.151 264.535L219.637 260.032H213.804L207.972 263.409L208.944 264.535H219.151Z" fill="black"/>
<path d="M235.191 251.027C235.191 251.027 233.534 252.657 232.274 253.278C231.722 253.55 230.816 253.841 230.816 253.841L227.414 258.906L228.386 260.032L238.107 255.529L237.135 252.152L235.191 251.027Z" fill="black"/>
<path d="M123.399 218.382L122.427 202.622V190.803L120.483 196.994L118.539 204.874L111.734 225.136V257.781H113.678H118.539H120.483V244.273L123.399 218.382Z" fill="#123457"/>
<path d="M111.734 225.136L118.539 204.874L120.483 196.994L122.427 190.803V179.572L103.957 186.863V200.371L104.929 207.125L103.957 217.256L99.0965 230.764L95.2081 244.273L93.2639 255.529L93.5639 255.703L97.1523 257.781H101.041L111.734 225.136Z" fill="#123457"/>
<path d="M113.678 257.781V262.283H123.399V261.158L118.539 258.906V257.781H113.678Z" fill="black"/>
<path d="M97.1523 257.781L93.5639 255.703L92.2918 258.906L101.041 263.409V262.283L97.1523 257.781Z" fill="black"/>
<path d="M114.65 111.442C114.65 111.442 117.055 107.322 115.622 105.814C114.499 104.631 111.734 105.814 111.734 105.814C111.734 105.814 107.198 106.238 104.929 108.065C102.933 109.672 101.041 113.694 101.041 113.694C101.041 113.694 100.617 118.918 102.013 121.573C102.85 123.167 104.929 124.95 104.929 124.95H105.901V119.322L108.818 122.699L109.79 121.573L107.845 118.196C107.845 118.196 110.307 116.269 111.734 114.819C112.944 113.589 114.65 111.442 114.65 111.442Z" fill="black"/>
<path d="M116.594 121.573C116.594 121.573 116.234 117.398 115.622 114.819C115.304 113.479 114.65 111.442 114.65 111.442C114.65 111.442 112.944 113.589 111.734 114.819C110.307 116.269 107.845 118.196 107.845 118.196L109.79 121.573L108.818 122.699L105.901 119.322V124.95L107.845 127.202V130.579L110.762 131.705H113.678V129.453V127.202H115.622L116.594 126.076V121.573Z" fill="#F7CEB5"/>
<path d="M120.483 135.082C120.483 135.082 119.972 133.656 119.511 132.83C118.636 131.264 116.594 129.453 116.594 129.453H113.678V131.705H110.762L107.845 130.579L104.929 133.956L103.957 139.584V145.213L105.901 157.595V158.763L109.304 157.595L108.818 156.469L107.845 151.967C107.845 151.967 107.164 149.938 106.873 148.59C105.953 144.325 106.873 137.333 106.873 137.333L107.845 135.082L109.79 133.956H112.706L113.678 135.082L114.65 137.333L115.622 141.836C115.622 141.836 116.388 145.235 116.594 147.464C116.837 150.087 116.594 154.218 116.594 154.218L117.681 153.794L119.511 153.092L121.455 152.417V148.59V140.71V139.584L120.483 135.082Z" fill="#F09F67"/>
<path d="M116.594 154.218C116.594 154.218 116.837 150.087 116.594 147.464C116.388 145.235 115.622 141.836 115.622 141.836L114.65 137.333L113.678 135.082L112.706 133.956H109.79L107.845 135.082L106.873 137.333C106.873 137.333 105.953 144.325 106.873 148.59C107.164 149.938 107.845 151.967 107.845 151.967L108.818 156.469L109.304 157.595L109.79 158.721L110.276 160.409L110.762 162.098L111.734 164.349L117.566 171.103L119.511 174.48L121.455 176.732L122.427 177.857H123.399L124.371 176.732V175.606L121.455 168.852L120.483 165.475L119.511 163.224L116.594 159.847V154.218Z" fill="#F09F67"/>
<path d="M126.315 145.213L121.455 140.71V148.59L125.991 150.841L133.12 148.365L129.232 147.464L126.315 145.213Z" fill="#F09F67"/>
<path d="M155.478 104.165C155.478 106.652 153.737 108.668 151.59 108.668C149.442 108.668 147.702 106.652 147.702 104.165C147.702 101.678 149.442 99.6622 151.59 99.6622C153.737 99.6622 155.478 101.678 155.478 104.165Z" fill="white"/>
<path d="M107.845 96.9503C107.845 99.4371 106.105 101.453 103.957 101.453C101.809 101.453 100.069 99.4371 100.069 96.9503C100.069 94.4635 101.809 92.4476 103.957 92.4476C106.105 92.4476 107.845 94.4635 107.845 96.9503Z" fill="white"/>
<path d="M111.734 51.9231C111.734 54.4099 109.993 56.4258 107.845 56.4258C105.698 56.4258 103.957 54.4099 103.957 51.9231C103.957 49.4363 105.698 47.4204 107.845 47.4204C109.993 47.4204 111.734 49.4363 111.734 51.9231Z" fill="white"/>
<path d="M133.971 25.8906C133.971 28.3774 132.23 30.3934 130.082 30.3934C127.935 30.3934 126.194 28.3774 126.194 25.8906C126.194 23.4039 127.935 21.3879 130.082 21.3879C132.23 21.3879 133.971 23.4039 133.971 25.8906Z" fill="white"/>
<path d="M161.432 61.9124C161.432 64.3992 159.692 66.4151 157.544 66.4151C155.397 66.4151 153.656 64.3992 153.656 61.9124C153.656 59.4256 155.397 57.4097 157.544 57.4097C159.692 57.4097 161.432 59.4256 161.432 61.9124Z" fill="white"/>
<path d="M222.553 54.0326C222.553 56.5194 220.812 58.5353 218.665 58.5353C216.517 58.5353 214.776 56.5194 214.776 54.0326C214.776 51.5458 216.517 49.5299 218.665 49.5299C220.812 49.5299 222.553 51.5458 222.553 54.0326Z" fill="white"/>
<path d="M226.442 95.6828C226.442 98.1696 224.701 100.186 222.553 100.186C220.406 100.186 218.665 98.1696 218.665 95.6828C218.665 93.196 220.406 91.1801 222.553 91.1801C224.701 91.1801 226.442 93.196 226.442 95.6828Z" fill="white"/>
<path fill-rule="evenodd" clip-rule="evenodd" d="M154.506 11.2568L137.855 14.6338L130.204 18.0109L115.721 29.5406L114.65 30.3934C114.65 30.3934 105.178 40.1479 100.101 48.8361C99.7426 49.4492 99.4062 50.0569 99.0965 50.6556C95.7008 57.2205 92.111 60.1659 90.3476 67.5408C88.3952 72.8161 88.1034 76.4883 87.4313 82.1746C86.8627 86.9854 87.2285 89.896 88.4034 94.5571C89.8811 100.42 91.6082 103.602 95.2081 108.065C97.2319 110.574 101.041 113.694 101.041 113.694C101.041 113.694 102.933 109.672 104.929 108.065C107.198 106.238 111.734 105.814 111.734 105.814C111.734 105.814 114.499 104.631 115.622 105.814C117.055 107.322 114.65 111.442 114.65 111.442C114.65 111.442 115.304 113.479 115.622 114.819C116.234 117.398 116.594 121.573 116.594 121.573L120.483 122.699L126.315 124.95L128.26 129.453C128.26 129.453 131.498 134.612 134.092 137.333C137.135 140.525 142.841 144.087 142.841 144.087C142.841 144.087 148.09 146.338 151.59 146.338C155.09 146.338 160.339 144.087 160.339 144.087L165.199 140.71C165.199 140.71 166.675 143.253 168.116 144.087C170.153 145.267 173.948 145.213 173.948 145.213H181.725C181.725 145.213 188.466 143.477 191.446 146.338C192.907 147.741 193.404 148.944 194.362 150.841H206.028L206.019 150.826L202.139 144.087L197.279 135.082L195.334 130.579L192.418 127.202L191.446 123.825C191.446 123.825 190.767 121.967 191.446 121.573C191.786 121.377 192.418 121.573 192.418 121.573C192.418 121.573 194.094 121.767 194.362 122.699C194.482 123.116 194.242 123.408 194.362 123.825C194.532 124.415 195.334 124.95 195.334 124.95V122.699C195.334 122.699 195.77 121.573 196.307 121.573C197.066 121.573 197.114 122.966 197.279 123.825C197.463 124.784 197.279 126.076 197.279 126.076V128.327L201.167 133.956L207 142.961H207.972L208.944 141.836L209.916 140.71L210.888 138.459L212.832 136.207L215.749 131.705C215.749 131.705 217.678 129.788 218.665 130.579C218.886 130.756 220.609 130.579 220.609 130.579C220.609 130.579 220.551 130.33 220.507 129.982C220.445 129.486 220.409 128.79 220.609 128.327C220.849 127.771 221.581 127.202 221.581 127.202V126.076C221.581 126.076 219.055 124.508 218.665 122.699C218.481 121.846 218.665 120.448 218.665 120.448L219.151 118.196C219.151 118.196 219.48 117.527 219.637 117.071C220.027 115.936 219.974 114.314 219.855 113.124C219.806 112.626 219.745 112.203 219.7 111.924C219.663 111.696 219.637 111.564 219.637 111.564C219.008 110.872 218.558 110.058 218.665 109.191C218.933 107.015 222.553 105.814 222.553 105.814C222.553 105.814 227.479 104.602 230.33 105.814C233.114 106.997 234.753 108.422 236.163 111.442C237.968 115.31 236.163 122.699 236.163 122.699C236.163 122.699 238.89 118.816 240.051 115.945C242.954 108.768 241.023 95.6828 241.023 95.6828L239.304 85.0632L238.107 77.6719L235.504 68.6284L233.246 60.7867L231.733 57.0326C231.249 55.9997 230.978 55.1583 230.978 55.1583C230.978 55.1583 228.756 47.9454 226.442 43.9015C221.199 34.7403 215.27 32.4071 207 27.0163C199.136 21.8908 185.613 16.8852 185.613 16.8852C185.613 16.8852 176.354 12.3426 170.06 11.2568C164.052 10.2204 154.506 11.2568 154.506 11.2568ZM222.553 100.186C224.701 100.186 226.442 98.1696 226.442 95.6828C226.442 93.196 224.701 91.1801 222.553 91.1801C220.406 91.1801 218.665 93.196 218.665 95.6828C218.665 98.1696 220.406 100.186 222.553 100.186ZM130.082 30.3934C132.23 30.3934 133.971 28.3774 133.971 25.8906C133.971 23.4039 132.23 21.3879 130.082 21.3879C127.935 21.3879 126.194 23.4039 126.194 25.8906C126.194 28.3774 127.935 30.3934 130.082 30.3934ZM107.845 56.4258C109.993 56.4258 111.734 54.4099 111.734 51.9231C111.734 49.4363 109.993 47.4204 107.845 47.4204C105.698 47.4204 103.957 49.4363 103.957 51.9231C103.957 54.4099 105.698 56.4258 107.845 56.4258ZM157.544 66.4151C159.692 66.4151 161.432 64.3992 161.432 61.9124C161.432 59.4256 159.692 57.4097 157.544 57.4097C155.397 57.4097 153.656 59.4256 153.656 61.9124C153.656 64.3992 155.397 66.4151 157.544 66.4151ZM103.957 101.453C106.105 101.453 107.845 99.4371 107.845 96.9503C107.845 94.4635 106.105 92.4476 103.957 92.4476C101.809 92.4476 100.069 94.4635 100.069 96.9503C100.069 99.4371 101.809 101.453 103.957 101.453ZM151.59 108.668C153.737 108.668 155.478 106.652 155.478 104.165C155.478 101.678 153.737 99.6622 151.59 99.6622C149.442 99.6622 147.702 101.678 147.702 104.165C147.702 106.652 149.442 108.668 151.59 108.668ZM218.665 58.5353C220.812 58.5353 222.553 56.5194 222.553 54.0326C222.553 51.5458 220.812 49.5299 218.665 49.5299C216.517 49.5299 214.776 51.5458 214.776 54.0326C214.776 56.5194 216.517 58.5353 218.665 58.5353Z" fill="#8ABEEF"/>
<path d="M238.107 156.469C239.013 153.895 236.163 149.715 236.163 149.715V148.815L233.246 150.841V159.847C233.246 159.847 237.272 158.843 238.107 156.469Z" fill="#F7CEB5"/>
<path fill-rule="evenodd" clip-rule="evenodd" d="M228.386 153.092C230.427 152.953 233.246 150.841 233.246 150.841V159.847C233.246 159.847 232.235 164.881 233.246 167.726C233.768 169.192 235.191 171.103 235.191 171.103C235.191 171.103 236.502 173.837 236.163 175.606C235.979 176.566 235.191 177.857 235.191 177.857L234.218 178.983L233.246 180.109C233.246 180.109 231.748 182.602 230.33 183.486C228.717 184.492 227.355 184.195 225.795 183.856C225.092 183.703 224.349 183.541 223.525 183.486C220.47 183.281 215.749 182.36 215.749 182.36L213.26 180.439L212.832 180.109V174.48C212.832 174.48 212.657 171.041 212.832 168.852C213.006 166.68 213.432 165.144 213.89 163.493C214.193 162.4 214.51 161.257 214.776 159.847C214.917 159.104 215.132 158.467 215.336 157.865C215.733 156.69 216.085 155.648 215.749 154.218C215.64 153.759 215.452 153.442 215.266 153.128C215.068 152.793 214.871 152.462 214.776 151.967C214.612 151.108 214.776 149.715 214.776 149.715L214.685 149.572L213.952 148.419L212.832 149.715C212.832 149.715 210.756 148.715 209.916 147.464C208.728 145.695 208.944 141.836 208.944 141.836L209.916 140.71L210.888 138.459L212.832 136.207L215.749 131.705C215.749 131.705 217.678 129.788 218.665 130.579C218.886 130.756 220.609 130.579 220.609 130.579L221.581 130.954L223.861 131.229L223.633 131.705L223.599 131.777L223.312 132.374L222.553 133.956C222.553 133.956 218.033 139.82 218.665 144.087C219.127 147.211 222.553 150.841 222.553 150.841C222.553 150.841 225.989 153.256 228.386 153.092ZM219.655 111.584C219.649 111.578 219.643 111.571 219.637 111.564C219.637 111.564 219.663 111.696 219.7 111.924L219.655 111.584ZM220.609 130.579C220.609 130.579 220.551 130.33 220.507 129.982L220.609 130.579Z" fill="#F09F67"/>
<path d="M227.414 123.825L228.386 120.448C228.386 120.448 228.093 117.66 227.414 117.071C225.895 115.752 226.298 120.017 224.497 119.322C222.697 118.627 224.497 115.945 224.497 115.945L222.553 113.694C222.553 113.694 221.206 113.038 220.094 112.021C219.942 111.882 219.795 111.736 219.655 111.584L219.7 111.924C219.745 112.203 219.806 112.626 219.855 113.124C219.974 114.314 220.027 115.936 219.637 117.071C219.48 117.527 219.151 118.196 219.151 118.196L218.665 120.448C218.665 120.448 218.481 121.846 218.665 122.699C219.055 124.508 221.581 126.076 221.581 126.076V127.202C221.581 127.202 220.849 127.771 220.609 128.327C220.409 128.79 220.445 129.486 220.507 129.982L220.609 130.579L221.581 130.954L223.861 131.229L227.414 123.825Z" fill="#F7CEB5"/>
<path d="M213.952 148.419L212.832 149.715C212.832 149.715 212.51 150.046 212.017 150.455C211.861 150.584 211.686 150.722 211.5 150.859L211.86 150.841H213.804L214.685 149.572L213.952 148.419Z" fill="#B782FD" fill-opacity="0.729412"/>
<path d="M123.399 177.857H122.427C122.427 177.857 122.618 178.657 122.947 179.366L123.399 180.109C123.999 180.804 125.343 181.234 125.343 181.234C125.343 181.234 125.955 181.373 126.315 181.234C126.825 181.038 127.287 180.109 127.287 180.109V178.983C127.287 178.983 127.556 178.168 127.287 177.857C127.232 177.793 127.158 177.756 127.076 177.736C126.759 177.662 126.315 177.857 126.315 177.857H125.343L124.371 175.606V176.732L123.399 177.857Z" fill="#F7CEB5"/>
<path d="M111.734 164.349L110.762 162.098L110.276 160.409L101.041 164.349L106.873 182.36L120.483 176.732H121.455L119.511 174.48L117.566 171.103L111.734 164.349Z" fill="white"/>
<path d="M122.427 177.857L121.455 176.732H120.483L106.873 182.36L101.041 164.349L110.276 160.409L109.79 158.721L109.304 157.595L105.901 158.763L96.1802 162.098L103.957 186.863L122.427 179.572L122.947 179.366C122.618 178.657 122.427 177.857 122.427 177.857Z" fill="#007830"/>
<path d="M119.924 157.445C120.237 158.183 121.074 158.547 121.827 158.272L134.816 153.537C135.478 153.296 135.801 152.547 135.522 151.9C135.265 151.305 134.589 151.013 133.979 151.234L120.507 156.109C119.966 156.305 119.699 156.915 119.924 157.445Z" fill="white"/>
<path d="M124.239 162.641C123.285 162.947 122.827 164.031 123.273 164.929C123.642 165.673 124.508 166.024 125.291 165.745L139.94 160.533C140.868 160.203 141.175 159.043 140.531 158.297C140.163 157.872 139.577 157.707 139.042 157.879L124.239 162.641Z" fill="white"/>
<path d="M126.566 171.787C125.903 172.027 125.579 172.775 125.859 173.423C126.115 174.017 126.79 174.309 127.399 174.088L140.646 169.294C141.309 169.054 141.633 168.306 141.354 167.658C141.097 167.064 140.422 166.772 139.813 166.993L126.566 171.787Z" fill="white"/>
<path fill-rule="evenodd" clip-rule="evenodd" d="M119.511 153.092L117.681 153.794L116.594 154.218V159.847L119.511 163.224L120.483 165.475L121.455 168.852L124.371 175.606L125.343 177.857H126.315C126.315 177.857 126.759 177.662 127.076 177.736L146.729 169.978L138.953 146.338L133.12 148.365L125.991 150.841L119.511 153.092ZM135.522 151.9C135.801 152.547 135.478 153.296 134.816 153.537L121.827 158.272C121.074 158.547 120.237 158.183 119.924 157.445C119.699 156.915 119.966 156.305 120.507 156.109L133.979 151.234C134.589 151.013 135.265 151.305 135.522 151.9ZM125.291 165.745C124.508 166.024 123.642 165.673 123.273 164.929C122.827 164.031 123.285 162.947 124.239 162.641L139.042 157.879C139.577 157.707 140.163 157.872 140.531 158.297C141.175 159.043 140.868 160.203 139.94 160.533L125.291 165.745ZM127.399 174.088C126.79 174.309 126.115 174.017 125.859 173.423C125.579 172.775 125.903 172.027 126.566 171.787L139.813 166.993C140.422 166.772 141.097 167.064 141.354 167.658C141.633 168.306 141.309 169.054 140.646 169.294L127.399 174.088Z" fill="#007830"/>
<path d="M142.842 16.9473C142.566 16.9473 142.342 17.1711 142.342 17.4473C142.342 17.7234 142.566 17.9473 142.842 17.9473V16.9473ZM169.086 17.9473C169.362 17.9473 169.586 17.7234 169.586 17.4473C169.586 17.1711 169.362 16.9473 169.086 16.9473V17.9473ZM177.838 25.8899V26.3899H178.338V25.8899H177.838ZM177.838 21.3871V20.8871H177.338V21.3871H177.838ZM186.587 21.8871C186.863 21.8871 187.087 21.6633 187.087 21.3871C187.087 21.111 186.863 20.8871 186.587 20.8871V21.8871ZM114.651 34.3953C114.375 34.3953 114.151 34.6192 114.151 34.8953C114.151 35.1714 114.375 35.3953 114.651 35.3953V34.3953ZM185.615 34.8953H186.115V34.3953H185.615V34.8953ZM185.615 46.1521H185.115V46.6521H185.615V46.1521ZM217.694 46.6521C217.97 46.6521 218.194 46.4282 218.194 46.1521C218.194 45.876 217.97 45.6521 217.694 45.6521V46.6521ZM191.947 27.0155C191.947 26.7394 191.723 26.5155 191.447 26.5155C191.171 26.5155 190.947 26.7394 190.947 27.0155H191.947ZM191.447 37.1467H190.947V37.6467H191.447V37.1467ZM213.806 37.6467C214.082 37.6467 214.306 37.4228 214.306 37.1467C214.306 36.8705 214.082 36.6467 213.806 36.6467V37.6467ZM127.849 41.8744L127.61 41.4354L127.849 41.8744ZM168.117 41.6547H168.617V41.152L168.114 41.1547L168.117 41.6547ZM129.233 75.4198V74.9198H128.733V75.4198H129.233ZM129.233 86.6766V87.1766H129.733V86.6766H129.233ZM110.763 86.1766C110.487 86.1766 110.263 86.4004 110.263 86.6766C110.263 86.9527 110.487 87.1766 110.763 87.1766V86.1766ZM199.224 75.4198H199.724V74.9198H199.224V75.4198ZM199.224 97.9334L199.315 98.4251L199.724 98.3495V97.9334H199.224ZM160.34 97.9334V97.4334H159.84V97.9334H160.34ZM159.84 141.835C159.84 142.111 160.064 142.335 160.34 142.335C160.616 142.335 160.84 142.111 160.84 141.835H159.84ZM89.3767 79.4225C89.1006 79.4225 88.8767 79.6464 88.8767 79.9225C88.8767 80.1986 89.1006 80.4225 89.3767 80.4225V79.4225ZM119.512 79.9225V80.4225H120.012V79.9225H119.512ZM119.512 61.9116V61.4116H119.012V61.9116H119.512ZM92.293 68.1657C92.0169 68.1657 91.793 68.3896 91.793 68.6657C91.793 68.9418 92.0169 69.1657 92.293 69.1657V68.1657ZM109.791 69.1657C110.067 69.1657 110.291 68.9418 110.291 68.6657C110.291 68.3896 110.067 68.1657 109.791 68.1657V69.1657ZM138.954 95.682V96.182H139.454V95.682H138.954ZM139.454 85.5509C139.454 85.2748 139.23 85.0509 138.954 85.0509C138.678 85.0509 138.454 85.2748 138.454 85.5509H139.454ZM119.512 113.693H119.012V114.193H119.512V113.693ZM150.619 113.693H151.119V113.193H150.619V113.693ZM150.119 144.086C150.119 144.362 150.343 144.586 150.619 144.586C150.895 144.586 151.119 144.362 151.119 144.086H150.119ZM207.501 74.2941C207.501 74.018 207.277 73.7941 207.001 73.7941C206.725 73.7941 206.501 74.018 206.501 74.2941H207.501ZM207.001 95.682H206.501V96.182H207.001V95.682ZM226.943 51.7805C226.943 51.5044 226.719 51.2805 226.443 51.2805C226.167 51.2805 225.943 51.5044 225.943 51.7805H226.943ZM226.443 68.6657H225.943V69.1657H226.443V68.6657ZM233.248 68.6657L233.747 68.6792L233.761 68.1657H233.248V68.6657ZM231.776 104.674C231.768 104.95 231.986 105.18 232.262 105.187C232.538 105.195 232.768 104.977 232.775 104.701L231.776 104.674ZM170.061 106.439C169.785 106.439 169.561 106.663 169.561 106.939C169.561 107.215 169.785 107.439 170.061 107.439V106.439ZM210.889 107.439C211.165 107.439 211.389 107.215 211.389 106.939C211.389 106.663 211.165 106.439 210.889 106.439V107.439ZM216.722 114.193C216.998 114.193 217.222 113.969 217.222 113.693C217.222 113.417 216.998 113.193 216.722 113.193V114.193ZM178.338 130.578C178.338 130.302 178.114 130.078 177.838 130.078C177.562 130.078 177.338 130.302 177.338 130.578H178.338ZM177.838 140.709H177.338V141.209H177.838V140.709ZM168.117 122.698V122.198H167.617V122.698H168.117ZM167.617 132.829C167.617 133.106 167.841 133.329 168.117 133.329C168.393 133.329 168.617 133.106 168.617 132.829H167.617ZM198.252 140.709H198.752V140.209H198.252V140.709ZM197.752 151.198C197.752 151.474 197.976 151.698 198.252 151.698C198.528 151.698 198.752 151.474 198.752 151.198H197.752ZM207.001 133.955V133.455H206.501V133.955H207.001ZM206.501 139.584C206.501 139.86 206.725 140.084 207.001 140.084C207.277 140.084 207.501 139.86 207.501 139.584H206.501ZM211.861 134.455C212.137 134.455 212.361 134.231 212.361 133.955C212.361 133.679 212.137 133.455 211.861 133.455V134.455ZM218.166 78.7968C218.166 79.073 218.39 79.2968 218.666 79.2968C218.942 79.2968 219.166 79.073 219.166 78.7968H218.166ZM189.503 123.198C189.779 123.198 190.003 122.974 190.003 122.698C190.003 122.422 189.779 122.198 189.503 122.198V123.198ZM94.2372 105.187H148.675V104.187H94.2372V105.187ZM142.842 17.9473H169.086V16.9473H142.842V17.9473ZM134.093 26.3899H177.838V25.3899H134.093V26.3899ZM178.338 25.8899V21.3871H177.338V25.8899H178.338ZM177.838 21.8871H186.587V20.8871H177.838V21.8871ZM114.651 35.3953H185.615V34.3953H114.651V35.3953ZM185.115 34.8953V46.1521H186.115V34.8953H185.115ZM185.615 46.6521H217.694V45.6521H185.615V46.6521ZM190.947 27.0155V37.1467H191.947V27.0155H190.947ZM191.447 37.6467H213.806V36.6467H191.447V37.6467ZM111.975 51.0935L128.088 42.3135L127.61 41.4354L111.496 50.2154L111.975 51.0935ZM128.088 42.3135L128.508 42.0849L128.029 41.2068L127.61 41.4354L128.088 42.3135ZM127.852 42.3744L168.12 42.1547L168.114 41.1547L127.846 41.3744L127.852 42.3744ZM167.617 41.6547V75.4198H168.617V41.6547H167.617ZM128.733 75.4198V86.6766H129.733V75.4198H128.733ZM110.763 87.1766H129.233V86.1766H110.763V87.1766ZM129.233 75.9198H168.117V74.9198H129.233V75.9198ZM168.117 75.9198H199.224V74.9198H168.117V75.9198ZM198.724 75.4198V97.9334H199.724V75.4198H198.724ZM199.133 97.4417L198.846 97.4947L199.028 98.4781L199.315 98.4251L199.133 97.4417ZM198.724 97.7913V97.9334H199.724V97.7913H198.724ZM199.224 97.4334H160.34V98.4334H199.224V97.4334ZM159.84 97.9334V141.835H160.84V97.9334H159.84ZM89.3767 80.4225H119.512V79.4225H89.3767V80.4225ZM119.073 80.225L119.223 80.331L119.8 79.514L119.65 79.4081L119.073 80.225ZM120.012 79.9225V61.9116H119.012V79.9225H120.012ZM119.512 62.4116H153.535V61.4116H119.512V62.4116ZM92.293 69.1657H109.791V68.1657H92.293V69.1657ZM106.875 96.182H138.954V95.182H106.875V96.182ZM138.454 85.5509V95.682H139.454V85.5509H138.454ZM119.012 104.687V113.693H120.012V104.687H119.012ZM119.012 113.312V113.693H120.012V113.312H119.012ZM119.512 114.193H150.619V113.193H119.512V114.193ZM150.119 113.693V144.086H151.119V113.693H150.119ZM206.501 74.2941V95.682H207.501V74.2941H206.501ZM207.001 96.182H219.638V95.182H207.001V96.182ZM225.943 51.7805V68.6657H226.943V51.7805H225.943ZM226.443 69.1657H233.248V68.1657H226.443V69.1657ZM232.748 68.6522L231.776 104.674L232.775 104.701L233.747 68.6792L232.748 68.6522ZM170.061 107.439H210.889V106.439H170.061V107.439ZM160.34 114.193H216.722V113.193H160.34V114.193ZM177.338 130.578V140.709H178.338V130.578H177.338ZM167.617 122.698V132.829H168.617V122.698H167.617ZM177.838 141.209H198.252V140.209H177.838V141.209ZM197.752 140.709V151.198H198.752V140.709H197.752ZM206.501 133.955V139.584H207.501V133.955H206.501ZM207.001 134.455H211.861V133.455H207.001V134.455ZM218.166 58.5346V78.7968H219.166V58.5346H218.166ZM168.117 123.198H189.503V122.198H168.117V123.198Z" fill="white"/>
<rect x="172.977" y="51.7819" width="38.884" height="18.0109" fill="white"/>
<rect x="147.703" y="81.0493" width="46.6608" height="11.2568" fill="white"/>
<rect x="136.038" y="119.323" width="9.721" height="15.7595" fill="white"/>
<rect x="200.618" y="116.806" width="14.5701" height="11.6806" fill="white"/>
<path d="M195.209 58.5787C194.621 57.8835 193.923 57.3321 193.154 56.9559C192.385 56.5796 191.562 56.386 190.73 56.386C189.898 56.386 189.074 56.5796 188.305 56.9559C187.536 57.3321 186.838 57.8835 186.25 58.5787L190.73 63.8722L195.209 58.5787Z" fill="#8ABEEF"/>
<path d="M190.734 63.8798C191.322 64.575 192.021 65.1264 192.789 65.5026C193.558 65.8788 194.382 66.0725 195.214 66.0725C196.046 66.0725 196.87 65.8788 197.639 65.5026C198.407 65.1264 199.106 64.575 199.694 63.8798L195.214 58.5863L190.734 63.8798Z" fill="#8ABEEF"/>
<path d="M190.724 63.8784C190.135 64.5735 189.437 65.125 188.668 65.5012C187.9 65.8774 187.076 66.071 186.244 66.071C185.412 66.071 184.588 65.8774 183.819 65.5012C183.051 65.125 182.352 64.5735 181.764 63.8784L186.244 58.5849L190.724 63.8784Z" fill="#8ABEEF"/>
<path d="M195.22 58.5801C195.808 57.885 196.506 57.3335 197.275 56.9573C198.044 56.5811 198.868 56.3875 199.7 56.3875C200.532 56.3875 201.355 56.5811 202.124 56.9573C202.893 57.3335 203.591 57.885 204.179 58.5801L199.7 63.8736L195.22 58.5801Z" fill="#8ABEEF"/>
<path d="M195.209 58.5787C194.621 57.8835 193.923 57.3321 193.154 56.9559C192.385 56.5796 191.562 56.386 190.73 56.386C189.898 56.386 189.074 56.5796 188.305 56.9559C187.536 57.3321 186.838 57.8835 186.25 58.5787L190.73 63.8722L195.209 58.5787Z" stroke="white" stroke-width="0.2"/>
<path d="M190.734 63.8798C191.322 64.575 192.021 65.1264 192.789 65.5026C193.558 65.8788 194.382 66.0725 195.214 66.0725C196.046 66.0725 196.87 65.8788 197.639 65.5026C198.407 65.1264 199.106 64.575 199.694 63.8798L195.214 58.5863L190.734 63.8798Z" stroke="white" stroke-width="0.2"/>
<path d="M190.724 63.8784C190.135 64.5735 189.437 65.125 188.668 65.5012C187.9 65.8774 187.076 66.071 186.244 66.071C185.412 66.071 184.588 65.8774 183.819 65.5012C183.051 65.125 182.352 64.5735 181.764 63.8784L186.244 58.5849L190.724 63.8784Z" stroke="white" stroke-width="0.2"/>
<path d="M195.22 58.5801C195.808 57.885 196.506 57.3335 197.275 56.9573C198.044 56.5811 198.868 56.3875 199.7 56.3875C200.532 56.3875 201.355 56.5811 202.124 56.9573C202.893 57.3335 203.591 57.885 204.179 58.5801L199.7 63.8736L195.22 58.5801Z" stroke="white" stroke-width="0.2"/>
<path d="M113.919 173.669L115.245 174.082C115.556 174.179 115.888 174.047 116.082 173.748L116.906 172.476M113.919 173.669L113.55 173.554L113.875 174.646C113.904 174.742 113.86 174.846 113.778 174.879C113.695 174.912 113.605 174.861 113.577 174.766L113.165 173.382C113.163 173.376 113.161 173.37 113.16 173.364C113.158 173.358 113.156 173.352 113.154 173.346C113.137 173.288 113.146 173.224 113.179 173.175L114.43 171.308C114.622 171.021 114.943 170.893 115.247 170.981L117.226 171.559C117.277 171.574 117.319 171.618 117.336 171.676C117.354 171.733 117.345 171.798 117.314 171.846L116.906 172.476M113.919 173.669L114.043 174.086L114.277 174.873C114.289 174.914 114.314 174.949 114.347 174.971L114.35 174.973L114.358 174.979C114.365 174.983 114.374 174.989 114.386 174.996C114.41 175.01 114.444 175.03 114.488 175.052C114.574 175.096 114.698 175.15 114.85 175.194C115.154 175.28 115.574 175.323 116.028 175.141C116.483 174.96 116.791 174.626 116.984 174.342C117.081 174.199 117.149 174.068 117.194 173.971C117.217 173.923 117.233 173.883 117.244 173.855C117.25 173.84 117.254 173.829 117.257 173.821L117.261 173.811L117.262 173.808L117.262 173.807L117.262 173.806C117.276 173.766 117.277 173.721 117.265 173.68L117.03 172.894L116.906 172.476" stroke="#007830" stroke-width="0.5" stroke-linecap="round"/>
<path fill-rule="evenodd" clip-rule="evenodd" d="M111.612 176.469L111.636 176.459C111.62 176.448 111.604 176.436 111.588 176.423L111.57 176.409L111.563 176.433C111.557 176.454 111.551 176.475 111.545 176.496L111.569 176.486L111.591 176.478L111.612 176.469ZM107.974 164.335L107.953 164.343C106.516 164.917 105.756 166.742 106.255 168.418C106.755 170.095 108.325 170.99 109.762 170.416L109.783 170.407L109.804 170.399C111.241 169.825 112.001 168 111.502 166.324C111.002 164.647 109.432 163.752 107.996 164.326L107.974 164.335ZM107.974 164.335C109.405 163.778 110.962 164.672 111.459 166.34C111.956 168.009 111.206 169.824 109.783 170.407C108.352 170.964 106.795 170.07 106.298 168.402C105.801 166.733 106.551 164.918 107.974 164.335Z" fill="#1B291F"/>
<path d="M107.132 172.822C106.485 173.08 106.143 173.901 106.368 174.655L106.534 175.213C106.638 175.561 106.832 175.863 107.089 176.076C108.282 177.07 109.789 177.197 111.569 176.486M111.636 176.459C111.62 176.448 111.604 176.436 111.588 176.423M111.636 176.459L111.591 176.478M111.636 176.459L111.612 176.469M111.569 176.486C111.576 176.465 111.582 176.445 111.588 176.423M111.569 176.486L111.591 176.478M111.569 176.486L111.545 176.496M107.953 164.343C106.516 164.917 105.756 166.742 106.255 168.418C106.755 170.095 108.325 170.99 109.762 170.416M107.953 164.343L107.974 164.335M107.953 164.343C107.96 164.34 107.967 164.338 107.974 164.335M109.762 170.416L109.783 170.407M109.762 170.416C109.769 170.413 109.776 170.41 109.783 170.407M111.588 176.423C111.582 176.419 111.576 176.414 111.57 176.409M111.588 176.423L111.57 176.409M113.156 170.416C113.339 170.343 113.527 170.323 113.708 170.349M111.545 176.496C111.551 176.475 111.557 176.454 111.563 176.433M111.545 176.496L111.591 176.478M111.612 176.469C111.595 176.458 111.579 176.446 111.563 176.433M111.612 176.469L111.591 176.478M111.612 176.469C112.232 176.221 112.773 175.917 113.231 175.557M107.996 164.326C109.432 163.752 111.002 164.647 111.502 166.324C112.001 168 111.241 169.825 109.804 170.399M107.996 164.326L107.974 164.335M107.996 164.326C107.988 164.329 107.981 164.332 107.974 164.335M109.804 170.399L109.783 170.407M109.804 170.399C109.797 170.402 109.79 170.404 109.783 170.407M111.563 176.433C111.566 176.425 111.568 176.417 111.57 176.409M111.563 176.433L111.57 176.409M111.57 176.409C111.664 176.061 111.666 175.675 111.555 175.302L110.742 172.569L110.697 172.438C110.58 172.125 110.392 171.869 110.164 171.687M111.57 176.409C111.311 176.202 111.103 175.9 110.992 175.527L110.179 172.794L110.143 172.659C110.07 172.329 110.081 171.994 110.164 171.687M110.164 171.687C110.158 171.682 110.152 171.678 110.146 171.673L110.164 171.687ZM110.164 171.687C110.166 171.679 110.168 171.671 110.17 171.663L110.164 171.687ZM107.974 164.335C106.551 164.918 105.801 166.733 106.298 168.402C106.795 170.07 108.352 170.964 109.783 170.407M107.974 164.335C109.405 163.778 110.962 164.672 111.459 166.34C111.956 168.009 111.206 169.824 109.783 170.407M109.129 172.026L110.086 172.25L109.426 173.084L109.129 172.026ZM111.159 171.215L110.525 172.074L111.488 172.26L111.159 171.215Z" stroke="#007830" stroke-width="0.5" stroke-linecap="round"/>
</svg>
