<svg width="368" height="306" viewBox="0 0 368 306" fill="none" xmlns="http://www.w3.org/2000/svg">
<path d="M216.097 211.842H215.525V208.021H216.097V211.842ZM220.501 211.493C220.501 211.725 220.385 211.842 220.152 211.842H218.626V208.021H220.142C220.368 208.021 220.481 208.138 220.481 208.373V209.356C220.481 209.487 220.441 209.588 220.359 209.659C220.348 209.669 220.249 209.732 220.062 209.847C220.255 209.966 220.358 210.031 220.369 210.043C220.457 210.119 220.501 210.224 220.501 210.357V211.493ZM219.913 209.427V208.502H219.197V209.623H219.637L219.913 209.427ZM219.927 211.361V210.272L219.646 210.086H219.197V211.361H219.927ZM224.947 211.842H224.446L223.531 209.437C223.555 209.554 223.567 209.646 223.567 209.713V211.842H223.011V208.021H223.511L224.427 210.377C224.402 210.26 224.39 210.168 224.39 210.101V208.021H224.947V211.842Z" fill="white"/>
<path d="M368 244.586C368 278.323 287.047 305.672 187.186 305.672C87.3253 305.672 6.37207 278.323 6.37207 244.586C6.37207 210.849 93.4339 218.93 193.295 218.93C293.156 218.93 368 210.849 368 244.586Z" fill="#ECF3FC"/>
<path d="M129.761 200.176L129.665 199.921L129.472 199.728L129.387 199.671L128.893 199.424L128.649 199.382H127.696H127.617H127.538L127.454 199.403L126.964 199.525L126.849 199.566L117.534 203.986L114.676 203.034L114.041 203.351L113.882 203.51L116.423 206.051H117.455L122.139 204.701V204.78L121.663 210.179V210.496L122.615 210.02L123.092 209.703L123.25 209.544L125.473 203.034L128.173 201.763L128.49 201.605L128.967 201.287L129.602 200.652L129.742 200.372C129.742 200.372 129.756 200.35 129.761 200.334C129.77 200.305 129.761 200.286 129.761 200.255M129.761 200.176C129.761 200.176 129.761 200.224 129.761 200.255M129.761 200.176V200.255M117.376 200.493L119.916 202.24L122.457 200.97L118.963 199.699H118.646L117.376 200.334V200.493Z" stroke="white" stroke-width="0.3" stroke-linecap="round"/>
<path d="M127.598 200.825C127.598 201.025 127.437 201.186 127.237 201.186C127.038 201.186 126.876 201.025 126.876 200.825C126.876 200.626 127.038 200.464 127.237 200.464C127.437 200.464 127.598 200.626 127.598 200.825Z" fill="white"/>
<path d="M126.155 201.547C126.155 201.747 125.993 201.908 125.794 201.908C125.594 201.908 125.433 201.747 125.433 201.547C125.433 201.348 125.594 201.186 125.794 201.186C125.993 201.186 126.155 201.348 126.155 201.547Z" fill="white"/>
<path d="M124.711 202.269C124.711 202.469 124.549 202.63 124.35 202.63C124.15 202.63 123.989 202.469 123.989 202.269C123.989 202.07 124.15 201.908 124.35 201.908C124.549 201.908 124.711 202.07 124.711 202.269Z" fill="white"/>
<path d="M123.097 203.033C123.097 203.233 122.936 203.394 122.736 203.394C122.537 203.394 122.375 203.233 122.375 203.033C122.375 202.834 122.537 202.672 122.736 202.672C122.936 202.672 123.097 202.834 123.097 203.033Z" fill="white"/>
<path d="M121.823 203.713C121.823 203.912 121.662 204.074 121.463 204.074C121.263 204.074 121.102 203.912 121.102 203.713C121.102 203.514 121.263 203.352 121.463 203.352C121.662 203.352 121.823 203.514 121.823 203.713Z" fill="white"/>
<path d="M140.312 220.78L120.876 213.839L112.546 211.063L101.44 211.348C90.6783 211.553 79.2266 215.227 79.2266 215.227L126.429 234.664C126.429 234.664 138.259 233.488 145.866 233.276C150.743 233.14 153.496 232.888 158.36 233.276C162.182 233.58 168.079 234.664 168.079 234.664C168.079 234.664 178.76 237.201 170.855 233.478C161.065 228.868 148.319 223.173 140.312 220.78Z" fill="#123457"/>
<path d="M169.471 224.944L194.461 237.439L218.062 252.71C218.062 252.71 224.585 240.812 230.557 234.662C237.055 227.97 241.834 225.3 249.993 220.779C257.217 216.777 261.606 215.091 269.43 212.449C275.287 210.472 284.701 208.284 284.701 208.284L223.615 186.071C223.615 186.071 211.413 190.418 204.179 194.401C196.67 198.536 192.833 201.55 186.131 206.896C181.625 210.49 178.713 212.186 175.024 216.614C172.522 219.618 169.471 224.944 169.471 224.944Z" fill="#123457"/>
<path d="M70.9007 231.888L125.045 255.489C125.045 255.489 132.557 252.602 137.54 251.324C144.448 249.554 148.482 249.145 155.588 248.548C164.232 247.822 169.151 247.895 177.801 248.548C185.447 249.125 197.237 251.324 197.237 251.324C197.237 251.324 186.488 246.319 179.189 244.383C172.814 242.692 169.099 242.188 162.529 241.606C154.969 240.936 150.66 241.009 143.093 241.606C135.984 242.167 125.045 244.383 125.045 244.383L93.1137 229.111C93.1137 229.111 85.4407 228.363 80.6189 229.111C76.7185 229.717 70.9007 231.888 70.9007 231.888Z" fill="#123457"/>
<path d="M62.5708 248.548V252.713L125.045 284.644C125.045 284.644 132.664 282.968 137.54 281.867C144.596 280.275 148.582 279.502 155.588 277.702C155.588 277.702 170.009 275.36 179.189 273.538C188.995 271.591 204.179 267.984 204.179 267.984L206.955 266.596H193.072L175.024 267.984C175.024 267.984 162.282 269.349 154.2 270.761C146.553 272.096 142.274 272.963 134.763 274.926C130.944 275.924 125.045 277.702 125.045 277.702L62.5708 248.548Z" fill="#123457"/>
<path d="M215.285 262.431C215.548 263.614 215.816 264.35 216.674 265.208C217.886 266.42 220.839 266.596 220.839 266.596C220.839 266.596 223.434 267.024 225.004 266.596C226.173 266.277 226.923 266.065 227.78 265.208C228.637 264.35 228.997 263.631 229.168 262.431C229.245 261.894 229.168 261.585 229.168 261.043C229.168 260.501 229.168 259.654 229.168 259.654H215.285C215.285 259.654 215.05 261.372 215.285 262.431Z" fill="#123457"/>
<path d="M68.1241 237.441V244.383L125.045 272.149C125.045 272.149 136.033 269.557 143.093 267.984C150.67 266.296 154.901 265.257 162.529 263.819C162.529 263.819 171.794 261.858 177.801 261.043C183.735 260.237 193.072 259.654 193.072 259.654C199.061 259.6 208.344 261.043 208.344 261.043C208.344 261.043 199.297 256.726 193.072 255.489C193.072 255.489 183.788 254.216 177.801 254.1C170.193 253.953 158.364 255.489 158.364 255.489C151.249 255.959 140.316 258.266 140.316 258.266L125.045 261.043L68.1241 237.441Z" fill="#123457"/>
<path d="M291.643 215.227L297.196 224.945C297.196 224.945 281.412 226.283 270.818 229.11C270.818 229.11 259.477 231.598 252.77 234.664C247.02 237.292 238.887 242.994 238.887 242.994C233.529 246.724 226.392 254.101 226.392 254.101L237.498 240.217C237.498 240.217 244.377 232.439 249.993 229.11C249.993 229.11 261.394 222.12 269.43 219.392C277.787 216.555 291.643 215.227 291.643 215.227Z" fill="#123457"/>
<path d="M305.526 245.771H291.643H276.371C276.371 245.771 267.011 246.203 261.1 247.16C256.165 247.958 248.605 249.936 248.605 249.936L233.333 256.878L240.275 251.324C240.275 251.324 247.536 246.323 252.77 244.383C258.004 242.443 261.992 240.746 268.041 238.829C273.934 236.96 277.276 235.997 283.313 234.664C289.753 233.241 299.973 231.887 299.973 231.887L301.802 235.842L305.526 245.771Z" fill="#123457"/>
<path d="M234.722 263.819C234.722 263.819 250.93 259.95 259.711 258.266C267.242 256.822 271.533 256.386 279.148 255.489C284.559 254.852 287.605 254.603 293.031 254.101C299.532 253.5 306.914 252.713 306.914 252.713L294.647 251.35L294.419 251.324C294.419 251.324 285.985 249.935 280.536 249.935C275.161 249.935 272.114 250.432 266.871 251.288L266.653 251.323C261.72 252.128 258.867 252.424 254.158 254.1C247.062 256.625 234.722 263.819 234.722 263.819Z" fill="#123457"/>
<path d="M34.0241 74.0606C37.8578 74.0606 40.9657 70.9528 40.9657 67.1191C40.9657 63.2853 37.8578 60.1775 34.0241 60.1775C30.1904 60.1775 27.0825 63.2853 27.0825 67.1191C27.0825 70.9528 30.1904 74.0606 34.0241 74.0606Z" fill="#B67EFF" stroke="#B67EFF" stroke-width="0.2"/>
<path d="M110.051 175.311L103.281 167.489L104.161 177.796L94.63 181.818L104.704 184.167L105.584 194.474L110.931 185.618L121.005 187.966L114.235 180.145L119.582 171.289L110.051 175.311Z" fill="#FFD200" stroke="#FFD200" stroke-width="0.2"/>
<path d="M184.3 75.9913L174.906 69.0736L178.44 80.1918L168.958 86.9884L180.624 87.0633L184.158 98.1815L187.834 87.1095L199.5 87.1844L190.106 80.2667L193.782 69.1946L184.3 75.9913Z" fill="#FFD200" stroke="#FFD200" stroke-width="0.15"/>
<path d="M208.551 174.479C212.385 174.479 215.493 171.371 215.493 167.537C215.493 163.704 212.385 160.596 208.551 160.596C204.717 160.596 201.609 163.704 201.609 167.537C201.609 171.371 204.717 174.479 208.551 174.479Z" fill="#F09F67" stroke="#F09F67" stroke-width="0.25"/>
<path d="M248.196 137.079C254.944 137.079 260.413 131.609 260.413 124.862C260.413 118.115 254.944 112.645 248.196 112.645C241.449 112.645 235.979 118.115 235.979 124.862C235.979 131.609 241.449 137.079 248.196 137.079Z" stroke="#88DDF6" stroke-width="3"/>
<path d="M36.5598 187.925C36.5598 194.012 41.4938 198.946 47.5802 198.946C53.3698 198.946 58.1167 194.481 58.5658 188.807C58.5888 188.516 58.6006 188.222 58.6006 187.925C58.6006 187.629 58.5888 187.335 58.5658 187.044C58.5423 186.746 58.5069 186.452 58.4603 186.162C58.2824 185.056 57.9403 184.006 57.4596 183.036L57.0585 182.299L56.6227 181.624L56.1137 180.95C54.0927 178.481 51.0202 176.905 47.5802 176.905C42.5459 176.905 38.3 180.281 36.9826 184.892L36.8423 185.446L36.8408 185.442L36.8189 185.539C36.7899 185.67 36.7632 185.803 36.7389 185.936C36.6213 186.581 36.5598 187.246 36.5598 187.925Z" fill="#FF0000" fill-opacity="0.53"/>
<path d="M39.25 170.151C37.4197 172.549 35.7566 173.718 35.1538 176.805C34.6653 179.307 35.9919 183.223 36.5789 184.778C36.7264 185.168 36.8272 185.41 36.8408 185.442C36.8834 185.257 36.9307 185.073 36.9826 184.892C38.3 180.281 42.5459 176.905 47.5802 176.905C51.0202 176.905 54.0927 178.481 56.1137 180.95C56.4608 181.374 56.7769 181.825 57.0585 182.299C57.2012 182.539 57.3351 182.784 57.4596 183.036L57.9703 180.95C58.151 180.507 57.3174 179.909 57.4553 179.365C57.7996 178.005 58.0664 177.184 57.9105 175.781C57.7133 174.007 56.8009 173.286 56.0899 171.686C55.5567 170.487 54.9252 169.937 54.7245 168.615C54.513 167.222 55.1797 165.032 55.1797 165.032C55.1797 165.032 52.6905 166.061 51.9937 167.591C51.5807 168.499 51.627 169.136 51.5386 170.151C51.4519 171.145 51.936 171.816 51.5386 172.71C51.0054 173.909 49.1446 173.33 49.1446 173.33C49.1446 173.33 47.8616 172.851 47.8975 171.686C47.937 170.407 48.7969 170.295 49.2629 169.127C49.7775 167.837 49.7984 166.954 49.7181 165.544C49.5957 163.395 49.0414 162.151 47.8975 160.425C46.9184 158.947 44.7116 157.354 44.7116 157.354C44.7116 157.354 45.5748 159.482 45.6219 160.937C45.6612 162.152 45.5165 162.857 45.1667 164.008C44.1493 167.354 41.298 167.467 39.25 170.151Z" fill="#FF0000" fill-opacity="0.53"/>
<path d="M47.5802 187.925L48.1375 188.26L48.2302 188.105V187.925H47.5802ZM43.0555 194.203C42.8708 194.511 42.9706 194.91 43.2784 195.095C43.5862 195.28 43.9855 195.18 44.1702 194.872L43.0555 194.203ZM48.2302 180.432C48.2302 180.073 47.9392 179.782 47.5802 179.782C47.2212 179.782 46.9302 180.073 46.9302 180.432H48.2302ZM58.4603 186.162L59.102 186.059L59.102 186.059L58.4603 186.162ZM59.4822 190.155L58.9446 190.521C59.105 190.757 59.4006 190.861 59.6733 190.777C59.9461 190.693 60.1322 190.441 60.1322 190.155H59.4822ZM48.2302 197.805C48.2302 197.446 47.9392 197.155 47.5802 197.155C47.2212 197.155 46.9302 197.446 46.9302 197.805H48.2302ZM57.4596 187.275C57.1006 187.275 56.8096 187.566 56.8096 187.925C56.8096 188.284 57.1006 188.575 57.4596 188.575V187.275ZM46.9302 178.253C46.9302 178.612 47.2212 178.903 47.5802 178.903C47.9392 178.903 48.2302 178.612 48.2302 178.253H46.9302ZM37.9082 188.575C38.2671 188.575 38.5582 188.284 38.5582 187.925C38.5582 187.566 38.2671 187.275 37.9082 187.275V188.575ZM59.4822 185.669H60.1322C60.1322 185.383 59.9447 185.13 59.6706 185.047C59.3964 184.964 59.1003 185.071 58.9414 185.309L59.4822 185.669ZM36.8423 185.446L36.2434 185.698L36.9965 187.485L37.4724 185.605L36.8423 185.446ZM35.1538 176.805L34.5158 176.681L34.5158 176.681L35.1538 176.805ZM39.25 170.151L38.7333 169.756L38.7333 169.756L39.25 170.151ZM45.1667 164.008L45.7886 164.197L45.7886 164.197L45.1667 164.008ZM45.6219 160.937L46.2715 160.916L46.2715 160.916L45.6219 160.937ZM44.7116 157.354L45.0921 156.827L43.2601 155.504L44.1092 157.598L44.7116 157.354ZM47.8975 160.425L47.3557 160.784L47.8975 160.425ZM49.7181 165.544L50.367 165.507L50.367 165.507L49.7181 165.544ZM49.2629 169.127L48.6592 168.886L48.6592 168.886L49.2629 169.127ZM47.8975 171.686L47.2478 171.666L47.8975 171.686ZM49.1446 173.33L48.9174 173.939L48.9342 173.945L48.9513 173.95L49.1446 173.33ZM51.5386 172.71L52.1325 172.974L51.5386 172.71ZM51.5386 170.151L50.8911 170.094L50.8911 170.094L51.5386 170.151ZM51.9937 167.591L52.5853 167.861L52.5853 167.861L51.9937 167.591ZM55.1797 165.032L55.8015 165.221L56.2018 163.906L54.9314 164.431L55.1797 165.032ZM54.7245 168.615L54.0819 168.713L54.0819 168.713L54.7245 168.615ZM56.0899 171.686L56.6839 171.422L56.6839 171.422L56.0899 171.686ZM57.9105 175.781L58.5565 175.71L58.5565 175.71L57.9105 175.781ZM57.4553 179.365L56.8252 179.205L56.8252 179.205L57.4553 179.365ZM56.6227 181.624L57.1685 181.271L57.1623 181.262L57.1557 181.252L56.6227 181.624ZM36.7389 185.936L37.3784 186.052L37.3784 186.052L36.7389 185.936ZM56.1137 180.95L56.6167 180.539L56.1137 180.95ZM57.9703 180.95L57.3683 180.705L57.3503 180.749L57.339 180.796L57.9703 180.95ZM47.5802 198.296C41.8528 198.296 37.2098 193.653 37.2098 187.925H35.9098C35.9098 194.371 41.1348 199.596 47.5802 199.596V198.296ZM47.0228 187.591L43.0555 194.203L44.1702 194.872L48.1375 188.26L47.0228 187.591ZM48.2302 187.925V180.432H46.9302V187.925H48.2302ZM57.9506 187.925C57.9506 188.205 57.9395 188.482 57.9178 188.756L59.2138 188.858C59.2381 188.55 59.2506 188.239 59.2506 187.925H57.9506ZM57.9178 188.756C57.4952 194.095 53.028 198.296 47.5802 198.296V199.596C53.7116 199.596 58.7381 194.868 59.2138 188.858L57.9178 188.756ZM60.0198 189.79L59.1034 188.442L58.0282 189.172L58.9446 190.521L60.0198 189.79ZM48.2302 198.946V197.805H46.9302V198.946H48.2302ZM58.6006 187.275H57.4596V188.575H58.6006V187.275ZM46.9302 176.905V178.253H48.2302V176.905H46.9302ZM36.5598 188.575H37.9082V187.275H36.5598V188.575ZM57.8185 186.265C57.8624 186.538 57.8957 186.815 57.9178 187.095L59.2138 186.993C59.1889 186.678 59.1514 186.366 59.102 186.059L57.8185 186.265ZM57.9178 187.095C57.9395 187.369 57.9506 187.646 57.9506 187.925H59.2506C59.2506 187.612 59.2381 187.3 59.2138 186.993L57.9178 187.095ZM59.1066 187.404L60.023 186.03L58.9414 185.309L58.025 186.683L59.1066 187.404ZM35.7917 176.93C36.3559 174.041 37.8314 173.081 39.7667 170.545L38.7333 169.756C37.008 172.017 35.1573 173.395 34.5158 176.681L35.7917 176.93ZM39.7667 170.545C40.7139 169.304 41.8189 168.68 42.9723 167.857C44.1195 167.039 45.2196 166.069 45.7886 164.197L44.5448 163.819C44.0964 165.294 43.2621 166.053 42.2173 166.799C41.1787 167.54 39.8341 168.314 38.7333 169.756L39.7667 170.545ZM45.7886 164.197C46.1519 163.002 46.3138 162.223 46.2715 160.916L44.9722 160.958C45.0085 162.081 44.8811 162.713 44.5448 163.819L45.7886 164.197ZM46.2715 160.916C46.245 160.097 45.9946 159.131 45.7698 158.407C45.655 158.037 45.5419 157.715 45.4573 157.485C45.415 157.37 45.3797 157.277 45.3547 157.213C45.3422 157.18 45.3323 157.155 45.3254 157.138C45.3219 157.129 45.3192 157.122 45.3173 157.118C45.3163 157.115 45.3156 157.113 45.315 157.112C45.3147 157.111 45.3145 157.111 45.3143 157.11C45.3142 157.11 45.3142 157.11 45.3141 157.11C45.3141 157.11 45.314 157.109 45.314 157.109C45.314 157.109 45.314 157.109 44.7116 157.354C44.1092 157.598 44.1092 157.598 44.1092 157.598C44.1092 157.598 44.1092 157.598 44.1092 157.598C44.1092 157.598 44.1092 157.598 44.1092 157.598C44.1092 157.598 44.1093 157.598 44.1094 157.598C44.1097 157.599 44.1102 157.6 44.1109 157.602C44.1122 157.605 44.1143 157.61 44.1172 157.618C44.1229 157.632 44.1316 157.654 44.1428 157.683C44.1652 157.741 44.1977 157.826 44.2371 157.933C44.3159 158.148 44.4215 158.448 44.5283 158.792C44.7469 159.496 44.9516 160.323 44.9722 160.958L46.2715 160.916ZM44.7116 157.354C44.3311 157.88 44.331 157.88 44.331 157.88C44.331 157.88 44.3309 157.88 44.3309 157.88C44.3309 157.88 44.3309 157.88 44.331 157.88C44.3311 157.881 44.3314 157.881 44.3317 157.881C44.3325 157.882 44.3337 157.882 44.3355 157.884C44.3391 157.886 44.3446 157.89 44.3522 157.896C44.3672 157.907 44.3899 157.924 44.4196 157.946C44.4789 157.99 44.5656 158.056 44.6731 158.139C44.8885 158.306 45.1857 158.544 45.5121 158.827C46.177 159.402 46.9173 160.122 47.3557 160.784L48.4394 160.066C47.8987 159.25 47.0459 158.434 46.3626 157.843C46.015 157.543 45.6993 157.29 45.4703 157.112C45.3556 157.023 45.2623 156.953 45.1971 156.904C45.1645 156.88 45.1388 156.861 45.1211 156.848C45.1122 156.841 45.1053 156.836 45.1004 156.833C45.098 156.831 45.096 156.829 45.0947 156.828C45.094 156.828 45.0934 156.827 45.093 156.827C45.0928 156.827 45.0926 156.827 45.0924 156.827C45.0924 156.827 45.0923 156.827 45.0922 156.827C45.0922 156.827 45.0921 156.827 44.7116 157.354ZM47.3557 160.784C48.4551 162.443 48.9551 163.577 49.0691 165.581L50.367 165.507C50.2364 163.213 49.6276 161.859 48.4394 160.066L47.3557 160.784ZM49.0691 165.581C49.1472 166.951 49.1227 167.724 48.6592 168.886L49.8666 169.368C50.4323 167.95 50.4496 166.957 50.367 165.507L49.0691 165.581ZM48.6592 168.886C48.4747 169.348 48.2371 169.569 47.9208 169.949C47.5869 170.35 47.2735 170.833 47.2478 171.666L48.5472 171.706C48.561 171.261 48.6973 171.048 48.9197 170.781C49.1598 170.493 49.5851 170.073 49.8666 169.368L48.6592 168.886ZM47.2478 171.666C47.2215 172.521 47.6878 173.106 48.0899 173.443C48.2924 173.613 48.493 173.734 48.6417 173.812C48.7169 173.852 48.781 173.881 48.8284 173.902C48.8521 173.913 48.8718 173.921 48.8869 173.927C48.8944 173.93 48.9007 173.932 48.9059 173.934C48.9084 173.935 48.9107 173.936 48.9126 173.937C48.9136 173.937 48.9144 173.938 48.9152 173.938C48.9156 173.938 48.916 173.938 48.9164 173.938C48.9166 173.939 48.9168 173.939 48.9169 173.939C48.9172 173.939 48.9174 173.939 49.1446 173.33C49.3718 172.721 49.372 172.721 49.3722 172.721C49.3723 172.721 49.3725 172.721 49.3727 172.721C49.3729 172.721 49.3732 172.721 49.3735 172.721C49.3739 172.722 49.3744 172.722 49.3747 172.722C49.3754 172.722 49.3758 172.722 49.3759 172.722C49.3762 172.722 49.3754 172.722 49.3735 172.721C49.3697 172.72 49.3619 172.717 49.3507 172.712C49.3281 172.702 49.2922 172.685 49.2476 172.662C49.157 172.614 49.0391 172.542 48.9253 172.447C48.6948 172.254 48.5377 172.016 48.5472 171.706L47.2478 171.666ZM49.1446 173.33C48.9513 173.95 48.9515 173.95 48.9517 173.951C48.9518 173.951 48.952 173.951 48.9522 173.951C48.9525 173.951 48.9528 173.951 48.9532 173.951C48.954 173.951 48.9549 173.952 48.9559 173.952C48.9579 173.952 48.9604 173.953 48.9633 173.954C48.9691 173.956 48.9768 173.958 48.9861 173.961C49.0048 173.966 49.0303 173.973 49.0619 173.981C49.125 173.998 49.213 174.019 49.3194 174.04C49.5295 174.081 49.8246 174.123 50.1478 174.12C50.7608 174.114 51.7069 173.932 52.1325 172.974L50.9446 172.446C50.8371 172.688 50.5862 172.816 50.1355 172.82C49.9268 172.822 49.7234 172.794 49.5679 172.764C49.4916 172.749 49.43 172.734 49.3892 172.723C49.3689 172.718 49.3539 172.714 49.3451 172.711C49.3407 172.71 49.3378 172.709 49.3366 172.709C49.3359 172.709 49.3357 172.709 49.336 172.709C49.3361 172.709 49.3363 172.709 49.3366 172.709C49.3368 172.709 49.337 172.709 49.3372 172.709C49.3373 172.709 49.3375 172.709 49.3375 172.709C49.3377 172.709 49.3379 172.709 49.1446 173.33ZM52.1325 172.974C52.4059 172.359 52.3652 171.82 52.2979 171.372C52.2283 170.907 52.1515 170.605 52.1861 170.207L50.8911 170.094C50.839 170.692 50.9609 171.222 51.0123 171.564C51.0661 171.923 51.0687 172.167 50.9446 172.446L52.1325 172.974ZM52.1861 170.207C52.2818 169.11 52.2322 168.636 52.5853 167.861L51.4021 167.322C50.9292 168.361 50.9723 169.163 50.8911 170.094L52.1861 170.207ZM52.5853 167.861C52.8505 167.278 53.505 166.723 54.1954 166.287C54.5259 166.078 54.8378 165.913 55.0672 165.799C55.1814 165.743 55.2742 165.7 55.3372 165.672C55.3687 165.658 55.3927 165.648 55.4082 165.641C55.4159 165.638 55.4215 165.635 55.4249 165.634C55.4265 165.633 55.4276 165.633 55.4282 165.632C55.4284 165.632 55.4285 165.632 55.4285 165.632C55.4285 165.632 55.4284 165.632 55.4283 165.632C55.4283 165.632 55.4282 165.632 55.4282 165.632C55.4281 165.632 55.4279 165.633 55.1797 165.032C54.9314 164.431 54.9313 164.431 54.9311 164.431C54.9311 164.431 54.9309 164.431 54.9308 164.431C54.9305 164.431 54.9303 164.432 54.9299 164.432C54.9293 164.432 54.9285 164.432 54.9276 164.433C54.9257 164.433 54.9232 164.434 54.9201 164.436C54.914 164.438 54.9055 164.442 54.8949 164.447C54.8736 164.456 54.8434 164.469 54.8055 164.486C54.7297 164.52 54.6225 164.569 54.4925 164.633C54.2334 164.761 53.8794 164.949 53.5006 165.188C52.7723 165.649 51.8338 166.374 51.4021 167.322L52.5853 167.861ZM55.1797 165.032C54.5578 164.842 54.5578 164.843 54.5578 164.843C54.5578 164.843 54.5577 164.843 54.5577 164.843C54.5577 164.843 54.5576 164.843 54.5575 164.844C54.5574 164.844 54.5572 164.845 54.557 164.845C54.5565 164.847 54.5559 164.849 54.5551 164.851C54.5536 164.857 54.5515 164.864 54.5488 164.873C54.5434 164.891 54.5358 164.917 54.5263 164.951C54.5073 165.017 54.4808 165.113 54.4498 165.232C54.3881 165.469 54.308 165.8 54.2347 166.177C54.0923 166.91 53.9584 167.899 54.0819 168.713L55.3672 168.517C55.2792 167.938 55.3728 167.135 55.5108 166.425C55.5778 166.081 55.6512 165.777 55.7078 165.56C55.736 165.451 55.76 165.365 55.7766 165.307C55.7849 165.277 55.7914 165.255 55.7957 165.241C55.7978 165.233 55.7994 165.228 55.8004 165.225C55.8009 165.223 55.8012 165.222 55.8014 165.221C55.8015 165.221 55.8016 165.221 55.8016 165.221C55.8016 165.221 55.8016 165.221 55.8016 165.221C55.8016 165.221 55.8015 165.221 55.8015 165.221C55.8015 165.221 55.8015 165.221 55.1797 165.032ZM54.0819 168.713C54.1974 169.474 54.4407 170.016 54.7133 170.51C54.9937 171.019 55.2436 171.383 55.496 171.95L56.6839 171.422C56.403 170.79 56.0706 170.28 55.8517 169.883C55.6252 169.472 55.4523 169.078 55.3672 168.517L54.0819 168.713ZM55.496 171.95C55.8678 172.787 56.3217 173.45 56.6275 173.989C56.9424 174.544 57.1787 175.082 57.2644 175.853L58.5565 175.71C58.445 174.707 58.1266 173.997 57.7582 173.347C57.3808 172.682 57.0231 172.185 56.6839 171.422L55.496 171.95ZM57.2644 175.853C57.405 177.118 57.1758 177.82 56.8252 179.205L58.0854 179.524C58.4233 178.19 58.7277 177.25 58.5565 175.71L57.2644 175.853ZM58.8322 185.669V190.155H60.1322V185.669H58.8322ZM37.6076 185.07C38.8474 180.731 42.8438 177.555 47.5802 177.555V176.255C42.248 176.255 37.7526 179.83 36.3576 184.713L37.6076 185.07ZM37.4724 185.605L37.6127 185.052L36.3525 184.732L36.2122 185.286L37.4724 185.605ZM37.2098 187.925C37.2098 187.285 37.2677 186.659 37.3784 186.052L36.0995 185.819C35.9748 186.503 35.9098 187.207 35.9098 187.925H37.2098ZM37.187 184.548C36.8988 183.785 36.4312 182.447 36.0963 181C35.7567 179.533 35.5749 178.04 35.7917 176.93L34.5158 176.681C34.2442 178.072 34.4814 179.788 34.8298 181.293C35.1828 182.819 35.672 184.216 35.9708 185.007L37.187 184.548ZM37.3784 186.052C37.4012 185.927 37.4263 185.803 37.4536 185.679L36.1842 185.399C36.1535 185.538 36.1252 185.678 36.0995 185.819L37.3784 186.052ZM35.959 184.973L36.199 185.734L37.4388 185.343L37.1988 184.582L35.959 184.973ZM47.5802 177.555C50.8171 177.555 53.7079 179.037 55.6106 181.362L56.6167 180.539C54.4775 177.925 51.2232 176.255 47.5802 176.255V177.555ZM55.5949 181.342L56.1039 182.016L57.1414 181.233L56.6324 180.559L55.5949 181.342ZM55.6106 181.362C55.9374 181.761 56.2349 182.185 56.4999 182.631L57.6172 181.966C57.319 181.465 56.9843 180.988 56.6167 180.539L55.6106 181.362ZM57.6044 181.946L57.1685 181.271L56.0768 181.977L56.5127 182.651L57.6044 181.946ZM56.8252 179.205C56.7438 179.527 56.8172 179.816 56.8997 180.022C56.9801 180.222 57.0972 180.41 57.1759 180.537C57.2697 180.689 57.3178 180.77 57.3429 180.833C57.3662 180.891 57.3217 180.819 57.3683 180.705L58.5723 181.195C58.7093 180.859 58.6283 180.546 58.5504 180.351C58.4744 180.16 58.3566 179.975 58.2818 179.854C58.1919 179.708 58.1378 179.616 58.1063 179.538C58.077 179.465 58.0979 179.475 58.0854 179.524L56.8252 179.205ZM35.9708 185.007C36.1215 185.406 36.2254 185.655 36.2415 185.694L37.44 185.19C37.429 185.164 37.3312 184.93 37.187 184.548L35.9708 185.007ZM37.4742 185.588C37.5143 185.414 37.5588 185.241 37.6076 185.07L36.3576 184.713C36.3026 184.906 36.2525 185.1 36.2073 185.296L37.4742 185.588ZM55.6106 181.362C55.7775 181.566 55.9371 181.778 56.0897 181.996L57.1557 181.252C56.9856 181.009 56.8061 180.77 56.6167 180.539L55.6106 181.362ZM37.4536 185.679C37.4604 185.648 37.4672 185.618 37.4742 185.588L36.2073 185.296C36.1995 185.33 36.1918 185.364 36.1842 185.399L37.4536 185.679ZM37.4413 185.193L37.4397 185.189L36.2418 185.694L36.2434 185.698L37.4413 185.193ZM56.4999 182.631C56.6341 182.857 56.7601 183.088 56.8772 183.324L58.042 182.747C57.9101 182.481 57.7683 182.22 57.6172 181.966L56.4999 182.631ZM56.8772 183.324C57.3294 184.237 57.6512 185.225 57.8185 186.265L59.102 186.059C58.9137 184.888 58.5512 183.774 58.042 182.747L56.8772 183.324ZM56.4876 182.609L56.8887 183.346L58.0306 182.725L57.6295 181.988L56.4876 182.609ZM58.091 183.19L58.6017 181.105L57.339 180.796L56.8283 182.881L58.091 183.19ZM36.2067 185.299L36.1849 185.396L37.453 185.682L37.4748 185.585L36.2067 185.299Z" fill="white"/>
<path fill-rule="evenodd" clip-rule="evenodd" d="M241.273 34.6883H263.264C266.3 34.6883 268.762 37.1497 268.762 40.186V48.9824C268.762 52.0187 266.3 54.4801 263.264 54.4801H255.017L242.922 61.0774L246.771 54.4801H241.273C238.237 54.4801 235.775 52.0187 235.775 48.9824V40.186C235.775 37.1497 238.237 34.6883 241.273 34.6883Z" fill="#8236E6" fill-opacity="0.44"/>
<path d="M244.245 39.0865H259.192M244.245 44.2406H259.192M244.245 49.3947H259.192M241.273 54.4801C238.237 54.4801 235.775 52.0187 235.775 48.9824V40.186C235.775 37.1497 238.237 34.6883 241.273 34.6883H263.264C266.3 34.6883 268.762 37.1497 268.762 40.186V48.9824C268.762 52.0187 266.3 54.4801 263.264 54.4801H255.017L242.922 61.0774L246.771 54.4801H241.273Z" stroke="white" stroke-linecap="round"/>
<path d="M321.936 76.3441L322.059 76.4593L331.015 86.0637C331.433 86.512 331.471 87.2319 331.129 87.7296L331.015 87.8718L322.06 97.4793C321.387 98.201 320.293 97.7376 320.174 96.7542L320.163 96.5754V92.0232L319.65 92.0736C316.065 92.4915 312.629 94.297 309.321 97.5199C308.545 98.2755 307.345 97.5612 307.473 96.42C308.466 87.5346 312.622 82.6371 319.716 82.0228L320.163 81.99V77.3633C320.163 76.3211 321.219 75.7597 321.936 76.3441Z" fill="#4285F4" fill-opacity="0.56"/>
<path d="M83.7403 23.229H74.8903C74.0017 23.229 73.2812 23.9494 73.2812 24.8381V40.929C73.2812 41.8177 74.0017 42.5381 74.8903 42.5381H83.7403C84.629 42.5381 85.3494 41.8177 85.3494 40.929V40.1245V25.6426V24.8381C85.3494 23.9494 84.629 23.229 83.7403 23.229Z" fill="#88DDF6"/>
<path d="M106.268 26.4472V25.2404C106.268 24.3517 105.547 23.6313 104.659 23.6313H95.1045H91.7858C90.8971 23.6313 90.1767 24.3517 90.1767 25.2404V26.4472C90.1767 27.3359 90.8971 28.0563 91.7858 28.0563H104.659C105.547 28.0563 106.268 27.3359 106.268 26.4472Z" fill="#88DDF6"/>
<path d="M104.659 28.0563H91.7858C90.8971 28.0563 90.1767 28.7767 90.1767 29.6654V30.8722C90.1767 31.7609 90.8971 32.4813 91.7858 32.4813H104.659C105.547 32.4813 106.268 31.7609 106.268 30.8722V29.6654C106.268 28.7767 105.547 28.0563 104.659 28.0563Z" fill="#88DDF6"/>
<path d="M104.659 32.4813H91.7858C90.8971 32.4813 90.1767 33.2017 90.1767 34.0904V35.2972C90.1767 36.1859 90.8971 36.9063 91.7858 36.9063H102.647H104.659C105.547 36.9063 106.268 36.1859 106.268 35.2972V34.0904C106.268 33.2017 105.547 32.4813 104.659 32.4813Z" fill="#88DDF6"/>
<path d="M102.647 36.9063H91.7858H89.7744C88.8857 36.9063 88.1653 37.6267 88.1653 38.5154V39.7222C88.1653 40.6109 88.8857 41.3313 89.7744 41.3313H102.647C103.536 41.3313 104.256 40.6109 104.256 39.7222V38.5154C104.256 37.6267 103.536 36.9063 102.647 36.9063Z" fill="#88DDF6"/>
<path d="M85.3494 25.6426V40.1245L86.5562 40.929L87.7631 41.3313H89.3722H89.7744C88.8857 41.3313 88.1653 40.6109 88.1653 39.7222V38.5154C88.1653 37.6267 88.8857 36.9063 89.7744 36.9063H91.7858C90.8971 36.9063 90.1767 36.1859 90.1767 35.2972V34.0904C90.1767 33.2017 90.8971 32.4813 91.7858 32.4813C90.8971 32.4813 90.1767 31.7609 90.1767 30.8722V29.6654C90.1767 28.7767 90.8971 28.0563 91.7858 28.0563C90.8971 28.0563 90.1767 27.3359 90.1767 26.4472V25.2404C90.1767 24.3517 90.8971 23.6313 91.7858 23.6313H95.1045L95.4062 22.4245L95.8085 19.6086V17.9995L95.4062 16.3904L94.6017 15.1836L93.7971 14.379L92.5903 13.9767H91.3835L90.9812 14.379V17.1949L90.579 19.2063L88.9699 22.4245L88.1653 23.6313L86.9585 24.8381L85.3494 25.6426Z" fill="#88DDF6"/>
<path d="M85.3494 40.929V24.8381M85.3494 40.929C85.3494 41.8177 84.629 42.5381 83.7403 42.5381H74.8903C74.0017 42.5381 73.2812 41.8177 73.2812 40.929V24.8381C73.2812 23.9494 74.0017 23.229 74.8903 23.229H83.7403C84.629 23.229 85.3494 23.9494 85.3494 24.8381M85.3494 40.929V40.1245M85.3494 24.8381V25.6426M85.3494 25.6426L86.9585 24.8381L88.1653 23.6313L88.9699 22.4245L90.579 19.2063L90.9812 17.1949V14.379L91.3835 13.9767H92.5903L93.7971 14.379L94.6017 15.1836L95.4062 16.3904L95.8085 17.9995V19.6086L95.4062 22.4245L95.1045 23.6313M85.3494 25.6426V40.1245M91.7858 28.0563H104.659M91.7858 28.0563C90.8971 28.0563 90.1767 27.3359 90.1767 26.4472V25.2404C90.1767 24.3517 90.8971 23.6313 91.7858 23.6313H95.1045M91.7858 28.0563C90.8971 28.0563 90.1767 28.7767 90.1767 29.6654V30.8722C90.1767 31.7609 90.8971 32.4813 91.7858 32.4813M104.659 28.0563C105.547 28.0563 106.268 27.3359 106.268 26.4472V25.2404C106.268 24.3517 105.547 23.6313 104.659 23.6313H95.1045M104.659 28.0563C105.547 28.0563 106.268 28.7767 106.268 29.6654V30.8722C106.268 31.7609 105.547 32.4813 104.659 32.4813M91.7858 32.4813H104.659M91.7858 32.4813C90.8971 32.4813 90.1767 33.2017 90.1767 34.0904V35.2972C90.1767 36.1859 90.8971 36.9063 91.7858 36.9063M104.659 32.4813C105.547 32.4813 106.268 33.2017 106.268 34.0904V35.2972C106.268 36.1859 105.547 36.9063 104.659 36.9063M91.7858 36.9063H104.659M91.7858 36.9063H102.647M91.7858 36.9063H89.7744M104.659 36.9063H102.647M89.7744 41.3313H102.647C103.536 41.3313 104.256 40.6109 104.256 39.7222V38.5154C104.256 37.6267 103.536 36.9063 102.647 36.9063M89.7744 41.3313C88.8857 41.3313 88.1653 40.6109 88.1653 39.7222V38.5154C88.1653 37.6267 88.8857 36.9063 89.7744 36.9063M89.7744 41.3313H89.3722H87.7631L86.5562 40.929L85.3494 40.1245M102.647 36.9063H89.7744" stroke="white"/>
<path d="M313.483 162.652H321.022C321.779 162.652 322.393 162.038 322.393 161.281V147.574C322.393 146.817 321.779 146.204 321.022 146.204H313.483C312.726 146.204 312.113 146.817 312.113 147.574V148.26V160.596V161.281C312.113 162.038 312.726 162.652 313.483 162.652Z" fill="#538DFD" fill-opacity="0.9"/>
<path d="M294.294 159.911V160.939C294.294 161.696 294.907 162.309 295.664 162.309H303.803H306.63C307.387 162.309 308.001 161.696 308.001 160.939V159.911C308.001 159.154 307.387 158.54 306.63 158.54H295.664C294.907 158.54 294.294 159.154 294.294 159.911Z" fill="#538DFD" fill-opacity="0.9"/>
<path d="M295.664 158.54H306.63C307.387 158.54 308.001 157.926 308.001 157.169V156.141C308.001 155.384 307.387 154.771 306.63 154.771H295.664C294.907 154.771 294.294 155.384 294.294 156.141V157.169C294.294 157.926 294.907 158.54 295.664 158.54Z" fill="#538DFD" fill-opacity="0.9"/>
<path d="M295.664 154.771H306.63C307.387 154.771 308.001 154.157 308.001 153.4V152.372C308.001 151.615 307.387 151.001 306.63 151.001H297.378H295.664C294.907 151.001 294.294 151.615 294.294 152.372V153.4C294.294 154.157 294.907 154.771 295.664 154.771Z" fill="#538DFD" fill-opacity="0.9"/>
<path d="M297.378 151.001H306.63H308.343C309.1 151.001 309.714 150.387 309.714 149.63V148.602C309.714 147.845 309.1 147.232 308.343 147.232H297.378C296.621 147.232 296.007 147.845 296.007 148.602V149.63C296.007 150.387 296.621 151.001 297.378 151.001Z" fill="#538DFD" fill-opacity="0.9"/>
<path d="M312.113 160.596V148.26L311.085 147.574L310.057 147.232H308.686H308.343C309.1 147.232 309.714 147.845 309.714 148.602V149.63C309.714 150.387 309.1 151.001 308.343 151.001H306.63C307.387 151.001 308.001 151.615 308.001 152.372V153.4C308.001 154.157 307.387 154.771 306.63 154.771C307.387 154.771 308.001 155.384 308.001 156.141V157.169C308.001 157.926 307.387 158.54 306.63 158.54C307.387 158.54 308.001 159.154 308.001 159.911V160.939C308.001 161.696 307.387 162.309 306.63 162.309H303.803L303.546 163.338L303.203 165.736V167.107L303.546 168.478L304.231 169.506L304.917 170.191L305.945 170.534H306.973L307.315 170.191V167.792L307.658 166.079L309.029 163.338L309.714 162.309L310.742 161.281L312.113 160.596Z" fill="#538DFD" fill-opacity="0.9"/>
<path d="M312.113 147.574V161.281M312.113 147.574C312.113 146.817 312.726 146.204 313.483 146.204H321.022C321.779 146.204 322.393 146.817 322.393 147.574V161.281C322.393 162.038 321.779 162.652 321.022 162.652H313.483C312.726 162.652 312.113 162.038 312.113 161.281M312.113 147.574V148.26M312.113 161.281V160.596M312.113 160.596L310.742 161.281L309.714 162.309L309.029 163.338L307.658 166.079L307.315 167.792V170.191L306.973 170.534H305.945L304.917 170.191L304.231 169.506L303.546 168.478L303.203 167.107V165.736L303.546 163.338L303.803 162.309M312.113 160.596V148.26M306.63 158.54H295.664M306.63 158.54C307.387 158.54 308.001 159.154 308.001 159.911V160.939C308.001 161.696 307.387 162.309 306.63 162.309H303.803M306.63 158.54C307.387 158.54 308.001 157.926 308.001 157.169V156.141C308.001 155.384 307.387 154.771 306.63 154.771M295.664 158.54C294.907 158.54 294.294 159.154 294.294 159.911V160.939C294.294 161.696 294.907 162.309 295.664 162.309H303.803M295.664 158.54C294.907 158.54 294.294 157.926 294.294 157.169V156.141C294.294 155.384 294.907 154.771 295.664 154.771M306.63 154.771H295.664M306.63 154.771C307.387 154.771 308.001 154.157 308.001 153.4V152.372C308.001 151.615 307.387 151.001 306.63 151.001M295.664 154.771C294.907 154.771 294.294 154.157 294.294 153.4V152.372C294.294 151.615 294.907 151.001 295.664 151.001M306.63 151.001H295.664M306.63 151.001H297.378M306.63 151.001H308.343M295.664 151.001H297.378M308.343 147.232H297.378C296.621 147.232 296.007 147.845 296.007 148.602V149.63C296.007 150.387 296.621 151.001 297.378 151.001M308.343 147.232C309.1 147.232 309.714 147.845 309.714 148.602V149.63C309.714 150.387 309.1 151.001 308.343 151.001M308.343 147.232H308.686H310.057L311.085 147.574L312.113 148.26M297.378 151.001H308.343" stroke="white"/>
<path d="M173.933 153.204C171.293 156.598 165.183 160.54 165.183 160.54C165.183 160.54 157.404 156.948 154.246 153.204C151.59 150.055 149.173 147.847 149.871 144.035C150.519 140.496 152.235 137.36 156.433 136.7C160.188 136.109 165.183 140.367 165.183 140.367C165.183 140.367 168.666 136.654 171.745 136.7C176.016 136.762 177.66 140.496 178.308 144.035C179.006 147.847 176.446 149.974 173.933 153.204Z" fill="#DC2727" fill-opacity="0.99"/>
<g opacity="0.25">
<path d="M12.7101 102.174L17.5654 101.461L22.4207 100.748L24.7159 93.6305L13.6867 99.7575L1.86583 97.9499L6.50618 103.085L12.7101 102.174Z" fill="#FF0000"/>
<path d="M3.53906 108.733L13.6867 107.17L12.7101 102.174L6.50618 103.085L0.302209 103.996L0 110.085L3.53906 108.733Z" fill="#FFD200" fill-opacity="0.7"/>
<path d="M3.53906 108.733L7.31539 128.678L17.5654 127.012L13.6867 107.17L3.53906 108.733Z" fill="#FBBC04"/>
<path d="M18.5382 106.422L13.6867 107.17L17.5654 127.012L22.4207 126.223L18.5382 106.422Z" fill="#FF0000"/>
<path d="M31.8615 124.689L27.8154 104.993L18.5382 106.422L22.4207 126.223L31.8615 124.689Z" fill="#FBBC04"/>
<path d="M18.5382 106.422L27.8154 104.993H31.8615L29.1641 99.7575L22.4207 100.748L17.5654 101.461L18.5382 106.422Z" fill="#FFD200" fill-opacity="0.7"/>
<path d="M13.6867 107.17L18.5382 106.422L17.5654 101.461L12.7101 102.174L13.6867 107.17Z" fill="#FF0000"/>
</g>
<path fill-rule="evenodd" clip-rule="evenodd" d="M95.4698 83.6567H114.816C118.272 83.6567 121.074 86.4582 121.074 89.9141V99.0405C121.074 102.496 118.272 105.298 114.816 105.298H95.4698C92.014 105.298 89.2124 102.496 89.2124 99.0405V89.9141C89.2124 86.4582 92.0139 83.6567 95.4698 83.6567ZM100.008 100.71C99.9974 100.863 100.157 100.971 100.296 100.903L111.662 95.3148C111.8 95.2469 111.813 95.0553 111.686 94.9694L101.176 87.8932C101.048 87.8071 100.875 87.8918 100.865 88.0456L100.008 100.71Z" fill="#FF776F"/>
<path d="M189.535 9.10189H182.931V22.1575L186.491 22.4675L189.535 22.5986V9.10189Z" fill="#3AB34C"/>
<path d="M178.729 9.10189V21.8488L182.931 22.1575V9.10189H178.729Z" fill="#FFD200"/>
<path d="M172.126 9.10189V21.8488H178.729V9.10189H172.126Z" fill="#3AB34C"/>
<path d="M170.625 4.60299V9.10189H172.126H178.729V4.60299H174.428H170.625Z" fill="#06E07F"/>
<path d="M191.335 9.10189V4.60299H187.392H182.931V9.10189H189.535H191.335Z" fill="#06E07F"/>
<path d="M178.729 4.60299H182.931H187.392L188.735 0L180.564 2.97936L173.135 0L174.428 4.60299H178.729Z" fill="#FFD200"/>
<path d="M182.931 4.60299H178.729V9.10189H182.931V4.60299Z" fill="#FFD200"/>
</svg>
