<svg width="349" height="247" viewBox="0 0 349 247" fill="none" xmlns="http://www.w3.org/2000/svg">
<path d="M348.831 188.149C348.831 220.652 270.84 247 174.633 247C78.4264 247 0.435303 220.652 0.435303 188.149C0.435303 155.647 84.3115 163.432 180.518 163.432C276.725 163.432 348.831 155.647 348.831 188.149Z" fill="#ECF3FC"/>
<path d="M161.824 6.37093C160.574 8.07039 159.764 10.4907 159.764 10.4907V11.9617L160.941 15.1985L162.118 17.5526L163.295 14.61C163.295 14.61 163.849 12.7086 164.766 11.9617C165.445 11.4093 166.826 11.079 166.826 11.079L172.123 12.256C172.123 12.256 174.644 12.0755 176.242 12.256C178.125 12.4686 180.95 13.433 180.95 13.433H183.304C183.304 13.433 185.689 12.4407 186.247 11.079C186.683 10.0157 186.436 9.26994 186.247 8.13645C185.909 6.10879 183.893 3.42839 183.893 3.42839C183.893 3.42839 182.255 1.75466 180.95 1.07437C178.293 -0.310891 176.29 0.290844 173.3 0.485858L173.172 0.494138C171.628 0.594614 170.706 0.654655 169.18 1.07437C167.492 1.53868 166.495 1.8376 165.061 2.83989C163.527 3.91109 162.932 4.86391 161.824 6.37093Z" fill="black"/>
<path d="M144.463 189.985C144.463 189.985 143.031 194.375 144.463 196.459C145.402 197.824 147.994 198.813 147.994 198.813H157.41C157.41 198.813 161.147 198.103 160.941 196.459C160.838 195.636 159.764 194.693 159.764 194.693L155.056 192.339L153.29 189.985H144.463Z" fill="black"/>
<path d="M178.596 189.985C178.596 189.985 176.242 198.813 178.596 198.813H194.486C194.486 198.813 199.798 198.423 199.194 196.459C198.907 195.527 197.428 194.693 197.428 194.693L192.132 192.339L189.778 189.985H178.596Z" fill="black"/>
<path d="M149.759 84.9366L153.29 88.7619L156.233 92.2929L159.445 95.5054L159.764 95.8239L161.824 97.5896L166.826 95.8242L171.534 94.6469L171.002 94.067L165.061 87.5849L160.941 81.6998L156.233 76.4032L152.702 72.2839L151.525 71.6952L150.936 68.1641L152.113 61.1021L154.467 55.217L155.056 53.6476L156.233 50.5089V29.715L154.467 30.4997C154.467 30.4997 152.541 30.9704 151.525 31.6767C149.744 32.914 148.582 36.3848 148.582 36.3848L143.286 44.6239L141.52 50.5089L139.166 61.1021L138.578 65.8101V71.1067L140.932 75.8147L146.228 81.1113L149.759 84.9366Z" fill="#F09F67"/>
<path d="M183.304 78.7573L180.95 85.8193L179.185 92.44L183.305 93.7704L187.424 94.6469L187.986 94.067L190.955 87.5849C190.955 87.5849 194.035 80.9392 195.074 76.4032C196.055 72.1234 196.251 65.2216 196.251 65.2216C196.251 65.2216 196.638 57.241 195.663 52.2745C194.823 47.9955 192.132 41.6813 192.132 41.6813C192.132 41.6813 192.115 37.833 190.955 35.7963C189.746 33.6732 186.247 31.6767 186.247 31.6767L182.127 30.4997L182.585 46.9779L183.893 55.217C183.893 55.217 184.824 59.8547 185.07 62.8676L185.092 63.1383C185.359 66.4095 185.519 68.3696 185.07 71.6952C184.689 74.5124 183.304 78.7573 183.304 78.7573Z" fill="#F09F67"/>
<path d="M163.884 26.9687C163.884 26.9687 163.453 31.1484 165.061 32.8537C167.268 35.1948 171.385 35.4397 173.3 32.8537C174.21 31.6235 174.25 29.0511 174.25 29.0511L174.477 25.2031L176.242 24.0261C176.242 24.0261 178.495 23.2809 179.185 21.6721L180.95 17.5526C181.64 15.9438 180.95 13.433 180.95 13.433C180.95 13.433 178.125 12.4686 176.242 12.256C174.644 12.0755 172.123 12.256 172.123 12.256L166.826 11.079C166.826 11.079 165.445 11.4093 164.766 11.9617C163.849 12.7086 163.295 14.61 163.295 14.61L162.118 17.5526L163.884 20.4951L164.472 23.4376L163.884 26.9687Z" fill="#F7CEB5"/>
<path d="M162.118 46.1549C162.118 47.2595 163.013 48.1549 164.118 48.1549H175.419C176.524 48.1549 177.419 47.2595 177.419 46.1549V29.0511L174.477 28.1457L174.25 29.0511C174.25 29.0511 174.21 31.6235 173.3 32.8537C171.385 35.4397 167.268 35.1948 165.061 32.8537C163.453 31.1484 163.884 26.9687 163.884 26.9687L161.824 27.5572L162.118 30.4997V46.1549Z" fill="#F09F67"/>
<path d="M165.061 101.709C165.061 101.709 166.137 103.823 167.415 104.063C168.631 104.292 170.357 102.886 170.357 102.886L172.711 102.298C172.711 102.298 173.927 102.184 174.477 101.709C174.861 101.377 175.081 100.992 175.181 100.571C175.312 100.02 175.24 99.407 175.065 98.7667C174.93 98.2709 174.477 97.5897 174.477 97.5897L173.3 96.4127L171.534 94.6469L166.826 95.8242L161.824 97.5896L163.884 99.3552L164.827 101.243L165.061 101.709Z" fill="#F7CEB5"/>
<path d="M102.679 151.144C105.929 151.144 108.564 148.509 108.564 145.259C108.564 144.266 108.318 143.331 107.885 142.511C106.937 140.72 105.071 139.477 102.926 139.38L102.237 139.388C99.1839 139.603 96.7938 142.149 96.7938 145.259C96.7938 148.509 99.4286 151.144 102.679 151.144Z" fill="#7E563C"/>
<path fill-rule="evenodd" clip-rule="evenodd" d="M82.0816 172.33H117.98C117.98 172.33 124.83 151.828 117.98 142.316C116.098 139.703 113.272 137.441 113.272 137.441C111.631 139.662 109.076 140.751 107.885 142.511C108.318 143.331 108.564 144.266 108.564 145.259C108.564 148.509 105.929 151.144 102.679 151.144C99.4286 151.144 96.7938 148.509 96.7938 145.259C96.7938 142.149 99.1839 139.603 102.237 139.388C102.375 139.379 102.515 139.374 102.656 139.374H102.679L106.798 134.077H94.4402C94.4402 134.077 93.0019 133.996 92.0862 134.077C86.6832 134.555 83.6139 137.617 80.9046 142.316C77.344 148.492 81.4931 160.56 81.4931 160.56L81.7873 166.445L82.0816 172.33ZM96.4402 169.387C95.3356 169.387 94.4402 168.492 94.4402 167.387V162.56C94.4402 161.455 95.3356 160.56 96.4402 160.56H107.741C108.846 160.56 109.741 161.455 109.741 162.56V167.387C109.741 168.492 108.846 169.387 107.741 169.387H96.4402Z" fill="#4E6EFC"/>
<path d="M96.4402 160.56C95.3356 160.56 94.4402 161.455 94.4402 162.56V167.387C94.4402 168.492 95.3356 169.387 96.4402 169.387H107.741C108.846 169.387 109.741 168.492 109.741 167.387V162.56C109.741 161.455 108.846 160.56 107.741 160.56H96.4402Z" fill="#D9D9D9"/>
<path d="M117.98 172.33H82.0816L80.9046 187.631H120.335L117.98 172.33Z" fill="#FFC081"/>
<path d="M120.335 187.631H80.9046V193.782C80.9046 194.61 81.5761 195.282 82.4046 195.282H100.62H118.835C119.663 195.282 120.335 194.61 120.335 193.782V187.631Z" fill="#FBBC04"/>
<path fill-rule="evenodd" clip-rule="evenodd" d="M53.8333 16.9643V97.5897H126.22L127.397 16.9643H53.8333ZM58.5413 91.7046V22.2608H83.8471H87.9666V91.7046H83.8471H58.5413ZM92.0862 91.7046V22.2608H121.512H124.454L123.277 91.7046H120.335H92.0862Z" fill="#BBD2F6"/>
<path d="M87.9666 91.7046V22.2608H83.8471V56.9827V91.7046H87.9666Z" fill="#DDE5F6"/>
<path d="M58.5413 22.2608V91.7046H83.8471V56.9827V22.2608H58.5413Z" fill="white"/>
<path d="M92.0862 22.2608V91.7046H120.335L121.512 22.2608H92.0862Z" fill="white"/>
<path d="M123.277 91.7046L124.454 22.2608H121.512L120.335 91.7046H123.277Z" fill="#D9E6F8"/>
<path d="M180.362 104.063C181.936 104.163 184.29 102.298 183.893 102.103C184.034 102.167 184.167 102.232 184.29 102.298C184.29 102.298 184.08 98.1189 182.127 97.5897C181.462 97.4094 181.027 97.4094 180.362 97.5897L178.008 98.1782C178.008 98.1782 176.756 98.2528 176.242 98.7667C175.801 99.2074 175.955 99.9195 176.274 100.589C176.7 101.481 177.419 102.298 177.419 102.298C177.419 102.298 179.025 103.978 180.362 104.063Z" fill="#F7CEB5"/>
<path d="M215.673 10.4907L214.815 145.162L220.969 159.076V134.077V128.192V77.5804V75.2264V72.2839V16.9643H296.886V72.2839V75.2264V187.631L293.944 187.586L286.293 187.427V191.751H278.643V187.269L242.513 186.454L245.098 189.985H248.394C249.499 189.985 250.394 190.881 250.394 191.985V192.928H251.337C252.442 192.928 253.337 193.823 253.337 194.928V195.282H302.772V10.4907H215.673Z" fill="#D9E6F8"/>
<path d="M311.011 195.282L312.188 10.4907H302.772V195.282H311.011Z" fill="#B3D1FB"/>
<path d="M296.886 187.631V75.2264H220.969V77.5804H293.944V92.2931V128.192V134.077V184.689V187.586L296.886 187.631Z" fill="#D9E6F8" fill-opacity="0.7"/>
<path d="M262.753 34.0309V68.1643H270.992V34.0309H262.753Z" fill="#D9E6F8"/>
<path d="M273.935 68.1643V34.0309H270.992V68.1643H273.935Z" fill="#123457"/>
<path d="M242.155 34.0309L251.571 68.1643H260.399L250.394 34.0309H242.155Z" fill="#D9E6F8"/>
<path d="M262.753 68.1643L253.337 34.0309H250.394L260.399 68.1643H262.753Z" fill="#123457"/>
<path d="M232.151 34.0309V68.1643H239.212V34.0309H232.151Z" fill="#D9E6F8"/>
<path d="M240.39 68.1643V34.0309H239.212V68.1643H240.39Z" fill="#123457"/>
<path fill-rule="evenodd" clip-rule="evenodd" d="M220.969 16.9643V72.2839H296.886V16.9643H220.969ZM224.5 68.1643V19.3183H293.944V68.1643H273.935H270.992H262.753H260.399H251.571H242.155H240.39H239.212H232.151H224.5Z" fill="#E4EDFA"/>
<path d="M296.886 72.2839H220.969V75.2264H296.886V72.2839Z" fill="#D9E6F8"/>
<path d="M274.523 104.063V128.192H280.408V104.063H274.523Z" fill="#D9E6F8"/>
<path d="M282.762 128.192V104.063H280.408V128.192H282.762Z" fill="#123457"/>
<path d="M293.944 128.192V92.2931H291.59V128.192H293.944Z" fill="#123457"/>
<path d="M293.944 134.077V128.192H291.59H282.762H280.408H274.523H268.05V134.077H293.944Z" fill="#D9E6F8"/>
<path d="M220.969 128.192V134.077H251.571V128.192H220.969Z" fill="#D9E6F8"/>
<path d="M242.155 179.392C241.959 181.123 242.155 183.853 242.155 183.853L278.643 184.442C278.643 184.442 278.95 181.34 278.643 179.392C278.177 176.441 276.835 175.094 275.7 172.33C273.821 167.75 273.365 164.905 270.992 160.56C268.867 156.667 264.519 151.23 264.519 151.23L259.222 151.119C259.222 151.119 255.436 154.912 253.337 157.617C250.051 161.853 248.638 164.576 246.275 169.387C244.412 173.18 242.633 175.194 242.155 179.392Z" fill="white"/>
<path d="M278.643 187.269V184.442L242.155 183.853V185.02V186.187L242.513 186.454L278.643 187.269Z" fill="#D9E6F8"/>
<path d="M293.944 187.586V184.689L286.293 184.565V187.427L293.944 187.586Z" fill="#D9E6F8"/>
<path d="M221.792 189.985C220.688 189.985 219.792 190.881 219.792 191.985V192.928H250.394V191.985C250.394 190.881 249.499 189.985 248.394 189.985H245.098H242.155H235.093H224.5H221.792Z" fill="#817C7C"/>
<path d="M219.438 192.928C218.334 192.928 217.438 193.823 217.438 194.928V195.282H235.388H253.337V194.928C253.337 193.823 252.442 192.928 251.337 192.928H250.394H219.792H219.438Z" fill="#FFD200" fill-opacity="0.41"/>
<path d="M214.731 158.351L214.496 195.282H217.438V194.928C217.438 193.823 218.334 192.928 219.438 192.928H219.792V191.985C219.792 190.881 220.688 189.985 221.792 189.985H224.5L225.677 186.527L220.969 186.454V183.512V172.933L219.792 169.387C219.792 169.387 217.711 164.771 214.731 158.351Z" fill="#D9E6F8"/>
<path d="M220.969 183.512V186.454L225.677 186.527L224.5 183.569L220.969 183.512Z" fill="#D9E6F8"/>
<path d="M220.969 172.933V183.512L224.5 183.569L220.969 172.933Z" fill="white"/>
<path d="M149.171 98.7667C152.558 97.4493 157.999 95.8242 157.999 95.8242C157.999 95.8242 158.55 95.6945 159.445 95.5054L156.233 92.2929L153.29 88.7619L149.759 84.9366L149.171 87.5849L149.171 98.7667Z" fill="#123457"/>
<path d="M188.013 97.5905L187.986 94.067L187.424 94.6469L186.308 96.8787C186.839 97.0866 187.408 97.3212 187.986 97.5788C187.995 97.5827 188.004 97.5866 188.013 97.5905Z" fill="#1B3DB9"/>
<path d="M183.893 102.103C184.29 102.298 181.936 104.163 180.362 104.063C179.025 103.978 177.419 102.298 177.419 102.298C177.419 102.298 176.7 101.481 176.274 100.589C175.873 100.568 175.513 100.564 175.181 100.571C175.081 100.992 174.861 101.377 174.477 101.709C173.927 102.184 172.711 102.298 172.711 102.298L170.357 102.886C170.357 102.886 168.631 104.292 167.415 104.063C166.137 103.823 165.061 101.709 165.061 101.709L164.827 101.243C161.44 101.332 159.665 102.456 155.591 103.255C153.541 103.657 151.383 104.445 149.171 105.523V127.603L150.348 145.259L144.463 189.985H153.29L159.764 163.502L165.061 143.493L167.415 127.603L169.769 109.948L173.3 122.895L176.242 139.962L178.596 149.378V189.985H189.778V189.397V171.153L189.189 141.727L188.601 117.599L187.426 105.848C186.715 105.081 186.374 104.388 185.939 103.765C185.562 103.224 185.113 102.736 184.29 102.298C184.167 102.232 184.034 102.167 183.893 102.103Z" fill="#123457"/>
<path d="M248.629 150.899C248.629 150.899 245.774 155.719 243.921 158.794C241.419 162.947 239.222 164.876 237.447 169.387C235.978 173.123 235.093 179.392 235.093 179.392V182.11L237.996 183.786L242.155 186.187V185.02V183.853C242.155 183.853 241.959 181.123 242.155 179.392C242.633 175.194 244.412 173.18 246.275 169.387C248.638 164.576 250.051 161.853 253.337 157.617C255.436 154.912 259.222 151.119 259.222 151.119L248.629 150.899Z" fill="black"/>
<path d="M264.519 151.23C264.519 151.23 268.867 156.667 270.992 160.56C273.365 164.905 273.821 167.75 275.7 172.33C276.835 175.094 278.177 176.441 278.643 179.392C278.95 181.34 278.643 184.442 278.643 184.442V187.269V191.751H286.293V187.427V184.565C286.293 184.565 286.546 181.396 286.293 179.392C285.764 175.2 283.918 173.236 282.174 169.387C280.265 165.175 279.186 162.802 276.877 158.794C275.167 155.825 272.169 151.389 272.169 151.389L264.519 151.23Z" fill="black"/>
<path d="M231.885 139.962C231.057 139.962 230.385 140.634 230.385 141.462V144.936C230.385 145.764 231.057 146.436 231.885 146.436H232.151H288.647H290.09C290.918 146.436 291.59 145.764 291.59 144.936V141.462C291.59 140.634 290.918 139.962 290.09 139.962H268.05H251.571H231.885Z" fill="#7E563C"/>
<path d="M232.151 146.436V149.086C232.151 149.902 232.803 150.569 233.62 150.586L248.629 150.899L259.222 151.119L264.519 151.23L272.169 151.389L287.223 150.627C288.021 150.587 288.647 149.928 288.647 149.129V146.436H232.151Z" fill="#7E563C" fill-opacity="0.5"/>
<path d="M163.166 65.2715C162.595 65.2443 162.118 65.6994 162.118 66.2704V70.1532C162.118 70.6869 162.537 71.1266 163.07 71.152L173.429 71.6453C173.999 71.6724 174.477 71.2174 174.477 70.6464V66.7636C174.477 66.2298 174.057 65.7901 173.524 65.7648L163.166 65.2715Z" fill="white"/>
<path fill-rule="evenodd" clip-rule="evenodd" d="M163.07 71.152C162.537 71.1266 162.118 70.6869 162.118 70.1532V66.2704C162.118 65.6994 162.595 65.2443 163.166 65.2715L173.524 65.7648C174.057 65.7901 174.477 66.2298 174.477 66.7636V70.6464C174.477 71.2174 173.999 71.6724 173.429 71.6453L163.07 71.152Z" fill="white"/>
<path fill-rule="evenodd" clip-rule="evenodd" d="M179.506 91.2361L180.95 85.8193L183.304 78.7573V71.1067L182.127 59.3365L182.716 51.6859L182.585 46.9779L182.127 30.4997L177.419 29.0511V46.1549C177.419 47.2595 176.524 48.1549 175.419 48.1549H164.118C163.013 48.1549 162.118 47.2595 162.118 46.1549V30.4997L161.824 27.5572L159.764 28.1457L156.233 29.715V50.5089L155.056 53.6476L152.702 72.2839L156.233 76.4032L160.941 81.6998L165.061 87.5849L167.648 90.4072L171.002 94.067C173.298 94.1354 175.927 94.4774 178.164 94.8417L178.753 94.9371L178.862 94.3037L179.185 92.44L179.506 91.2361ZM163.07 71.152C162.537 71.1266 162.118 70.6869 162.118 70.1532V66.2704C162.118 65.6994 162.595 65.2443 163.166 65.2715L173.524 65.7648C174.057 65.7901 174.477 66.2298 174.477 66.7636V70.6464C174.477 71.2174 173.999 71.6724 173.429 71.6453L163.07 71.152Z" fill="#123457"/>
<path d="M183.305 93.7704L179.185 92.44L178.862 94.3037L178.753 94.9371L179.341 95.0412C181.649 95.4472 183.305 95.8242 183.305 95.8242C183.305 95.8242 184.613 96.2155 186.308 96.8787L187.424 94.6469L183.305 93.7704Z" fill="#F7CEB5"/>
<path d="M149.171 98.7667C132.976 105.067 116.219 122.754 106.798 134.077L102.679 139.374C102.762 139.374 102.844 139.376 102.926 139.38C105.071 139.477 106.937 140.72 107.885 142.511C109.076 140.751 111.631 139.662 113.272 137.441C114.259 136.36 133.127 113.338 149.171 105.523C151.383 104.445 153.541 103.657 155.591 103.255C159.665 102.456 161.44 101.332 164.827 101.243L163.884 99.3552L161.824 97.5896L159.764 95.8239L159.445 95.5054C158.55 95.6945 157.999 95.8242 157.999 95.8242C157.999 95.8242 152.558 97.4493 149.171 98.7667Z" fill="#FF9933"/>
<path fill-rule="evenodd" clip-rule="evenodd" d="M224.5 68.1643V19.3183H293.944V68.1643H273.935V34.0309H270.992H262.753V68.1643L253.337 34.0309H250.394H242.155H240.39H239.212H232.151V68.1643H224.5ZM242.155 68.1643V34.0309L251.571 68.1643H242.155Z" fill="white"/>
<path d="M240.39 34.0309V68.1643H242.155V34.0309H240.39Z" fill="#123457"/>
<path d="M201.548 131.135C205.797 139.323 210.977 150.267 214.731 158.351C217.711 164.771 219.792 169.387 219.792 169.387L220.969 172.933L224.5 183.569L225.677 186.527L224.5 189.985H235.093H242.155H245.098L242.513 186.454L242.155 186.187L237.996 183.786L235.093 182.11L230.385 179.392L222.146 161.737L220.969 159.076L214.815 145.162L208.61 131.135L199.194 110.537C199.194 110.537 196.022 103.041 192.132 99.9437C191.012 99.0513 189.483 98.2468 188.013 97.5905L187.986 97.5788C187.408 97.3212 186.839 97.0866 186.308 96.8787C184.613 96.2155 183.305 95.8242 183.305 95.8242C183.305 95.8242 181.649 95.4472 179.341 95.0412C178.965 94.975 178.571 94.908 178.164 94.8417C175.927 94.4774 173.298 94.1354 171.002 94.067L171.534 94.6469L173.3 96.4127L174.477 97.5897C174.477 97.5897 174.93 98.2709 175.065 98.7667C175.24 99.407 175.312 100.02 175.181 100.571C175.513 100.564 175.873 100.568 176.274 100.589C175.955 99.9195 175.801 99.2074 176.242 98.7667C176.756 98.2528 178.008 98.1782 178.008 98.1782L180.362 97.5897C181.027 97.4094 181.462 97.4094 182.127 97.5897C184.08 98.1189 184.29 102.298 184.29 102.298C185.113 102.736 185.562 103.224 185.939 103.765L187.424 105.256L188.013 105.848L189.346 107.296L191.544 110.094C196.491 116.296 197.326 122.997 201.548 131.135Z" fill="#FF9933"/>
<path d="M187.426 105.848L187.424 105.256L185.939 103.765C186.374 104.388 186.715 105.081 187.426 105.848Z" fill="#1B3DB9"/>
<path d="M282.762 104.063V128.192H291.59V92.2931H282.762V104.063Z" fill="#D9E6F8"/>
<path d="M251.571 128.192V134.077H268.05V128.192H251.571Z" fill="#D9E6F8"/>
<path d="M42.8601 136.111L44.1576 142.339L46.7526 145.713L48.8286 137.928C48.8286 137.928 49.9822 132.907 51.9426 130.402C52.826 129.273 54.5377 127.807 54.5377 127.807L55.3162 122.617L57.1327 111.458V104.192C57.1327 104.192 56.9171 100.801 55.3162 100.3C53.9691 99.8782 51.9426 101.597 51.9426 101.597L48.8286 106.268L46.7526 114.053L45.4551 112.496C45.4551 112.496 43.9196 111.196 42.8601 111.458C41.6618 111.755 41.0554 114.053 41.0554 114.053V131.7L42.8601 136.111Z" fill="#9FC5A4"/>
<path fill-rule="evenodd" clip-rule="evenodd" d="M48.0496 166.732C47.559 168.359 46.5707 171.663 46.5707 171.663H48.0496L49.3471 165.694C49.3471 165.694 50.6603 161.755 51.4231 159.207C52.4171 155.886 53.7587 150.643 53.7587 150.643L55.0562 146.491L56.3537 141.561L58.4297 135.852L62.3222 127.807L64.9172 123.136L64.6577 122.358L62.3222 125.472L58.9487 131.959L56.3537 138.187C56.3537 138.187 54.8501 143.904 53.7587 147.529C52.7148 150.997 51.9476 152.884 50.9041 156.352C49.6927 160.378 49.2637 162.707 48.0496 166.732Z" fill="#2E6C6F"/>
<path d="M41.0554 171.663H39.4861C39.4861 171.663 39.0396 165.512 38.967 162.061C38.9265 160.136 39.0542 159.054 38.967 157.131C38.7958 153.351 38.2231 151.272 37.6695 147.529C36.8579 142.041 36.6341 138.91 35.334 133.516C34.7925 131.27 33.777 127.807 33.777 127.807C33.777 127.807 33.524 127.197 33.777 127.029C33.9456 126.916 34.296 127.029 34.296 127.029C34.296 127.029 35.6656 130.952 36.372 133.516C37.85 138.882 38.1856 142.019 38.967 147.529C39.1778 149.016 39.3493 150.228 39.4964 151.399C39.5842 151.21 40.2282 149.876 41.0554 149.605C41.9388 149.316 42.6827 149.508 43.3787 150.124C44.0984 150.762 44.1576 152.46 44.1576 152.46C44.1576 152.46 44.6104 154.061 45.4551 154.276C46.7651 154.611 46.2332 150.903 46.2332 150.903L46.7526 145.713L44.1576 142.339L42.8601 136.111L41.0554 131.7L40.5246 130.402C40.5246 130.402 38.8097 126.105 36.3725 125.212C34.7549 124.619 33.5188 124.476 31.961 125.212C30.3294 125.982 29.1065 128.845 29.1065 128.845L28.0685 134.814C28.0685 134.814 29.1677 139.915 28.0685 142.858C27.6242 144.048 26.8533 144.49 26.5115 145.713C26.1023 147.177 26.5115 149.605 26.5115 149.605L28.0685 156.871L30.923 166.732L33.2585 171.663H42.6006L40.5246 161.542L40.134 159.103C40.1665 160.013 40.1912 160.899 40.2646 162.061C40.4823 165.514 41.0554 171.663 41.0554 171.663Z" fill="#4A9B7D"/>
<path d="M29.1065 171.663C29.1065 171.663 28.0811 178.276 29.1065 182.302C29.7896 184.985 30.5218 186.426 31.961 188.79C33.0148 190.521 35.075 192.942 35.075 192.942H50.3856C50.3856 192.942 52.3349 190.537 53.2402 188.79C54.4639 186.428 54.8162 184.915 55.3162 182.302C56.0971 178.221 55.3162 171.663 55.3162 171.663H51.9426H42.6006H33.2585H29.1065Z" fill="#80635D"/>
<path d="M39.4861 171.663H41.0554C41.0554 171.663 40.4823 165.514 40.2646 162.061C40.1912 160.899 40.1665 160.013 40.134 159.103L39.4861 155.055V151.422C39.4861 151.422 39.4896 151.414 39.4964 151.399C39.3493 150.228 39.1778 149.016 38.967 147.529C38.1856 142.019 37.85 138.882 36.372 133.516C35.6656 130.952 34.296 127.029 34.296 127.029C34.296 127.029 33.9456 126.916 33.777 127.029C33.524 127.197 33.777 127.807 33.777 127.807C33.777 127.807 34.7925 131.27 35.334 133.516C36.6341 138.91 36.8579 142.041 37.6695 147.529C38.2231 151.272 38.7958 153.351 38.967 157.131C39.0542 159.054 38.9265 160.136 38.967 162.061C39.0396 165.512 39.4861 171.663 39.4861 171.663Z" fill="#3AB34C" fill-opacity="0.25"/>
<path d="M46.5707 171.663C46.5707 171.663 47.559 168.359 48.0496 166.732C49.2637 162.707 49.6927 160.378 50.9041 156.352C51.9476 152.884 52.7148 150.997 53.7587 147.529C54.8501 143.904 56.3537 138.187 56.3537 138.187L58.9487 131.959L62.3222 125.472L64.6577 122.358L64.9172 123.136L62.3222 127.807L58.4297 135.852L56.3537 141.561L55.0562 146.491L53.7587 150.643C53.7587 150.643 52.4171 155.886 51.4231 159.207C50.6603 161.755 49.3471 165.694 49.3471 165.694L48.0496 171.663H46.5707Z" fill="#06E07F" fill-opacity="0.25"/>
<path fill-rule="evenodd" clip-rule="evenodd" d="M48.8286 137.928L46.7526 145.713L46.2332 150.903C46.2332 150.903 46.7651 154.611 45.4551 154.276C44.6104 154.061 44.1576 152.46 44.1576 152.46C44.1576 152.46 44.0984 150.762 43.3787 150.124C42.6827 149.508 41.9388 149.316 41.0554 149.605C40.2282 149.876 39.5842 151.21 39.4964 151.399C39.4896 151.414 39.4861 151.422 39.4861 151.422V155.055L40.134 159.103L40.5246 161.542L42.6006 171.663H51.9426L57.1327 164.656L62.5822 156.871C62.5822 156.871 67.2651 152.599 66.2153 149.605C65.8525 148.571 65.6629 147.708 64.6582 147.27C63.9152 146.945 63.0687 147.918 62.5822 147.27C62.2174 146.783 62.5822 145.713 62.5822 145.713L64.6582 139.485L66.2153 130.402C66.2153 130.402 67.673 127.295 67.5128 125.212C67.3899 123.614 67.5549 122.199 66.2153 121.319C65.0291 120.541 62.5822 121.319 62.5822 121.319L57.1327 125.212L54.5377 127.807C54.5377 127.807 52.826 129.273 51.9426 130.402C49.9822 132.907 48.8286 137.928 48.8286 137.928ZM48.0496 166.732C47.559 168.359 46.5707 171.663 46.5707 171.663H48.0496L49.3471 165.694C49.3471 165.694 50.6603 161.755 51.4231 159.207C52.4171 155.886 53.7587 150.643 53.7587 150.643L55.0562 146.491L56.3537 141.561L58.4297 135.852L62.3222 127.807L64.9172 123.136L64.6577 122.358L62.3222 125.472L58.9487 131.959L56.3537 138.187C56.3537 138.187 54.8501 143.904 53.7587 147.529C52.7148 150.997 51.9476 152.884 50.9041 156.352C49.6927 160.378 49.2637 162.707 48.0496 166.732Z" fill="#346969"/>
<path fill-rule="evenodd" clip-rule="evenodd" d="M269.873 125.656H269.012H266.702H265.803H264.889H261.265H258.848C258.848 125.656 258.252 129.505 258.848 131.848C259.246 133.409 259.672 134.248 260.51 135.624C261.123 136.631 262.322 138.04 262.322 138.04H271.233C271.233 138.04 272.367 136.641 272.894 135.624C273.035 135.351 273.156 135.098 273.262 134.856C273.262 134.856 274.7 135.101 275.566 134.856C276.159 134.688 276.49 134.529 276.976 134.151C277.76 133.541 278.053 132.971 278.387 132.036C278.85 130.739 278.387 128.51 278.387 128.51C278.387 128.51 278.117 127.535 277.682 127.099C277.066 126.484 276.547 126.197 275.566 126.394C274.94 126.52 274.402 126.652 274.221 126.977C274.165 126.187 274.102 125.656 274.102 125.656H272.139H269.873ZM274.295 128.51C274.323 129.619 274.291 130.859 274.102 131.848C273.926 132.766 273.782 133.45 273.539 134.151C273.539 134.151 274.815 134.4 275.566 134.151C276.725 133.766 277.224 132.98 277.682 131.848C278.17 130.64 277.682 128.51 277.682 128.51C277.682 128.51 276.7 126.817 275.566 127.1C274.631 127.333 274.295 128.51 274.295 128.51Z" fill="#538DFD" fill-opacity="0.9"/>
<path d="M272.139 125.656H274.102C274.102 125.656 274.165 126.187 274.221 126.977C274.402 126.652 274.94 126.52 275.566 126.394C276.547 126.197 277.066 126.484 277.682 127.099C278.117 127.535 278.387 128.51 278.387 128.51C278.387 128.51 278.85 130.739 278.387 132.036C278.053 132.971 277.76 133.541 276.976 134.151C276.49 134.529 276.159 134.688 275.566 134.856C274.7 135.101 273.262 134.856 273.262 134.856C273.156 135.098 273.035 135.351 272.894 135.624C272.367 136.641 271.233 138.04 271.233 138.04H262.322C262.322 138.04 261.123 136.631 260.51 135.624C259.672 134.248 259.246 133.409 258.848 131.848C258.252 129.505 258.848 125.656 258.848 125.656H261.265M272.139 125.656H266.702M272.139 125.656H269.873H269.012H266.702M261.265 125.656H266.702M261.265 125.656H264.889H265.803H266.702M274.102 131.848C274.291 130.859 274.323 129.619 274.295 128.51C274.295 128.51 274.631 127.333 275.566 127.1C276.7 126.817 277.682 128.51 277.682 128.51C277.682 128.51 278.17 130.64 277.682 131.848C277.224 132.98 276.725 133.766 275.566 134.151C274.815 134.4 273.539 134.151 273.539 134.151C273.782 133.45 273.926 132.766 274.102 131.848Z" stroke="#538DFD" stroke-width="2"/>
</svg>
