<svg width="19" height="20" viewBox="0 0 19 20" fill="none" xmlns="http://www.w3.org/2000/svg">
<path d="M14.82 2.12817C13.3021 1.10035 11.4712 0.5 9.5 0.5C5.90579 0.5 2.77777 2.49599 1.16392 5.44L3.61132 7.34C4.62515 5.09912 6.8805 3.54 9.5 3.54C10.6001 3.54 11.636 3.815 12.5427 4.3L14.82 2.12817Z" fill="#EA4335"/>
<path d="M1.16392 5.44C0.421922 6.79355 0 8.3475 0 10C0 11.4999 0.347601 12.9186 0.966641 14.18L3.45386 12.28C3.18637 11.571 3.04 10.8026 3.04 10C3.04 9.05174 3.24431 8.1512 3.61132 7.34L1.16392 5.44Z" fill="#FBBC05"/>
<path d="M0.966641 14.18C2.51302 17.3309 5.7532 19.5 9.5 19.5C11.4712 19.5 13.3021 18.8997 14.82 17.8718L12.5427 15.7C11.636 16.185 10.6001 16.46 9.5 16.46C6.73484 16.46 4.37545 14.7227 3.45386 12.28L0.966641 14.18Z" fill="#34A853"/>
<path d="M14.82 17.8718C17.3423 16.1639 19 13.2755 19 10C19 9.6142 18.977 9.23376 18.9323 8.86H8.74V11.9H15.6761C15.1718 13.5411 14.0315 14.9036 12.5427 15.7L14.82 17.8718Z" fill="#4285F4"/>
</svg>
