<svg width="63" height="15" viewBox="0 0 63 15" fill="none" xmlns="http://www.w3.org/2000/svg">
<path d="M9.696 10.32C8.672 11.0667 7.38133 11.44 5.824 11.44C4.096 11.44 2.69333 10.944 1.616 9.952C0.538667 8.96 0 7.61067 0 5.904C0 4.21867 0.56 2.86933 1.68 1.856C2.81067 0.842666 4.24 0.335999 5.968 0.335999C7.184 0.335999 8.23467 0.559999 9.12 1.008V3.472C8.096 2.88533 7.04533 2.592 5.968 2.592C4.95467 2.592 4.14933 2.896 3.552 3.504C2.95467 4.10133 2.656 4.90133 2.656 5.904C2.656 6.91733 2.94933 7.72267 3.536 8.32C4.12267 8.91733 4.92267 9.216 5.936 9.216C6.39467 9.216 6.848 9.14667 7.296 9.008V6.976H5.552V4.88H9.696V10.32Z" fill="#EA4335"/>
<path fill-rule="evenodd" clip-rule="evenodd" d="M21.5689 7.216C21.5689 8.44267 21.2169 9.456 20.5129 10.256C19.8195 11.0453 18.8489 11.44 17.6009 11.44C16.3315 11.44 15.3502 11.0613 14.6569 10.304C13.9635 9.536 13.6169 8.55467 13.6169 7.36C13.6169 6.112 13.9795 5.088 14.7049 4.288C15.4302 3.47733 16.3955 3.072 17.6009 3.072C18.8595 3.072 19.8355 3.46133 20.5289 4.24C21.2222 5.01867 21.5689 6.01067 21.5689 7.216ZM16.0489 7.264C16.0489 6.57067 16.1769 6.00533 16.4329 5.568C16.6889 5.13067 17.0729 4.912 17.5849 4.912C18.6195 4.912 19.1369 5.70667 19.1369 7.296C19.1369 7.98933 19.0089 8.55467 18.7529 8.992C18.5075 9.41867 18.1289 9.632 17.6169 9.632C17.0942 9.632 16.6995 9.41333 16.4329 8.976C16.1769 8.528 16.0489 7.95733 16.0489 7.264Z" fill="#007830"/>
<path fill-rule="evenodd" clip-rule="evenodd" d="M33.047 7.216C33.047 8.44267 32.695 9.456 31.991 10.256C31.2977 11.0453 30.327 11.44 29.079 11.44C27.8097 11.44 26.8283 11.0613 26.135 10.304C25.4417 9.536 25.095 8.55467 25.095 7.36C25.095 6.112 25.4577 5.088 26.183 4.288C26.9083 3.47733 27.8737 3.072 29.079 3.072C30.3377 3.072 31.3137 3.46133 32.007 4.24C32.7003 5.01867 33.047 6.01067 33.047 7.216ZM27.527 7.264C27.527 6.57067 27.655 6.00533 27.911 5.568C28.167 5.13067 28.551 4.912 29.063 4.912C30.0977 4.912 30.615 5.70667 30.615 7.296C30.615 7.98933 30.487 8.55467 30.231 8.992C29.9857 9.41867 29.607 9.632 29.095 9.632C28.5723 9.632 28.1777 9.41333 27.911 8.976C27.655 8.528 27.527 7.95733 27.527 7.264Z" fill="#FBBC04"/>
<path fill-rule="evenodd" clip-rule="evenodd" d="M44.4931 10.528C44.4931 11.8293 44.1038 12.8053 43.3251 13.456C42.5465 14.1173 41.5705 14.448 40.3971 14.448C39.2558 14.448 38.2585 14.2453 37.4051 13.84V11.456C38.1518 12.0533 39.0691 12.352 40.1571 12.352C40.8611 12.352 41.3731 12.2027 41.6931 11.904C42.0131 11.6053 42.1731 11.136 42.1731 10.496V9.952C41.7038 10.6773 40.9571 11.04 39.9331 11.04C39.0371 11.04 38.2638 10.7093 37.6131 10.048C36.9731 9.38667 36.6531 8.40533 36.6531 7.104C36.6531 5.952 36.9625 5.00267 37.5811 4.256C38.2105 3.49867 39.0318 3.12 40.0451 3.12C41.0051 3.12 41.7145 3.504 42.1731 4.272V3.2H44.4931V10.528ZM39.4691 8.656C39.2131 8.304 39.0851 7.792 39.0851 7.12C39.0851 6.48 39.2185 5.97867 39.4851 5.616C39.7518 5.25333 40.1198 5.072 40.5891 5.072C41.6451 5.072 42.1731 5.79733 42.1731 7.248C42.1731 7.78133 42.0291 8.24 41.7411 8.624C41.4638 8.99733 41.0745 9.184 40.5731 9.184C40.0931 9.184 39.7251 9.008 39.4691 8.656Z" fill="#EA4335"/>
<path d="M51.1485 11.312H48.8125V0H51.1485V11.312Z" fill="#4285F4"/>
<path fill-rule="evenodd" clip-rule="evenodd" d="M61.9224 10.848C61.3677 11.2107 60.5197 11.392 59.3784 11.392C58.045 11.392 57.005 11.008 56.2584 10.24C55.5224 9.46133 55.1544 8.464 55.1544 7.248C55.1544 5.95733 55.5117 4.94933 56.2264 4.224C56.9517 3.488 57.8424 3.12 58.8984 3.12C59.9864 3.12 60.845 3.44 61.4744 4.08C62.1037 4.70933 62.4184 5.65333 62.4184 6.912C62.4184 7.15733 62.3757 7.57867 62.2904 8.176H57.5224C57.6824 8.624 57.9597 8.97067 58.3544 9.216C58.749 9.46133 59.2237 9.584 59.7784 9.584C60.5997 9.584 61.3144 9.35467 61.9224 8.896V10.848ZM58.0024 5.312C58.2904 5.03467 58.621 4.896 58.9944 4.896C59.7517 4.896 60.1677 5.37067 60.2424 6.32V6.512H57.4264C57.5224 5.97867 57.7144 5.57867 58.0024 5.312Z" fill="#007830"/>
</svg>
