<svg width="25" height="24" viewBox="0 0 25 24" fill="none" xmlns="http://www.w3.org/2000/svg">
<path fill-rule="evenodd" clip-rule="evenodd" d="M12.5 24C19.1274 24 24.5 18.6274 24.5 12C24.5 5.37258 19.1274 0 12.5 0C5.87258 0 0.5 5.37258 0.5 12C0.5 18.6274 5.87258 24 12.5 24ZM12.0545 8.21138C13.6957 9.10098 15.0288 9.48708 15.4537 8.70329C15.573 8.48322 15.5642 8.21004 15.4537 7.91123C15.3431 7.61243 15.7667 8.21138 15.7667 8.21138C15.7667 8.21138 16.0205 8.54735 16.1245 8.79281C16.2503 9.08932 16.2772 9.27687 16.3034 9.59786C16.3297 9.91885 16.3138 10.2336 16.3034 10.4179C16.2931 10.6021 16.2391 10.886 16.2391 10.886C16.0712 10.5179 15.7821 10.3581 15.4537 10.3581C15.4537 10.3581 15.342 10.377 15.2748 10.4029C15.1797 10.4395 15.1301 10.4728 15.0511 10.5371C14.9454 10.6233 14.8275 10.8054 14.8275 10.8054C14.6418 11.11 14.5539 11.6769 14.5539 11.6769C14.5574 11.6237 14.5592 11.5716 14.5592 11.521C14.5592 10.5823 13.7689 10.0898 12.9043 10.0898C12.0398 10.0898 11.5178 10.5823 11.5178 11.521C11.5178 12.0945 11.7795 12.8521 12.1803 13.3547C12.1803 13.3547 12.3979 13.642 12.5018 13.8467C12.587 14.0144 12.6763 14.2466 12.7254 14.4282C12.817 15.0564 12.7611 15.4589 12.5018 16.0383C12.3177 16.4498 12.1865 16.6959 11.8757 17.0223C11.5407 17.3739 11.2917 17.5429 10.847 17.7379C10.5815 17.8543 10.1314 17.9345 10.1314 17.9345C10.1314 17.9345 9.74522 17.9248 9.50522 17.8721C9.21371 17.808 8.78961 17.6037 8.78961 17.6037C8.46102 17.4037 8.02929 16.9775 8.02929 16.9775L7.89511 16.8433C7.89511 16.8433 8.74644 17.0751 9.28159 16.9775C9.59136 16.921 10.0419 16.7092 10.0419 16.7092C10.0419 16.7092 10.6433 16.4207 10.4154 15.8594C10.1875 15.298 9.706 15.0096 8.87907 15.0096C8.56917 15.0096 8.26555 15.067 7.98456 15.1725C7.98456 15.1725 7.63079 15.2504 7.40314 15.2333L7.39444 15.2326C7.18634 15.2169 7.13591 15.2131 6.95588 15.0991C6.76693 14.9794 6.6966 14.8527 6.59808 14.6518C6.50293 14.4579 6.46391 14.1599 6.46391 14.1599L6.50863 13.3995C6.50863 13.3995 6.06848 13.2024 5.88248 13.1312C5.64162 13.039 5.51543 12.9615 5.30105 12.8181C5.25679 12.7885 5.21482 12.7614 5.17482 12.7356C4.97287 12.6052 4.82089 12.5071 4.6749 12.2814C4.53389 12.0634 4.45048 11.9149 4.45128 11.6553C4.45136 11.626 4.4508 11.6007 4.4503 11.5779C4.44737 11.446 4.44635 11.4002 4.58545 11.1633C4.74853 10.8855 5.12215 10.5371 5.12215 10.5371L4.58545 9.59786C4.58545 9.59786 4.4139 9.11492 4.36182 8.79281C4.28656 8.32727 4.308 8.05374 4.36182 7.58523C4.36182 7.58523 4.45666 6.93375 4.63018 6.55659C4.65213 6.50887 4.66768 6.46334 4.68239 6.42027C4.71803 6.3159 4.74874 6.22595 4.8538 6.15407C4.86081 6.14927 4.86771 6.1445 4.87451 6.13979C4.95611 6.08331 5.02423 6.03616 5.12215 6.06462C5.22955 6.09583 5.30105 6.28824 5.30105 6.28824L5.5694 7.2722C5.5694 7.2722 5.74717 8.15866 5.97193 8.70329C6.19372 9.24074 6.36149 9.54896 6.77698 9.95566C7.05412 10.2269 7.58204 10.5371 7.58204 10.5371L8.25291 11.0024L9.14742 11.4949C9.14742 11.4949 9.4364 11.6493 9.63939 11.6769C9.7651 11.694 9.96425 11.6769 9.96425 11.6769C9.86905 11.3166 9.86174 10.8753 9.96425 10.4179C10.1239 9.70542 10.5078 9.14206 10.9364 8.91394V8.79281L9.50522 7.62996L9.32632 7.45106C9.32632 7.45106 9.79056 7.52825 10.0866 7.58523C10.3478 7.63549 10.5215 7.68681 10.7415 7.75181C10.8019 7.76968 10.8662 7.78866 10.9364 7.80886C11.3884 7.9388 12.0545 8.21138 12.0545 8.21138ZM15.1406 13.8467C15.5262 13.9331 15.851 14.4507 15.9904 15.1437C16.0878 15.6282 16.0845 16.2442 15.9904 16.6644C15.8423 17.3253 15.0519 18.1678 14.3355 18.6399C14.3355 18.6399 13.8843 18.9067 13.5752 19.0349C13.0431 19.2557 12.144 19.3926 12.144 19.3926C11.0648 19.5226 10.0317 19.3117 9.50522 18.9282C9.50522 18.9282 9.70779 19.1487 9.86302 19.2586C9.86302 19.2586 10.2367 19.4666 10.4892 19.5716C10.8105 19.7053 11.3389 19.8399 11.3389 19.8399C11.7333 19.9241 11.9646 19.941 12.3676 19.9294C12.9737 19.9119 13.3263 19.8437 13.8883 19.6163C14.3386 19.4341 14.5733 19.2796 14.9617 18.9879C15.4351 18.6321 15.6891 18.3973 16.0351 17.9167C16.3455 17.4856 16.6612 16.7092 16.6612 16.7092C16.6612 16.7092 17.0113 16.6837 17.1979 16.575C17.3687 16.4755 17.4433 16.3797 17.5557 16.2172C17.6447 16.0887 17.6779 16.0049 17.7346 15.8594C17.8132 15.6581 17.8688 15.3227 17.8688 15.3227C17.8688 15.3227 18.2009 15.3681 18.4055 15.3227C18.7005 15.2571 18.8456 15.127 19.0688 14.9269L19.0764 14.9202C19.2613 14.7545 19.3712 14.6518 19.4789 14.4282C19.5801 14.2182 19.6223 14.0796 19.6131 13.8467C19.6052 13.6477 19.4789 13.3547 19.4789 13.3547C19.4789 13.3547 19.7594 13.2943 19.9262 13.2206C20.1566 13.1189 20.4629 12.8628 20.4629 12.8628C20.7526 12.6098 20.8832 12.4274 21.089 12.1025L21.0965 12.0908C21.1673 11.979 21.2095 11.9123 21.2679 11.7894C21.3528 11.6108 21.3842 11.4946 21.4321 11.3171L21.4367 11.3001L21.4468 11.2625C21.5224 10.9845 21.558 10.8526 21.581 10.5371C21.604 10.2216 21.4916 9.73204 21.4916 9.73204C21.4916 9.73204 21.4402 9.69578 21.4021 9.68731C21.3318 9.67169 21.2232 9.73204 21.2232 9.73204C21.2232 9.73204 20.9466 9.94513 20.776 10.0898C20.5597 10.2731 20.4111 10.4507 20.267 10.6231C20.0847 10.841 19.9094 11.0505 19.6131 11.2526C19.0636 11.6273 18.689 11.7472 18.0477 11.9235C17.4041 12.1005 16.3532 12.1472 16.3532 12.1472C16.1965 12.9688 15.6083 13.7627 15.1649 13.8405L15.1406 13.8467ZM13.933 11.7894C13.933 12.234 13.6527 12.5944 13.3069 12.5944C12.961 12.5944 12.6807 12.234 12.6807 11.7894C12.6807 11.4033 12.8921 11.0806 13.1743 11.0024C13.1447 11.0771 13.128 11.1623 13.128 11.2526C13.128 11.549 13.3082 11.7893 13.5305 11.7893C13.6795 11.7893 13.8096 11.6814 13.8792 11.521C13.8829 11.5124 13.8864 11.5037 13.8898 11.4949C13.9177 11.5861 13.933 11.6854 13.933 11.7894ZM14.1119 13.4889C14.1119 13.2419 14.2721 13.0416 14.4697 13.0416C14.6673 13.0416 14.8275 13.2419 14.8275 13.4889C14.8275 13.4889 14.8158 13.5801 14.8083 13.6678L14.3355 14.5623L14.1417 13.6678C14.1225 13.613 14.1119 13.5525 14.1119 13.4889ZM15.3642 11.521C15.3642 11.8174 15.5444 12.0577 15.7667 12.0577C15.849 12.0577 15.9255 12.0248 15.9893 11.9683C15.9724 12.3179 15.7591 12.5944 15.4984 12.5944C15.2267 12.5944 15.0064 12.294 15.0064 11.9235C15.0064 11.5923 15.1824 11.3171 15.4139 11.2625C15.3822 11.3392 15.3642 11.4273 15.3642 11.521Z" fill="#336498"/>
</svg>
