<svg width="78" height="63" viewBox="0 0 78 63" fill="none" xmlns="http://www.w3.org/2000/svg">
<path d="M40.2472 29.1502C41.789 29.1502 43.0388 27.5433 43.0388 25.5611C43.0388 25.0976 42.9705 24.6546 42.8461 24.2479C42.8311 24.2873 42.8153 24.3262 42.7987 24.3643C42.7864 24.3929 42.7736 24.421 42.7603 24.4488C42.442 25.1172 41.882 25.5607 41.2442 25.5607C40.2531 25.5607 39.4496 24.4894 39.4496 23.1679C39.4496 22.8339 39.501 22.5159 39.5937 22.227C39.6128 22.1676 39.6336 22.1093 39.6562 22.0525C38.3983 22.4011 37.4556 23.8395 37.4556 25.5611C37.4556 27.5433 38.7055 29.1502 40.2472 29.1502Z" fill="#123457"/>
<path d="M51.2142 26.7571C50.2231 26.7571 49.4196 25.6858 49.4196 24.3643C49.4196 24.0268 49.472 23.7056 49.5666 23.4144C49.5891 23.3451 49.614 23.2776 49.6411 23.2119C48.6092 23.4555 47.8244 24.6822 47.8244 26.1589C47.8244 27.8108 48.8064 29.1499 50.0178 29.1499C51.18 29.1499 52.1311 27.9173 52.2064 26.3585C52.148 26.4102 52.0873 26.4575 52.0244 26.5C51.781 26.6645 51.5057 26.7571 51.2142 26.7571Z" fill="#123457"/>
<path d="M49.8184 11.8022C47.9243 15.2966 41.981 13.5752 34.6639 9.60907C34.6639 9.60907 31.6941 8.39382 29.679 7.81449C28.2259 7.39671 27.3752 7.10321 25.8905 6.81749C24.5704 6.56345 22.5007 6.21929 22.5007 6.21929L23.2983 7.01689L29.679 12.2013V12.7413C27.7681 13.7584 26.0566 16.27 25.3448 19.4464C24.8877 21.4858 24.9204 23.4532 25.3448 25.0597C25.3448 25.0597 24.4569 25.1359 23.8965 25.0597C22.9914 24.9366 21.7031 24.2479 21.7031 24.2479L17.7151 22.0525L14.7241 19.9779C14.7241 19.9779 12.3705 18.5951 11.1349 17.3857C9.28246 15.5724 8.53451 14.1983 7.54568 11.8022C6.54364 9.37402 5.75109 5.42187 5.75109 5.42187L4.55469 1.03508C4.55469 1.03508 4.23589 0.17724 3.75709 0.0380814C3.28416 -0.0993693 2.96715 0.158777 2.56069 0.436881C1.89902 0.889602 1.89877 1.50313 1.56369 2.23148C0.790118 3.91296 0.367295 6.81749 0.367295 6.81749C0.127309 8.90625 0.0317267 10.1257 0.367295 12.2013C0.599477 13.6374 1.36429 15.7905 1.36429 15.7905L3.75709 19.9779C3.75709 19.9779 2.09137 21.5314 1.36429 22.7696C0.637218 24.0079 0.76881 24.0752 0.766096 24.963C0.762556 26.1207 1.1344 26.7826 1.76309 27.7546C2.5429 28.9603 3.36106 29.3493 4.55469 30.1474C5.51047 30.7865 6.07305 31.1324 7.14688 31.5432C7.97613 31.8605 9.93848 32.7396 9.93848 32.7396L9.73908 36.1294C9.73908 36.1294 9.91306 37.4581 10.3373 38.3228C10.7765 39.2181 11.09 39.7832 11.9325 40.3168C12.7351 40.8252 12.9599 40.8422 13.8877 40.9121L13.9265 40.915C14.9414 40.9916 16.5187 40.6442 16.5187 40.6442C17.7714 40.1738 19.125 39.9178 20.5067 39.9178C24.1934 39.9178 26.3401 41.2038 27.3562 43.7064C28.3724 46.2091 25.6911 47.495 25.6911 47.495C25.6911 47.495 23.6823 48.4395 22.3013 48.6914C19.9154 49.1266 16.1199 48.0932 16.1199 48.0932L16.7181 48.6914C16.7181 48.6914 18.6429 50.5915 20.1079 51.483C20.1079 51.483 21.9986 52.3939 23.2983 52.6797C24.3683 52.9149 26.0899 52.9578 26.0899 52.9578C26.0899 52.9578 28.0969 52.6003 29.2802 52.0815C31.2631 51.2122 32.3732 50.4588 33.8664 48.8911C35.2524 47.436 35.8371 46.3385 36.658 44.5043C37.8142 41.9209 38.0635 40.1265 37.655 37.3258C37.4358 36.5162 37.0378 35.481 36.658 34.7331C36.1948 33.8208 35.2245 32.5399 35.2245 32.5399C33.4377 30.299 32.2712 26.9213 32.2712 24.3643C32.2712 20.1796 34.5982 17.9836 38.4526 17.9836C42.307 17.9836 45.8304 20.1796 45.8304 24.3643C45.8304 24.5902 45.8225 24.8224 45.8069 25.0597C45.8069 25.0597 46.1987 22.5321 47.0268 21.1743C47.0268 21.1743 47.5523 20.362 48.0238 19.9779C48.3758 19.6911 48.5971 19.5428 49.0208 19.3797C49.3205 19.2643 49.8184 19.18 49.8184 19.18C51.2829 19.18 52.5718 19.8923 53.3202 21.5334C53.3202 21.5334 53.561 20.2678 53.607 19.4464C53.653 18.625 53.724 17.2216 53.607 15.7905C53.49 14.3594 53.3699 13.5232 52.8094 12.2013C52.3454 11.1069 51.2142 9.60907 51.2142 9.60907C51.2142 9.60907 49.3254 6.93876 49.8184 8.27092C50.3114 9.60309 50.3502 10.821 49.8184 11.8022Z" fill="#123457"/>
<path d="M48.4226 34.7332C50.1416 35.1184 51.59 37.4259 52.2112 40.5157C52.6455 42.6759 52.631 45.4223 52.2112 47.2953C51.5509 50.2419 48.0272 53.9982 44.8334 56.1029C44.8334 56.1029 42.8216 57.2925 41.4436 57.8641C39.0712 58.8482 35.0628 59.4587 35.0628 59.4587C30.2513 60.0381 25.6456 59.0978 23.2983 57.3882C23.2983 57.3882 24.2014 58.3713 24.8935 58.8611C24.8935 58.8611 26.5597 59.7886 27.6851 60.2569C29.1175 60.8529 31.4736 61.453 31.4736 61.453C33.2318 61.8282 34.2628 61.9036 36.0598 61.8518C38.7618 61.7739 40.3337 61.47 42.8394 60.456C44.8469 59.6436 45.8936 58.9551 47.625 57.6542C49.7358 56.0683 50.868 55.0215 52.4106 52.8788C53.7944 50.9568 55.2022 47.495 55.2022 47.495C55.2022 47.495 56.7627 47.3817 57.595 46.8968C58.3562 46.4533 58.6887 46.026 59.1902 45.3016C59.5866 44.729 59.7347 44.3553 59.9878 43.7064C60.3379 42.8091 60.586 41.3136 60.586 41.3136C60.586 41.3136 62.0666 41.5163 62.9788 41.3136C64.2937 41.0214 64.9409 40.4413 65.936 39.5493L65.9698 39.519C66.794 38.7804 67.2841 38.3227 67.7644 37.3256C68.2153 36.3895 68.4036 35.7714 68.3626 34.7332C68.3275 33.8461 67.7644 32.5399 67.7644 32.5399C67.7644 32.5399 69.0147 32.2702 69.7584 31.9418C70.7858 31.4882 72.1512 30.3466 72.1512 30.3466C73.443 29.2188 74.0252 28.4056 74.9428 26.9569L74.9758 26.9046C75.2916 26.4063 75.4798 26.1092 75.7404 25.5611C76.1563 24.6861 76.284 24.1469 76.538 23.2119C76.8747 21.9724 77.0336 21.3844 77.1362 19.9779C77.2387 18.5713 76.7374 16.3887 76.7374 16.3887C76.7374 16.3887 76.5085 16.227 76.3386 16.1893C76.0251 16.1196 75.541 16.3887 75.541 16.3887C75.541 16.3887 74.3076 17.3387 73.547 17.9836C71.363 19.8352 70.7281 21.5547 68.3626 23.1679C65.9128 24.8386 64.2427 25.3728 61.3836 26.1589C58.5141 26.9479 53.8287 27.1563 53.8287 27.1563C53.1301 30.8191 50.5076 34.3589 48.5311 34.7054L48.4226 34.7332Z" fill="#123457"/>
<path d="M43.8364 33.1379C43.8364 32.0367 44.5506 31.1439 45.4316 31.1439C46.3126 31.1439 47.0268 32.0367 47.0268 33.1379L46.9411 33.6534L46.8574 34L46.7228 34.3485L44.8334 37.9235L44.3656 35.765L43.8766 33.5847C43.8503 33.4411 43.8364 33.2915 43.8364 33.1379Z" fill="#123457"/>
<path d="M40.2472 21.9719C40.0444 21.9719 39.8467 21.9997 39.6562 22.0525C39.6336 22.1093 39.6128 22.1676 39.5937 22.227C39.5937 22.227 40.3345 22.1089 40.7841 22.227C41.4202 22.3942 41.7378 22.6995 42.15 23.2119C42.4876 23.6316 42.7603 24.4488 42.7603 24.4488C42.7736 24.421 42.7864 24.3929 42.7987 24.3643C42.8153 24.3262 42.8311 24.2873 42.8461 24.2479C42.4384 22.9152 41.4285 21.9719 40.2472 21.9719Z" fill="#123457"/>
<path d="M52.2112 26.1589C52.2112 24.5071 51.2292 23.1679 50.0178 23.1679C49.8894 23.1679 49.7635 23.183 49.6411 23.2119C49.614 23.2776 49.5891 23.3451 49.5666 23.4144C49.5666 23.4144 50.2565 23.341 50.65 23.5C51.1621 23.7068 51.3656 24.0265 51.65 24.5C52.0591 25.1812 52.0244 26.5 52.0244 26.5C52.0873 26.4575 52.148 26.4102 52.2064 26.3585C52.2096 26.2925 52.2112 26.226 52.2112 26.1589Z" fill="#123457"/>
<path fill-rule="evenodd" clip-rule="evenodd" d="M50.0178 23.018C49.8776 23.018 49.7401 23.0344 49.6066 23.0659C48.4812 23.3315 47.6744 24.6432 47.6744 26.159C47.6744 27.0134 47.9282 27.793 48.3459 28.3626C48.7635 28.9321 49.3529 29.2999 50.0178 29.2999C50.6556 29.2999 51.2242 28.9613 51.638 28.4311C52.0516 27.9009 52.3173 27.1725 52.3562 26.3657C52.3595 26.2974 52.3612 26.2284 52.3612 26.159C52.3612 25.3045 52.1074 24.5249 51.6897 23.9553C51.2721 23.3858 50.6828 23.018 50.0178 23.018ZM52.0612 26.159C52.0612 25.3616 51.824 24.6457 51.4478 24.1327C51.0716 23.6197 50.5642 23.318 50.0178 23.318C49.9273 23.318 49.8383 23.3262 49.7509 23.3421L49.398 23.4522C49.3149 23.7358 49.2696 24.0435 49.2696 24.3644C49.2696 25.0544 49.4792 25.6849 49.8252 26.1463C50.1713 26.6077 50.6609 26.9071 51.2142 26.9071C51.5065 26.9071 51.7818 26.8233 52.0273 26.676L52.0612 26.159Z" fill="#123457"/>
<path fill-rule="evenodd" clip-rule="evenodd" d="M40.2472 21.8219C40.0306 21.8219 39.8194 21.8516 39.6161 21.9079C38.274 22.2799 37.3056 23.7944 37.3056 25.5611C37.3056 27.5889 38.5897 29.3003 40.2472 29.3003C41.9047 29.3003 43.1888 27.5889 43.1888 25.5611C43.1888 25.0829 43.1183 24.6251 42.9895 24.204C42.5696 22.8313 41.5158 21.8219 40.2472 21.8219ZM42.6872 24.2424C42.2824 22.9768 41.3272 22.1219 40.2472 22.1219C40.0839 22.1219 39.924 22.1412 39.7689 22.1783L39.4165 22.2961C39.3408 22.5684 39.2996 22.8622 39.2996 23.168C39.2996 23.858 39.5092 24.4885 39.8553 24.9499C40.2013 25.4113 40.6909 25.7107 41.2442 25.7107C41.896 25.7107 42.4559 25.2979 42.8032 24.6903L42.6872 24.2424Z" fill="#123457"/>
</svg>
