<svg width="75" height="15" viewBox="0 0 75 15" fill="none" xmlns="http://www.w3.org/2000/svg">
<path d="M6.448 11.04H0V0.256001H2.464V8.88H6.448V11.04Z" fill="#336498"/>
<path d="M16.4045 6.944C16.4045 8.17067 16.0525 9.184 15.3485 9.984C14.6552 10.7733 13.6845 11.168 12.4365 11.168C11.1672 11.168 10.1858 10.7893 9.4925 10.032C8.79917 9.264 8.4525 8.28267 8.4525 7.088C8.4525 5.84 8.81517 4.816 9.5405 4.016C10.2658 3.20533 11.2312 2.8 12.4365 2.8C13.6952 2.8 14.6712 3.18933 15.3645 3.968C16.0578 4.74667 16.4045 5.73867 16.4045 6.944ZM11.2685 5.296C11.0125 5.73333 10.8845 6.29867 10.8845 6.992C10.8845 7.68533 11.0125 8.256 11.2685 8.704C11.5352 9.14133 11.9298 9.36 12.4525 9.36C12.9645 9.36 13.3432 9.14667 13.5885 8.72C13.8445 8.28267 13.9725 7.71733 13.9725 7.024C13.9725 5.43467 13.4552 4.64 12.4205 4.64C11.9085 4.64 11.5245 4.85867 11.2685 5.296Z" fill="#336498"/>
<path d="M26.6026 6.944C26.6026 8.17067 26.2506 9.184 25.5466 9.984C24.8533 10.7733 23.8826 11.168 22.6346 11.168C21.3653 11.168 20.384 10.7893 19.6906 10.032C18.9973 9.264 18.6506 8.28267 18.6506 7.088C18.6506 5.84 19.0133 4.816 19.7386 4.016C20.464 3.20533 21.4293 2.8 22.6346 2.8C23.8933 2.8 24.8693 3.18933 25.5626 3.968C26.256 4.74667 26.6026 5.73867 26.6026 6.944ZM21.4666 5.296C21.2106 5.73333 21.0826 6.29867 21.0826 6.992C21.0826 7.68533 21.2106 8.256 21.4666 8.704C21.7333 9.14133 22.128 9.36 22.6506 9.36C23.1626 9.36 23.5413 9.14667 23.7866 8.72C24.0426 8.28267 24.1706 7.71733 24.1706 7.024C24.1706 5.43467 23.6533 4.64 22.6186 4.64C22.1066 4.64 21.7226 4.85867 21.4666 5.296Z" fill="#336498"/>
<path d="M31.5848 11.04H29.2488V0H31.5848V6.56L34.1448 2.928H36.8328L34.0168 6.816L36.8807 11.04H34.1768L31.5848 7.056V11.04Z" fill="#336498"/>
<path d="M44.6704 8.592C44.6704 9.392 44.3824 10.0107 43.8064 10.448C43.2304 10.8853 42.4677 11.104 41.5184 11.104C40.537 11.104 39.7157 10.9387 39.0544 10.608V8.528C39.7904 9.04 40.569 9.296 41.3904 9.296C41.977 9.296 42.2704 9.10933 42.2704 8.736C42.2704 8.64 42.2437 8.54933 42.1904 8.464C42.137 8.37867 42.0464 8.29867 41.9184 8.224C41.7904 8.14933 41.673 8.09067 41.5664 8.048C41.4597 7.99467 41.305 7.92533 41.1024 7.84C40.8997 7.75467 40.745 7.68533 40.6384 7.632C39.561 7.12 39.0224 6.352 39.0224 5.328C39.0224 4.53867 39.321 3.92533 39.9184 3.488C40.5264 3.05067 41.2784 2.832 42.1744 2.832C43.0064 2.832 43.6997 2.944 44.2544 3.168V5.168C43.689 4.83733 43.0277 4.672 42.2704 4.672C41.993 4.672 41.7797 4.73067 41.6304 4.848C41.481 4.95467 41.4064 5.09333 41.4064 5.264C41.4064 5.36 41.433 5.45067 41.4864 5.536C41.5397 5.62133 41.625 5.70133 41.7424 5.776C41.8704 5.85067 41.9877 5.92 42.0944 5.984C42.2117 6.03733 42.3664 6.10667 42.5584 6.192C42.761 6.27733 42.921 6.352 43.0384 6.416C43.529 6.672 43.9237 6.97067 44.2224 7.312C44.521 7.64267 44.6704 8.06933 44.6704 8.592Z" fill="#336498"/>
<path d="M51.7671 10.8C50.9245 13.072 49.6391 14.208 47.9111 14.208C47.5805 14.208 47.2818 14.1813 47.0151 14.128V12.272C47.1858 12.3147 47.3671 12.336 47.5591 12.336C48.4445 12.336 49.0845 11.8613 49.4791 10.912L46.3431 2.928H48.8871L49.7671 5.456C49.9911 6.10667 50.1725 6.66667 50.3111 7.136C50.4605 7.60533 50.5511 7.91467 50.5831 8.064L50.6311 8.288C50.7485 7.86133 51.0365 6.91733 51.4951 5.456L52.2951 2.928H54.6951L51.7671 10.8Z" fill="#336498"/>
<path d="M64.4108 6.944C64.4108 8.17067 64.0588 9.184 63.3548 9.984C62.6614 10.7733 61.6908 11.168 60.4428 11.168C59.1734 11.168 58.1921 10.7893 57.4988 10.032C56.8054 9.264 56.4588 8.28267 56.4588 7.088C56.4588 5.84 56.8214 4.816 57.5468 4.016C58.2721 3.20533 59.2374 2.8 60.4428 2.8C61.7014 2.8 62.6774 3.18933 63.3708 3.968C64.0641 4.74667 64.4108 5.73867 64.4108 6.944ZM59.2747 5.296C59.0187 5.73333 58.8908 6.29867 58.8908 6.992C58.8908 7.68533 59.0187 8.256 59.2747 8.704C59.5414 9.14133 59.9361 9.36 60.4588 9.36C60.9708 9.36 61.3494 9.14667 61.5947 8.72C61.8507 8.28267 61.9788 7.71733 61.9788 7.024C61.9788 5.43467 61.4614 4.64 60.4268 4.64C59.9147 4.64 59.5308 4.85867 59.2747 5.296Z" fill="#336498"/>
<path d="M74.4169 11.04H72.0809V9.744C71.6542 10.6507 70.8329 11.104 69.6169 11.104C68.7849 11.104 68.1342 10.8747 67.6649 10.416C67.2062 9.94667 66.9769 9.25867 66.9769 8.352V2.928H69.3129V7.824C69.3129 8.77333 69.7289 9.248 70.5609 9.248C71.5742 9.248 72.0809 8.57067 72.0809 7.216V2.928H74.4169V11.04Z" fill="#336498"/>
</svg>
