<svg width="327" height="232" viewBox="0 0 327 232" fill="none" xmlns="http://www.w3.org/2000/svg">
<path d="M326.67 176.062C326.67 206.507 253.616 231.188 163.5 231.188C73.3837 231.188 0.330017 206.507 0.330017 176.062C0.330017 145.618 78.8962 152.91 169.013 152.91C259.129 152.91 326.67 145.618 326.67 176.062Z" fill="#ECF3FC"/>
<path d="M151.501 5.79199C150.331 7.38386 149.572 9.65093 149.572 9.65093V11.0289L150.674 14.0607L151.777 16.2657L152.879 13.5095C152.879 13.5095 153.398 11.7284 154.258 11.0289C154.893 10.5114 156.187 10.202 156.187 10.202L161.148 11.3045C161.148 11.3045 163.509 11.1354 165.007 11.3045C166.771 11.5036 169.417 12.407 169.417 12.407H171.622C171.622 12.407 173.855 11.4775 174.378 10.202C174.786 9.206 174.555 8.50747 174.378 7.44574C174.062 5.54644 172.173 3.03574 172.173 3.03574C172.173 3.03574 170.639 1.46796 169.417 0.830735C166.928 -0.466824 165.052 0.0968172 162.251 0.279485L162.132 0.287241C160.685 0.381356 159.821 0.437596 158.392 0.830735C156.811 1.26565 155.877 1.54565 154.533 2.48449C153.097 3.48787 152.539 4.38037 151.501 5.79199Z" fill="black"/>
<path d="M135.239 177.782C135.239 177.782 133.898 181.894 135.239 183.846C136.119 185.125 138.547 186.051 138.547 186.051H147.367C147.367 186.051 150.867 185.386 150.674 183.846C150.578 183.076 149.572 182.192 149.572 182.192L145.162 179.987L143.508 177.782H135.239Z" fill="black"/>
<path d="M167.212 177.782C167.212 177.782 165.007 186.051 167.212 186.051H182.096C182.096 186.051 187.072 185.686 186.506 183.846C186.237 182.973 184.852 182.192 184.852 182.192L179.891 179.987L177.686 177.782H167.212Z" fill="black"/>
<path d="M140.201 79.3839L143.508 82.967L146.264 86.2745L149.273 89.2836L149.572 89.582L151.501 91.2358L156.187 89.5822L160.597 88.4795L160.099 87.9362L154.533 81.8645L150.674 76.352L146.264 71.3907L142.957 67.5322L141.854 66.9807L141.303 63.6732L142.406 57.0582L144.611 51.5457L145.162 50.0757L146.264 47.1357V27.6582L144.611 28.3932C144.611 28.3932 142.806 28.8342 141.854 29.4957C140.187 30.6547 139.098 33.9057 139.098 33.9057L134.137 41.6232L132.483 47.1357L130.278 57.0582L129.727 61.4682V66.4295L131.932 70.8395L136.893 75.8007L140.201 79.3839Z" fill="#F09F67"/>
<path d="M171.622 73.5957L169.417 80.2107L167.763 86.4123L171.622 87.6584L175.481 88.4795L176.008 87.9362L178.788 81.8645C178.788 81.8645 181.673 75.6396 182.647 71.3907C183.566 67.3818 183.749 60.917 183.749 60.917C183.749 60.917 184.112 53.4416 183.198 48.7895C182.411 44.7815 179.891 38.867 179.891 38.867C179.891 38.867 179.875 35.2623 178.788 33.3545C177.656 31.3659 174.378 29.4957 174.378 29.4957L170.519 28.3932L170.948 43.8282L172.173 51.5457C172.173 51.5457 173.046 55.8898 173.276 58.712L173.296 58.9656C173.547 62.0297 173.697 63.8657 173.276 66.9807C172.919 69.6196 171.622 73.5957 171.622 73.5957Z" fill="#F09F67"/>
<path d="M153.431 25.0857C153.431 25.0857 153.027 29.0009 154.533 30.5982C156.601 32.7911 160.457 33.0205 162.251 30.5982C163.104 29.4459 163.141 27.0363 163.141 27.0363L163.353 23.432L165.007 22.3295C165.007 22.3295 167.117 21.6314 167.763 20.1245L169.417 16.2657C170.063 14.7588 169.417 12.407 169.417 12.407C169.417 12.407 166.771 11.5036 165.007 11.3045C163.509 11.1354 161.148 11.3045 161.148 11.3045L156.187 10.202C156.187 10.202 154.893 10.5114 154.258 11.0289C153.398 11.7284 152.879 13.5095 152.879 13.5095L151.777 16.2657L153.431 19.022L153.982 21.7782L153.431 25.0857Z" fill="#F7CEB5"/>
<path d="M151.777 42.9307C151.777 44.0353 152.672 44.9307 153.777 44.9307H164.109C165.214 44.9307 166.109 44.0353 166.109 42.9307V27.0363L163.353 26.1882L163.141 27.0363C163.141 27.0363 163.104 29.4459 162.251 30.5982C160.457 33.0205 156.601 32.7911 154.533 30.5982C153.027 29.0009 153.431 25.0857 153.431 25.0857L151.501 25.637L151.777 28.3932V42.9307Z" fill="#F09F67"/>
<path d="M154.533 95.0947C154.533 95.0947 155.541 97.0742 156.738 97.2997C157.877 97.5143 159.494 96.1972 159.494 96.1972L161.699 95.6459C161.699 95.6459 162.838 95.5396 163.353 95.0947C163.713 94.7835 163.919 94.4231 164.013 94.0282C164.136 93.5125 164.068 92.9382 163.904 92.3384C163.778 91.874 163.353 91.2359 163.353 91.2359L162.251 90.1334L160.597 88.4795L156.187 89.5822L151.501 91.2358L153.431 92.8897L154.315 94.6576L154.533 95.0947Z" fill="#F7CEB5"/>
<path d="M96.1007 141.4C99.1451 141.4 101.613 138.932 101.613 135.887C101.613 134.958 101.383 134.082 100.977 133.314C100.09 131.636 98.3414 130.471 96.332 130.38L95.6865 130.388C92.8269 130.59 90.5882 132.975 90.5882 135.887C90.5882 138.932 93.0562 141.4 96.1007 141.4Z" fill="#7E563C"/>
<path fill-rule="evenodd" clip-rule="evenodd" d="M76.8074 161.245H110.434C110.434 161.245 116.85 142.04 110.434 133.131C108.671 130.683 106.023 128.565 106.023 128.565C104.486 130.645 102.093 131.665 100.977 133.314C101.383 134.082 101.613 134.958 101.613 135.887C101.613 138.932 99.1451 141.4 96.1007 141.4C93.0562 141.4 90.5882 138.932 90.5882 135.887C90.5882 132.975 92.8269 130.59 95.6865 130.388C95.8161 130.379 95.9469 130.375 96.0789 130.375H96.1007L99.9594 125.413H88.3836C88.3836 125.413 87.0364 125.338 86.1786 125.413C81.1177 125.861 78.2426 128.729 75.7048 133.131C72.3697 138.915 76.2561 150.22 76.2561 150.22L76.5317 155.732L76.8074 161.245ZM90.3836 158.488C89.279 158.488 88.3836 157.593 88.3836 156.488V152.22C88.3836 151.115 89.279 150.22 90.3836 150.22H100.716C101.821 150.22 102.716 151.115 102.716 152.22V156.488C102.716 157.593 101.821 158.488 100.716 158.488H90.3836Z" fill="#4E6EFC"/>
<path d="M90.3836 150.22C89.279 150.22 88.3836 151.115 88.3836 152.22V156.488C88.3836 157.593 89.279 158.488 90.3836 158.488H100.716C101.821 158.488 102.716 157.593 102.716 156.488V152.22C102.716 151.115 101.821 150.22 100.716 150.22H90.3836Z" fill="#D9D9D9"/>
<path d="M110.434 161.245H76.8074L75.7048 175.577H112.639L110.434 161.245Z" fill="#FFC081"/>
<path d="M112.639 175.577H75.7048V181.243C75.7048 182.072 76.3764 182.743 77.2048 182.743H94.1717H111.139C111.967 182.743 112.639 182.072 112.639 181.243V175.577Z" fill="#FBBC04"/>
<path fill-rule="evenodd" clip-rule="evenodd" d="M50.3474 15.7147V91.2359H118.151L119.254 15.7147H50.3474ZM54.7574 85.7234V20.6759H78.4611H82.3198V85.7234H78.4611H54.7574ZM86.1786 85.7234V20.6759H113.741H116.497L115.395 85.7234H112.639H86.1786Z" fill="#BBD2F6"/>
<path d="M82.3198 85.7234V20.6759H78.4611V53.1997V85.7234H82.3198Z" fill="#DDE5F6"/>
<path d="M54.7574 20.6759V85.7234H78.4611V53.1997V20.6759H54.7574Z" fill="white"/>
<path d="M86.1786 20.6759V85.7234H112.639L113.741 20.6759H86.1786Z" fill="white"/>
<path d="M115.395 85.7234L116.497 20.6759H113.741L112.639 85.7234H115.395Z" fill="#D9E6F8"/>
<path d="M168.866 97.2997C170.34 97.3935 172.546 95.6459 172.173 95.4637C172.306 95.5234 172.43 95.5841 172.546 95.6459C172.546 95.6459 172.349 91.7317 170.519 91.2359C169.896 91.067 169.489 91.067 168.866 91.2359L166.661 91.7872C166.661 91.7872 165.488 91.8571 165.007 92.3384C164.594 92.7513 164.738 93.4182 165.037 94.0455C165.436 94.8809 166.109 95.6459 166.109 95.6459C166.109 95.6459 167.613 97.2199 168.866 97.2997Z" fill="#F7CEB5"/>
<path d="M201.941 9.65093L201.138 135.796L206.902 148.83V125.413V119.901V72.4934V70.2884V67.5322V15.7147H278.014V67.5322V70.2884V175.577L275.257 175.534L268.091 175.386V179.436H260.925V175.238L227.082 174.475L229.504 177.782H232.465C233.569 177.782 234.465 178.678 234.465 179.782V180.538H235.221C236.326 180.538 237.221 181.434 237.221 182.538V182.743H283.526V9.65093H201.941Z" fill="#D9E6F8"/>
<path d="M291.244 182.743L292.346 9.65093H283.526V182.743H291.244Z" fill="#B3D1FB"/>
<path d="M278.014 175.577V70.2884H206.902V72.4934H275.257V86.2747V119.901V125.413V172.821V175.534L278.014 175.577Z" fill="#D9E6F8" fill-opacity="0.7"/>
<path d="M246.041 31.7009V63.6734H253.759V31.7009H246.041Z" fill="#D9E6F8"/>
<path d="M256.515 63.6734V31.7009H253.759V63.6734H256.515Z" fill="#123457"/>
<path d="M226.747 31.7009L235.567 63.6734H243.836L234.465 31.7009H226.747Z" fill="#D9E6F8"/>
<path d="M246.041 63.6734L237.221 31.7009H234.465L243.836 63.6734H246.041Z" fill="#123457"/>
<path d="M217.376 31.7009V63.6734H223.991V31.7009H217.376Z" fill="#D9E6F8"/>
<path d="M225.094 63.6734V31.7009H223.991V63.6734H225.094Z" fill="#123457"/>
<path fill-rule="evenodd" clip-rule="evenodd" d="M206.902 15.7147V67.5322H278.014V15.7147H206.902ZM210.21 63.6734V17.9197H275.257V63.6734H256.515H253.759H246.041H243.836H235.567H226.747H225.094H223.991H217.376H210.21Z" fill="#E4EDFA"/>
<path d="M278.014 67.5322H206.902V70.2884H278.014V67.5322Z" fill="#D9E6F8"/>
<path d="M257.066 97.2997V119.901H262.579V97.2997H257.066Z" fill="#D9E6F8"/>
<path d="M264.784 119.901V97.2997H262.579V119.901H264.784Z" fill="#123457"/>
<path d="M275.257 119.901V86.2747H273.052V119.901H275.257Z" fill="#123457"/>
<path d="M275.257 125.413V119.901H273.052H264.784H262.579H257.066H251.002V125.413H275.257Z" fill="#D9E6F8"/>
<path d="M206.902 119.901V125.413H235.567V119.901H206.902Z" fill="#D9E6F8"/>
<path d="M226.747 167.86C226.563 169.481 226.747 172.039 226.747 172.039L260.925 172.59C260.925 172.59 261.213 169.684 260.925 167.86C260.489 165.095 259.231 163.834 258.169 161.245C256.408 156.955 255.981 154.29 253.759 150.22C251.768 146.574 247.695 141.48 247.695 141.48L242.734 141.377C242.734 141.377 239.187 144.93 237.221 147.463C234.143 151.431 232.82 153.982 230.606 158.488C228.861 162.041 227.194 163.927 226.747 167.86Z" fill="white"/>
<path d="M260.925 175.238V172.59L226.747 172.039V173.132V174.225L227.082 174.475L260.925 175.238Z" fill="#D9E6F8"/>
<path d="M275.257 175.534V172.821L268.091 172.705V175.386L275.257 175.534Z" fill="#D9E6F8"/>
<path d="M207.8 177.782C206.695 177.782 205.8 178.678 205.8 179.782V180.538H234.465V179.782C234.465 178.678 233.569 177.782 232.465 177.782H229.504H226.747H220.132H210.21H207.8Z" fill="#817C7C"/>
<path d="M205.595 180.538C204.49 180.538 203.595 181.434 203.595 182.538V182.743H220.408H237.221V182.538C237.221 181.434 236.326 180.538 235.221 180.538H234.465H205.8H205.595Z" fill="#FFD200" fill-opacity="0.41"/>
<path d="M201.059 148.151L200.839 182.743H203.595V182.538C203.595 181.434 204.49 180.538 205.595 180.538H205.8V179.782C205.8 178.678 206.695 177.782 207.8 177.782H210.21L211.312 174.543L206.902 174.475V171.718V161.809L205.8 158.488C205.8 158.488 203.851 154.164 201.059 148.151Z" fill="#D9E6F8"/>
<path d="M206.902 171.718V174.475L211.312 174.543L210.21 171.772L206.902 171.718Z" fill="#D9E6F8"/>
<path d="M206.902 161.809V171.718L210.21 171.772L206.902 161.809Z" fill="white"/>
<path d="M139.65 92.3384C142.822 91.1044 147.919 89.5822 147.919 89.5822C147.919 89.5822 148.435 89.4607 149.273 89.2836L146.264 86.2745L143.508 82.967L140.201 79.3839L139.649 81.8645L139.65 92.3384Z" fill="#123457"/>
<path d="M176.032 91.2367L176.008 87.9362L175.481 88.4795L174.435 90.57C174.933 90.7647 175.466 90.9845 176.008 91.2258C176.016 91.2294 176.024 91.2331 176.032 91.2367Z" fill="#1B3DB9"/>
<path d="M172.173 95.4637C172.546 95.6459 170.34 97.3935 168.866 97.2997C167.613 97.2199 166.109 95.6459 166.109 95.6459C166.109 95.6459 165.436 94.8809 165.037 94.0455C164.661 94.026 164.324 94.0215 164.013 94.0282C163.919 94.4231 163.713 94.7835 163.353 95.0947C162.838 95.5396 161.699 95.6459 161.699 95.6459L159.494 96.1972C159.494 96.1972 157.877 97.5143 156.738 97.2997C155.541 97.0742 154.533 95.0947 154.533 95.0947L154.315 94.6576C151.142 94.7414 149.479 95.794 145.663 96.5423C143.743 96.9189 141.721 97.6574 139.649 98.6666V119.349L140.752 135.887L135.239 177.782H143.508L149.572 152.976L154.533 134.233L156.738 119.349L158.943 102.812L162.251 114.939L165.007 130.926L167.212 139.746V177.782H177.686V177.231V160.142L177.134 132.579L176.583 109.978L175.482 98.9715C174.817 98.2529 174.498 97.6039 174.09 97.02C173.736 96.5139 173.316 96.0568 172.546 95.6459C172.43 95.5841 172.306 95.5234 172.173 95.4637Z" fill="#123457"/>
<path d="M232.811 141.17C232.811 141.17 230.137 145.686 228.401 148.566C226.057 152.456 224 154.262 222.337 158.488C220.961 161.987 220.132 167.86 220.132 167.86V170.406L222.852 171.976L226.747 174.225V173.132V172.039C226.747 172.039 226.563 169.481 226.747 167.86C227.194 163.927 228.861 162.041 230.606 158.488C232.82 153.982 234.143 151.431 237.221 147.463C239.187 144.93 242.734 141.377 242.734 141.377L232.811 141.17Z" fill="black"/>
<path d="M247.695 141.48C247.695 141.48 251.768 146.574 253.759 150.22C255.981 154.29 256.408 156.955 258.169 161.245C259.231 163.834 260.489 165.095 260.925 167.86C261.213 169.684 260.925 172.59 260.925 172.59V175.238V179.436H268.091V175.386V172.705C268.091 172.705 268.328 169.737 268.091 167.86C267.595 163.933 265.866 162.093 264.232 158.488C262.444 154.542 261.434 152.32 259.271 148.566C257.669 145.784 254.861 141.629 254.861 141.629L247.695 141.48Z" fill="black"/>
<path d="M217.222 130.926C216.394 130.926 215.722 131.598 215.722 132.426V135.49C215.722 136.318 216.394 136.99 217.222 136.99H217.376H270.296H271.552C272.381 136.99 273.052 136.318 273.052 135.49V132.426C273.052 131.598 272.381 130.926 271.552 130.926H251.002H235.567H217.222Z" fill="#7E563C"/>
<path d="M217.376 136.99V139.379C217.376 140.196 218.029 140.862 218.845 140.879L232.811 141.17L242.734 141.377L247.695 141.48L254.861 141.629L268.872 140.921C269.67 140.88 270.296 140.221 270.296 139.422V136.99H217.376Z" fill="#7E563C" fill-opacity="0.5"/>
<path d="M152.824 60.9669C152.254 60.9397 151.777 61.3948 151.777 61.9657V65.476C151.777 66.0098 152.196 66.4495 152.729 66.4748L162.306 66.9309C162.876 66.958 163.353 66.503 163.353 65.932V62.4218C163.353 61.888 162.934 61.4483 162.401 61.4229L152.824 60.9669Z" fill="white"/>
<path fill-rule="evenodd" clip-rule="evenodd" d="M152.729 66.4748C152.196 66.4495 151.777 66.0098 151.777 65.476V61.9657C151.777 61.3948 152.254 60.9397 152.824 60.9669L162.401 61.4229C162.934 61.4483 163.353 61.888 163.353 62.4218V65.932C163.353 66.503 162.876 66.958 162.306 66.9309L152.729 66.4748Z" fill="white"/>
<path fill-rule="evenodd" clip-rule="evenodd" d="M168.064 85.2846L169.417 80.2107L171.622 73.5957V66.4295L170.519 55.4045L171.071 48.2382L170.948 43.8282L170.519 28.3932L166.109 27.0363V42.9307C166.109 44.0353 165.214 44.9307 164.109 44.9307H153.777C152.672 44.9307 151.777 44.0353 151.777 42.9307V28.3932L151.501 25.637L149.572 26.1882L146.264 27.6582V47.1357L145.162 50.0757L142.957 67.5322L146.264 71.3907L150.674 76.352L154.533 81.8645L156.957 84.5082L160.099 87.9362C162.249 88.0003 164.712 88.3207 166.807 88.662L167.358 88.7513L167.461 88.158L167.763 86.4123L168.064 85.2846ZM152.729 66.4748C152.196 66.4495 151.777 66.0098 151.777 65.476V61.9657C151.777 61.3948 152.254 60.9397 152.824 60.9669L162.401 61.4229C162.934 61.4483 163.353 61.888 163.353 62.4218V65.932C163.353 66.503 162.876 66.958 162.306 66.9309L152.729 66.4748Z" fill="#123457"/>
<path d="M171.622 87.6584L167.763 86.4123L167.461 88.158L167.358 88.7513L167.91 88.8488C170.071 89.2291 171.622 89.5822 171.622 89.5822C171.622 89.5822 172.848 89.9488 174.435 90.57L175.481 88.4795L171.622 87.6584Z" fill="#F7CEB5"/>
<path d="M139.65 92.3384C124.48 98.2394 108.784 114.807 99.9594 125.413L96.1007 130.375C96.1781 130.375 96.2553 130.377 96.332 130.38C98.3414 130.471 100.09 131.636 100.977 133.314C102.093 131.665 104.486 130.645 106.023 128.565C106.948 127.552 124.621 105.987 139.649 98.6666C141.721 97.6574 143.743 96.9189 145.663 96.5423C149.479 95.794 151.142 94.7414 154.315 94.6576L153.431 92.8897L151.501 91.2358L149.572 89.582L149.273 89.2836C148.435 89.4607 147.919 89.5822 147.919 89.5822C147.919 89.5822 142.822 91.1044 139.65 92.3384Z" fill="#FF9933"/>
<path fill-rule="evenodd" clip-rule="evenodd" d="M210.21 63.6734V17.9197H275.257V63.6734H256.515V31.7009H253.759H246.041V63.6734L237.221 31.7009H234.465H226.747H225.094H223.991H217.376V63.6734H210.21ZM226.747 63.6734V31.7009L235.567 63.6734H226.747Z" fill="white"/>
<path d="M225.094 31.7009V63.6734H226.747V31.7009H225.094Z" fill="#123457"/>
<path d="M188.711 122.657C192.691 130.327 197.543 140.579 201.059 148.151C203.851 154.164 205.8 158.488 205.8 158.488L206.902 161.809L210.21 171.772L211.312 174.543L210.21 177.782H220.132H226.747H229.504L227.082 174.475L226.747 174.225L222.852 171.976L220.132 170.406L215.722 167.86L208.005 151.322L206.902 148.83L201.138 135.796L195.326 122.657L186.506 103.363C186.506 103.363 183.534 96.3419 179.891 93.4409C178.841 92.605 177.41 91.8514 176.032 91.2367L176.008 91.2258C175.466 90.9845 174.933 90.7647 174.435 90.57C172.848 89.9488 171.622 89.5822 171.622 89.5822C171.622 89.5822 170.071 89.2291 167.91 88.8488C167.557 88.7868 167.188 88.724 166.807 88.662C164.712 88.3207 162.249 88.0003 160.099 87.9362L160.597 88.4795L162.251 90.1334L163.353 91.2359C163.353 91.2359 163.778 91.874 163.904 92.3384C164.068 92.9382 164.136 93.5125 164.013 94.0282C164.324 94.0215 164.661 94.026 165.037 94.0455C164.738 93.4182 164.594 92.7513 165.007 92.3384C165.488 91.8571 166.661 91.7872 166.661 91.7872L168.866 91.2359C169.489 91.067 169.896 91.067 170.519 91.2359C172.349 91.7317 172.546 95.6459 172.546 95.6459C173.316 96.0568 173.736 96.5139 174.09 97.02L175.481 98.4172L176.032 98.9715L177.281 100.328L179.34 102.949C183.974 108.758 184.756 115.035 188.711 122.657Z" fill="#FF9933"/>
<path d="M175.482 98.9715L175.481 98.4172L174.09 97.02C174.498 97.6039 174.817 98.2529 175.482 98.9715Z" fill="#1B3DB9"/>
<path d="M264.784 97.2997V119.901H273.052V86.2747H264.784V97.2997Z" fill="#D9E6F8"/>
<path d="M235.567 119.901V125.413H251.002V119.901H235.567Z" fill="#D9E6F8"/>
<path d="M40.069 127.319L41.2844 133.152L43.7151 136.312L45.6597 129.02C45.6597 129.02 46.7403 124.317 48.5766 121.971C49.404 120.914 51.0073 119.54 51.0073 119.54L51.7365 114.679L53.4381 104.227V97.4206C53.4381 97.4206 53.2361 94.2439 51.7365 93.7745C50.4747 93.3795 48.5766 94.9899 48.5766 94.9899L45.6597 99.3652L43.7151 106.657L42.4997 105.199C42.4997 105.199 41.0615 103.981 40.069 104.227C38.9466 104.504 38.3785 106.657 38.3785 106.657V123.186L40.069 127.319Z" fill="#9FC5A4"/>
<path fill-rule="evenodd" clip-rule="evenodd" d="M44.93 156.001C44.4705 157.525 43.5448 160.62 43.5448 160.62H44.93L46.1454 155.029C46.1454 155.029 47.3755 151.339 48.09 148.952C49.021 145.842 50.2776 140.931 50.2776 140.931L51.493 137.042L52.7084 132.423L54.653 127.076L58.2991 119.54L60.7298 115.165L60.4867 114.436L58.2991 117.353L55.1391 123.43L52.7084 129.263C52.7084 129.263 51.2999 134.618 50.2776 138.014C49.2999 141.262 48.5813 143.03 47.6038 146.278C46.4691 150.049 46.0672 152.231 44.93 156.001Z" fill="#2E6C6F"/>
<path d="M38.3785 160.62H36.9087C36.9087 160.62 36.4904 154.858 36.4224 151.626C36.3845 149.823 36.5041 148.809 36.4224 147.008C36.262 143.467 35.7256 141.52 35.2071 138.014C34.4468 132.873 34.2372 129.94 33.0194 124.888C32.5121 122.784 31.561 119.54 31.561 119.54C31.561 119.54 31.324 118.969 31.561 118.811C31.7189 118.706 32.0471 118.811 32.0471 118.811C32.0471 118.811 33.33 122.486 33.9917 124.888C35.3761 129.914 35.6904 132.852 36.4224 138.014C36.6199 139.406 36.7805 140.542 36.9182 141.639C37.0005 141.462 37.6038 140.212 38.3785 139.958C39.206 139.687 39.9029 139.867 40.5548 140.445C41.229 141.042 41.2844 142.632 41.2844 142.632C41.2844 142.632 41.7086 144.132 42.4997 144.334C43.7268 144.647 43.2286 141.174 43.2286 141.174L43.7151 136.312L41.2844 133.152L40.069 127.319L38.3785 123.186L37.8813 121.971C37.8813 121.971 36.2751 117.946 33.9922 117.11C32.4769 116.554 31.3191 116.42 29.8599 117.11C28.3316 117.831 27.1861 120.513 27.1861 120.513L26.2138 126.103C26.2138 126.103 27.2434 130.882 26.2138 133.639C25.7977 134.753 25.0755 135.167 24.7554 136.312C24.3721 137.684 24.7554 139.958 24.7554 139.958L26.2138 146.765L28.8876 156.001L31.0753 160.62H39.8259L37.8813 151.14L37.5155 148.855C37.546 149.708 37.5691 150.537 37.6378 151.626C37.8418 154.86 38.3785 160.62 38.3785 160.62Z" fill="#4A9B7D"/>
<path d="M27.1861 160.62C27.1861 160.62 26.2256 166.814 27.1861 170.586C27.8259 173.098 28.5119 174.448 29.8599 176.663C30.847 178.284 32.7768 180.552 32.7768 180.552H47.1181C47.1181 180.552 48.944 178.299 49.792 176.663C50.9382 174.45 51.2682 173.033 51.7365 170.586C52.4681 166.763 51.7365 160.62 51.7365 160.62H48.5766H39.8259H31.0753H27.1861Z" fill="#80635D"/>
<path d="M36.9087 160.62H38.3785C38.3785 160.62 37.8418 154.86 37.6378 151.626C37.5691 150.537 37.546 149.708 37.5155 148.855L36.9087 145.063V141.66C36.9087 141.66 36.9119 141.653 36.9182 141.639C36.7805 140.542 36.6199 139.406 36.4224 138.014C35.6904 132.852 35.3761 129.914 33.9917 124.888C33.33 122.486 32.0471 118.811 32.0471 118.811C32.0471 118.811 31.7189 118.706 31.561 118.811C31.324 118.969 31.561 119.54 31.561 119.54C31.561 119.54 32.5121 122.784 33.0194 124.888C34.2372 129.94 34.4468 132.873 35.2071 138.014C35.7256 141.52 36.262 143.467 36.4224 147.008C36.5041 148.809 36.3845 149.823 36.4224 151.626C36.4904 154.858 36.9087 160.62 36.9087 160.62Z" fill="#3AB34C" fill-opacity="0.25"/>
<path d="M43.5448 160.62C43.5448 160.62 44.4705 157.525 44.93 156.001C46.0672 152.231 46.4691 150.049 47.6038 146.278C48.5813 143.03 49.2999 141.262 50.2776 138.014C51.2999 134.618 52.7084 129.263 52.7084 129.263L55.1391 123.43L58.2991 117.353L60.4867 114.436L60.7298 115.165L58.2991 119.54L54.653 127.076L52.7084 132.423L51.493 137.042L50.2776 140.931C50.2776 140.931 49.021 145.842 48.09 148.952C47.3755 151.339 46.1454 155.029 46.1454 155.029L44.93 160.62H43.5448Z" fill="#06E07F" fill-opacity="0.25"/>
<path fill-rule="evenodd" clip-rule="evenodd" d="M45.6597 129.02L43.7151 136.312L43.2286 141.174C43.2286 141.174 43.7268 144.647 42.4997 144.334C41.7086 144.132 41.2844 142.632 41.2844 142.632C41.2844 142.632 41.229 141.042 40.5548 140.445C39.9029 139.867 39.206 139.687 38.3785 139.958C37.6038 140.212 37.0005 141.462 36.9182 141.639C36.9119 141.653 36.9087 141.66 36.9087 141.66V145.063L37.5155 148.855L37.8813 151.14L39.8259 160.62H48.5766L53.4381 154.057L58.5426 146.765C58.5426 146.765 62.9291 142.763 61.9456 139.958C61.6058 138.99 61.4283 138.181 60.4872 137.771C59.7912 137.467 58.9982 138.378 58.5426 137.771C58.2009 137.315 58.5426 136.312 58.5426 136.312L60.4872 130.479L61.9456 121.971C61.9456 121.971 63.3111 119.061 63.161 117.11C63.0459 115.613 63.2005 114.287 61.9456 113.463C60.8346 112.734 58.5426 113.463 58.5426 113.463L53.4381 117.11L51.0073 119.54C51.0073 119.54 49.404 120.914 48.5766 121.971C46.7403 124.317 45.6597 129.02 45.6597 129.02ZM44.93 156.001C44.4705 157.525 43.5448 160.62 43.5448 160.62H44.93L46.1454 155.029C46.1454 155.029 47.3755 151.339 48.09 148.952C49.021 145.842 50.2776 140.931 50.2776 140.931L51.493 137.042L52.7084 132.423L54.653 127.076L58.2991 119.54L60.7298 115.165L60.4867 114.436L58.2991 117.353L55.1391 123.43L52.7084 129.263C52.7084 129.263 51.2999 134.618 50.2776 138.014C49.2999 141.262 48.5813 143.03 47.6038 146.278C46.4691 150.049 46.0672 152.231 44.93 156.001Z" fill="#346969"/>
<path fill-rule="evenodd" clip-rule="evenodd" d="M252.71 117.526H251.904H249.74H248.898H248.042H244.647H242.384C242.384 117.526 241.825 121.131 242.384 123.326C242.756 124.788 243.155 125.573 243.94 126.862C244.514 127.806 245.637 129.126 245.637 129.126H253.984C253.984 129.126 255.047 127.815 255.54 126.862C255.672 126.607 255.786 126.37 255.885 126.143C255.885 126.143 257.232 126.373 258.043 126.143C258.598 125.986 258.909 125.837 259.364 125.483C260.098 124.912 260.372 124.377 260.685 123.501C261.119 122.286 260.685 120.199 260.685 120.199C260.685 120.199 260.432 119.285 260.025 118.878C259.448 118.301 258.961 118.033 258.043 118.217C257.457 118.335 256.953 118.458 256.783 118.763C256.731 118.023 256.672 117.526 256.672 117.526H254.833H252.71ZM256.853 120.199C256.879 121.238 256.849 122.399 256.672 123.326C256.507 124.185 256.372 124.826 256.144 125.483C256.144 125.483 257.339 125.716 258.043 125.483C259.129 125.122 259.596 124.386 260.025 123.326C260.482 122.193 260.025 120.199 260.025 120.199C260.025 120.199 259.105 118.613 258.043 118.878C257.167 119.096 256.853 120.199 256.853 120.199Z" fill="#538DFD" fill-opacity="0.9"/>
<path d="M254.833 117.526H256.672C256.672 117.526 256.731 118.023 256.783 118.763C256.953 118.458 257.457 118.335 258.043 118.217C258.961 118.033 259.448 118.301 260.025 118.878C260.432 119.285 260.685 120.199 260.685 120.199C260.685 120.199 261.119 122.286 260.685 123.501C260.372 124.377 260.098 124.912 259.364 125.483C258.909 125.837 258.598 125.986 258.043 126.143C257.232 126.373 255.885 126.143 255.885 126.143C255.786 126.37 255.672 126.607 255.54 126.862C255.047 127.815 253.984 129.126 253.984 129.126H245.637C245.637 129.126 244.514 127.806 243.94 126.862C243.155 125.573 242.756 124.788 242.384 123.326C241.825 121.131 242.384 117.526 242.384 117.526H244.647M254.833 117.526H249.74M254.833 117.526H252.71H251.904H249.74M244.647 117.526H249.74M244.647 117.526H248.042H248.898H249.74M256.672 123.326C256.849 122.399 256.879 121.238 256.853 120.199C256.853 120.199 257.167 119.096 258.043 118.878C259.105 118.613 260.025 120.199 260.025 120.199C260.025 120.199 260.482 122.193 260.025 123.326C259.596 124.386 259.129 125.122 258.043 125.483C257.339 125.716 256.144 125.483 256.144 125.483C256.372 124.826 256.507 124.185 256.672 123.326Z" stroke="#538DFD" stroke-width="2"/>
</svg>
