<svg width="332" height="250" viewBox="0 0 332 250" fill="none" xmlns="http://www.w3.org/2000/svg">
<path d="M192.177 194.129H191.606V190.308H192.177V194.129ZM196.582 193.78C196.582 194.012 196.465 194.129 196.233 194.129H194.707V190.308H196.223C196.449 190.308 196.562 190.425 196.562 190.66V191.643C196.562 191.774 196.522 191.875 196.44 191.946C196.429 191.956 196.33 192.019 196.142 192.134C196.336 192.253 196.439 192.318 196.45 192.329C196.538 192.406 196.582 192.511 196.582 192.644V193.78ZM195.993 191.714V190.789H195.278V191.91H195.718L195.993 191.714ZM196.008 193.648V192.559L195.727 192.373H195.278V193.648H196.008ZM201.028 194.129H200.527L199.612 191.724C199.636 191.841 199.648 191.933 199.648 192V194.129H199.092V190.308H199.592L200.508 192.664C200.483 192.547 200.471 192.455 200.471 192.388V190.308H201.028V194.129Z" fill="white"/>
<path d="M331.255 193.263C331.255 224.166 257.101 249.218 165.628 249.218C74.154 249.218 0 224.166 0 193.263C0 162.359 79.7495 169.761 171.223 169.761C262.697 169.761 331.255 162.359 331.255 193.263Z" fill="#ECF3FC"/>
<path d="M106.76 60.4632L106.666 60.2146L106.478 60.0262L106.394 59.9702L105.912 59.7292L105.673 59.6874H104.743H104.665H104.587L104.505 59.708L104.027 59.8275L103.914 59.8675L94.8132 64.1867L92.0206 63.2558L91.4 63.5661L91.2449 63.7212L93.7272 66.2036H94.7357L99.3125 64.8848V64.9624L98.8471 70.2374V70.5477L99.7779 70.0823L100.243 69.772L100.399 69.6168L102.571 63.2558L105.208 62.0146L105.518 61.8595L105.984 61.5492L106.604 60.9286L106.741 60.6553C106.741 60.6553 106.755 60.6337 106.76 60.6183C106.769 60.5894 106.76 60.571 106.76 60.5407M106.76 60.4632C106.76 60.4632 106.76 60.5105 106.76 60.5407M106.76 60.4632V60.5407M94.6581 60.7735L97.1404 62.4801L99.6228 61.2389L96.2096 59.9977H95.8993L94.6581 60.6183V60.7735Z" stroke="white" stroke-width="0.3" stroke-linecap="round"/>
<path d="M104.648 61.0981C104.648 61.2928 104.49 61.4508 104.295 61.4508C104.101 61.4508 103.943 61.2928 103.943 61.0981C103.943 60.9033 104.101 60.7454 104.295 60.7454C104.49 60.7454 104.648 60.9033 104.648 61.0981Z" fill="white"/>
<path d="M103.236 61.803C103.236 61.9977 103.078 62.1557 102.883 62.1557C102.689 62.1557 102.531 61.9977 102.531 61.803C102.531 61.6082 102.689 61.4503 102.883 61.4503C103.078 61.4503 103.236 61.6082 103.236 61.803Z" fill="white"/>
<path d="M101.826 62.509C101.826 62.7038 101.668 62.8617 101.473 62.8617C101.278 62.8617 101.12 62.7038 101.12 62.509C101.12 62.3142 101.278 62.1563 101.473 62.1563C101.668 62.1563 101.826 62.3142 101.826 62.509Z" fill="white"/>
<path d="M100.25 63.2554C100.25 63.4502 100.092 63.6081 99.8969 63.6081C99.7021 63.6081 99.5442 63.4502 99.5442 63.2554C99.5442 63.0606 99.7021 62.9027 99.8969 62.9027C100.092 62.9027 100.25 63.0606 100.25 63.2554Z" fill="white"/>
<path d="M99.0042 63.9195C99.0042 64.1143 98.8463 64.2722 98.6515 64.2722C98.4567 64.2722 98.2988 64.1143 98.2988 63.9195C98.2988 63.7247 98.4567 63.5668 98.6515 63.5668C98.8463 63.5668 99.0042 63.7247 99.0042 63.9195Z" fill="white"/>
<rect x="139.454" y="146.569" width="49.5449" height="14.4506" rx="2" fill="#D9D9D9"/>
<circle cx="146.679" cy="153.795" r="5.16092" fill="white"/>
<path d="M182.805 154.31C182.805 155.735 181.65 156.89 180.225 156.89C178.799 156.89 177.644 155.735 177.644 154.31C177.644 152.884 178.799 151.729 180.225 151.729C181.65 151.729 182.805 152.884 182.805 154.31Z" fill="#007830"/>
<path d="M188.482 154.31C188.482 155.735 187.327 156.89 185.902 156.89C184.476 156.89 183.321 155.735 183.321 154.31C183.321 152.884 184.476 151.729 185.902 151.729C187.327 151.729 188.482 152.884 188.482 154.31Z" fill="#FF0000"/>
<path d="M148.743 153.793C148.743 154.934 147.819 155.858 146.679 155.858C145.539 155.858 144.615 154.934 144.615 153.793C144.615 152.653 145.539 151.729 146.679 151.729C147.819 151.729 148.743 152.653 148.743 153.793Z" fill="#B782FD" fill-opacity="0.729412"/>
<path d="M143.583 157.924C143.583 157.924 143.832 156.307 144.615 155.86C145.315 155.46 146.679 155.86 146.679 155.86C146.679 155.86 148.043 155.46 148.743 155.86C149.526 156.307 149.776 157.924 149.776 157.924C149.776 157.924 147.954 158.957 146.679 158.957C145.404 158.957 143.583 157.924 143.583 157.924Z" fill="#B782FD" fill-opacity="0.729412"/>
<path d="M153.905 154.826C153.335 154.826 152.873 155.288 152.873 155.858C152.873 156.428 153.335 156.89 153.905 156.89H174.549C175.119 156.89 175.581 156.428 175.581 155.858C175.581 155.288 175.119 154.826 174.549 154.826H153.905Z" fill="white"/>
<path d="M152.873 151.73C152.873 151.159 153.335 150.697 153.905 150.697H171.452C172.022 150.697 172.484 151.159 172.484 151.73C172.484 152.3 172.022 152.762 171.452 152.762H153.905C153.335 152.762 152.873 152.3 152.873 151.73Z" fill="white"/>
<path d="M178.676 154.827L179.708 155.859L181.772 152.763M184.869 152.763L186.933 155.859M186.933 152.763L184.869 155.859" stroke="white" stroke-width="0.2"/>
<rect x="139.454" y="125.927" width="49.5449" height="14.4506" rx="2" fill="#D9D9D9"/>
<circle cx="146.679" cy="133.152" r="5.16092" fill="white"/>
<path d="M182.805 133.667C182.805 135.092 181.65 136.248 180.225 136.248C178.799 136.248 177.644 135.092 177.644 133.667C177.644 132.242 178.799 131.087 180.225 131.087C181.65 131.087 182.805 132.242 182.805 133.667Z" fill="#007830"/>
<path d="M188.482 133.667C188.482 135.092 187.327 136.248 185.902 136.248C184.476 136.248 183.321 135.092 183.321 133.667C183.321 132.242 184.476 131.087 185.902 131.087C187.327 131.087 188.482 132.242 188.482 133.667Z" fill="#FF0000"/>
<path d="M148.743 133.151C148.743 134.291 147.819 135.215 146.679 135.215C145.539 135.215 144.615 134.291 144.615 133.151C144.615 132.011 145.539 131.087 146.679 131.087C147.819 131.087 148.743 132.011 148.743 133.151Z" fill="#FF9933"/>
<path d="M143.583 137.281C143.583 137.281 143.832 135.663 144.615 135.216C145.315 134.816 146.679 135.216 146.679 135.216C146.679 135.216 148.043 134.816 148.743 135.216C149.526 135.663 149.776 137.281 149.776 137.281C149.776 137.281 147.954 138.313 146.679 138.313C145.404 138.313 143.583 137.281 143.583 137.281Z" fill="#FF9933"/>
<path d="M153.905 134.184C153.335 134.184 152.873 134.646 152.873 135.216C152.873 135.786 153.335 136.248 153.905 136.248H174.549C175.119 136.248 175.581 135.786 175.581 135.216C175.581 134.646 175.119 134.184 174.549 134.184H153.905Z" fill="white"/>
<path d="M152.873 131.087C152.873 130.517 153.335 130.055 153.905 130.055H171.452C172.022 130.055 172.484 130.517 172.484 131.087C172.484 131.657 172.022 132.119 171.452 132.119H153.905C153.335 132.119 152.873 131.657 152.873 131.087Z" fill="white"/>
<path d="M178.676 134.184L179.708 135.216L181.772 132.12M184.869 132.12L186.933 135.216M186.933 132.12L184.869 135.216" stroke="white" stroke-width="0.2"/>
<rect x="139.454" y="107.347" width="49.5449" height="14.4506" rx="2" fill="#D9D9D9"/>
<circle cx="146.679" cy="114.572" r="5.16092" fill="white"/>
<path d="M182.805 115.087C182.805 116.512 181.65 117.668 180.225 117.668C178.799 117.668 177.644 116.512 177.644 115.087C177.644 113.662 178.799 112.507 180.225 112.507C181.65 112.507 182.805 113.662 182.805 115.087Z" fill="#007830"/>
<path d="M188.482 115.087C188.482 116.512 187.327 117.668 185.902 117.668C184.476 117.668 183.321 116.512 183.321 115.087C183.321 113.662 184.476 112.507 185.902 112.507C187.327 112.507 188.482 113.662 188.482 115.087Z" fill="#FF0000"/>
<path d="M148.743 114.571C148.743 115.711 147.819 116.636 146.679 116.636C145.539 116.636 144.615 115.711 144.615 114.571C144.615 113.431 145.539 112.507 146.679 112.507C147.819 112.507 148.743 113.431 148.743 114.571Z" fill="#4285F4"/>
<path d="M143.583 118.702C143.583 118.702 143.832 117.085 144.615 116.638C145.315 116.238 146.679 116.638 146.679 116.638C146.679 116.638 148.043 116.238 148.743 116.638C149.526 117.085 149.776 118.702 149.776 118.702C149.776 118.702 147.954 119.734 146.679 119.734C145.404 119.734 143.583 118.702 143.583 118.702Z" fill="#4285F4"/>
<path d="M153.905 115.605C153.335 115.605 152.873 116.067 152.873 116.637C152.873 117.208 153.335 117.67 153.905 117.67H174.549C175.119 117.67 175.581 117.208 175.581 116.637C175.581 116.067 175.119 115.605 174.549 115.605H153.905Z" fill="white"/>
<path d="M152.873 112.509C152.873 111.939 153.335 111.477 153.905 111.477H171.452C172.022 111.477 172.484 111.939 172.484 112.509C172.484 113.079 172.022 113.541 171.452 113.541H153.905C153.335 113.541 152.873 113.079 152.873 112.509Z" fill="white"/>
<path d="M178.676 115.605L179.708 116.637L181.772 113.54M184.869 113.54L186.933 116.637M186.933 113.54L184.869 116.637" stroke="white" stroke-width="0.2"/>
<path d="M248.867 126.958C248.867 126.958 251.75 124.74 252.996 122.83C254.181 121.011 255.389 119.814 255.06 117.669C254.754 115.677 253.979 113.575 251.964 113.54C250.51 113.514 248.867 115.604 248.867 115.604C248.867 115.604 246.51 113.208 244.738 113.54C242.757 113.911 241.948 115.677 241.642 117.669C241.312 119.814 242.453 121.057 243.706 122.83C245.196 124.937 248.867 126.958 248.867 126.958Z" fill="#EA4335"/>
<path d="M27.9777 106.154C27.9777 103.393 30.2162 101.154 32.9777 101.154H93.1662C95.9276 101.154 98.1662 103.393 98.1662 106.154V115.412V131.249C98.1662 134.01 95.9276 136.249 93.1662 136.249H32.9777C30.2162 136.249 27.9777 134.01 27.9777 131.249V106.154Z" fill="#FFD200"/>
<circle cx="39.4257" cy="118.796" r="9.3835" fill="white"/>
<path d="M43.1799 118.796C43.1799 120.869 41.4994 122.55 39.4265 122.55C37.3535 122.55 35.6731 120.869 35.6731 118.796C35.6731 116.724 37.3535 115.043 39.4265 115.043C41.4994 115.043 43.1799 116.724 43.1799 118.796Z" fill="#CAA4FE"/>
<path d="M33.7963 126.302C33.7963 126.302 34.2501 123.362 35.673 122.549C36.9456 121.821 39.4264 122.549 39.4264 122.549C39.4264 122.549 41.9071 121.821 43.1798 122.549C44.6026 123.362 45.0565 126.302 45.0565 126.302C45.0565 126.302 41.744 128.179 39.4264 128.179C37.1087 128.179 33.7963 126.302 33.7963 126.302Z" fill="#CAA4FE"/>
<path d="M52.5626 116.356C51.5261 116.356 50.6859 117.196 50.6859 118.233C50.6859 119.269 51.5261 120.11 52.5626 120.11H90.0966C91.1331 120.11 91.9733 119.269 91.9733 118.233C91.9733 117.196 91.1331 116.356 90.0966 116.356H52.5626Z" fill="white"/>
<path d="M50.6859 108.849C50.6859 107.813 51.5261 106.973 52.5626 106.973H84.4665C85.503 106.973 86.3432 107.813 86.3432 108.849C86.3432 109.886 85.503 110.726 84.4665 110.726H52.5626C51.5261 110.726 50.6859 109.886 50.6859 108.849Z" fill="white"/>
<path d="M50.6859 127.428C50.6859 126.392 51.5261 125.552 52.5626 125.552H84.4665C85.503 125.552 86.3432 126.392 86.3432 127.428C86.3432 128.465 85.503 129.305 84.4665 129.305H52.5626C51.5261 129.305 50.6859 128.465 50.6859 127.428Z" fill="white"/>
<path d="M58.9424 38.03C58.9424 35.2686 61.181 33.03 63.9424 33.03H124.131C126.892 33.03 129.131 35.2686 129.131 38.03V47.2871V63.1243C129.131 65.8857 126.892 68.1243 124.131 68.1243H63.9424C61.181 68.1243 58.9424 65.8857 58.9424 63.1243V38.03Z" fill="#83EFBF"/>
<circle cx="70.3891" cy="50.6704" r="9.3835" fill="white"/>
<path d="M74.1433 50.6707C74.1433 52.7437 72.4628 54.4241 70.3899 54.4241C68.3169 54.4241 66.6365 52.7437 66.6365 50.6707C66.6365 48.5978 68.3169 46.9173 70.3899 46.9173C72.4628 46.9173 74.1433 48.5978 74.1433 50.6707Z" fill="#FF9933"/>
<path d="M64.7593 58.1778C64.7593 58.1778 65.2131 55.2374 66.636 54.4244C67.9086 53.6971 70.3894 54.4244 70.3894 54.4244C70.3894 54.4244 72.8701 53.6971 74.1428 54.4244C75.5657 55.2374 76.0195 58.1778 76.0195 58.1778C76.0195 58.1778 72.707 60.0545 70.3894 60.0545C68.0718 60.0545 64.7593 58.1778 64.7593 58.1778Z" fill="#FF9933"/>
<path d="M83.5271 48.2306C82.4906 48.2306 81.6504 49.0709 81.6504 50.1073C81.6504 51.1438 82.4906 51.984 83.5271 51.984H121.061C122.098 51.984 122.938 51.1438 122.938 50.1073C122.938 49.0709 122.098 48.2306 121.061 48.2306H83.5271Z" fill="white"/>
<path d="M81.6504 40.7239C81.6504 39.6874 82.4906 38.8472 83.5271 38.8472H115.431C116.467 38.8472 117.308 39.6874 117.308 40.7239C117.308 41.7603 116.467 42.6006 115.431 42.6006H83.5271C82.4906 42.6006 81.6504 41.7603 81.6504 40.7239Z" fill="white"/>
<path d="M81.6504 59.3028C81.6504 58.2663 82.4906 57.4261 83.5271 57.4261H115.431C116.467 57.4261 117.308 58.2663 117.308 59.3028C117.308 60.3392 116.467 61.1795 115.431 61.1795H83.5271C82.4906 61.1795 81.6504 60.3392 81.6504 59.3028Z" fill="white"/>
<path d="M220.464 68.789C220.464 66.0276 222.702 63.789 225.464 63.789H285.652C288.414 63.789 290.652 66.0276 290.652 68.789V78.0461V93.8833C290.652 96.6447 288.414 98.8833 285.652 98.8833H225.464C222.702 98.8833 220.464 96.6447 220.464 93.8833V68.789Z" fill="#007830"/>
<circle cx="231.91" cy="81.4306" r="9.3835" fill="white"/>
<path d="M235.664 81.431C235.664 83.5039 233.984 85.1844 231.911 85.1844C229.838 85.1844 228.157 83.5039 228.157 81.431C228.157 79.358 229.838 77.6776 231.911 77.6776C233.984 77.6776 235.664 79.358 235.664 81.431Z" fill="#FBBC04"/>
<path d="M226.281 88.9366C226.281 88.9366 226.734 85.9962 228.157 85.1832C229.43 84.4559 231.911 85.1832 231.911 85.1832C231.911 85.1832 234.391 84.4559 235.664 85.1832C237.087 85.9962 237.541 88.9366 237.541 88.9366C237.541 88.9366 234.228 90.8133 231.911 90.8133C229.593 90.8133 226.281 88.9366 226.281 88.9366Z" fill="#FBBC04"/>
<path d="M245.048 78.9907C244.012 78.9907 243.171 79.8309 243.171 80.8674C243.171 81.9039 244.012 82.7441 245.048 82.7441H282.582C283.619 82.7441 284.459 81.9039 284.459 80.8674C284.459 79.8309 283.619 78.9907 282.582 78.9907H245.048Z" fill="white"/>
<path d="M243.171 71.4839C243.171 70.4474 244.012 69.6072 245.048 69.6072H276.952C277.988 69.6072 278.829 70.4474 278.829 71.4839C278.829 72.5204 277.988 73.3606 276.952 73.3606H245.048C244.012 73.3606 243.171 72.5204 243.171 71.4839Z" fill="white"/>
<path d="M243.171 90.0628C243.171 89.0264 244.012 88.1861 245.048 88.1861H276.952C277.988 88.1861 278.829 89.0264 278.829 90.0628C278.829 91.0993 277.988 91.9395 276.952 91.9395H245.048C244.012 91.9395 243.171 91.0993 243.171 90.0628Z" fill="white"/>
<path d="M232.351 145.377C232.351 142.615 234.589 140.377 237.351 140.377H297.539C300.301 140.377 302.539 142.615 302.539 145.377V154.634V170.471C302.539 173.232 300.301 175.471 297.539 175.471H237.351C234.589 175.471 232.351 173.232 232.351 170.471V145.377Z" fill="#A0C6FD"/>
<circle cx="243.798" cy="158.019" r="9.3835" fill="white"/>
<path d="M247.552 158.019C247.552 160.092 245.872 161.772 243.799 161.772C241.726 161.772 240.045 160.092 240.045 158.019C240.045 155.946 241.726 154.266 243.799 154.266C245.872 154.266 247.552 155.946 247.552 158.019Z" fill="#4285F4"/>
<path d="M238.168 165.526C238.168 165.526 238.622 162.586 240.045 161.773C241.318 161.045 243.798 161.773 243.798 161.773C243.798 161.773 246.279 161.045 247.552 161.773C248.975 162.586 249.428 165.526 249.428 165.526C249.428 165.526 246.116 167.403 243.798 167.403C241.481 167.403 238.168 165.526 238.168 165.526Z" fill="#4285F4"/>
<path d="M256.936 155.579C255.9 155.579 255.059 156.419 255.059 157.456C255.059 158.492 255.9 159.332 256.936 159.332H294.47C295.506 159.332 296.347 158.492 296.347 157.456C296.347 156.419 295.506 155.579 294.47 155.579H256.936Z" fill="white"/>
<path d="M255.059 148.072C255.059 147.036 255.9 146.195 256.936 146.195H288.84C289.876 146.195 290.717 147.036 290.717 148.072C290.717 149.108 289.876 149.949 288.84 149.949H256.936C255.9 149.949 255.059 149.108 255.059 148.072Z" fill="white"/>
<path d="M255.059 166.651C255.059 165.614 255.9 164.774 256.936 164.774H288.84C289.876 164.774 290.717 165.614 290.717 166.651C290.717 167.687 289.876 168.528 288.84 168.528H256.936C255.9 168.528 255.059 167.687 255.059 166.651Z" fill="white"/>
<path d="M151.84 58.834L154.936 61.9305H173.516L176.612 58.834H151.84Z" fill="#123457"/>
<path d="M103.327 161.02L81.24 210.214C80.946 210.869 81.4171 211.611 82.1347 211.624L138.728 212.617C139.161 212.624 139.549 212.353 139.691 211.944L148.743 185.793L151.84 184.761C151.84 184.761 151.484 180.96 151.84 178.567C151.967 177.711 152.226 176.764 152.542 175.825L134.318 176.404C132.615 176.458 131.208 175.084 131.223 173.38L131.251 170.089L131.267 168.246L127.067 171.342L131.339 159.811C131.339 159.811 131.938 155.598 132.228 152.763C132.967 145.545 132.228 141.439 132.228 134.183C132.228 128.137 131.043 124.63 132.228 118.701C132.752 116.084 134.053 112.596 134.791 110.726C134.974 110.262 135.123 109.897 135.217 109.671L135.738 108.379L137.389 104.25C137.389 104.25 137.649 101.713 137.389 100.121C137.063 98.1215 137.211 96.2576 135.679 95.1789L135.325 94.9604C135.255 94.9226 135.182 94.8884 135.106 94.8578C134.136 94.4658 132.73 94.6398 131.894 94.8009C131.472 94.8823 131.196 94.9604 131.196 94.9604L126.035 102.186L118.81 112.508L113.649 121.797L109.52 131.087L105.392 142.441C105.392 142.441 103.683 148.667 103.327 152.763C103.048 155.975 103.327 161.02 103.327 161.02Z" fill="#F7CEB5"/>
<path d="M151.84 178.567C151.484 180.96 151.84 184.761 151.84 184.761L152.872 198.179L156.794 211.904C156.916 212.334 157.309 212.63 157.755 212.63H207.856C208.302 212.63 208.695 212.334 208.817 211.904L210.674 205.404L213.771 187.857L214.803 176.503L212.739 168.246C212.739 168.246 210.954 164.166 208.61 163.085C206.414 162.071 202.417 163.085 202.417 163.085C202.417 163.085 199.048 159.645 196.224 158.956C195.237 158.715 193.933 158.717 192.883 158.778C191.85 158.838 191.063 158.956 191.063 158.956C191.063 158.956 188.18 156.438 185.902 155.859C183.949 155.363 180.741 155.859 180.741 155.859L181.773 120.765C181.773 120.765 183.013 114.831 180.741 112.508C179.223 110.956 177.704 109.996 175.58 110.443C174.158 110.743 172.484 112.508 172.484 112.508L170.419 118.701L166.29 161.02L165.258 164.117L163.194 176.503V170.31L162.162 163.085C162.162 163.085 160.864 163.642 160.097 164.117C157.42 165.774 154.936 170.31 154.936 170.31C154.936 170.31 154.648 170.85 154.245 171.697C153.743 172.749 153.065 174.276 152.542 175.825C152.226 176.764 151.967 177.711 151.84 178.567Z" fill="#F7CEB5"/>
<path d="M192.883 158.778C193.933 158.717 195.237 158.715 196.224 158.956V150.851C195.002 150.807 194.159 150.698 194.159 150.698C194.159 150.698 193.558 150.4 192.813 149.899L192.883 158.778Z" fill="#123457"/>
<path d="M205.513 134.183L199.32 137.28L196.224 139.344L193.127 141.409L192.974 141.286C192.974 141.286 192.888 141.362 192.747 141.5C192.007 142.219 189.731 144.61 190.031 146.57C190.238 147.925 191.689 149.143 192.813 149.899C193.558 150.4 194.159 150.698 194.159 150.698C194.159 150.698 195.002 150.807 196.224 150.851C198.296 150.926 201.46 150.813 203.449 149.666C206.176 148.094 208.61 143.473 208.61 143.473C208.61 143.473 209.692 139.443 208.61 137.28C207.845 135.75 205.513 134.183 205.513 134.183Z" fill="#FEB69E"/>
<path d="M205.513 120.765L198.288 123.862L196.224 125.1L193.127 126.958L188.999 132.119C188.999 132.119 187.38 135.31 187.966 137.28C188.581 139.345 191.845 140.822 192.744 141.194C192.89 141.255 192.974 141.286 192.974 141.286L193.127 141.409L196.224 139.344L199.32 137.28L205.513 134.183C205.513 134.183 208.79 130.023 208.61 126.958C208.451 124.259 205.513 120.765 205.513 120.765Z" fill="#FEB69E"/>
<path d="M186.934 120.765C186.934 120.765 186.513 124.473 187.966 125.926C189.42 127.379 193.127 126.958 193.127 126.958L196.224 125.1L198.288 123.862L205.513 120.765C205.513 120.765 206.713 116.672 205.513 114.572C204.172 112.224 199.32 111.475 199.32 111.475L196.224 112.802L192.533 114.384L192.095 114.572L186.934 120.765Z" fill="#FEB69E"/>
<path d="M196.224 99.0892L204.481 89.7995C204.481 89.7995 206.213 87.4426 206.546 85.6708C206.769 84.4822 206.546 82.5742 206.546 82.5742C206.546 82.5742 205.459 81.0964 204.481 80.5099C202.407 79.2655 198.288 80.5099 198.288 80.5099L196.224 82.5742V99.0892Z" fill="#FEB69E"/>
<path d="M131.339 159.811L127.067 171.342L131.267 168.246L131.251 170.089L131.943 158.506L131.339 159.811Z" fill="#DAA585"/>
<path d="M132.228 118.701C131.043 124.63 132.228 128.137 132.228 134.183C132.228 141.439 132.967 145.545 132.228 152.763C131.938 155.598 131.339 159.811 131.339 159.811L131.943 158.506L131.251 170.089L131.223 173.38C131.208 175.084 132.615 176.458 134.318 176.404L152.542 175.825C153.065 174.276 153.743 172.749 154.245 171.697L138.432 172.263C136.734 172.324 135.325 170.964 135.325 169.265V110.726V109.411C135.325 109.411 135.286 109.503 135.217 109.671L134.791 110.726C134.053 112.596 132.752 116.084 132.228 118.701Z" fill="#123457"/>
<path d="M162.162 163.085L163.194 170.31V176.503L165.258 164.117L166.29 161.02L162.162 163.085Z" fill="#DAA585"/>
<path d="M135.325 61.834C135.325 60.1771 136.668 58.834 138.325 58.834H151.84H176.612H189.119C190.766 58.834 192.106 60.1628 192.119 61.8103L192.533 114.384L196.224 112.802V99.0892V82.5742V58.7374C196.224 57.0806 194.881 55.7374 193.224 55.7374H135.203C133.556 55.7374 132.217 57.065 132.203 58.7118L131.894 94.8009C132.73 94.6398 134.136 94.4658 135.106 94.8578C135.182 94.8884 135.255 94.9226 135.325 94.9604V93.9283V61.834Z" fill="#123457"/>
<path d="M135.325 16.5152C135.325 22.2158 130.704 26.837 125.003 26.837C119.303 26.837 114.682 22.2158 114.682 16.5152C114.682 10.8146 119.303 6.19333 125.003 6.19333C130.704 6.19333 135.325 10.8146 135.325 16.5152Z" fill="#3AB34C"/>
<path d="M121.909 13.9359C121.909 14.791 121.216 15.4842 120.361 15.4842C119.506 15.4842 118.813 14.791 118.813 13.9359C118.813 13.0808 119.506 12.3876 120.361 12.3876C121.216 12.3876 121.909 13.0808 121.909 13.9359Z" fill="white"/>
<path d="M131.195 13.9359C131.195 14.791 130.502 15.4842 129.647 15.4842C128.791 15.4842 128.098 14.791 128.098 13.9359C128.098 13.0808 128.791 12.3876 129.647 12.3876C130.502 12.3876 131.195 13.0808 131.195 13.9359Z" fill="white"/>
<path d="M125.003 22.1921C123.316 22.1921 120.875 20.1277 120.875 20.1277H129.132C129.132 20.1277 126.69 22.1921 125.003 22.1921Z" fill="#3AB34C"/>
<path d="M120.875 20.1277V19.8777C120.77 19.8777 120.676 19.9433 120.64 20.0418C120.604 20.1403 120.633 20.2509 120.713 20.3187L120.875 20.1277ZM129.132 20.1277L129.293 20.3187C129.374 20.2509 129.403 20.1403 129.367 20.0418C129.331 19.9433 129.237 19.8777 129.132 19.8777V20.1277ZM135.075 16.5152C135.075 22.0777 130.566 26.587 125.003 26.587V27.087C130.842 27.087 135.575 22.3538 135.575 16.5152H135.075ZM125.003 26.587C119.441 26.587 114.932 22.0777 114.932 16.5152H114.432C114.432 22.3538 119.165 27.087 125.003 27.087V26.587ZM114.932 16.5152C114.932 10.9526 119.441 6.44333 125.003 6.44333V5.94333C119.165 5.94333 114.432 10.6765 114.432 16.5152H114.932ZM125.003 6.44333C130.566 6.44333 135.075 10.9526 135.075 16.5152H135.575C135.575 10.6765 130.842 5.94333 125.003 5.94333V6.44333ZM121.659 13.9359C121.659 14.6529 121.078 15.2342 120.361 15.2342V15.7342C121.354 15.7342 122.159 14.9291 122.159 13.9359H121.659ZM120.361 15.2342C119.644 15.2342 119.063 14.6529 119.063 13.9359H118.563C118.563 14.9291 119.368 15.7342 120.361 15.7342V15.2342ZM119.063 13.9359C119.063 13.2189 119.644 12.6376 120.361 12.6376V12.1376C119.368 12.1376 118.563 12.9427 118.563 13.9359H119.063ZM120.361 12.6376C121.078 12.6376 121.659 13.2189 121.659 13.9359H122.159C122.159 12.9427 121.354 12.1376 120.361 12.1376V12.6376ZM130.945 13.9359C130.945 14.6529 130.364 15.2342 129.647 15.2342V15.7342C130.64 15.7342 131.445 14.9291 131.445 13.9359H130.945ZM129.647 15.2342C128.93 15.2342 128.348 14.6529 128.348 13.9359H127.848C127.848 14.9291 128.653 15.7342 129.647 15.7342V15.2342ZM128.348 13.9359C128.348 13.2189 128.93 12.6376 129.647 12.6376V12.1376C128.653 12.1376 127.848 12.9427 127.848 13.9359H128.348ZM129.647 12.6376C130.364 12.6376 130.945 13.2189 130.945 13.9359H131.445C131.445 12.9427 130.64 12.1376 129.647 12.1376V12.6376ZM125.003 21.9421C124.628 21.9421 124.194 21.8262 123.742 21.6387C123.293 21.4523 122.843 21.2018 122.439 20.9483C122.036 20.6951 121.685 20.4415 121.433 20.2511C121.308 20.156 121.208 20.0769 121.14 20.0218C121.105 19.9942 121.079 19.9727 121.062 19.9582C121.053 19.951 121.046 19.9455 121.042 19.9419C121.04 19.9401 121.038 19.9387 121.037 19.9379C121.037 19.9375 121.036 19.9372 121.036 19.937C121.036 19.9369 121.036 19.9368 121.036 19.9368C121.036 19.9368 121.036 19.9368 121.036 19.9368C121.036 19.9368 121.036 19.9368 120.875 20.1277C120.713 20.3187 120.713 20.3187 120.713 20.3187C120.713 20.3188 120.713 20.3188 120.713 20.3189C120.714 20.319 120.714 20.3191 120.714 20.3193C120.714 20.3196 120.715 20.32 120.715 20.3206C120.717 20.3217 120.719 20.3234 120.721 20.3255C120.726 20.3297 120.734 20.3358 120.743 20.3436C120.762 20.3594 120.79 20.3822 120.826 20.4111C120.898 20.4689 121.002 20.5511 121.131 20.6495C121.391 20.8462 121.755 21.1087 122.173 21.3716C122.591 21.6341 123.067 21.8998 123.551 22.1004C124.031 22.3 124.535 22.4421 125.003 22.4421V21.9421ZM120.875 20.3777H129.132V19.8777H120.875V20.3777ZM129.132 20.1277C128.971 19.9368 128.971 19.9368 128.971 19.9368C128.971 19.9368 128.971 19.9368 128.971 19.9368C128.971 19.9368 128.971 19.9369 128.97 19.937C128.97 19.9372 128.97 19.9375 128.969 19.9379C128.968 19.9387 128.967 19.9401 128.965 19.9419C128.96 19.9455 128.954 19.951 128.945 19.9582C128.927 19.9727 128.901 19.9942 128.867 20.0218C128.799 20.0769 128.699 20.156 128.573 20.2511C128.322 20.4415 127.97 20.6951 127.567 20.9483C127.164 21.2018 126.713 21.4523 126.264 21.6387C125.812 21.8262 125.378 21.9421 125.003 21.9421V22.4421C125.472 22.4421 125.975 22.3 126.456 22.1004C126.939 21.8998 127.416 21.6341 127.833 21.3716C128.252 21.1087 128.616 20.8462 128.875 20.6495C129.005 20.5511 129.109 20.4689 129.181 20.4111C129.217 20.3822 129.244 20.3594 129.263 20.3436C129.273 20.3358 129.28 20.3297 129.285 20.3255C129.288 20.3234 129.29 20.3217 129.291 20.3206C129.292 20.32 129.292 20.3196 129.293 20.3193C129.293 20.3191 129.293 20.319 129.293 20.3189C129.293 20.3188 129.293 20.3188 129.293 20.3187C129.293 20.3187 129.293 20.3187 129.132 20.1277Z" fill="white"/>
<path d="M244.738 28.9007C244.738 34.6013 240.117 39.2226 234.416 39.2226C228.715 39.2226 224.094 34.6013 224.094 28.9007C224.094 23.2001 228.715 18.5789 234.416 18.5789C240.117 18.5789 244.738 23.2001 244.738 28.9007Z" fill="#8FC962"/>
<circle cx="229.773" cy="26.3218" r="1.54828" fill="white"/>
<circle cx="239.058" cy="26.3218" r="1.54828" fill="white"/>
<path d="M230.289 32.5144C230.289 32.5144 232.731 33.5466 234.418 33.5466C236.105 33.5466 238.547 32.5144 238.547 32.5144" stroke="white" stroke-width="0.5" stroke-linecap="round"/>
<path d="M87.8446 158.958C87.8446 164.659 83.2234 169.28 77.5228 169.28C71.8222 169.28 67.2009 164.659 67.2009 158.958C67.2009 153.258 71.8222 148.636 77.5228 148.636C83.2234 148.636 87.8446 153.258 87.8446 158.958Z" fill="#FBAE42"/>
<circle cx="72.8793" cy="156.38" r="1.54828" fill="white"/>
<circle cx="82.1647" cy="156.38" r="1.54828" fill="white"/>
<path d="M73.3958 162.572C73.3958 162.572 75.8375 162.572 77.5245 162.572C79.2115 162.572 81.6532 162.572 81.6532 162.572" stroke="white" stroke-width="0.5" stroke-linecap="round"/>
<path d="M273.639 191.987C273.639 197.688 269.018 202.309 263.317 202.309C257.617 202.309 252.996 197.688 252.996 191.987C252.996 186.287 257.617 181.665 263.317 181.665C269.018 181.665 273.639 186.287 273.639 191.987Z" fill="#F15A2D"/>
<circle cx="258.674" cy="189.408" r="1.54828" fill="white"/>
<circle cx="267.96" cy="189.408" r="1.54828" fill="white"/>
<path d="M259.189 196.632C259.189 196.632 261.631 195.6 263.318 195.6C265.005 195.6 267.447 196.632 267.447 196.632" stroke="white" stroke-width="0.5" stroke-linecap="round"/>
<path d="M125.001 94.9597C125.001 100.66 120.38 105.282 114.679 105.282C108.978 105.282 104.357 100.66 104.357 94.9597C104.357 89.2591 108.978 84.6379 114.679 84.6379C120.38 84.6379 125.001 89.2591 125.001 94.9597Z" fill="#E2232A"/>
<circle cx="110.035" cy="92.381" r="1.54828" fill="white"/>
<circle cx="119.321" cy="92.381" r="1.54828" fill="white"/>
<path d="M114.681 97.5437C112.994 97.5437 110.552 99.608 110.552 99.608H118.809C118.809 99.608 116.368 97.5437 114.681 97.5437Z" fill="#E2232A" stroke="white" stroke-width="0.5" stroke-linecap="round" stroke-linejoin="round"/>
<circle cx="226.157" cy="187.858" r="2.06437" fill="#817C7C"/>
<circle cx="234.415" cy="187.858" r="2.06437" fill="#817C7C"/>
<circle cx="242.672" cy="187.858" r="2.06437" fill="#817C7C"/>
<circle cx="269.508" cy="51.6099" r="2.06437" fill="#817C7C"/>
<circle cx="277.766" cy="51.6099" r="2.06437" fill="#817C7C"/>
<circle cx="286.023" cy="51.6099" r="2.06437" fill="#817C7C"/>
<circle cx="73.3935" cy="20.6433" r="2.06437" fill="#817C7C"/>
<circle cx="81.6503" cy="20.6433" r="2.06437" fill="#817C7C"/>
<circle cx="89.9086" cy="20.6433" r="2.06437" fill="#817C7C"/>
<rect x="139.454" y="66.0594" width="49.5449" height="14.4506" rx="2" fill="#D9D9D9"/>
<circle cx="146.679" cy="73.2852" r="5.16092" fill="white"/>
<path d="M182.805 73.8C182.805 75.2252 181.65 76.3805 180.225 76.3805C178.799 76.3805 177.644 75.2252 177.644 73.8C177.644 72.3749 178.799 71.2195 180.225 71.2195C181.65 71.2195 182.805 72.3749 182.805 73.8Z" fill="#007830"/>
<path d="M188.482 73.8C188.482 75.2252 187.327 76.3805 185.902 76.3805C184.476 76.3805 183.321 75.2252 183.321 73.8C183.321 72.3749 184.476 71.2195 185.902 71.2195C187.327 71.2195 188.482 72.3749 188.482 73.8Z" fill="#FF0000"/>
<path d="M148.743 73.2839C148.743 74.424 147.819 75.3483 146.679 75.3483C145.539 75.3483 144.615 74.424 144.615 73.2839C144.615 72.1438 145.539 71.2195 146.679 71.2195C147.819 71.2195 148.743 72.1438 148.743 73.2839Z" fill="#007830"/>
<path d="M143.583 77.4134C143.583 77.4134 143.832 75.7962 144.615 75.349C145.315 74.9491 146.679 75.349 146.679 75.349C146.679 75.349 148.043 74.9491 148.743 75.349C149.526 75.7962 149.776 77.4134 149.776 77.4134C149.776 77.4134 147.954 78.4456 146.679 78.4456C145.404 78.4456 143.583 77.4134 143.583 77.4134Z" fill="#007830"/>
<path d="M153.905 74.3165C153.335 74.3165 152.873 74.7787 152.873 75.3487C152.873 75.9188 153.335 76.3809 153.905 76.3809H174.549C175.119 76.3809 175.581 75.9188 175.581 75.3487C175.581 74.7787 175.119 74.3165 174.549 74.3165H153.905Z" fill="white"/>
<path d="M152.873 71.22C152.873 70.6499 153.335 70.1878 153.905 70.1878H171.452C172.022 70.1878 172.484 70.6499 172.484 71.22C172.484 71.79 172.022 72.2522 171.452 72.2522H153.905C153.335 72.2522 152.873 71.79 152.873 71.22Z" fill="white"/>
<path d="M178.676 74.3171L179.708 75.3492L181.772 72.2527M184.869 72.2527L186.933 75.3492M186.933 72.2527L184.869 75.3492" stroke="white" stroke-width="0.2"/>
<rect x="139.454" y="86.7043" width="49.5449" height="14.4506" rx="2" fill="#D9D9D9"/>
<circle cx="146.679" cy="93.9301" r="5.16092" fill="white"/>
<path d="M182.805 94.4449C182.805 95.8701 181.65 97.0254 180.225 97.0254C178.799 97.0254 177.644 95.8701 177.644 94.4449C177.644 93.0198 178.799 91.8644 180.225 91.8644C181.65 91.8644 182.805 93.0198 182.805 94.4449Z" fill="#007830"/>
<path d="M188.482 94.4449C188.482 95.8701 187.327 97.0254 185.902 97.0254C184.476 97.0254 183.321 95.8701 183.321 94.4449C183.321 93.0198 184.476 91.8644 185.902 91.8644C187.327 91.8644 188.482 93.0198 188.482 94.4449Z" fill="#FF0000"/>
<path d="M148.743 93.9288C148.743 95.0689 147.819 95.9932 146.679 95.9932C145.539 95.9932 144.615 95.0689 144.615 93.9288C144.615 92.7887 145.539 91.8644 146.679 91.8644C147.819 91.8644 148.743 92.7887 148.743 93.9288Z" fill="#FBBC04"/>
<path d="M143.583 98.0583C143.583 98.0583 143.832 96.4411 144.615 95.9939C145.315 95.594 146.679 95.9939 146.679 95.9939C146.679 95.9939 148.043 95.594 148.743 95.9939C149.526 96.4411 149.776 98.0583 149.776 98.0583C149.776 98.0583 147.954 99.0905 146.679 99.0905C145.404 99.0905 143.583 98.0583 143.583 98.0583Z" fill="#FBBC04"/>
<path d="M153.905 94.9614C153.335 94.9614 152.873 95.4236 152.873 95.9936C152.873 96.5637 153.335 97.0258 153.905 97.0258H174.549C175.119 97.0258 175.581 96.5637 175.581 95.9936C175.581 95.4236 175.119 94.9614 174.549 94.9614H153.905Z" fill="white"/>
<path d="M152.873 91.8649C152.873 91.2948 153.335 90.8327 153.905 90.8327H171.452C172.022 90.8327 172.484 91.2948 172.484 91.8649C172.484 92.4349 172.022 92.8971 171.452 92.8971H153.905C153.335 92.8971 152.873 92.4349 152.873 91.8649Z" fill="white"/>
<path d="M178.676 94.9619L179.708 95.9941L181.772 92.8976M184.869 92.8976L186.933 95.9941M186.933 92.8976L184.869 95.9941" stroke="white" stroke-width="0.2"/>
<path d="M149.774 5C149.774 2.23858 152.013 0 154.774 0H214.963C217.724 0 219.963 2.23858 219.963 5V14.2571V30.0943C219.963 32.8557 217.724 35.0943 214.963 35.0943H154.774C152.013 35.0943 149.774 32.8557 149.774 30.0943V5Z" fill="#7921ED" fill-opacity="0.5"/>
<circle cx="161.223" cy="17.6404" r="9.3835" fill="white"/>
<path d="M164.977 17.6408C164.977 19.7137 163.297 21.3942 161.224 21.3942C159.151 21.3942 157.47 19.7137 157.47 17.6408C157.47 15.5679 159.151 13.8874 161.224 13.8874C163.297 13.8874 164.977 15.5679 164.977 17.6408Z" fill="#007830"/>
<path d="M155.593 25.148C155.593 25.148 156.047 22.2076 157.47 21.3946C158.742 20.6673 161.223 21.3946 161.223 21.3946C161.223 21.3946 163.704 20.6673 164.977 21.3946C166.399 22.2076 166.853 25.148 166.853 25.148C166.853 25.148 163.541 27.0247 161.223 27.0247C158.905 27.0247 155.593 25.148 155.593 25.148Z" fill="#007830"/>
<path d="M174.361 15.2011C173.324 15.2011 172.484 16.0413 172.484 17.0778C172.484 18.1143 173.324 18.9545 174.361 18.9545H211.895C212.931 18.9545 213.772 18.1143 213.772 17.0778C213.772 16.0413 212.931 15.2011 211.895 15.2011H174.361Z" fill="white"/>
<path d="M172.484 7.69433C172.484 6.65785 173.324 5.81763 174.361 5.81763H206.265C207.301 5.81763 208.141 6.65785 208.141 7.69433C208.141 8.7308 207.301 9.57103 206.265 9.57103H174.361C173.324 9.57103 172.484 8.7308 172.484 7.69433Z" fill="white"/>
<path d="M172.484 26.2728C172.484 25.2363 173.324 24.3961 174.361 24.3961H206.265C207.301 24.3961 208.141 25.2363 208.141 26.2728C208.141 27.3092 207.301 28.1495 206.265 28.1495H174.361C173.324 28.1495 172.484 27.3092 172.484 26.2728Z" fill="white"/>
</svg>
