<svg width="32" height="29" viewBox="0 0 32 29" fill="none" xmlns="http://www.w3.org/2000/svg">
<path fill-rule="evenodd" clip-rule="evenodd" d="M1.06699 8.701L4.59749 22.2283C4.59749 22.2283 4.74596 23.1808 5.21148 23.4442C5.62786 23.6798 6.43948 23.4442 6.43948 23.4442L15.66 20.9734L15.5256 19.3859C15.506 19.2708 15.496 19.1543 15.496 19.0365C15.496 17.9069 16.2408 17.3248 17.7166 16.6046C18.9079 16.0232 20.5528 15.5389 22.2757 15.4457C22.5423 15.4313 22.897 15.4457 23.171 15.4457C26.1724 15.4457 28.7715 15.9719 30.0331 17.2646L30.232 17.2125C30.232 17.2125 30.7124 16.9132 30.846 16.6046C30.9876 16.2772 30.846 15.6926 30.846 15.6926L27.162 1.86137C27.162 1.86137 26.8846 1.28405 26.548 1.10142C26.1274 0.87323 25.32 1.10142 25.32 1.10142L1.83449 7.18108C1.83449 7.18108 1.22784 7.44396 1.06699 7.78905C0.916265 8.11241 1.06699 8.701 1.06699 8.701ZM18.5349 8.701L17.4127 5.51429L24.706 3.38035L25.6747 6.56717L18.5349 8.701ZM5.55909 19.3581L4.57798 16.934L9.18297 15.5659L10.1182 17.8534L5.55909 19.3581ZM11.9655 17.3707L11.1269 14.9915L15.686 13.6675L16.417 16.0027L11.9655 17.3707ZM21.3445 12.1353L17.0894 13.3391L17.7166 15.5659L21.9718 14.3309L21.3445 12.1353ZM23.5305 13.941L22.6029 11.5653L27.162 10.3615L28.0506 12.7372L23.5305 13.941Z" fill="#527CA8"/>
<path d="M22.7771 21.5281C19.9051 21.5281 17.4015 21.1214 16.0856 19.9187C16.0406 19.8776 15.9971 19.836 15.9549 19.794C15.5081 19.349 15.6147 19.9095 15.5256 19.3859L15.66 20.9734L15.6884 22.7049C15.7303 22.7283 15.8192 22.7485 16.0163 22.9492C17.2564 24.2117 19.9876 24.7118 23.2376 24.568C26.5168 24.4228 29.3796 23.6583 30.4815 22.2732C30.8309 21.8339 30.8675 22.0127 30.8456 21.5281L30.4521 17.9818C30.4521 18.4245 30.3107 18.8502 30.0499 19.2476C29.025 20.8093 26.156 21.5281 22.7771 21.5281Z" fill="#527CA8"/>
<path d="M30.8456 21.5281C30.8675 22.0127 30.8309 21.8339 30.4815 22.2732C29.3796 23.6583 26.5168 24.4228 23.2376 24.568C19.9876 24.7118 17.2564 24.2117 16.0163 22.9492C15.8192 22.7485 15.7303 22.7283 15.6884 22.7049M30.8456 21.5281L30.4521 17.9818M30.8456 21.5281L30.9991 24.112C31.018 24.5312 30.7441 24.7887 30.4815 25.1759C29.4831 26.6477 26.9114 27.4913 23.4918 27.6427C19.1726 27.8339 16.1072 26.8808 16.0163 24.8682L15.6884 22.7049M30.4521 17.9818C30.4521 17.3447 30.5532 17.7976 30.0331 17.2646M30.4521 17.9818C30.4521 18.4245 30.3107 18.8502 30.0499 19.2476C29.025 20.8093 26.156 21.5281 22.7771 21.5281C19.9051 21.5281 17.4015 21.1214 16.0856 19.9187C16.0406 19.8776 15.9971 19.836 15.9549 19.794C15.5081 19.349 15.6147 19.9095 15.5256 19.3859M15.496 19.0365C15.496 17.9069 16.2408 17.3248 17.7166 16.6046C18.9079 16.0232 20.5528 15.5389 22.2757 15.4457C22.5423 15.4313 22.897 15.4457 23.171 15.4457C26.1724 15.4457 28.7715 15.9719 30.0331 17.2646M15.496 19.0365C15.496 19.1543 15.506 19.2708 15.5256 19.3859M15.496 19.0365L15.5256 19.3859M30.0331 17.2646L30.232 17.2125C30.232 17.2125 30.7124 16.9132 30.846 16.6046C30.9876 16.2772 30.846 15.6926 30.846 15.6926L27.162 1.86137C27.162 1.86137 26.8846 1.28405 26.548 1.10142C26.1274 0.87323 25.32 1.10142 25.32 1.10142L1.83449 7.18108C1.83449 7.18108 1.22784 7.44396 1.06699 7.78905C0.916265 8.11241 1.06699 8.701 1.06699 8.701L4.59749 22.2283C4.59749 22.2283 4.74596 23.1808 5.21148 23.4442C5.62786 23.6798 6.43948 23.4442 6.43948 23.4442L15.66 20.9734M15.66 20.9734L15.5256 19.3859M15.66 20.9734L15.6884 22.7049M17.4127 5.51429L18.5349 8.701L25.6747 6.56717L24.706 3.38035L17.4127 5.51429ZM4.57798 16.934L5.55909 19.3581L10.1182 17.8534L9.18297 15.5659L4.57798 16.934ZM11.1269 14.9915L11.9655 17.3707L16.417 16.0027L15.686 13.6675L11.1269 14.9915ZM17.0894 13.3391L21.3445 12.1353L21.9718 14.3309L17.7166 15.5659L17.0894 13.3391ZM22.6029 11.5653L23.5305 13.941L28.0506 12.7372L27.162 10.3615L22.6029 11.5653Z" stroke="#4B76A4"/>
</svg>
