<svg width="15" height="15" viewBox="0 0 15 15" fill="none" xmlns="http://www.w3.org/2000/svg">
<path d="M7.14909 11.5523H7.94494L8.30971 10.7184H6.78433L7.14909 11.5523Z" fill="#37679A"/>
<path fill-rule="evenodd" clip-rule="evenodd" d="M7.14909 11.5523H7.94494L8.30971 10.7184H6.78433L7.14909 11.5523ZM7.74599 9.17614C8.89976 9.17614 9.83508 7.80392 9.83508 6.1112L9.86825 5.62907C9.86825 5.62907 9.88413 5.27167 9.86825 5.04364C9.86655 5.01928 9.8652 4.99701 9.86393 4.97601C9.85887 4.89231 9.85503 4.82883 9.83508 4.7337C9.80283 4.57989 9.77604 4.4925 9.70244 4.35489C9.63075 4.22083 9.47032 4.04495 9.47032 4.04495C9.47032 4.04495 9.36572 3.87986 9.27136 3.80389C9.17985 3.73021 9.00608 3.66636 9.00608 3.66636C9.00608 3.66636 8.78434 3.63378 8.64131 3.6317C8.50946 3.62978 8.42302 3.64047 8.31152 3.65425C8.28025 3.65811 8.247 3.66222 8.21023 3.66636C8.13612 3.67471 8.07577 3.68764 8.0179 3.70003C7.9336 3.71809 7.85457 3.73501 7.74599 3.73501C7.6374 3.73501 7.55837 3.71809 7.47407 3.70003C7.4162 3.68764 7.35585 3.67471 7.28174 3.66636C7.24497 3.66222 7.21172 3.65811 7.18045 3.65425C7.06895 3.64047 6.98251 3.62978 6.85065 3.6317C6.70762 3.63378 6.48589 3.66636 6.48589 3.66636L6.28693 3.80389C6.28693 3.80389 6.08049 3.9718 5.98849 4.11382C5.92091 4.21815 5.89501 4.30136 5.86405 4.40086C5.85196 4.43971 5.8391 4.48104 5.82269 4.52707C5.81276 4.5549 5.80331 4.58112 5.79427 4.60618C5.73466 4.77144 5.69334 4.88601 5.65689 5.07808C5.58175 5.47392 5.65689 6.1112 5.65689 6.1112C5.65689 7.80392 6.59221 9.17614 7.74599 9.17614Z" fill="#37679A"/>
<path fill-rule="evenodd" clip-rule="evenodd" d="M7.5 0C3.35786 0 0 3.35786 0 7.5C0 9.28608 0.624334 10.9263 1.66667 12.2144L1.8766 11.759L2.17505 11.4146L3.83306 10.5536L4.16467 10.4159L4.56259 10.2093C4.56259 10.2093 4.90631 10.0562 5.16773 9.88466C5.21229 9.85542 5.25445 9.82565 5.29212 9.79602C5.37273 9.73258 5.49108 9.62383 5.49108 9.62383H5.69004L5.98081 10.2993L6.95013 12.551L7.14909 11.5523L6.78433 10.7184H8.30971L7.94494 11.5523L8.04442 12.551L9.43716 9.62383H9.5698L9.7356 9.79602C9.7356 9.79602 10.0045 9.96326 10.2538 10.1081C10.2919 10.1302 10.3295 10.1519 10.3656 10.1723C10.3884 10.1851 10.4106 10.1975 10.432 10.2093L10.9625 10.4848C11.1522 10.5803 11.2965 10.6478 11.4473 10.7184C11.5616 10.7719 11.6801 10.8274 11.8247 10.898C11.9225 10.9458 12.0075 10.9844 12.0876 11.0207C12.0876 11.0207 12.0878 11.0208 12.0879 11.0208C12.1084 11.0301 12.1287 11.0393 12.1487 11.0484C12.2889 11.1124 12.4198 11.175 12.5874 11.2768C12.6423 11.3102 12.6932 11.3375 12.7409 11.3631C12.8678 11.4312 12.9737 11.488 13.0848 11.6212C13.1754 11.7299 13.2121 11.8098 13.2679 11.9312L13.2684 11.9323L13.3333 12.2144C14.3757 10.9263 15 9.28608 15 7.5C15 3.35786 11.6421 0 7.5 0ZM7.80358 9.44436L7.93858 9.43248C8.68285 9.36698 9.32214 8.87571 9.60574 8.17197C9.61549 8.14778 9.62513 8.12352 9.63478 8.09926C9.68274 7.97863 9.73075 7.85788 9.79203 7.74405L10.1719 7.03842C10.372 6.88565 10.5409 6.60507 10.6149 6.26168C10.7084 5.82806 10.624 5.41805 10.4237 5.20678C10.4237 5.20678 10.5619 4.6048 10.5314 4.21714C10.5065 3.89977 10.4693 3.71618 10.3451 3.42508C10.2594 3.22448 10.2024 3.11154 10.0672 2.94295L10.0477 2.91866C9.92991 2.77142 9.85257 2.67478 9.68127 2.58578C9.55043 2.51781 9.32056 2.48068 9.32056 2.48068C9.29599 2.46217 9.2711 2.44407 9.2459 2.42639L9.13871 2.21976C9.13871 2.21976 9.03558 2.03472 8.93975 1.94426C8.81968 1.83092 8.72792 1.79397 8.57499 1.73764C8.37044 1.6623 8.23415 1.66456 8.02913 1.66796L7.9781 1.66876C7.76931 1.67173 7.65105 1.68908 7.44754 1.73764C7.31577 1.76908 7.24271 1.79216 7.11593 1.84095C6.89871 1.92454 6.58537 2.11645 6.58537 2.11645L5.98688 2.58578C5.31169 3.16206 4.91458 4.06247 4.99308 5.01783C4.77156 5.19977 4.63438 5.586 4.6637 6.0215C4.69803 6.53133 4.94929 6.94133 5.25359 7.02421L5.61493 7.73282C5.66807 7.83704 5.71027 7.94673 5.75174 8.05665L5.76003 8.07864C5.7688 8.10192 5.77757 8.12519 5.78643 8.1484C6.10639 8.98647 6.92171 9.52197 7.80358 9.44436Z" fill="#37679A"/>
</svg>
