<svg width="27" height="26" viewBox="0 0 27 26" fill="none" xmlns="http://www.w3.org/2000/svg">
<path d="M25.3636 20.0327V24.5455C25.3636 25.2196 24.5939 25.6045 24.0545 25.2L21.7636 23.4818C21.4727 23.2637 21.0728 23.2637 20.7818 23.4818L18.4909 25.2C17.9516 25.6045 17.1818 25.2196 17.1818 24.5455V20.0327C18.3518 20.816 19.7589 21.2727 21.2727 21.2727C22.7865 21.2727 24.1936 20.816 25.3636 20.0327ZM22.9091 0C24.6345 0 26.0479 1.33507 26.1728 3.02848L26.1818 3.27273V8.42047C25.7892 8.06912 25.3588 7.75927 24.8973 7.4978L24.5455 7.31088V3.27273C24.5455 2.43355 23.9138 1.7419 23.0999 1.64737L22.9091 1.63636H3.27273C2.43355 1.63636 1.7419 2.26807 1.64737 3.08189L1.63636 3.27273V16.3636C1.63636 17.2028 2.26807 17.8945 3.08189 17.989L3.27273 18H15.1491L15.3413 18.2736L15.5455 18.5379V19.6364H3.27273C1.54741 19.6364 0.133912 18.3013 0.00897672 16.6079L0 16.3636V3.27273C0 1.54741 1.33507 0.133912 3.02848 0.00897672L3.27273 0H22.9091ZM21.2727 8.18182C24.4358 8.18182 27 10.746 27 13.9091C27 17.0722 24.4358 19.6364 21.2727 19.6364C18.1096 19.6364 15.5455 17.0722 15.5455 13.9091C15.5455 10.746 18.1096 8.18182 21.2727 8.18182ZM12.2727 13.0909C12.7246 13.0909 13.0909 13.4573 13.0909 13.9091C13.0909 14.3107 12.8015 14.6448 12.4198 14.7141L12.2727 14.7273H5.72727C5.27541 14.7273 4.90909 14.3609 4.90909 13.9091C4.90909 13.5075 5.19853 13.1734 5.5802 13.1041L5.72727 13.0909H12.2727ZM20.4545 4.90909C20.9063 4.90909 21.2727 5.27541 21.2727 5.72727C21.2727 6.17914 20.9063 6.54545 20.4545 6.54545H5.72727C5.27541 6.54545 4.90909 6.17914 4.90909 5.72727C4.90909 5.27541 5.27541 4.90909 5.72727 4.90909H20.4545Z" fill="#527CA8"/>
</svg>
