<svg width="22" height="14" viewBox="0 0 22 14" fill="none" xmlns="http://www.w3.org/2000/svg">
<rect y="1" width="22" height="13" rx="5" fill="#FF0000"/>
<path d="M4.368 11V5.624H3.156V4.832L3.492 4.82C3.772 4.796 3.988 4.716 4.14 4.58C4.3 4.436 4.436 4.212 4.548 3.908H5.76V11H4.368ZM9.83353 11.156C9.44153 11.148 9.09353 11.068 8.78953 10.916C8.49353 10.756 8.26153 10.504 8.09353 10.16C7.92553 9.808 7.84153 9.344 7.84153 8.768V5.888C7.84153 5.184 8.02553 4.664 8.39353 4.328C8.76953 3.992 9.25753 3.824 9.85753 3.824C10.4335 3.824 10.9015 3.992 11.2615 4.328C11.6295 4.664 11.8135 5.184 11.8135 5.888V8.756C11.8135 9.348 11.7295 9.82 11.5615 10.172C11.4015 10.524 11.1695 10.776 10.8655 10.928C10.5695 11.08 10.2255 11.156 9.83353 11.156ZM9.83353 10.328C10.0095 10.328 10.1535 10.26 10.2655 10.124C10.3775 9.98 10.4335 9.768 10.4335 9.488V5.504C10.4335 5.224 10.3735 5.016 10.2535 4.88C10.1415 4.736 10.0015 4.664 9.83353 4.664C9.66553 4.664 9.52153 4.736 9.40153 4.88C9.28953 5.016 9.23353 5.224 9.23353 5.504V9.488C9.23353 9.768 9.28953 9.98 9.40153 10.124C9.52153 10.26 9.66553 10.328 9.83353 10.328ZM15.7445 11.156C15.3525 11.148 15.0045 11.068 14.7005 10.916C14.4045 10.756 14.1725 10.504 14.0045 10.16C13.8365 9.808 13.7525 9.344 13.7525 8.768V5.888C13.7525 5.184 13.9365 4.664 14.3045 4.328C14.6805 3.992 15.1685 3.824 15.7685 3.824C16.3445 3.824 16.8125 3.992 17.1725 4.328C17.5405 4.664 17.7245 5.184 17.7245 5.888V8.756C17.7245 9.348 17.6405 9.82 17.4725 10.172C17.3125 10.524 17.0805 10.776 16.7765 10.928C16.4805 11.08 16.1365 11.156 15.7445 11.156ZM15.7445 10.328C15.9205 10.328 16.0645 10.26 16.1765 10.124C16.2885 9.98 16.3445 9.768 16.3445 9.488V5.504C16.3445 5.224 16.2845 5.016 16.1645 4.88C16.0525 4.736 15.9125 4.664 15.7445 4.664C15.5765 4.664 15.4325 4.736 15.3125 4.88C15.2005 5.016 15.1445 5.224 15.1445 5.504V9.488C15.1445 9.768 15.2005 9.98 15.3125 10.124C15.4325 10.26 15.5765 10.328 15.7445 10.328Z" fill="white"/>
</svg>
