<svg width="21" height="23" viewBox="0 0 21 23" fill="none" xmlns="http://www.w3.org/2000/svg">
<path d="M1.73894 9.84956H1.20796C0.816967 9.84956 0.5 10.1665 0.5 10.5575V14.0973C0.5 14.4883 0.816967 14.8053 1.20796 14.8053H2.09292C2.48392 14.8053 2.80088 14.4883 2.80088 14.0973V10.5575C2.80088 10.1665 2.48392 9.84956 2.09292 9.84956H1.73894Z" fill="black"/>
<path d="M20.5 13.9204V10.3805C20.5 9.98953 20.183 9.67257 19.792 9.67257H19.4363H18.9071C18.5161 9.67257 18.1991 9.98953 18.1991 10.3805V13.9204C18.1991 14.3114 18.5161 14.6283 18.9071 14.6283H19.792C20.183 14.6283 20.5 14.3114 20.5 13.9204Z" fill="black"/>
<path d="M15.8982 14.5398C15.8982 17.7167 13.4417 20.292 10.4115 20.292C10.0826 20.292 9.76046 20.2617 9.44749 20.2035C9.13451 20.1454 6.45226 21.0885 6.45226 21.0885C5.86525 21.2913 4.92478 21.531 4.92478 21.531L5.84753 19.7133L6.18261 19.1177C6.18261 19.1177 6.31119 18.9475 6.35016 18.8199L6.18261 18.3451L5.93838 17.8717C5.30013 16.9316 4.92478 15.7816 4.92478 14.5398C4.92478 11.363 7.38127 8.78761 10.4115 8.78761C13.4417 8.78761 15.8982 11.363 15.8982 14.5398Z" fill="black"/>
<path d="M1.73894 9.84956C1.73894 4.96208 5.70102 1 10.5885 1C15.4168 1 19.342 4.86679 19.4363 9.67257M1.73894 9.84956H1.20796M1.73894 9.84956H2.09292M1.20796 9.84956H2.09292M1.20796 9.84956C0.816967 9.84956 0.5 10.1665 0.5 10.5575V14.0973C0.5 14.4883 0.816967 14.8053 1.20796 14.8053H2.09292C2.48392 14.8053 2.80088 14.4883 2.80088 14.0973V10.5575C2.80088 10.1665 2.48392 9.84956 2.09292 9.84956M19.4363 9.67257H18.9071C18.5161 9.67257 18.1991 9.98953 18.1991 10.3805V13.9204C18.1991 14.3114 18.5161 14.6283 18.9071 14.6283H19.792C20.183 14.6283 20.5 14.3114 20.5 13.9204V10.3805C20.5 9.98953 20.183 9.67257 19.792 9.67257H19.4363ZM15.8982 14.5398C15.8982 17.7167 13.4417 20.292 10.4115 20.292C10.0826 20.292 9.76046 20.2617 9.44749 20.2035C9.13451 20.1454 6.45226 21.0885 6.45226 21.0885C5.86525 21.2913 4.92478 21.531 4.92478 21.531L5.84753 19.7133L6.18261 19.1177C6.18261 19.1177 6.31119 18.9476 6.35016 18.8199L6.18261 18.3451L5.93838 17.8717C5.30013 16.9316 4.92478 15.7816 4.92478 14.5398C4.92478 11.363 7.38127 8.78761 10.4115 8.78761C13.4417 8.78761 15.8982 11.363 15.8982 14.5398Z" stroke="black"/>
<ellipse cx="7.50098" cy="15" rx="1" ry="1" fill="white"/>
<ellipse cx="10.499" cy="15" rx="1" ry="1" fill="white"/>
<ellipse cx="13.5" cy="15" rx="1" ry="1" fill="white"/>
</svg>
