<svg width="19" height="17" viewBox="0 0 19 17" fill="none" xmlns="http://www.w3.org/2000/svg">
<path d="M7.55398 0.387901C5.5554 0.0406904 3.40538 0.557072 1.85728 1.93707C0.204491 3.4104 -0.344028 5.49535 0.211727 7.37463C1.07922 6.70158 2.39577 6.73298 3.22131 7.46889C3.50997 7.7262 3.702 8.03701 3.79742 8.36551C4.46288 8.27997 5.16374 8.46541 5.67573 8.92182C6.06615 9.26983 6.27981 9.71575 6.31672 10.1709C6.82694 10.204 7.32674 10.3945 7.71685 10.7422C8.10723 11.0902 8.32089 11.5362 8.35783 11.9913C8.86871 12.024 9.36924 12.2145 9.75984 12.5627C10.6222 13.3314 10.6222 14.5777 9.75984 15.3465L9.40115 15.6663L10.4562 16.558C10.7493 16.8057 11.2089 16.7996 11.4936 16.544C11.7586 16.3062 11.7822 15.9339 11.5643 15.6723L11.5067 15.6206C11.4805 15.5971 11.4567 15.5723 11.4351 15.5465L11.2798 15.4072C10.9823 15.1402 10.9823 14.7076 11.2798 14.4406C11.5773 14.1737 12.0596 14.1737 12.3572 14.4406L12.5709 14.6324C12.6159 14.6728 12.6585 14.7144 12.6989 14.7571L12.8134 14.86C13.0957 15.1132 13.5533 15.1132 13.8355 14.86C14.1178 14.6068 14.1178 14.1961 13.8355 13.9429L13.6061 13.737C13.4526 13.5994 13.3782 13.4174 13.3833 13.2369C13.3825 13.0612 13.4568 12.8852 13.6063 12.7512C13.9038 12.4842 14.3861 12.4842 14.6836 12.7512L14.8575 12.9071C15.1704 13.1879 15.6778 13.1879 15.9909 12.9071C16.3038 12.6262 16.3038 12.171 15.9909 11.8902L15.9521 11.8554C15.905 11.8184 15.8587 11.7798 15.8138 11.7394L14.6304 10.6778C14.3329 10.4109 14.3329 9.97814 14.6304 9.71124C14.9279 9.44434 15.4102 9.44434 15.7077 9.71124L16.8198 10.7089C16.8457 10.7268 16.8706 10.7464 16.8944 10.7677L16.9849 10.849C17.4693 11.2033 18.1837 11.1779 18.635 10.7729C19.1166 10.3409 19.1166 9.64038 18.635 9.20834L17.5079 8.19709C17.4929 8.18548 17.4784 8.17333 17.4646 8.16061L12.8974 4.01038H11.7273L9.11493 5.78609C7.85086 6.6453 6.04587 6.42695 5.08284 5.29833C4.11933 4.16914 4.36355 2.55651 5.62826 1.69686L7.55398 0.387901Z" fill="black"/>
<path d="M13.2164 2.64595C13.421 2.64595 13.6171 2.71939 13.7605 2.84977L17.8749 6.58862C18.631 5.25127 18.5601 3.63965 17.644 2.34713C17.1283 1.6195 16.3987 1.06732 15.5631 0.727382C15.5449 0.719988 15.5271 0.71198 15.5097 0.703344C15.0299 0.465958 14.4779 0.330566 13.8882 0.330566H10.1483C10.125 0.351181 10.1001 0.370554 10.0736 0.388535L6.55141 2.78264C5.95838 3.18574 5.84394 3.94139 6.29574 4.47088C6.74803 5.00093 7.59635 5.10356 8.19 4.70003L11.0072 2.78513C11.14 2.69484 11.3023 2.64595 11.4692 2.64595H13.2164Z" fill="black"/>
<path d="M6.63742 12.5637L5.63503 13.4572C5.36957 13.6939 4.93917 13.6939 4.67371 13.4572C4.41444 13.2261 4.40839 12.8547 4.65556 12.6171L4.6747 12.6003L5.67708 11.7067L5.69518 11.6903C5.92849 11.4978 6.27646 11.4779 6.53346 11.6307C6.57017 11.6525 6.60502 11.6779 6.63742 11.7067C6.90289 11.9434 6.90289 12.327 6.63742 12.5637Z" fill="#212121"/>
<path d="M6.71473 15.2766C6.90677 15.4478 7.18517 15.4952 7.42497 15.4186C7.51662 15.3893 7.60264 15.3421 7.67605 15.2766L8.67844 14.383C8.94391 14.1464 8.94391 13.7627 8.67844 13.5261C8.64526 13.4965 8.60949 13.4706 8.57181 13.4485C8.30796 13.2932 7.94939 13.319 7.71711 13.5261L6.71473 14.4197C6.64132 14.4851 6.58821 14.5617 6.55539 14.6434C6.46956 14.8572 6.52267 15.1054 6.71473 15.2766Z" fill="#212121"/>
<path d="M2.15891 9.27661L1.15651 10.1702C0.891058 10.4068 0.460657 10.4068 0.19519 10.1702C-0.0640797 9.93904 -0.0701247 9.56768 0.17704 9.33001L0.196182 9.31316L1.19856 8.41961L1.21668 8.40329C1.44997 8.21068 1.79796 8.19077 2.05494 8.3436C2.09165 8.36543 2.12652 8.39078 2.15891 8.41966C2.42438 8.65631 2.42438 9.03997 2.15891 9.27661Z" fill="#212121"/>
<path d="M4.41087 10.7957L3.40847 11.6891C3.143 11.9259 2.7126 11.9259 2.44715 11.6891C2.18788 11.458 2.18182 11.0867 2.429 10.849L2.44814 10.8322L3.45052 9.93865L3.46863 9.92233C3.70193 9.72972 4.04992 9.70982 4.3069 9.86264C4.34361 9.88447 4.37846 9.90982 4.41087 9.9387C4.67633 10.1754 4.67633 10.559 4.41087 10.7957Z" fill="#212121"/>
</svg>
