<svg width="13" height="13" viewBox="0 0 13 13" fill="none" xmlns="http://www.w3.org/2000/svg">
<path fill-rule="evenodd" clip-rule="evenodd" d="M11.0243 8.22256L9.82962 8.22256L9.77872 8.22514C9.52771 8.25073 9.33183 8.46356 9.33183 8.72232L9.33165 9.22194L8.83404 9.22209C8.44915 9.22209 8.13713 9.53534 8.13713 9.92176L8.13713 11.7209C8.13713 12.1073 8.44915 12.4206 8.83404 12.4206L12.0199 12.4206C12.4048 12.4206 12.7168 12.1073 12.7168 11.7209L12.7168 9.92176C12.7168 9.53534 12.4048 9.22209 12.0199 9.22209L11.5219 9.22194L11.5221 8.72232L11.5195 8.67122C11.494 8.41921 11.2821 8.22256 11.0243 8.22256ZM9.77872 8.90982C9.77872 8.72004 9.93644 8.56619 10.131 8.56619L10.672 8.56619C10.8666 8.56619 11.0243 8.72004 11.0243 8.90982L11.0243 9.22194L9.77872 9.22194L9.77872 8.90982Z" fill="#3C638D"/>
<path fill-rule="evenodd" clip-rule="evenodd" d="M6.2779 6.60256L6.16403 6.6125C5.42019 6.67743 4.73249 6.22942 4.4626 5.52826C4.41747 5.411 4.37525 5.29206 4.31794 5.18058L4.01316 4.58774C3.75649 4.5184 3.54456 4.17538 3.5156 3.74884C3.49087 3.38449 3.60658 3.06136 3.79342 2.90915C3.72721 2.10986 4.06217 1.35656 4.63168 0.874428L5.13649 0.481772C5.13649 0.481772 5.40079 0.321215 5.58401 0.25128C5.69095 0.210464 5.75257 0.191149 5.86372 0.164846C6.03537 0.124223 6.13513 0.109709 6.31124 0.107224C6.50904 0.104432 6.62825 0.0967296 6.8147 0.164846C6.94369 0.211973 7.02109 0.242889 7.12237 0.337714C7.2032 0.413392 7.29019 0.568205 7.29019 0.568205L7.3806 0.741074C7.40186 0.755865 7.42285 0.771009 7.44358 0.786494C7.44358 0.786494 7.63746 0.817557 7.74783 0.874428C7.90012 0.952901 7.96436 1.03848 8.07335 1.17324C8.18743 1.31429 8.23549 1.40878 8.30772 1.5766C8.41253 1.82015 8.44394 1.97374 8.46494 2.23927C8.49059 2.56359 8.37405 3.06723 8.37405 3.06723C8.54298 3.24398 8.61421 3.58701 8.53536 3.94979C8.47291 4.23707 8.33047 4.47182 8.16167 4.59962L7.84125 5.18998C7.77917 5.30436 7.73323 5.4271 7.68412 5.54799C7.44491 6.13675 6.90568 6.54776 6.2779 6.60256ZM6.11545 6.3881C7.08864 6.3881 7.87757 5.24006 7.87757 3.82389L7.90554 3.42053C7.90554 3.42053 7.91894 3.12151 7.90554 2.93074C7.8984 2.82911 7.89862 2.77099 7.87757 2.67143C7.85036 2.54275 7.82776 2.46964 7.76569 2.35451C7.70522 2.24236 7.5699 2.0952 7.5699 2.0952C7.5699 2.0952 7.48166 1.95708 7.40208 1.89352C7.32489 1.83188 7.17831 1.77847 7.17831 1.77847C7.17831 1.77847 6.99129 1.75121 6.87064 1.74947C6.72823 1.74742 6.64863 1.76265 6.50703 1.77847C6.35347 1.79563 6.26991 1.8359 6.11545 1.8359C5.96099 1.8359 5.87743 1.79563 5.72387 1.77847C5.58227 1.76265 5.50267 1.74742 5.36026 1.74947C5.23961 1.75121 5.05259 1.77847 5.05259 1.77847L4.88477 1.89352C4.88477 1.89352 4.71064 2.034 4.63303 2.15283C4.55377 2.27419 4.54249 2.3614 4.49318 2.49856C4.4296 2.67544 4.38874 2.7745 4.35333 2.95955C4.28996 3.29072 4.35333 3.82389 4.35333 3.82389C4.35333 5.24006 5.14226 6.3881 6.11545 6.3881Z" fill="#3C638D"/>
<path d="M5.61198 8.37609L6.28327 8.37609L6.59094 7.67841L5.30431 7.67841L5.61198 8.37609Z" fill="#3C638D"/>
<path d="M4.04566 6.90671C3.82749 7.07699 3.43032 7.25244 3.43032 7.25244L3.09467 7.42531L2.81497 7.54056L1.41647 8.26084L1.16474 8.54895C1.16474 8.54895 0.992052 8.98158 0.913005 9.26924C0.783399 9.74089 0.717215 10.5081 0.717215 10.5081C0.70186 11.0222 1.11173 11.4486 1.62599 11.4535L7.44358 11.5096L7.44358 9.36747C7.44358 9.36747 7.46795 9.10869 7.56468 8.98583C7.64585 8.88273 7.84125 8.79502 7.84125 8.79502L8.86048 8.79502L8.86048 8.13311C8.86048 8.13311 8.8803 8.06924 8.90041 8.03174C8.95022 7.93886 9.09123 7.84092 9.09123 7.84092L9.28205 7.84092L8.86048 7.501L8.38103 7.25244C8.36302 7.24262 8.3443 7.23225 8.32508 7.22149C8.09509 7.09266 7.79365 6.90671 7.79365 6.90671L7.6538 6.76265L7.54192 6.76265L6.36718 9.21162L6.28327 8.37609L5.61198 8.37609L5.44416 9.21162L4.3813 6.76265L4.21348 6.76265C4.21348 6.76265 4.11365 6.85363 4.04566 6.90671Z" fill="#3C638D"/>
</svg>
