<svg width="20" height="28" viewBox="0 0 20 28" fill="none" xmlns="http://www.w3.org/2000/svg">
<path d="M9.4 0.498568H10.6C10.8243 0.498568 11.0314 0.57242 11.1982 0.697135V16.5C11.0314 16.6247 10.8243 16.6986 10.6 16.6986H9.4C9.17569 16.6986 8.96863 16.6247 8.80181 16.5V0.697135C8.96863 0.57242 9.17569 0.498568 9.4 0.498568Z" fill="black"/>
<path d="M20 17.4C20 22.9228 15.5228 27.4 10 27.4C4.47715 27.4 0 22.9228 0 17.4C0 12.8857 2.99134 9.06997 7.1 7.82697V17.8C7.1 17.8 7.1729 18.3555 7.4 18.6C7.77589 19.0046 8.6 19.2 8.6 19.2L11.4286 19.1429C11.4286 19.1429 12.2186 18.9635 12.533 18.6C12.7578 18.34 12.9 17.8 12.9 17.8V7.82697C17.0087 9.06997 20 12.8857 20 17.4Z" fill="black"/>
</svg>
