<svg width="35" height="45" viewBox="0 0 35 45" fill="none" xmlns="http://www.w3.org/2000/svg">
<path fill-rule="evenodd" clip-rule="evenodd" d="M32.0104 0.467128L32.8512 1.68166L33.692 3.55017L33.9723 5.88581C33.9723 5.88581 33.9953 7.24455 33.692 8.0346C33.4453 8.67726 32.7578 9.52941 32.7578 9.52941L31.3564 10.8374L29.7682 11.865L27.8062 13.173L26.3114 14.9481L25.4706 17.0969L25.1903 19.0588L24.8166 17.0969L23.9758 15.4152L22.5744 13.7336L20.4256 12.2387L17.6229 11.0242L14.9135 10.1834L12.0173 9.06228L9.68168 7.38062L8.18687 5.88581L7.53289 4.391L7.81317 5.88581L9.21455 7.66089L11.6436 9.90311L14.0727 11.3979L16.782 12.9862L19.7716 14.7612L22.2941 17.0969C22.2941 17.0969 23.4671 17.8248 23.6955 18.5917C23.8413 19.0812 23.6955 19.8996 23.6955 19.8996L23.135 20.8339C23.135 20.8339 23.0771 20.2486 22.9481 19.8996C22.7305 19.3109 22.0139 18.5917 22.0139 18.5917C22.0139 18.5917 21.1164 19.3979 20.4256 19.7128C19.709 20.0395 19.251 20.1585 18.4637 20.1799C17.7621 20.199 17.3406 20.1594 16.6886 19.8996C16.1245 19.6749 15.8217 19.4762 15.3806 19.0588C14.9247 18.6274 14.4464 17.7509 14.4464 17.7509C14.4464 17.7509 13.9878 16.8711 13.8858 16.256C13.7723 15.5712 13.9793 14.481 13.9793 14.481L14.4464 12.9862V12.7993L12.9516 11.7716L12.4844 11.4913L12.2042 11.3979L11.9239 11.4913L11.1765 11.9585L10.0554 12.9862L9.30798 14.0138C9.30798 14.0138 8.90927 14.7317 8.74743 15.2284C8.54115 15.8614 8.50319 16.2452 8.46715 16.91C8.43155 17.5668 8.36115 17.9649 8.56057 18.5917C8.68426 18.9804 9.0277 19.5259 9.0277 19.5259L9.21455 19.7128L9.30798 18.9654C9.30798 18.9654 9.49019 18.3194 9.68168 17.9377C9.83603 17.6301 9.90542 17.4337 10.1488 17.1903C10.3922 16.9469 10.8962 16.7232 10.8962 16.7232L11.5502 16.3495C11.5502 16.3495 11.1305 16.9422 10.9896 17.3772C10.7983 17.9683 10.9127 18.3443 10.8962 18.9654C10.8827 19.476 10.7747 19.7772 10.8962 20.2733C11.0244 20.7966 11.5502 21.4879 11.5502 21.4879L12.2042 22.4221L12.9516 23.1695L13.8858 23.8235L13.1384 22.9827L12.4844 22.0484L12.0173 21.0207L11.9239 20.647L12.7647 21.6747C12.7647 21.6747 13.6419 22.6217 14.2595 23.1695C14.7839 23.6346 15.0661 23.92 15.6609 24.2906C16.3401 24.7138 17.5294 25.1315 17.5294 25.1315L19.0242 25.692L20.1453 26.0657C20.1453 26.0657 20.0661 25.7093 19.9585 25.5052C19.7297 25.0709 19.4016 24.9783 19.0242 24.6643C18.7045 24.3983 18.1834 24.0104 18.1834 24.0104C18.1834 24.0104 18.6981 23.972 19.0242 24.0104C19.724 24.0928 20.7059 24.6643 20.7059 24.6643C20.7059 24.6643 21.5925 25.1976 22.0139 25.692C22.5643 26.3379 22.7339 26.8328 22.9481 27.654C23.0875 28.1882 23.0986 28.5044 23.135 29.0553C23.171 29.6014 23.135 30.4567 23.135 30.4567V31.1107L22.5744 29.8027C22.5744 29.8027 22.1252 29.0639 21.7336 28.6816C21.2629 28.2222 20.3322 27.7474 20.3322 27.7474L19.0242 27.0934L17.9966 26.6263L17.7163 26.5329C17.7163 26.5329 18.5643 27.163 19.0242 27.654C19.4334 28.0906 19.636 28.3645 19.9585 28.8685C20.4777 29.6798 20.6845 30.1959 20.9862 31.1107C21.2439 31.8924 21.3648 32.3477 21.4533 33.1661C21.5357 33.9278 21.5107 34.364 21.4533 35.128C21.3755 36.1628 21.3119 36.7586 20.9862 37.7439C20.5968 38.9217 19.4914 40.5467 19.4914 40.5467L18.4637 41.5744L17.7163 42.3218C17.7163 42.3218 18.4054 40.9813 18.744 40.0796C18.9995 39.399 19.3045 38.3045 19.3045 38.3045L19.4914 37.1834C19.4914 37.1834 18.898 38.6998 18.2768 39.519C17.5427 40.4872 15.9412 41.5744 15.9412 41.5744C15.9412 41.5744 14.5839 42.473 13.6056 42.7889C12.5547 43.1282 10.8028 43.1626 10.8028 43.1626H8.18687L7.81317 42.7889C7.81317 42.7889 8.84625 42.659 9.49483 42.5086C10.6639 42.2376 12.391 41.4809 12.391 41.4809C12.391 41.4809 13.9422 40.6717 14.8201 39.9861C15.5727 39.3984 16.5952 38.3045 16.5952 38.3045C16.5952 38.3045 17.5498 37.1118 17.9966 36.2491C18.4954 35.2858 18.7654 34.7053 18.9308 33.6332C19.0643 32.7678 19.0315 32.2608 18.9308 31.391C18.8362 30.5733 18.8203 30.0775 18.4637 29.3356C18.1697 28.724 17.436 27.9342 17.436 27.9342L16.5017 27.0934L15.2872 26.0657L14.0727 25.2249L15.2872 26.5329C15.2872 26.5329 16.1018 27.2089 16.5017 27.7474C16.8039 28.1543 17.1557 28.8685 17.1557 28.8685C17.1557 28.8685 17.6416 29.5712 17.8097 30.083C17.9933 30.6419 17.9966 31.5778 17.9966 31.5778C17.9966 31.5778 18.0013 32.496 17.9031 33.0726C17.7946 33.71 17.436 34.6609 17.436 34.6609L16.8754 35.782C16.8754 35.782 16.3558 36.6728 15.9412 37.1834C15.4858 37.7441 14.6332 38.4913 14.6332 38.4913L13.4187 39.519C13.4187 39.519 12.4939 40.3219 11.8305 40.7335C11.2066 41.1206 10.1488 41.5744 10.1488 41.5744L8.37372 42.3218L7.43947 42.602C7.43947 42.602 7.3011 42.1516 7.25262 41.8546C7.15856 41.2785 7.25262 40.3598 7.25262 40.3598V39.7059H7.06577L6.78549 40.7335C6.78549 40.7335 6.56212 41.233 6.50521 41.5744C6.44523 41.9343 6.45635 42.1471 6.50521 42.5086C6.5455 42.8068 6.59009 42.973 6.69206 43.256C6.84702 43.6861 7.25262 44.2837 7.25262 44.2837L7.62632 44.7508L7.81317 44.9377C7.81317 44.9377 7.27826 44.6885 6.97234 44.4706C6.34062 44.0204 5.66438 42.9757 5.66438 42.9757C5.66438 42.9757 5.17619 42.2143 5.0104 41.6678C4.86061 41.174 4.78398 40.8743 4.82355 40.3598C4.84935 40.0245 4.85604 39.8179 5.0104 39.519C5.14118 39.2658 5.47753 38.9585 5.47753 38.9585L5.66438 38.7716C5.66438 38.7716 5.24934 38.91 5.0104 39.0519C4.6769 39.2499 4.53056 39.4251 4.263 39.7059C4.06642 39.9121 3.79587 40.2664 3.79587 40.2664L3.60902 40.5467C3.60902 40.5467 2.87977 39.3966 2.58134 38.5848C2.30959 37.8455 2.15673 37.4093 2.11421 36.6228C2.07659 35.9268 2.08447 35.5103 2.30106 34.8477C2.45317 34.3825 2.86162 33.7266 2.86162 33.7266C2.86162 33.7266 3.10783 33.3461 3.32874 33.1661C3.49368 33.0317 3.79587 32.8858 3.79587 32.8858C3.79587 32.8858 3.51474 32.7884 3.32874 32.7924C2.90336 32.8014 2.73126 33.0929 2.39449 33.3529C2.02693 33.6367 1.82432 33.8164 1.55366 34.1938C1.38221 34.4328 1.17996 34.8477 1.17996 34.8477L0.993106 35.128L0.245702 31.2976L0.0588507 29.3356C0.0588507 29.3356 -0.0735633 28.5765 0.0588507 28.1211C0.191656 27.6643 0.712829 27.0934 0.712829 27.0934L1.55366 26.2526C1.55366 26.2526 2.18691 25.7361 2.67477 25.5986C2.99276 25.509 3.5156 25.5052 3.5156 25.5052L3.32874 25.2249L2.67477 25.1315C2.67477 25.1315 2.03044 25.0127 1.64708 25.1315C1.36611 25.2185 0.993106 25.5052 0.993106 25.5052L0.712829 25.5986C0.712829 25.5986 0.714613 24.5513 0.899681 23.9169C1.13293 23.1175 1.92736 22.0484 1.92736 22.0484C1.92736 22.0484 2.64276 21.0054 3.32874 20.647C3.83076 20.3848 4.73013 20.2733 4.73013 20.2733L5.94466 19.9931L5.57096 19.7128H4.16957C4.16957 19.7128 3.64071 19.6103 3.32874 19.7128C3.03056 19.8107 2.67477 20.1799 2.67477 20.1799L3.79587 18.1246L5.47753 15.9758L7.06577 14.2941C7.06577 14.2941 7.04673 12.7377 7.25262 11.7716C7.47158 10.7442 8.18687 9.24913 8.18687 9.24913L8.74743 8.22145L7.62632 6.82007C7.62632 6.82007 7.09709 5.94037 6.87891 5.32526C6.6421 4.6576 6.57082 4.25554 6.50521 3.55017C6.42743 2.71383 6.59864 1.40138 6.59864 1.40138L6.87891 0L7.25262 1.86851L8.18687 3.83045L9.30798 5.32526L10.9896 6.53979L12.9516 7.66089L15.3806 8.4083L17.9966 9.24913L20.1453 10.1834L21.7336 11.2111L22.7613 12.0519L23.6955 13.0796L24.1626 13.827L24.7232 14.7612V13.5467L24.4429 12.4256L23.6955 10.9308L22.2941 9.1557L20.519 7.66089L19.4914 7.10034L17.9966 6.44636L17.3426 6.25951L18.09 6.72664L19.2111 7.38062L20.0519 8.12802L20.7993 8.96885L21.3599 9.80968L21.4533 9.99653L20.519 9.24913L19.1177 8.50173L17.8097 7.94117L14.8201 6.91349L13.5121 6.44636L11.9239 5.88581L13.3253 5.32526L15.6609 4.7647L18.4637 4.57785L21.4533 4.7647L23.9758 5.32526L26.0311 6.25951L26.9654 6.72664L28.0865 7.56747L28.4602 7.84775L29.4879 7.38062L30.609 6.82007L31.6367 6.25951L32.4775 5.32526L32.7578 4.391L32.8512 2.70934L32.2907 1.21453L32.0104 0.467128ZM16.128 14.0138L15.3806 13.3599C15.3806 13.3599 15.0275 14.0206 14.9135 14.481C14.7817 15.0134 14.7606 15.3371 14.8201 15.8823C14.8777 16.4104 15.1938 17.1903 15.1938 17.1903C15.1938 17.1903 15.5868 17.8706 15.9412 18.218C16.3748 18.6431 16.6679 18.8832 17.2491 19.0588C17.7045 19.1964 18.4637 19.1522 18.4637 19.1522C18.4637 19.1522 19.1009 19.2449 19.4914 19.1522C19.9362 19.0466 20.519 18.5917 20.519 18.5917L21.3599 17.9377L20.519 17.0969L20.3322 17.3772C20.3322 17.3772 19.9105 17.7733 19.5848 17.9377C19.2134 18.1251 18.9731 18.218 18.5571 18.218C18.1411 18.218 17.9073 18.1116 17.5294 17.9377C17.1709 17.7727 16.6886 17.3772 16.6886 17.3772C16.6886 17.3772 16.2839 16.9596 16.128 16.6297C15.8922 16.1305 15.9301 15.7804 15.9412 15.2284C15.9508 14.7486 16.128 14.0138 16.128 14.0138ZM26.9654 11.9585L25.4989 14.9832L25.7509 12.7993L26.3114 10.9308C26.3114 10.9308 26.8464 9.82617 26.9654 9.06228C27.0665 8.41337 26.9654 7.38062 26.9654 7.38062C26.9654 7.38062 27.2834 7.69837 27.4325 7.94117C27.6923 8.36401 27.8062 9.1557 27.8062 9.1557C27.8062 9.1557 27.8666 9.78661 27.8062 10.1834C27.6909 10.9417 26.9654 11.9585 26.9654 11.9585ZM2.39449 29.5225L1.64708 28.1211L2.30106 30.6436L3.60902 29.3356L5.47753 31.2976L3.98272 28.2145L2.39449 29.5225ZM6.22493 34.474L5.0104 33.3529L6.31836 35.5951L7.43947 34.0069L9.68168 35.4083L7.43947 32.7924L6.22493 34.474ZM4.73013 25.2249L4.263 24.0104C4.263 24.0104 4.1434 25.272 4.263 26.0657C4.37651 26.819 4.82355 27.9342 4.82355 27.9342V26.2526C4.82355 26.2526 5.99442 26.2188 6.50521 25.5986L7.81317 24.0104C8.32396 23.3901 8.00002 21.301 8.00002 21.301C8.00002 21.301 7.70881 22.9928 7.06577 23.8235C6.7022 24.2932 6.46588 24.5664 5.94466 24.8512C5.50917 25.0891 4.73013 25.2249 4.73013 25.2249ZM7.81317 30.4567L6.78549 29.0553L6.97234 29.8027L7.62632 30.9239C7.62632 30.9239 8.2346 31.6519 8.74743 31.9515C9.24553 32.2425 10.1488 32.4187 10.1488 32.4187C10.1488 32.4187 9.02833 31.9004 9.21455 31.391C9.30313 31.1487 9.68168 30.9239 9.68168 30.9239L10.8962 30.083C10.8962 30.083 11.7082 29.1426 11.8305 28.4014C11.9447 27.7089 11.7779 27.2901 11.5502 26.6263C11.2578 25.7739 10.3357 24.6643 10.3357 24.6643L10.5225 25.5052C10.5225 25.5052 10.739 26.1795 10.8028 26.6263C10.8905 27.2403 10.9955 27.625 10.8028 28.2145C10.585 28.8807 9.68168 29.6159 9.68168 29.6159C9.68168 29.6159 9.02131 30.6946 8.37372 30.6436C8.14369 30.6255 7.81317 30.4567 7.81317 30.4567ZM11.1765 34.0069C10.8146 33.7158 10.3357 33.1661 10.3357 33.1661L10.8028 34.1938C10.8028 34.1938 11.2135 34.804 11.5502 35.128C11.9659 35.528 12.233 35.745 12.7647 35.9688C13.2462 36.1715 14.0727 36.2491 14.0727 36.2491L13.1384 35.4083L13.6056 34.9412C13.6056 34.9412 14.5978 34.0718 15.0069 33.3529C15.4236 32.6209 15.5991 32.1376 15.6609 31.2976C15.7177 30.5257 15.6553 30.0592 15.3806 29.3356C15.1006 28.5977 14.2595 27.654 14.2595 27.654L12.7647 26.2526C12.7647 26.2526 13.3237 26.845 13.6056 27.2803C14.077 28.0082 14.2894 28.4827 14.4464 29.3356C14.5851 30.0892 14.6037 30.5477 14.4464 31.2976C14.2821 32.0807 14.0494 32.5003 13.6056 33.1661C13.1617 33.8319 12.2042 34.6609 12.2042 34.6609C12.2042 34.6609 11.5472 34.3051 11.1765 34.0069Z" fill="url(#paint0_linear_1588_4214)"/>
<path d="M28.3668 16.0692C28.3668 16.0692 27.1586 17.2018 26.6851 18.1246C26.3937 18.6926 26.18 19.5721 26.0853 20.0088L27.1523 20.2733C27.1523 20.2733 28.3251 20.4032 29.0208 20.1799C29.7242 19.9541 30.609 19.1522 30.609 19.1522C30.609 19.1522 31.4439 18.1546 31.6367 17.3772C31.8035 16.7043 31.7124 16.2911 31.6367 15.6021C31.5758 15.0473 31.3564 14.2007 31.3564 14.2007L31.2129 13.8737L31.0695 13.5467L30.5122 14.0668C30.5122 14.0668 30.5821 14.2546 30.6631 14.5098C30.7499 14.7836 30.8496 15.135 30.8893 15.4152C30.9712 15.9932 31.0095 16.3388 30.8893 16.91C30.7748 17.4538 30.6652 17.7757 30.3287 18.218C29.9664 18.6942 29.646 18.8778 29.1142 19.1522C28.7347 19.3481 28.5087 19.4619 28.0865 19.5259C27.5049 19.6141 26.5917 19.3391 26.5917 19.3391L26.9654 18.5917C26.9654 18.5917 27.7844 18.7396 28.2734 18.5917C28.7287 18.454 28.9647 18.2741 29.301 17.9377C29.6374 17.6013 29.955 16.91 29.955 16.91C29.955 16.91 30.137 16.2327 30.1419 15.7889C30.1444 15.5617 30.1017 15.2769 30.0566 15.0415C30.0073 14.7847 29.955 14.5868 29.955 14.5868L28.3668 16.0692Z" fill="url(#paint1_linear_1588_4214)"/>
<path fill-rule="evenodd" clip-rule="evenodd" d="M22.6678 22.7958C22.6678 22.7958 23.3036 23.6703 23.6021 24.2906C23.8224 24.7486 24.0692 25.5052 24.0692 25.5052L24.5363 27.2803C24.5363 27.2803 25.0455 26.6879 25.2837 26.2526C25.6161 25.6453 25.8443 24.5709 25.8443 24.5709C25.8443 24.5709 26.0709 23.095 26.0853 22.1419C26.0941 21.5578 26.0311 20.647 26.0311 20.647L25.564 20.2733C25.564 20.2733 25.234 20.0762 25.0035 20.0865C24.7096 20.0996 24.3495 20.4602 24.3495 20.4602L23.6021 21.2076C23.6021 21.2076 23.0565 21.7819 22.8547 22.2353C22.7608 22.4461 22.6678 22.7958 22.6678 22.7958ZM24.6298 23.263C24.498 22.5942 24.1626 21.5813 24.1626 21.5813L24.2561 21.301C24.2561 21.301 24.4784 20.9155 24.7232 20.8339C24.8963 20.7762 25.0157 20.781 25.1903 20.8339C25.4139 20.9016 25.6574 21.2076 25.6574 21.2076C25.6574 21.2076 25.6767 21.8913 25.6574 22.3287C25.6283 22.9888 25.6002 23.3624 25.4706 24.0104C25.3054 24.8363 24.8166 26.0657 24.8166 26.0657C24.8166 26.0657 24.8527 25.2104 24.8166 24.6643C24.7802 24.1134 24.7365 23.8047 24.6298 23.263Z" fill="url(#paint2_linear_1588_4214)"/>
<path d="M33.3183 11.0242C32.6237 12.0833 31.1696 13.4533 31.1696 13.4533L31.0695 13.5467L31.2129 13.8737L31.8235 13.2664L32.3841 14.5098C32.3841 14.5098 32.7977 15.555 32.9446 16.256C33.0802 16.9028 33.1315 17.9377 33.1315 17.9377C33.1315 17.9377 33.0485 19.3966 32.7578 20.2733C32.542 20.924 32.0104 21.8616 32.0104 21.8616L30.6631 23.5432L29.301 25.2249L28.6471 26.5329L28.3668 27.1868H28.0865C28.0865 27.1868 27.8443 26.2777 27.8997 25.692C27.9313 25.3571 27.9591 25.1625 28.0865 24.8512C28.236 24.486 28.6471 24.0104 28.6471 24.0104L27.526 25.038C27.526 25.038 26.8694 25.7225 26.5917 26.2526C26.2245 26.9535 26.1563 27.4264 26.0853 28.2145C26.0461 28.6506 26.0853 29.3356 26.0853 29.3356H26.3114L26.872 28.1211C26.872 28.1211 27.0898 29.9493 26.9654 31.1107C26.8246 32.4256 26.0853 34.3806 26.0853 34.3806C26.0853 34.3806 25.7815 35.5467 25.4706 36.2491C24.9586 37.4058 23.6955 38.9585 23.6955 38.9585L22.5744 40.3598C22.5744 40.3598 24.0185 39.3051 24.8166 38.4913C25.7823 37.5066 26.2761 36.8832 26.9654 35.6886C27.6934 34.4268 27.9614 33.6309 28.3668 32.2318C28.7591 30.8777 29.0208 28.6816 29.0208 28.6816L29.301 27.3737L30.8893 25.2249L32.9446 22.1419C32.9446 22.1419 33.8106 20.3176 33.9723 19.0588C34.0793 18.2265 34.0804 17.7422 33.9723 16.91C33.8509 15.9754 33.3183 14.5868 33.3183 14.5868L32.4775 12.7993L32.3841 12.6124C32.3841 12.6124 32.9853 11.9538 33.3183 11.4913C33.7864 10.8413 34.0371 10.4553 34.346 9.71626C34.524 9.29045 34.7197 8.59515 34.7197 8.59515L35 7.19377V5.69896C35 5.69896 34.8872 4.66169 34.7197 4.0173C34.5135 3.22375 33.9723 2.05536 33.9723 2.05536C33.9723 2.05536 33.6992 1.43481 33.4118 1.12111C33.2193 0.91101 32.8512 0.653979 32.8512 0.653979C32.8512 0.653979 33.1498 0.984747 33.3183 1.21453C33.9077 2.01811 34.346 3.55017 34.346 3.55017C34.346 3.55017 34.7465 5.36349 34.7197 6.53979C34.6971 7.53538 34.6656 8.11911 34.346 9.06228C34.0691 9.87962 33.7939 10.2991 33.3215 11.0194L33.3183 11.0242Z" fill="url(#paint3_linear_1588_4214)"/>
<defs>
<linearGradient id="paint0_linear_1588_4214" x1="17.5" y1="0" x2="17.5" y2="44.9377" gradientUnits="userSpaceOnUse">
<stop offset="0.165"/>
<stop offset="1"/>
</linearGradient>
<linearGradient id="paint1_linear_1588_4214" x1="17.5" y1="0" x2="17.5" y2="44.9377" gradientUnits="userSpaceOnUse">
<stop offset="0.165"/>
<stop offset="1"/>
</linearGradient>
<linearGradient id="paint2_linear_1588_4214" x1="17.5" y1="0" x2="17.5" y2="44.9377" gradientUnits="userSpaceOnUse">
<stop offset="0.165"/>
<stop offset="1"/>
</linearGradient>
<linearGradient id="paint3_linear_1588_4214" x1="17.5" y1="0" x2="17.5" y2="44.9377" gradientUnits="userSpaceOnUse">
<stop offset="0.165"/>
<stop offset="1"/>
</linearGradient>
</defs>
</svg>
