<svg width="54" height="33" viewBox="0 0 54 33" fill="none" xmlns="http://www.w3.org/2000/svg">
<path d="M53 12.4999C54.4628 21.4254 46.2849 29.3787 30.4761 31.9697C14.6673 34.5608 2.30681 29.754 0.843955 20.8285C-0.618896 11.9031 7.07872 3.85432 22.8875 1.26331C38.6963 -1.3277 51.5371 3.5745 53 12.4999Z" fill="#F5F9FF"/>
<path fill-rule="evenodd" clip-rule="evenodd" d="M40.2632 24.5041L41.7374 17.4325C41.938 16.4699 41.4951 15.5227 40.7013 15.0381C40.4859 14.9065 40.2446 14.8091 39.9833 14.7546L38.8685 14.5222L32.4757 13.1896L30.6194 12.8026C30.1785 12.7107 29.7421 12.8079 29.3945 13.0389C30.3102 13.2221 31.0001 14.0305 31.0001 15L31.0002 22C31.0002 23.1046 30.1046 24 29.0001 24L26.6102 23.9966C26.8124 24.4616 27.5554 24.828 28.0894 24.9393L36.8203 26.7593C38.2702 27.0615 39.6929 26.2279 40.1641 24.864C40.1923 24.7825 40.217 24.699 40.2382 24.6138C40.2472 24.5775 40.2556 24.541 40.2632 24.5041ZM34.5952 16.3156C33.7022 16.3156 32.9783 17.0395 32.9783 17.9325C32.9783 18.3938 33.1715 18.81 33.4814 19.1045L32.923 21.6474C32.8464 21.9963 33.0671 22.3412 33.416 22.4178L33.9626 22.5378C34.3115 22.6145 34.6564 22.3937 34.733 22.0449L35.3185 19.3789C35.8483 19.1134 36.212 18.5654 36.212 17.9325C36.212 17.0395 35.4881 16.3156 34.5952 16.3156Z" fill="#548BC4"/>
<path fill-rule="evenodd" clip-rule="evenodd" d="M11.516 13.1896H27.5874C27.8092 13.1896 28.0235 13.2215 28.2261 13.281C29.1652 13.5566 29.851 14.4248 29.851 15.4532V21.0475C29.851 22.2976 28.8376 23.3111 27.5874 23.3111H12.2112L9.2524 24.653V15.4532C9.2524 14.2031 10.2658 13.1896 11.516 13.1896ZM15.6368 18.1524C15.7299 18.0091 15.7764 17.8552 15.7764 17.6904C15.7764 17.583 15.755 17.481 15.712 17.3843C15.6726 17.284 15.6171 17.1963 15.5455 17.1211C15.4739 17.0459 15.3879 16.9868 15.2877 16.9439C15.1874 16.8973 15.0782 16.874 14.96 16.874C14.9099 16.874 14.8616 16.8776 14.815 16.8848C14.772 16.8884 14.7255 16.8991 14.6754 16.917C14.5644 16.9636 14.4319 17.0405 14.2779 17.148C14.1275 17.2554 13.9771 17.37 13.8267 17.4917C13.859 17.395 13.8894 17.2966 13.918 17.1963C13.9503 17.096 13.9771 16.9994 13.9986 16.9063C14.0237 16.8132 14.0434 16.7272 14.0577 16.6485C14.072 16.5661 14.0792 16.4945 14.0792 16.4336C14.0792 16.3226 14.0577 16.217 14.0147 16.1167C13.9717 16.0165 13.9145 15.9287 13.8428 15.8535C13.7712 15.7783 13.6853 15.7193 13.585 15.6763C13.4848 15.6333 13.3791 15.6118 13.2681 15.6118C13.1536 15.6118 13.0461 15.6333 12.9459 15.6763C12.8492 15.7193 12.7633 15.7783 12.6881 15.8535C12.6164 15.9287 12.5592 16.0165 12.5162 16.1167C12.4732 16.217 12.4517 16.3226 12.4517 16.4336C12.4517 16.4945 12.4589 16.5661 12.4732 16.6485C12.4875 16.7272 12.5054 16.8132 12.5269 16.9063C12.552 16.9994 12.5788 17.096 12.6075 17.1963C12.6397 17.293 12.6719 17.3879 12.7042 17.481C12.5574 17.3592 12.407 17.2446 12.253 17.1372C12.1026 17.0298 11.9719 16.9564 11.8609 16.917C11.7786 16.8884 11.6819 16.874 11.5709 16.874C11.467 16.874 11.3668 16.8955 11.2701 16.9385C11.1734 16.9779 11.0875 17.0352 11.0123 17.1104C10.9371 17.182 10.8762 17.2679 10.8297 17.3682C10.7831 17.4684 10.7598 17.5759 10.7598 17.6904C10.7598 17.8552 10.8082 18.0091 10.9049 18.1524C11.0015 18.2956 11.1322 18.3976 11.2969 18.4585C11.3184 18.4657 11.3489 18.4746 11.3883 18.4854C11.4276 18.4961 11.4849 18.5086 11.5601 18.523C11.6353 18.5337 11.7302 18.5445 11.8448 18.5552C11.963 18.5659 12.1116 18.5749 12.2906 18.5821C12.1295 18.6931 11.9755 18.8094 11.8287 18.9312C11.6819 19.0529 11.5745 19.1639 11.5064 19.2642C11.4527 19.3358 11.4133 19.4128 11.3883 19.4951C11.3632 19.5739 11.3507 19.6545 11.3507 19.7368C11.3507 19.8407 11.3721 19.9409 11.4151 20.0376C11.4581 20.1343 11.5154 20.2202 11.587 20.2954C11.6622 20.3706 11.7481 20.4315 11.8448 20.478C11.9451 20.5246 12.0525 20.5479 12.1671 20.5479C12.2995 20.5479 12.4249 20.5192 12.543 20.4619C12.6612 20.4046 12.7597 20.3205 12.8384 20.2095C12.8814 20.1486 12.9226 20.0716 12.962 19.9785C13.005 19.8854 13.0461 19.7834 13.0855 19.6724C13.1249 19.5614 13.1625 19.4486 13.1983 19.334C13.2341 19.2158 13.2681 19.103 13.3004 18.9956C13.3254 19.103 13.3559 19.2158 13.3917 19.334C13.4275 19.4486 13.4651 19.5614 13.5045 19.6724C13.5439 19.7834 13.5832 19.8854 13.6226 19.9785C13.6656 20.0716 13.7086 20.1486 13.7515 20.2095C13.8303 20.3205 13.9288 20.4046 14.0469 20.4619C14.1651 20.5192 14.2904 20.5479 14.4229 20.5479C14.5303 20.5479 14.6324 20.5264 14.7291 20.4834C14.8293 20.4404 14.9153 20.3832 14.9869 20.3115C15.0621 20.2399 15.1212 20.1558 15.1641 20.0591C15.2107 19.9588 15.234 19.8514 15.234 19.7368C15.234 19.6545 15.2214 19.5739 15.1964 19.4951C15.1749 19.4128 15.1373 19.3358 15.0836 19.2642C15.0155 19.1639 14.9081 19.0529 14.7613 18.9312C14.6145 18.8094 14.4605 18.6931 14.2994 18.5821C14.4677 18.5749 14.6073 18.5659 14.7183 18.5552C14.8329 18.5445 14.926 18.5337 14.9976 18.523C15.0692 18.5086 15.123 18.4961 15.1588 18.4854C15.1981 18.4746 15.2268 18.4657 15.2447 18.4585C15.413 18.3976 15.5437 18.2956 15.6368 18.1524ZM21.5235 18.1524C21.6166 18.0091 21.6632 17.8552 21.6632 17.6904C21.6632 17.583 21.6417 17.481 21.5987 17.3843C21.5593 17.284 21.5038 17.1963 21.4322 17.1211C21.3606 17.0459 21.2746 16.9868 21.1744 16.9439C21.0741 16.8973 20.9649 16.874 20.8467 16.874C20.7966 16.874 20.7483 16.8776 20.7017 16.8848C20.6588 16.8884 20.6122 16.8991 20.5621 16.917C20.4511 16.9636 20.3186 17.0405 20.1646 17.148C20.0142 17.2554 19.8638 17.37 19.7134 17.4917C19.7457 17.395 19.7761 17.2966 19.8048 17.1963C19.837 17.096 19.8638 16.9994 19.8853 16.9063C19.9104 16.8132 19.9301 16.7272 19.9444 16.6485C19.9587 16.5661 19.9659 16.4945 19.9659 16.4336C19.9659 16.3226 19.9444 16.217 19.9014 16.1167C19.8585 16.0165 19.8012 15.9287 19.7296 15.8535C19.6579 15.7783 19.572 15.7193 19.4717 15.6763C19.3715 15.6333 19.2659 15.6118 19.1549 15.6118C19.0403 15.6118 18.9328 15.6333 18.8326 15.6763C18.7359 15.7193 18.65 15.7783 18.5748 15.8535C18.5032 15.9287 18.4459 16.0165 18.4029 16.1167C18.3599 16.217 18.3384 16.3226 18.3384 16.4336C18.3384 16.4945 18.3456 16.5661 18.3599 16.6485C18.3743 16.7272 18.3922 16.8132 18.4136 16.9063C18.4387 16.9994 18.4656 17.096 18.4942 17.1963C18.5264 17.293 18.5587 17.3879 18.5909 17.481C18.4441 17.3592 18.2937 17.2446 18.1397 17.1372C17.9893 17.0298 17.8586 16.9564 17.7476 16.917C17.6653 16.8884 17.5686 16.874 17.4576 16.874C17.3537 16.874 17.2535 16.8955 17.1568 16.9385C17.0601 16.9779 16.9742 17.0352 16.899 17.1104C16.8238 17.182 16.7629 17.2679 16.7164 17.3682C16.6698 17.4684 16.6466 17.5759 16.6466 17.6904C16.6466 17.8552 16.6949 18.0091 16.7916 18.1524C16.8883 18.2956 17.0189 18.3976 17.1837 18.4585C17.2051 18.4657 17.2356 18.4746 17.275 18.4854C17.3144 18.4961 17.3717 18.5086 17.4468 18.523C17.522 18.5337 17.6169 18.5445 17.7315 18.5552C17.8497 18.5659 17.9983 18.5749 18.1773 18.5821C18.0162 18.6931 17.8622 18.8094 17.7154 18.9312C17.5686 19.0529 17.4612 19.1639 17.3931 19.2642C17.3394 19.3358 17.3 19.4128 17.275 19.4951C17.2499 19.5739 17.2374 19.6545 17.2374 19.7368C17.2374 19.8407 17.2589 19.9409 17.3018 20.0376C17.3448 20.1343 17.4021 20.2202 17.4737 20.2954C17.5489 20.3706 17.6348 20.4315 17.7315 20.478C17.8318 20.5246 17.9392 20.5479 18.0538 20.5479C18.1863 20.5479 18.3116 20.5192 18.4298 20.4619C18.5479 20.4046 18.6464 20.3205 18.7252 20.2095C18.7681 20.1486 18.8093 20.0716 18.8487 19.9785C18.8917 19.8854 18.9328 19.7834 18.9722 19.6724C19.0116 19.5614 19.0492 19.4486 19.085 19.334C19.1208 19.2158 19.1549 19.103 19.1871 18.9956C19.2121 19.103 19.2426 19.2158 19.2784 19.334C19.3142 19.4486 19.3518 19.5614 19.3912 19.6724C19.4306 19.7834 19.47 19.8854 19.5093 19.9785C19.5523 20.0716 19.5953 20.1486 19.6383 20.2095C19.717 20.3205 19.8155 20.4046 19.9337 20.4619C20.0518 20.5192 20.1772 20.5479 20.3096 20.5479C20.4171 20.5479 20.5191 20.5264 20.6158 20.4834C20.7161 20.4404 20.802 20.3832 20.8736 20.3115C20.9488 20.2399 21.0079 20.1558 21.0508 20.0591C21.0974 19.9588 21.1207 19.8514 21.1207 19.7368C21.1207 19.6545 21.1081 19.5739 21.0831 19.4951C21.0616 19.4128 21.024 19.3358 20.9703 19.2642C20.9022 19.1639 20.7948 19.0529 20.648 18.9312C20.5012 18.8094 20.3472 18.6931 20.1861 18.5821C20.3544 18.5749 20.494 18.5659 20.605 18.5552C20.7196 18.5445 20.8127 18.5337 20.8843 18.523C20.956 18.5086 21.0097 18.4961 21.0455 18.4854C21.0849 18.4746 21.1135 18.4657 21.1314 18.4585C21.2997 18.3976 21.4304 18.2956 21.5235 18.1524ZM27.4102 18.1524C27.5033 18.0091 27.5499 17.8552 27.5499 17.6904C27.5499 17.583 27.5284 17.481 27.4854 17.3843C27.446 17.284 27.3905 17.1963 27.3189 17.1211C27.2473 17.0459 27.1614 16.9868 27.0611 16.9439C26.9608 16.8973 26.8516 16.874 26.7335 16.874C26.6833 16.874 26.635 16.8776 26.5884 16.8848C26.5455 16.8884 26.4989 16.8991 26.4488 16.917C26.3378 16.9636 26.2053 17.0405 26.0513 17.148C25.9009 17.2554 25.7506 17.37 25.6002 17.4917C25.6324 17.395 25.6628 17.2966 25.6915 17.1963C25.7237 17.096 25.7506 16.9994 25.772 16.9063C25.7971 16.8132 25.8168 16.7272 25.8311 16.6485C25.8454 16.5661 25.8526 16.4945 25.8526 16.4336C25.8526 16.3226 25.8311 16.217 25.7882 16.1167C25.7452 16.0165 25.6879 15.9287 25.6163 15.8535C25.5447 15.7783 25.4587 15.7193 25.3585 15.6763C25.2582 15.6333 25.1526 15.6118 25.0416 15.6118C24.927 15.6118 24.8196 15.6333 24.7193 15.6763C24.6226 15.7193 24.5367 15.7783 24.4615 15.8535C24.3899 15.9287 24.3326 16.0165 24.2896 16.1167C24.2467 16.217 24.2252 16.3226 24.2252 16.4336C24.2252 16.4945 24.2323 16.5661 24.2467 16.6485C24.261 16.7272 24.2789 16.8132 24.3004 16.9063C24.3254 16.9994 24.3523 17.096 24.3809 17.1963C24.4132 17.293 24.4454 17.3879 24.4776 17.481C24.3308 17.3592 24.1804 17.2446 24.0264 17.1372C23.876 17.0298 23.7453 16.9564 23.6343 16.917C23.552 16.8884 23.4553 16.874 23.3443 16.874C23.2405 16.874 23.1402 16.8955 23.0435 16.9385C22.9468 16.9779 22.8609 17.0352 22.7857 17.1104C22.7105 17.182 22.6496 17.2679 22.6031 17.3682C22.5565 17.4684 22.5333 17.5759 22.5333 17.6904C22.5333 17.8552 22.5816 18.0091 22.6783 18.1524C22.775 18.2956 22.9057 18.3976 23.0704 18.4585C23.0919 18.4657 23.1223 18.4746 23.1617 18.4854C23.2011 18.4961 23.2584 18.5086 23.3336 18.523C23.4088 18.5337 23.5036 18.5445 23.6182 18.5552C23.7364 18.5659 23.885 18.5749 24.064 18.5821C23.9029 18.6931 23.7489 18.8094 23.6021 18.9312C23.4553 19.0529 23.3479 19.1639 23.2799 19.2642C23.2261 19.3358 23.1868 19.4128 23.1617 19.4951C23.1366 19.5739 23.1241 19.6545 23.1241 19.7368C23.1241 19.8407 23.1456 19.9409 23.1885 20.0376C23.2315 20.1343 23.2888 20.2202 23.3604 20.2954C23.4356 20.3706 23.5216 20.4315 23.6182 20.478C23.7185 20.5246 23.8259 20.5479 23.9405 20.5479C24.073 20.5479 24.1983 20.5192 24.3165 20.4619C24.4346 20.4046 24.5331 20.3205 24.6119 20.2095C24.6549 20.1486 24.696 20.0716 24.7354 19.9785C24.7784 19.8854 24.8196 19.7834 24.859 19.6724C24.8983 19.5614 24.9359 19.4486 24.9717 19.334C25.0076 19.2158 25.0416 19.103 25.0738 18.9956C25.0989 19.103 25.1293 19.2158 25.1651 19.334C25.2009 19.4486 25.2385 19.5614 25.2779 19.6724C25.3173 19.7834 25.3567 19.8854 25.3961 19.9785C25.439 20.0716 25.482 20.1486 25.525 20.2095C25.6037 20.3205 25.7022 20.4046 25.8204 20.4619C25.9385 20.5192 26.0639 20.5479 26.1964 20.5479C26.3038 20.5479 26.4058 20.5264 26.5025 20.4834C26.6028 20.4404 26.6887 20.3832 26.7603 20.3115C26.8355 20.2399 26.8946 20.1558 26.9376 20.0591C26.9841 19.9588 27.0074 19.8514 27.0074 19.7368C27.0074 19.6545 26.9949 19.5739 26.9698 19.4951C26.9483 19.4128 26.9107 19.3358 26.857 19.2642C26.789 19.1639 26.6815 19.0529 26.5347 18.9312C26.3879 18.8094 26.234 18.6931 26.0728 18.5821C26.2411 18.5749 26.3808 18.5659 26.4918 18.5552C26.6064 18.5445 26.6995 18.5337 26.7711 18.523C26.8427 18.5086 26.8964 18.4961 26.9322 18.4854C26.9716 18.4746 27.0002 18.4657 27.0181 18.4585C27.1864 18.3976 27.3171 18.2956 27.4102 18.1524Z" fill="#548BC4"/>
<path d="M32.5883 12.4392C33.0746 10.453 34.9102 9.19577 36.6883 9.63107C38.4663 10.0664 39.5135 12.0294 39.0272 14.0156C38.9845 14.1904 38.9312 14.3594 38.8685 14.5222L39.9833 14.7546C40.2446 14.8091 40.4859 14.9065 40.7013 15.0381C40.7649 14.8568 40.8203 14.6705 40.867 14.4797C41.5956 11.5036 39.9303 8.53877 37.1473 7.85745C34.3644 7.17613 31.5177 9.03636 30.7891 12.0124L30.6194 12.8026L32.4757 13.1896C32.4898 12.9419 32.5268 12.6908 32.5883 12.4392Z" fill="#548BC4"/>
<path d="M36.8203 26.7593L28.0894 24.9393C27.5554 24.828 26.8124 24.4616 26.6102 23.9966C26.428 24.8708 26.9889 25.7272 27.8631 25.9094L36.5939 27.7294C38.1674 28.0574 39.7089 27.0477 40.0369 25.4742L40.1641 24.864C39.6929 26.2279 38.2702 27.0615 36.8203 26.7593Z" fill="#9AB8D7"/>
<path d="M16.2082 11.598C15.528 11.598 15.0134 11.4209 14.6643 11.0667C14.3178 10.7099 14.1446 10.2005 14.1446 9.53826V8.53726C14.1446 7.87249 14.3178 7.36044 14.6643 7.00111C15.0134 6.64177 15.528 6.46211 16.2082 6.46211C16.8883 6.46211 17.4017 6.64177 17.7482 7.00111C18.0972 7.36044 18.2718 7.87249 18.2718 8.53726V9.53826C18.2718 10.2005 18.0985 10.7099 17.752 11.0667C17.4055 11.4209 16.8909 11.598 16.2082 11.598ZM16.2082 10.7587C16.5547 10.7587 16.8139 10.656 16.9859 10.4507C17.1578 10.2454 17.2438 9.95662 17.2438 9.58446V8.49106C17.2438 8.10606 17.1578 7.81089 16.9859 7.60556C16.8139 7.39766 16.5547 7.29371 16.2082 7.29371C15.8642 7.29371 15.6063 7.39766 15.4343 7.60556C15.2623 7.81089 15.1764 8.10606 15.1764 8.49106V9.58446C15.1764 9.95662 15.2623 10.2454 15.4343 10.4507C15.6063 10.656 15.8642 10.7587 16.2082 10.7587Z" fill="#366799"/>
<path d="M21.815 11.4864H20.8024V6.75471H21.815V11.4864ZM23.2087 7.40921H19.401V6.56606H23.2087V7.40921Z" fill="#366799"/>
<path d="M26.6758 10.008H25.3591V9.18406H26.6142C26.8914 9.18406 27.0916 9.11989 27.2148 8.99156C27.3406 8.86066 27.4035 8.67201 27.4035 8.42561V8.14456C27.4035 7.89302 27.3419 7.70437 27.2187 7.57861C27.0955 7.45027 26.8953 7.38611 26.6181 7.38611H25.3591V6.56606H26.6758C27.2739 6.56606 27.7115 6.70081 27.9887 6.97031C28.2684 7.23981 28.4083 7.62224 28.4083 8.11761V8.45641C28.4083 8.95177 28.2684 9.33421 27.9887 9.60371C27.7115 9.87321 27.2739 10.008 26.6758 10.008ZM25.6825 11.4864H24.6854V6.56606H25.6787V9.41891L25.6825 9.87706V11.4864Z" fill="#366799"/>
</svg>
