<svg width="15" height="20" viewBox="0 0 15 20" fill="none" xmlns="http://www.w3.org/2000/svg">
<path fill-rule="evenodd" clip-rule="evenodd" d="M7.64286 5V0H2.64286C1.45939 0 0.5 0.959386 0.5 2.14286V17.8571C0.5 19.0406 1.45939 20 2.64286 20H12.6429C13.8263 20 14.7857 19.0406 14.7857 17.8571V7.14286H9.78571C8.60224 7.14286 7.64286 6.18347 7.64286 5ZM9.50102 11.8816L8.86009 10.9927L8.78904 12.0863L7.63704 12.4174L8.74513 12.7622L8.67408 13.8558L9.42997 12.9752L10.5381 13.32L9.89713 12.431L10.653 11.5505L9.50102 11.8816ZM12.0897 12.1833L11.9361 11.3759C11.9361 11.3759 11.8245 11.9461 11.5409 12.0966C11.2308 12.2611 10.653 11.9562 10.653 11.9562L11.2967 12.542L10.9015 13.2627L11.6946 12.904L12.3383 13.4898L12.1847 12.6823L12.9777 12.3237L12.0897 12.1833ZM11.3896 9.94765L10.995 9.56752L11.0576 10.1119L10.5204 10.3776L11.0963 10.4483L11.159 10.9927L11.4523 10.492L12.0282 10.5627L11.6335 10.1826L11.9268 9.68193L11.3896 9.94765ZM2.93528 3.18736C2.46991 3.69224 2.50105 4.45675 3.00594 4.92212C3.07105 4.98213 3.14264 5.03597 3.21711 5.07986C3.27021 5.11116 3.29875 5.15746 3.30046 5.1996L3.35881 6.63184C3.36242 6.72056 3.40113 6.80422 3.46642 6.8644L3.7267 7.1043C3.86266 7.22962 4.07449 7.221 4.19981 7.08503L4.50238 6.75677C4.6277 6.6208 4.61907 6.40897 4.4831 6.28365L4.40104 6.20801L4.55232 6.04388C4.63587 5.95324 4.63012 5.81202 4.53947 5.72847L4.37534 5.57719L4.52663 5.41306C4.61018 5.32241 4.60443 5.1812 4.51378 5.09765L4.48422 5.0704C4.58082 5.00963 4.6661 4.93239 4.7407 4.85145C5.20606 4.34658 5.17492 3.58205 4.67004 3.11669C4.16515 2.65133 3.40063 2.68248 2.93528 3.18736Z" fill="black"/>
<path d="M9.07087 5V0.357143L14.428 5.71429H9.78516C9.39067 5.71429 9.07087 5.39449 9.07087 5Z" fill="black"/>
<path fill-rule="evenodd" clip-rule="evenodd" d="M3.65459 3.39501C3.73814 3.30436 3.87935 3.29861 3.97 3.38216C4.06064 3.46571 4.0664 3.60692 3.98285 3.69757C3.89929 3.78822 3.75808 3.79397 3.66744 3.71042C3.57679 3.62687 3.57103 3.48565 3.65459 3.39501Z" fill="black"/>
<path d="M5.0006 16.1173H5.32324L5.47112 15.7821H4.85272L5.0006 16.1173Z" fill="white"/>
<path fill-rule="evenodd" clip-rule="evenodd" d="M5.32066 15.265L5.26593 15.2698C4.90841 15.301 4.57788 15.0857 4.44817 14.7488C4.42647 14.6924 4.40618 14.6353 4.37864 14.5817L4.23215 14.2968C4.10879 14.2635 4.00692 14.0987 3.99301 13.8937C3.98112 13.7186 4.03673 13.5633 4.12654 13.4902C4.09471 13.1061 4.25571 12.7441 4.52943 12.5124L4.77206 12.3237C4.77206 12.3237 4.89909 12.2465 4.98715 12.2129C5.03855 12.1933 5.06817 12.184 5.12159 12.1714C5.20409 12.1519 5.25204 12.1449 5.33668 12.1437C5.43175 12.1424 5.48905 12.1387 5.57866 12.1714C5.64066 12.194 5.67786 12.2089 5.72654 12.2545C5.76539 12.2908 5.8072 12.3652 5.8072 12.3652L5.85066 12.4483C5.86087 12.4554 5.87096 12.4627 5.88092 12.4701C5.88092 12.4701 5.97411 12.4851 6.02716 12.5124C6.10035 12.5501 6.13123 12.5912 6.18361 12.656C6.23844 12.7238 6.26154 12.7692 6.29626 12.8498C6.34663 12.9668 6.36173 13.0407 6.37182 13.1683C6.38415 13.3241 6.32814 13.5661 6.32814 13.5661C6.40933 13.6511 6.44357 13.8159 6.40567 13.9903C6.37566 14.1283 6.30719 14.2411 6.22606 14.3025L6.07206 14.5862C6.04222 14.6412 6.02014 14.7002 5.99653 14.7583C5.88156 15.0412 5.62239 15.2387 5.32066 15.265ZM5.24258 15.162C5.71033 15.162 6.08951 14.6103 6.08951 13.9298L6.10296 13.7359C6.10296 13.7359 6.1094 13.5922 6.10296 13.5005C6.09953 13.4517 6.09963 13.4238 6.08951 13.3759C6.07644 13.3141 6.06557 13.279 6.03574 13.2236C6.00668 13.1697 5.94164 13.099 5.94164 13.099C5.94164 13.099 5.89923 13.0327 5.86098 13.0021C5.82388 12.9725 5.75343 12.9468 5.75343 12.9468C5.75343 12.9468 5.66354 12.9337 5.60555 12.9329C5.5371 12.9319 5.49884 12.9392 5.43079 12.9468C5.35698 12.9551 5.31682 12.9744 5.24258 12.9744C5.16834 12.9744 5.12818 12.9551 5.05437 12.9468C4.98632 12.9392 4.94806 12.9319 4.87961 12.9329C4.82162 12.9337 4.73173 12.9468 4.73173 12.9468L4.65107 13.0021C4.65107 13.0021 4.56738 13.0696 4.53008 13.1267C4.49199 13.185 4.48657 13.2269 4.46286 13.2929C4.4323 13.3779 4.41267 13.4255 4.39565 13.5144C4.36519 13.6735 4.39565 13.9298 4.39565 13.9298C4.39565 14.6103 4.77483 15.162 5.24258 15.162Z" fill="white"/>
<path d="M4.32843 15.342C4.32843 15.342 4.28045 15.3857 4.24777 15.4112C4.2325 15.4231 4.21541 15.4351 4.19734 15.4468C4.09136 15.5158 3.95201 15.5773 3.95201 15.5773L3.79069 15.6604L3.65626 15.7158L2.98409 16.0619L2.8631 16.2004C2.8631 16.2004 2.7801 16.4083 2.74211 16.5465C2.67982 16.7732 2.64801 17.1419 2.64801 17.1419L2.64298 17.3101C2.63836 17.4648 2.7617 17.5931 2.91645 17.5946L7.36393 17.6374C7.52489 17.639 7.65309 17.5031 7.64221 17.3425L7.62205 17.045L7.55484 16.4911C7.55484 16.4911 7.52355 16.3605 7.48762 16.2835C7.48548 16.2789 7.48321 16.274 7.48121 16.2697C7.45858 16.2208 7.44367 16.1887 7.40696 16.145C7.36194 16.0914 7.319 16.0686 7.26753 16.0412C7.24821 16.0309 7.22759 16.02 7.20531 16.0066C7.12765 15.9598 7.06942 15.9336 7.00281 15.9036C6.97031 15.889 6.93582 15.8735 6.89611 15.8543C6.83748 15.8259 6.78946 15.8036 6.74311 15.7821C6.68196 15.7537 6.62349 15.7265 6.54659 15.6881L6.33149 15.5773C6.32284 15.5726 6.31384 15.5676 6.3046 15.5625C6.28995 15.5543 6.2747 15.5456 6.25926 15.5367C6.1582 15.4784 6.04918 15.4112 6.04918 15.4112L5.98196 15.342H5.92819L5.36357 16.5188L5.32324 16.1173H5.0006L4.91994 16.5188L4.52697 15.6135L4.40909 15.342H4.32843Z" fill="white"/>
</svg>
