<svg width="18" height="16" viewBox="0 0 18 16" fill="none" xmlns="http://www.w3.org/2000/svg">
<path d="M8.90032 10.3816H9.54766L9.84437 9.70883H8.60362L8.90032 10.3816Z" fill="#37679A"/>
<path fill-rule="evenodd" clip-rule="evenodd" d="M9.54249 8.67135L9.43268 8.68093C8.71536 8.74355 8.05218 8.31151 7.79192 7.63536C7.78471 7.61662 7.77758 7.59785 7.77044 7.57906C7.73451 7.48447 7.69853 7.38976 7.65242 7.30007L7.35851 6.72837C7.11099 6.6615 6.90661 6.33072 6.87869 5.91938C6.85484 5.56803 6.96642 5.25642 7.1466 5.10963C7.08275 4.33885 7.40577 3.61241 7.95497 3.14747L8.44178 2.76881C8.44178 2.76881 8.69666 2.61398 8.87335 2.54654C8.97647 2.50718 9.03589 2.48856 9.14307 2.46319C9.30861 2.42402 9.40481 2.41002 9.57464 2.40762C9.58887 2.40742 9.60269 2.40719 9.61614 2.40697C9.78291 2.40423 9.89377 2.40241 10.0601 2.46319C10.1845 2.50864 10.2592 2.53845 10.3568 2.62989C10.4348 2.70287 10.5187 2.85217 10.5187 2.85217L10.6059 3.01887C10.6264 3.03313 10.6466 3.04774 10.6666 3.06267C10.6666 3.06267 10.8536 3.09263 10.96 3.14747C11.0993 3.21927 11.1622 3.29724 11.2581 3.41603C11.2633 3.42244 11.2685 3.42897 11.2739 3.43563C11.3839 3.57165 11.4303 3.66276 11.4999 3.82461C11.601 4.05946 11.6313 4.20759 11.6515 4.46364C11.6763 4.7764 11.5639 5.26208 11.5639 5.26208C11.7268 5.43253 11.7955 5.76332 11.7194 6.11317C11.6592 6.39021 11.5219 6.61658 11.3591 6.73983L11.0501 7.30913C11.0002 7.40098 10.9612 7.4984 10.9222 7.59573C10.9143 7.6153 10.9065 7.63486 10.8986 7.65438C10.6679 8.22215 10.1479 8.6185 9.54249 8.67135ZM9.38583 8.46453C10.3243 8.46453 11.0851 7.35743 11.0851 5.99176L11.1121 5.60278C11.1121 5.60278 11.125 5.31443 11.1121 5.13045C11.1052 5.03245 11.1054 4.9764 11.0851 4.8804C11.0589 4.75631 11.0371 4.6858 10.9772 4.57477C10.9189 4.46662 10.7884 4.32472 10.7884 4.32472C10.7884 4.32472 10.7033 4.19152 10.6266 4.13023C10.5521 4.07078 10.4108 4.01927 10.4108 4.01927C10.4108 4.01927 10.2304 3.99298 10.1141 3.99131C9.97676 3.98933 9.9 4.00402 9.76345 4.01927C9.61536 4.03582 9.53479 4.07466 9.38583 4.07466C9.23688 4.07466 9.1563 4.03582 9.00821 4.01927C8.87167 4.00402 8.7949 3.98933 8.65757 3.99131C8.54123 3.99298 8.36087 4.01927 8.36087 4.01927L8.19903 4.13023C8.19903 4.13023 8.03111 4.2657 7.95628 4.38028C7.87984 4.49732 7.86897 4.58142 7.82141 4.71369C7.7601 4.88426 7.7207 4.97979 7.68655 5.15824C7.62544 5.4776 7.68655 5.99176 7.68655 5.99176C7.68655 7.35743 8.44734 8.46453 9.38583 8.46453Z" fill="#37679A"/>
<path fill-rule="evenodd" clip-rule="evenodd" d="M2.68118 12.5207H3.32433H3.42939H4.17761H14.1788H14.7761H16.0193C16.1013 12.5207 16.182 12.5264 16.2609 12.5375C17.098 12.655 17.7422 13.374 17.7422 14.2436C17.7422 15.1951 16.9708 15.9664 16.0193 15.9664H2.68118C1.72967 15.9664 0.95833 15.1951 0.95833 14.2436C0.95833 13.5611 1.35512 12.9713 1.93059 12.6924C2.14773 12.5871 2.39031 12.5261 2.64662 12.521C2.65811 12.5208 2.66963 12.5207 2.68118 12.5207ZM3.64073 13.9172L3.45652 13.3503C3.43988 13.2991 3.36744 13.2991 3.3508 13.3503L3.16659 13.9172C3.15915 13.9401 3.13781 13.9557 3.11373 13.9557H2.51759C2.46375 13.9557 2.44137 14.0245 2.48493 14.0562L2.96721 14.4066C2.98669 14.4207 2.99484 14.4458 2.9874 14.4687L2.80318 15.0357C2.78655 15.0869 2.84515 15.1295 2.88871 15.0978L3.37099 14.7474C3.39047 14.7333 3.41685 14.7333 3.43633 14.7474L3.91861 15.0978C3.96217 15.1295 4.02077 15.0869 4.00414 15.0357L3.81992 14.4687C3.81248 14.4458 3.82063 14.4207 3.84011 14.4066L4.32239 14.0562C4.36595 14.0245 4.34357 13.9557 4.28973 13.9557H3.69359C3.66951 13.9557 3.64817 13.9401 3.64073 13.9172ZM9.47618 13.9172L9.29196 13.3503C9.27533 13.2991 9.20289 13.2991 9.18625 13.3503L9.00203 13.9172C8.99459 13.9401 8.97326 13.9557 8.94918 13.9557H8.35304C8.2992 13.9557 8.27682 14.0245 8.32037 14.0562L8.80266 14.4066C8.82214 14.4207 8.83029 14.4458 8.82285 14.4687L8.63863 15.0357C8.622 15.0869 8.6806 15.1295 8.72415 15.0978L9.20644 14.7474C9.22592 14.7333 9.2523 14.7333 9.27177 14.7474L9.75406 15.0978C9.79762 15.1295 9.85622 15.0869 9.83958 15.0357L9.65537 14.4687C9.64793 14.4458 9.65608 14.4207 9.67556 14.4066L10.1578 14.0562C10.2014 14.0245 10.179 13.9557 10.1252 13.9557H9.52904C9.50496 13.9557 9.48362 13.9401 9.47618 13.9172ZM15.4784 13.9172L15.2941 13.3503C15.2775 13.2991 15.2051 13.2991 15.1884 13.3503L15.0042 13.9172C14.9968 13.9401 14.9754 13.9557 14.9514 13.9557H14.3552C14.3014 13.9557 14.279 14.0245 14.3225 14.0562L14.8048 14.4066C14.8243 14.4207 14.8325 14.4458 14.825 14.4687L14.6408 15.0357C14.6242 15.0869 14.6828 15.1295 14.7263 15.0978L15.2086 14.7474C15.2281 14.7333 15.2545 14.7333 15.2739 14.7474L15.7562 15.0978C15.7998 15.1295 15.8584 15.0869 15.8418 15.0357L15.6575 14.4687C15.6501 14.4458 15.6583 14.4207 15.6777 14.4066L16.16 14.0562C16.2036 14.0245 16.1812 13.9557 16.1274 13.9557H15.5312C15.5071 13.9557 15.4858 13.9401 15.4784 13.9172ZM12.4217 13.9172L12.2375 13.3503C12.2208 13.2991 12.1484 13.2991 12.1318 13.3503L11.9475 13.9172C11.9401 13.9401 11.9188 13.9557 11.8947 13.9557H11.2986C11.2447 13.9557 11.2223 14.0245 11.2659 14.0562L11.7482 14.4066C11.7676 14.4207 11.7758 14.4458 11.7684 14.4687L11.5841 15.0357C11.5675 15.0869 11.6261 15.1295 11.6697 15.0978L12.152 14.7474C12.1714 14.7333 12.1978 14.7333 12.2173 14.7474L12.6996 15.0978C12.7431 15.1295 12.8017 15.0869 12.7851 15.0357L12.6009 14.4687C12.5934 14.4458 12.6016 14.4207 12.6211 14.4066L13.1034 14.0562C13.1469 14.0245 13.1245 13.9557 13.0707 13.9557H12.4745C12.4505 13.9557 12.4291 13.9401 12.4217 13.9172ZM6.53067 13.9172L6.34645 13.3503C6.32981 13.2991 6.25738 13.2991 6.24074 13.3503L6.05652 13.9172C6.04908 13.9401 6.02774 13.9557 6.00367 13.9557H5.40753C5.35369 13.9557 5.33131 14.0245 5.37486 14.0562L5.85715 14.4066C5.87663 14.4207 5.88478 14.4458 5.87734 14.4687L5.69312 15.0357C5.67648 15.0869 5.73509 15.1295 5.77864 15.0978L6.26093 14.7474C6.28041 14.7333 6.30678 14.7333 6.32626 14.7474L6.80855 15.0978C6.8521 15.1295 6.91071 15.0869 6.89407 15.0357L6.70985 14.4687C6.70241 14.4458 6.71056 14.4207 6.73004 14.4066L7.21233 14.0562C7.25589 14.0245 7.2335 13.9557 7.17966 13.9557H6.58352C6.55945 13.9557 6.53811 13.9401 6.53067 13.9172Z" fill="#37679A"/>
<path d="M7.38985 8.96465C7.17945 9.12886 6.79645 9.29805 6.79645 9.29805L6.47277 9.46476L6.20305 9.57589L4.85441 10.2705L4.61165 10.5483C4.61165 10.5483 4.44513 10.9655 4.3689 11.2429C4.24391 11.6978 4.18009 12.4376 4.18009 12.4376L4.17761 12.5207H14.1788L14.16 12.2432L14.0251 11.1318C14.0251 11.1318 13.9624 10.8697 13.8903 10.715C13.8858 10.7055 13.8816 10.6963 13.8774 10.6873C13.832 10.5894 13.8021 10.5249 13.7284 10.4372C13.6381 10.3297 13.552 10.2839 13.4487 10.2289C13.4099 10.2083 13.3686 10.1863 13.3238 10.1594C13.168 10.0655 13.0512 10.0129 12.9175 9.95279C12.8523 9.92347 12.7831 9.89234 12.7035 9.85373C12.5857 9.79668 12.4896 9.75204 12.3965 9.70883C12.2738 9.65189 12.1565 9.59743 12.0022 9.52032L11.5706 9.29805C11.5533 9.28858 11.5352 9.27858 11.5167 9.2682C11.2949 9.14396 11.0042 8.96465 11.0042 8.96465L10.8693 8.82573H10.7614L9.62858 11.1874L9.54766 10.3816H8.90032L8.73848 11.1874L7.71352 8.82573H7.55168C7.55168 8.82573 7.45542 8.91347 7.38985 8.96465Z" fill="#37679A"/>
<path d="M2.64662 12.521C2.65811 12.5208 2.66963 12.5207 2.68118 12.5207H3.32433C2.4915 11.3632 2.00098 9.94295 2.00098 8.40811C2.00098 4.51493 5.15702 1.35889 9.0502 1.35889C12.9434 1.35889 16.0994 4.51493 16.0994 8.40811C16.0994 9.94295 15.6089 11.3632 14.7761 12.5207H16.0193C16.1013 12.5207 16.182 12.5264 16.2609 12.5375C16.959 11.3211 17.3582 9.91121 17.3582 8.40811C17.3582 3.81972 13.6386 0.100098 9.0502 0.100098C4.46181 0.100098 0.742188 3.81972 0.742188 8.40811C0.742188 9.97544 1.1762 11.4414 1.93059 12.6924C2.14773 12.5871 2.39031 12.5261 2.64662 12.521Z" fill="#37679A"/>
</svg>
