<svg width="21" height="21" viewBox="0 0 21 21" fill="none" xmlns="http://www.w3.org/2000/svg">
<path fill-rule="evenodd" clip-rule="evenodd" d="M10.1422 0C10.9262 0.00906122 11.7072 0.0998957 12.4724 0.271036C12.8065 0.345744 13.0563 0.625015 13.0942 0.966118L13.276 2.60157C13.3583 3.35248 13.9906 3.92123 14.7443 3.92202C14.9469 3.92234 15.1474 3.88003 15.3346 3.79697L16.8307 3.13793C17.1418 3.00087 17.5054 3.07559 17.7377 3.32437C18.8188 4.48229 19.624 5.87102 20.0927 7.38606C20.1938 7.71275 20.0775 8.06778 19.8029 8.27072L18.4768 9.2509C18.0985 9.52961 17.8751 9.97221 17.8751 10.4429C17.8751 10.9136 18.0985 11.3562 18.4776 11.6356L19.8049 12.6161C20.0795 12.819 20.1959 13.1741 20.0949 13.5008C19.6264 15.0156 18.8216 16.4042 17.7411 17.5623C17.509 17.8111 17.1457 17.886 16.8346 17.7493L15.3324 17.0893C14.9027 16.9007 14.4091 16.9284 14.0029 17.1637C13.5968 17.3991 13.3265 17.8142 13.2749 18.2817L13.0943 19.917C13.0571 20.2542 12.8126 20.5316 12.4835 20.6101C10.9363 20.9792 9.32435 20.9792 7.77717 20.6101C7.44804 20.5316 7.20358 20.2542 7.16634 19.917L6.98601 18.2842C6.93304 17.8175 6.66234 17.4037 6.25653 17.1691C5.85071 16.9345 5.35797 16.907 4.92963 17.0945L3.42713 17.7547C3.11591 17.8914 2.75254 17.8164 2.52048 17.5675C1.43933 16.4081 0.634546 15.0178 0.166699 13.5014C0.0659298 13.1747 0.182359 12.8199 0.45686 12.6171L1.78494 11.636C2.16322 11.3573 2.38663 10.9147 2.38663 10.444C2.38663 9.97329 2.16322 9.53068 1.78444 9.25161L0.457197 8.27216C0.182289 8.06929 0.0657525 7.71403 0.166877 7.38713C0.635534 5.87209 1.44074 4.48336 2.52191 3.32544C2.7542 3.07667 3.11775 3.00194 3.42891 3.13901L4.92474 3.79793C5.35514 3.98734 5.84996 3.95873 6.25796 3.7197C6.66421 3.4834 6.93466 3.06795 6.98687 2.60032L7.16854 0.966118C7.20648 0.624843 7.45654 0.345483 7.79081 0.270934C8.55697 0.100065 9.33873 0.00926925 10.1422 0ZM8.31792 6.15896H11.8135C11.9125 6.15896 12.0059 6.20483 12.0666 6.28322L15.0339 10.115C15.1835 10.3083 15.1835 10.5787 15.0339 10.772L12.0666 14.6037C12.0059 14.6821 11.9125 14.728 11.8135 14.728H8.92456C8.85253 14.728 8.7826 14.7037 8.72606 14.6589C8.58712 14.549 8.56337 14.3469 8.673 14.2076L11.635 10.4435L8.31792 6.15896ZM5.23164 10.1132L7.64946 7.01908L9.45358 9.37663L8.61897 10.4435L9.30132 11.3149L9.34527 11.3901C9.38912 11.496 9.374 11.6202 9.30007 11.7134L7.8727 13.5127L7.82034 13.5651C7.70622 13.6554 7.54115 13.6588 7.42243 13.5641L7.36966 13.5108L5.23156 10.7738L5.17589 10.6863C5.08311 10.5035 5.1017 10.2794 5.23164 10.1132Z" fill="#316397"/>
</svg>
