<svg width="34" height="29" viewBox="0 0 34 29" fill="none" xmlns="http://www.w3.org/2000/svg">
<path d="M2.55885 13.1406C2.02059 12.6117 2.01304 11.7465 2.542 11.2082C2.75201 10.9945 3.01502 10.8645 3.28952 10.8184C3.70641 10.7485 4.14982 10.8724 4.47438 11.1914L13.2116 19.7775L13.9677 20.7382L14.0418 27.3279C14.048 27.8845 13.5985 28.3391 13.0418 28.3391H9.07488C8.5226 28.3391 8.07488 27.8914 8.07488 27.3391V25.777L0.6448 18.2615L0.262695 17.572L0.404456 4.79425C0.413499 3.9792 1.08155 3.32581 1.8966 3.33485C2.71164 3.34389 3.36503 4.01195 3.35599 4.82699L3.29569 10.2624C2.89644 10.2917 2.50574 10.4607 2.2031 10.7687L2.0982 10.8754C1.437 11.5482 1.44643 12.9713 2.11927 13.6325L3.24976 14.7434L3.24579 14.76L6.36682 18.0053H6.91666L7.33536 17.8345L2.55885 13.1406Z" fill="url(#paint0_linear_2682_561)"/>
<path d="M30.9665 13.2072C31.5048 12.6782 31.5124 11.8131 30.9834 11.2748C30.7734 11.0611 30.5104 10.931 30.2359 10.885C29.819 10.8151 29.3756 10.939 29.051 11.2579L20.3138 19.8441L19.5577 20.8048L19.4836 27.3944C19.4774 27.9511 19.9269 28.4057 20.4836 28.4057H24.4505C25.0028 28.4057 25.4505 27.958 25.4505 27.4057V25.8436L32.8806 18.3281L33.2627 17.6386L33.1209 4.86081C33.1119 4.04577 32.4438 3.39237 31.6288 3.40141C30.8138 3.41046 30.1604 4.07851 30.1694 4.89355L30.2297 10.329C30.629 10.3583 31.0196 10.5272 31.3223 10.8352L31.4272 10.942C32.0884 11.6148 32.079 13.0379 31.4061 13.6991L30.2756 14.81L30.2796 14.8266L27.1586 18.0719H26.6087L26.19 17.9011L30.9665 13.2072Z" fill="url(#paint1_linear_2682_561)"/>
<path d="M23.7258 4.62744C23.6699 4.9773 23.5221 5.26727 23.3397 5.42925L23.175 5.79304L23.1432 5.57797L22.9845 4.5049L22.9962 4.01636C22.9962 4.01636 22.9967 3.65454 22.9724 3.42467C22.9698 3.40012 22.9677 3.37766 22.9656 3.35649C22.9574 3.27209 22.9513 3.20807 22.9286 3.11268C22.8919 2.95845 22.8631 2.87114 22.7882 2.73485C22.7151 2.60208 22.5568 2.4304 22.5568 2.4304C22.5568 2.4304 22.4515 2.2675 22.3594 2.1943C22.2702 2.1233 22.1038 2.06536 22.1038 2.06536C22.1038 2.06536 21.8934 2.04082 21.7585 2.04414C21.6342 2.0472 21.5531 2.06128 21.4486 2.07943C21.4193 2.08452 21.3881 2.08993 21.3536 2.09551C21.2841 2.10676 21.2277 2.12211 21.1737 2.13683C21.0949 2.15827 21.0211 2.17837 20.9188 2.18248C20.8164 2.1866 20.7412 2.17249 20.661 2.15743C20.606 2.1471 20.5486 2.13632 20.4784 2.13069C20.4436 2.1279 20.4121 2.12501 20.3824 2.12229C20.2768 2.11258 20.4477 2.16407 20.3235 2.171C20.3235 2.171 20.3578 1.85479 20.3031 1.66399C20.2331 1.41989 20.1203 1.29152 20.0281 1.05491C19.952 0.859635 19.679 0.698415 19.679 0.698415C19.679 0.698415 20.0466 0.384783 20.2479 0.292068C20.3655 0.237956 20.4334 0.211854 20.5563 0.175086C20.7462 0.118301 20.8569 0.0962863 21.0536 0.085373L21.1017 0.0826257C21.2948 0.0714205 21.4232 0.0639709 21.6191 0.132367C21.7655 0.183503 21.8535 0.217375 21.9713 0.327377C22.0653 0.415168 22.17 0.598281 22.17 0.598281L22.2795 0.803051C22.3039 0.819965 22.3281 0.837317 22.3521 0.855093C22.3521 0.855093 22.5702 0.883909 22.6963 0.947654C22.8614 1.03111 22.9382 1.12585 23.0553 1.2702L23.0746 1.29401C23.209 1.45928 23.2673 1.57126 23.3561 1.77076C23.4851 2.06026 23.5276 2.2444 23.564 2.56422C23.6084 2.95487 23.5026 3.56851 23.5026 3.56851C23.7 3.77445 23.7963 4.18564 23.7258 4.62744Z" fill="url(#paint2_linear_2682_561)"/>
<path d="M22.7522 8.07012L22.8772 8.06509L23.0405 8.23284C23.0405 8.23284 23.3864 8.44393 23.6497 8.58923C23.6717 8.60137 23.6931 8.61305 23.7137 8.62411L24.225 8.88246C24.4077 8.97186 24.5464 9.03461 24.6914 9.10024C24.8014 9.15003 24.9151 9.20147 25.0545 9.26745C25.1487 9.3121 25.2305 9.34787 25.3075 9.38158C25.4654 9.45067 25.6035 9.51107 25.7888 9.62141C25.842 9.65311 25.8909 9.6787 25.937 9.70275C26.0594 9.76676 26.1616 9.82017 26.2716 9.95062C26.3614 10.057 26.3993 10.1364 26.4569 10.257L26.4732 10.2911C26.5645 10.4815 26.6504 10.8069 26.6504 10.8069L26.7917 11.8745C26.8364 12.2125 26.6007 12.5161 26.2853 12.5269L23.7919 12.6119L23.5825 11.4689L23.368 10.5939L22.9583 10.0838L21.7429 9.40057L22.243 8.64462L22.7522 8.07012Z" fill="url(#paint3_linear_2682_561)"/>
<path d="M22.8521 6.59637C22.6133 7.31837 22.0307 7.83911 21.3318 7.93351C21.2473 7.94492 21.1636 7.96107 21.0796 7.9755C20.91 8.00463 20.6053 8.04067 20.4001 7.97096C20.4001 7.97096 20.9406 7.94021 21.2677 7.83752C21.6113 7.72961 21.8083 7.64617 22.0927 7.42502C22.2725 7.28515 22.3688 7.19499 22.5052 7.01252C22.695 6.7585 22.8521 6.27829 22.8521 6.27829L22.9845 5.9205L23.1432 5.57797L23.175 5.79304L23.0103 6.15682C22.9465 6.29779 22.9011 6.44812 22.8521 6.59637Z" fill="url(#paint4_linear_2682_561)"/>
<path fill-rule="evenodd" clip-rule="evenodd" d="M14.4164 5.82682L14.5997 6.21216L14.8255 4.83384C14.8255 4.83384 14.7493 4.14074 14.8255 3.71022C14.8625 3.50133 14.9044 3.37673 14.9649 3.19699C14.974 3.16974 14.9836 3.14122 14.9937 3.11095C15.0103 3.06088 15.0234 3.01594 15.0356 2.97369C15.067 2.86548 15.0933 2.77498 15.1619 2.66151C15.2552 2.50704 15.4646 2.32442 15.4646 2.32442L15.6664 2.17485C15.6664 2.17485 15.8913 2.13941 16.0364 2.13715C16.1701 2.13507 16.2578 2.14669 16.3709 2.16168C16.4027 2.16588 16.4364 2.17035 16.4737 2.17485C16.5488 2.18393 16.6101 2.19799 16.6688 2.21147C16.7543 2.23111 16.8344 2.24952 16.9446 2.24952C17.0547 2.24952 17.1349 2.23111 17.2204 2.21147C17.2791 2.19799 17.3403 2.18393 17.4155 2.17485C17.4528 2.17035 17.4865 2.16588 17.5182 2.16168C17.6313 2.14669 17.719 2.13507 17.8528 2.13715C17.9978 2.13941 18.2228 2.17485 18.2228 2.17485C18.2228 2.17485 18.399 2.24429 18.4918 2.32442C18.5876 2.40705 18.6937 2.5866 18.6937 2.5866C18.6937 2.5866 18.8564 2.77789 18.9291 2.92369C19.0038 3.07335 19.0309 3.1684 19.0637 3.33568C19.0839 3.43914 19.0878 3.50819 19.0929 3.59921C19.0942 3.62205 19.0956 3.64627 19.0973 3.67277C19.1134 3.92077 19.0973 4.30948 19.0973 4.30948L19.0637 4.83384L19.2127 6.22599L19.4053 5.84227C19.6083 5.67613 19.7796 5.37097 19.8547 4.99751C19.9495 4.5259 19.8639 4.07997 19.6607 3.8502C19.6607 3.8502 19.8009 3.19549 19.77 2.77388C19.7448 2.42871 19.707 2.22903 19.5809 1.91244C19.4941 1.69427 19.4363 1.57144 19.2991 1.38808C19.2924 1.37911 19.2858 1.3703 19.2794 1.36166C19.1598 1.20152 19.0814 1.09641 18.9076 0.999625C18.7749 0.925695 18.5418 0.885314 18.5418 0.885314C18.5168 0.865183 18.4916 0.845496 18.466 0.826267L18.3573 0.601544C18.3573 0.601544 18.2527 0.400291 18.1555 0.301912C18.0337 0.178643 17.9406 0.138452 17.7855 0.0771885C17.578 -0.00475206 17.4398 -0.00229253 17.2318 0.0014056C17.215 0.00170411 17.1978 0.00201038 17.18 0.00228138C16.9682 0.00551188 16.8483 0.0243799 16.6418 0.0771885C16.5082 0.111381 16.4341 0.136491 16.3055 0.189551C16.0851 0.280465 15.7673 0.489182 15.7673 0.489182L15.1602 0.999625C14.4753 1.62638 14.0725 2.60565 14.1522 3.6447C13.9275 3.84257 13.7883 4.26264 13.8181 4.73628C13.8529 5.29078 14.1077 5.73668 14.4164 5.82682Z" fill="url(#paint5_linear_2682_561)"/>
<path d="M9.55057 4.62742C9.6064 4.97728 9.75418 5.26726 9.93662 5.42924L10.1013 5.79302L10.1331 5.57795L10.2918 4.50488L10.2801 4.01635C10.2801 4.01635 10.2797 3.65452 10.3039 3.42466C10.3065 3.4001 10.3087 3.37764 10.3107 3.35647C10.3189 3.27207 10.3251 3.20805 10.3477 3.11266C10.3844 2.95844 10.4132 2.87113 10.4882 2.73483C10.5612 2.60207 10.7196 2.43038 10.7196 2.43038C10.7196 2.43038 10.8249 2.26749 10.9169 2.19428C11.0062 2.12328 11.1725 2.06534 11.1725 2.06534C11.1725 2.06534 11.3829 2.0408 11.5178 2.04413C11.6422 2.04719 11.7232 2.06126 11.8277 2.07941C11.8571 2.0845 11.8882 2.08992 11.9227 2.09549C11.9922 2.10674 12.0486 2.12209 12.1027 2.13681C12.1814 2.15825 12.2552 2.17835 12.3575 2.18247C12.4599 2.18658 12.5351 2.17247 12.6153 2.15742C12.6703 2.14708 12.7277 2.13631 12.7979 2.13068C12.8328 2.12788 12.8643 2.12499 12.8939 2.12227C12.9996 2.11257 12.8287 2.16405 12.9529 2.17099C12.9529 2.17099 12.9185 1.85477 12.9732 1.66397C13.0433 1.41987 13.156 1.2915 13.2482 1.05489C13.3243 0.859617 13.5974 0.698398 13.5974 0.698398C13.5974 0.698398 13.2298 0.384765 13.0284 0.29205C12.9109 0.237939 12.8429 0.211836 12.72 0.175069C12.5302 0.118284 12.4194 0.0962689 12.2227 0.0853556L12.1746 0.0826083C11.9815 0.0714031 11.8531 0.0639535 11.6573 0.132349C11.5108 0.183486 11.4228 0.217358 11.305 0.32736C11.211 0.415151 11.1063 0.598264 11.1063 0.598264L10.9969 0.803034C10.9724 0.819948 10.9482 0.8373 10.9243 0.855076C10.9243 0.855076 10.7061 0.883892 10.58 0.947636C10.4149 1.03109 10.3381 1.12583 10.221 1.27018L10.2017 1.294C10.0674 1.45926 10.0091 1.57125 9.9202 1.77074C9.79124 2.06025 9.74869 2.24439 9.71232 2.5642C9.66791 2.95485 9.77369 3.5685 9.77369 3.5685C9.57631 3.77443 9.48006 4.18563 9.55057 4.62742Z" fill="url(#paint6_linear_2682_561)"/>
<path d="M10.5242 8.0701L10.3991 8.06508L10.2359 8.23282C10.2359 8.23282 9.88995 8.44391 9.62668 8.58922C9.60468 8.60136 9.58326 8.61304 9.56266 8.6241L9.05134 8.88244C8.86864 8.97184 8.72995 9.0346 8.58492 9.10022C8.47488 9.15001 8.36119 9.20145 8.22186 9.26744C8.12758 9.31208 8.04582 9.34785 7.96879 9.38156C7.81088 9.45065 7.67283 9.51105 7.48754 9.62139C7.43431 9.65309 7.38538 9.67868 7.33937 9.70273C7.21693 9.76674 7.11478 9.82015 7.00469 9.9506C6.91491 10.057 6.87701 10.1364 6.81946 10.257L6.80316 10.2911C6.71182 10.4815 6.62588 10.8069 6.62588 10.8069L6.48465 11.8745C6.43994 12.2125 6.67563 12.5161 6.99106 12.5269L9.48441 12.6119L9.69384 11.4689L9.90834 10.5939L10.318 10.0838L11.5335 9.40055L11.0333 8.6446L10.5242 8.0701Z" fill="url(#paint7_linear_2682_561)"/>
<path d="M14.4555 8.84142C14.1931 9.06278 13.7155 9.29086 13.7155 9.29086L13.3119 9.51559L12.9755 9.66541L11.2937 10.6018L10.991 10.9763C10.991 10.9763 10.7833 11.5387 10.6882 11.9126C10.6296 12.1434 10.5817 12.4286 10.5448 12.6946C10.5371 12.75 10.5299 12.8047 10.5232 12.8578C10.4779 13.2154 10.7386 13.5249 11.0725 13.5269L15.6181 13.5545L16.1373 10.8265L15.9691 9.84461L14.8591 8.65415H14.6573C14.6573 8.65415 14.5373 8.77242 14.4555 8.84142Z" fill="url(#paint8_linear_2682_561)"/>
<path d="M18.7946 8.65415H18.66L17.5517 9.80787L17.5164 9.84461L17.2473 10.8265L17.7483 13.5675L22.2634 13.5949C22.6027 13.597 22.8691 13.2809 22.8356 12.9159L22.73 11.7628C22.73 11.7628 22.6517 11.4095 22.5618 11.201L22.5458 11.1637C22.4892 11.0316 22.4519 10.9447 22.36 10.8265C22.2474 10.6816 22.1399 10.6198 22.0111 10.5457C21.9628 10.5179 21.9113 10.4883 21.8555 10.4519C21.6612 10.3254 21.5155 10.2545 21.3488 10.1735C21.2675 10.1339 21.1812 10.092 21.0818 10.0399C20.935 9.96304 20.8151 9.90286 20.699 9.84461C20.546 9.76785 20.3997 9.69443 20.2073 9.5905L19.6691 9.29086C19.6475 9.27809 19.6249 9.26461 19.6018 9.25062C19.3253 9.08314 18.9627 8.84142 18.9627 8.84142L18.7946 8.65415Z" fill="url(#paint9_linear_2682_561)"/>
<path d="M10.4242 6.59635C10.663 7.31835 11.2456 7.83909 11.9445 7.93349C12.029 7.9449 12.1127 7.96105 12.1967 7.97548C12.3663 8.00461 12.671 8.04065 12.8763 7.97095C12.8763 7.97095 12.3357 7.9402 12.0087 7.8375C11.665 7.72959 11.468 7.64615 11.1837 7.425C11.0038 7.28513 10.9076 7.19498 10.7712 7.0125C10.5813 6.75848 10.4242 6.27827 10.4242 6.27827L10.2918 5.92049L10.1331 5.57795L10.1013 5.79302L10.266 6.1568C10.3298 6.29777 10.3752 6.44811 10.4242 6.59635Z" fill="url(#paint10_linear_2682_561)"/>
<path d="M14.9192 7.00846C15.0355 7.36033 15.2336 7.6644 15.4869 7.89461C15.7534 8.13677 16.0812 8.29721 16.4395 8.3456C16.5239 8.35701 16.6077 8.37316 16.6917 8.38759C16.8612 8.41672 17.1659 8.31971 17.3712 8.25C17.3712 8.25 17.3298 8.25783 17.263 8.26699C17.0884 8.29092 16.7402 8.32389 16.5036 8.24961C16.1599 8.1417 15.9801 8.11576 15.6957 7.89461C15.5159 7.75474 15.4025 7.60709 15.2661 7.42461C15.0762 7.17059 14.9192 6.69038 14.9192 6.69038L14.7867 6.3326L14.6281 5.99006L14.5963 6.20513L14.761 6.56891C14.8248 6.70988 14.8702 6.86021 14.9192 7.00846Z" fill="url(#paint11_linear_2682_561)"/>
<path d="M18.9927 6.84294C18.881 7.21334 18.6788 7.534 18.4156 7.7745C18.1613 8.0067 17.8501 8.16419 17.5081 8.21957C17.426 8.23287 17.3446 8.25067 17.263 8.26699C17.261 8.26738 17.2591 8.26777 17.2571 8.26816C17.0884 8.30174 16.7846 8.35034 16.5776 8.28605C16.5776 8.28605 17.0469 8.36125 17.3712 8.25C17.7119 8.1331 17.9403 8.00304 18.2187 7.7745C18.3948 7.62995 18.5253 7.45406 18.6569 7.26806C18.84 7.00915 18.9844 6.52497 18.9844 6.52497L19.1074 6.16383L19.257 5.81725L19.2945 6.0314L19.1394 6.39939C19.0793 6.54199 19.0379 6.69346 18.9927 6.84294Z" fill="url(#paint12_linear_2682_561)"/>
<path d="M17.003 8.45896L17.1399 8.44604C17.6348 8.39934 18.0838 8.15373 18.4156 7.7745C18.1613 8.0067 17.8501 8.16419 17.5081 8.21957C17.426 8.23287 17.3446 8.25067 17.263 8.26699C17.3298 8.25783 17.3712 8.25 17.3712 8.25C17.1659 8.31971 16.8612 8.41672 16.6917 8.38759C16.6077 8.37316 16.5239 8.35701 16.4395 8.3456C16.0812 8.29721 15.7534 8.13677 15.4869 7.89461C15.8897 8.29548 16.4326 8.51278 17.003 8.45896Z" fill="url(#paint13_linear_2682_561)"/>
<path d="M17.2473 10.8265L17.5164 9.84461L17.5517 9.80787L16.6688 10.1735L15.9691 9.84461L16.1373 10.8265H17.2473Z" fill="url(#paint14_linear_2682_561)"/>
<defs>
<linearGradient id="paint0_linear_2682_561" x1="16.7627" y1="0" x2="16.7627" y2="28.4057" gradientUnits="userSpaceOnUse">
<stop offset="0.4" stop-color="#316397"/>
<stop offset="1" stop-color="#316397" stop-opacity="0.54"/>
</linearGradient>
<linearGradient id="paint1_linear_2682_561" x1="16.7627" y1="0" x2="16.7627" y2="28.4057" gradientUnits="userSpaceOnUse">
<stop offset="0.4" stop-color="#316397"/>
<stop offset="1" stop-color="#316397" stop-opacity="0.54"/>
</linearGradient>
<linearGradient id="paint2_linear_2682_561" x1="-6.61267" y1="-6.71322" x2="48.1921" y2="88.685" gradientUnits="userSpaceOnUse">
<stop offset="0.369568" stop-color="#37679A"/>
<stop offset="1" stop-color="#37679A" stop-opacity="0"/>
</linearGradient>
<linearGradient id="paint3_linear_2682_561" x1="-6.61267" y1="-6.71322" x2="48.1921" y2="88.685" gradientUnits="userSpaceOnUse">
<stop offset="0.369568" stop-color="#37679A"/>
<stop offset="1" stop-color="#37679A" stop-opacity="0"/>
</linearGradient>
<linearGradient id="paint4_linear_2682_561" x1="-6.61267" y1="-6.71322" x2="48.1921" y2="88.685" gradientUnits="userSpaceOnUse">
<stop offset="0.369568" stop-color="#37679A"/>
<stop offset="1" stop-color="#37679A" stop-opacity="0"/>
</linearGradient>
<linearGradient id="paint5_linear_2682_561" x1="-2.72887" y1="-6.03323" x2="54.6587" y2="41.1014" gradientUnits="userSpaceOnUse">
<stop offset="0.369568" stop-color="#37679A"/>
<stop offset="1" stop-color="#37679A" stop-opacity="0"/>
</linearGradient>
<linearGradient id="paint6_linear_2682_561" x1="-2.72887" y1="-6.03323" x2="54.6587" y2="41.1014" gradientUnits="userSpaceOnUse">
<stop offset="0.369568" stop-color="#37679A"/>
<stop offset="1" stop-color="#37679A" stop-opacity="0"/>
</linearGradient>
<linearGradient id="paint7_linear_2682_561" x1="-2.72887" y1="-6.03323" x2="54.6587" y2="41.1014" gradientUnits="userSpaceOnUse">
<stop offset="0.369568" stop-color="#37679A"/>
<stop offset="1" stop-color="#37679A" stop-opacity="0"/>
</linearGradient>
<linearGradient id="paint8_linear_2682_561" x1="-2.72887" y1="-6.03323" x2="54.6587" y2="41.1014" gradientUnits="userSpaceOnUse">
<stop offset="0.369568" stop-color="#37679A"/>
<stop offset="1" stop-color="#37679A" stop-opacity="0"/>
</linearGradient>
<linearGradient id="paint9_linear_2682_561" x1="-2.72887" y1="-6.03323" x2="54.6587" y2="41.1014" gradientUnits="userSpaceOnUse">
<stop offset="0.369568" stop-color="#37679A"/>
<stop offset="1" stop-color="#37679A" stop-opacity="0"/>
</linearGradient>
<linearGradient id="paint10_linear_2682_561" x1="-2.72887" y1="-6.03323" x2="54.6587" y2="41.1014" gradientUnits="userSpaceOnUse">
<stop offset="0.369568" stop-color="#37679A"/>
<stop offset="1" stop-color="#37679A" stop-opacity="0"/>
</linearGradient>
<linearGradient id="paint11_linear_2682_561" x1="-56.8843" y1="-102.619" x2="270.145" y2="177.26" gradientUnits="userSpaceOnUse">
<stop offset="0.369568" stop-color="#37679A"/>
<stop offset="1" stop-color="#37679A" stop-opacity="0"/>
</linearGradient>
<linearGradient id="paint12_linear_2682_561" x1="23.5682" y1="-2.84193" x2="-3.44205" y2="21.3885" gradientUnits="userSpaceOnUse">
<stop offset="0.369568" stop-color="#37679A"/>
<stop offset="1" stop-color="#37679A" stop-opacity="0"/>
</linearGradient>
<linearGradient id="paint13_linear_2682_561" x1="23.5682" y1="-2.84193" x2="-3.44205" y2="21.3885" gradientUnits="userSpaceOnUse">
<stop offset="0.369568" stop-color="#37679A"/>
<stop offset="1" stop-color="#37679A" stop-opacity="0"/>
</linearGradient>
<linearGradient id="paint14_linear_2682_561" x1="34.7346" y1="-5.93803" x2="-21.4528" y2="42.7245" gradientUnits="userSpaceOnUse">
<stop offset="0.05" stop-color="#37679A"/>
<stop offset="0.66" stop-color="#37679A" stop-opacity="0.44"/>
</linearGradient>
</defs>
</svg>
