<svg width="21" height="23" viewBox="0 0 21 23" fill="none" xmlns="http://www.w3.org/2000/svg">
<path fill-rule="evenodd" clip-rule="evenodd" d="M20.5 17.5634C20.5 20.2927 18.2874 22.5053 15.558 22.5053C14.4582 22.5053 13.4422 22.146 12.6212 21.5384C11.4047 20.6382 10.616 19.1929 10.616 17.5634C10.616 17.1545 10.6657 16.7573 10.7593 16.3773C11.2905 14.2208 13.2375 12.6214 15.558 12.6214C15.622 12.6214 15.6857 12.6226 15.7491 12.625L15.7557 12.6253C15.7988 12.627 15.8418 12.6292 15.8846 12.632C18.4617 12.8001 20.5 14.9437 20.5 17.5634ZM17.1065 15.8502C17.5614 15.8502 17.9302 16.2189 17.9302 16.6738V19.4194C17.9302 19.8742 17.5614 20.243 17.1065 20.243H13.8119C13.357 20.243 12.9882 19.8742 12.9882 19.4194V16.6738C12.9882 16.2189 13.357 15.8502 13.8119 15.8502C13.8119 14.7881 14.4379 13.8461 15.5 13.8461C16.5621 13.8461 17.1065 14.7881 17.1065 15.8502Z" fill="black"/>
<path d="M15.4592 14.2831C14.7516 14.2831 14.3108 14.7765 14.3108 15.4841V15.8502H16.6538V15.4841C16.6538 14.7765 16.1668 14.2831 15.4592 14.2831Z" fill="black"/>
<path d="M15.4592 18.5042C15.7119 18.5042 15.9168 18.2993 15.9168 18.0466C15.9168 17.7938 15.7119 17.589 15.4592 17.589C15.2064 17.589 15.0016 17.7938 15.0016 18.0466C15.0016 18.2993 15.2064 18.5042 15.4592 18.5042Z" fill="black"/>
<path d="M8.1923 5.38461V0H2.80769C1.53318 0 0.5 1.03318 0.5 2.30769V19.2307C0.5 20.5052 1.53318 21.5384 2.80769 21.5384H11.1996C10.2861 20.5177 9.7306 19.1699 9.7306 17.6923C9.7306 14.506 12.3136 11.9231 15.4998 11.9231C15.6291 11.9231 15.7574 11.9273 15.8846 11.9357V7.69229H10.5C9.22548 7.69229 8.1923 6.65911 8.1923 5.38461Z" fill="black"/>
<path d="M9.73015 5.38461V0.384615L15.4994 6.15384H10.4994C10.0746 6.15384 9.73015 5.80944 9.73015 5.38461Z" fill="black"/>
<path d="M2.03846 10.7692C2.03846 10.3444 2.38285 9.99998 2.80769 9.99998H11.2692C11.694 9.99998 12.0384 10.3444 12.0384 10.7692C12.0384 11.194 11.694 11.5384 11.2692 11.5384H2.80769C2.38285 11.5384 2.03846 11.194 2.03846 10.7692Z" fill="white"/>
<path d="M2.03846 14.6154C2.03846 14.1905 2.38285 13.8461 2.80769 13.8461H7.42307C7.8479 13.8461 8.1923 14.1905 8.1923 14.6154C8.1923 15.0402 7.8479 15.3846 7.42307 15.3846H2.80769C2.38285 15.3846 2.03846 15.0402 2.03846 14.6154Z" fill="white"/>
<path d="M2.03846 18.4615C2.03846 18.0367 2.38285 17.6923 2.80769 17.6923H7.42307C7.8479 17.6923 8.1923 18.0367 8.1923 18.4615C8.1923 18.8863 7.8479 19.2307 7.42307 19.2307H2.80769C2.38285 19.2307 2.03846 18.8863 2.03846 18.4615Z" fill="white"/>
</svg>
