<svg width="40" height="42" viewBox="0 0 40 42" fill="none" xmlns="http://www.w3.org/2000/svg">
<path fill-rule="evenodd" clip-rule="evenodd" d="M34.3584 27.057L30.3761 27.057L30.2064 27.0656C29.3697 27.1509 28.7168 27.8603 28.7168 28.7228L28.7162 30.3882L27.0575 30.3887C25.7745 30.3887 24.7345 31.4329 24.7345 32.721L24.7345 38.7181C24.7345 40.0062 25.7745 41.0504 27.0575 41.0504L37.677 41.0504C38.96 41.0504 40 40.0062 40 38.7181L40 32.721C40 31.4329 38.96 30.3887 37.677 30.3887L36.0171 30.3882L36.0177 28.7228L36.0091 28.5525C35.9241 27.7125 35.2175 27.057 34.3584 27.057ZM30.2064 29.3478C30.2064 28.7152 30.7322 28.2024 31.3807 28.2024L33.1841 28.2024C33.8326 28.2024 34.3584 28.7152 34.3584 29.3478L34.3584 30.3882L30.2064 30.3882L30.2064 29.3478Z" fill="black"/>
<path fill-rule="evenodd" clip-rule="evenodd" d="M18.537 21.657L18.1574 21.6901C15.678 21.9066 13.3856 20.4132 12.486 18.076C12.3356 17.6851 12.1949 17.2886 12.0038 16.917L10.9879 14.9409C10.1323 14.7098 9.42587 13.5664 9.32935 12.1446C9.24691 10.9301 9.63261 9.85296 10.2554 9.34559C10.0347 6.68131 11.1512 4.1703 13.0496 2.5632L14.7323 1.25434C14.7323 1.25434 15.6133 0.719155 16.2241 0.486038C16.5805 0.349983 16.7859 0.2856 17.1564 0.197925C17.7286 0.0625157 18.0611 0.014133 18.6481 0.00584951C19.3075 -0.00345437 19.7049 -0.0291305 20.3263 0.197925C20.7563 0.355014 21.0143 0.458069 21.3519 0.77415C21.6213 1.02641 21.9113 1.54246 21.9113 1.54246L22.2127 2.11868C22.2835 2.16799 22.3535 2.21847 22.4226 2.27008C22.4226 2.27008 23.0689 2.37363 23.4368 2.5632C23.9444 2.82477 24.1586 3.11004 24.5219 3.55925C24.9021 4.02941 25.0623 4.34436 25.3031 4.90378C25.6525 5.71559 25.7571 6.22758 25.8271 7.11266C25.9126 8.19374 25.5242 9.87253 25.5242 9.87253C26.0873 10.4617 26.3247 11.6051 26.0619 12.8144C25.8537 13.772 25.3789 14.5545 24.8162 14.9805L23.7482 16.9484C23.5413 17.3296 23.3881 17.7388 23.2244 18.1417C22.427 20.1043 20.6296 21.4743 18.537 21.657ZM17.9955 20.9421C21.2395 20.9421 23.8692 17.1153 23.8692 12.3947L23.9625 11.0502C23.9625 11.0502 24.0071 10.0535 23.9625 9.41756C23.9387 9.07882 23.9394 8.88506 23.8692 8.55322C23.7785 8.12428 23.7032 7.88056 23.4963 7.49679C23.2947 7.12296 22.8437 6.63245 22.8437 6.63245C22.8437 6.63245 22.5496 6.17205 22.2843 5.96019C22.027 5.75472 21.5384 5.57667 21.5384 5.57667C21.5384 5.57667 20.915 5.48579 20.5128 5.48C20.0381 5.47316 19.7728 5.52393 19.3008 5.57667C18.7889 5.63387 18.5104 5.76811 17.9955 5.76811C17.4806 5.76811 17.2021 5.63387 16.6902 5.57667C16.2183 5.52393 15.9529 5.47316 15.4782 5.48C15.0761 5.48579 14.4526 5.57667 14.4526 5.57667L13.8932 5.96019C13.8932 5.96019 13.3128 6.42845 13.0541 6.82453C12.7899 7.22907 12.7523 7.51976 12.588 7.97699C12.376 8.56656 12.2398 8.89676 12.1218 9.51359C11.9106 10.6175 12.1218 12.3947 12.1218 12.3947C12.1218 17.1153 14.7515 20.9421 17.9955 20.9421Z" fill="black"/>
<path d="M16.3173 27.5687L18.5549 27.5687L19.5805 25.2431L15.2917 25.2431L16.3173 27.5687Z" fill="black"/>
<path d="M11.0962 22.6708C10.369 23.2384 9.04506 23.8232 9.04506 23.8232L7.92626 24.3995L6.99392 24.7836L2.33224 27.1846L1.49313 28.1449C1.49313 28.1449 0.917515 29.587 0.654028 30.5459C0.222007 32.1181 0.00139256 34.6755 0.00139256 34.6755C-0.0497912 36.389 1.31645 37.8103 3.03064 37.8269L22.4226 38.0138L22.4226 30.8733C22.4226 30.8733 22.5038 30.0107 22.8263 29.6012C23.0969 29.2575 23.7482 28.9652 23.7482 28.9652L27.1456 28.9652L27.1456 26.7588C27.1456 26.7588 27.2117 26.5459 27.2787 26.4209C27.4447 26.1113 27.9148 25.7848 27.9148 25.7848L28.5508 25.7848L27.1456 24.6518L25.5474 23.8232C25.4874 23.7905 25.425 23.7559 25.361 23.7201C24.5943 23.2906 23.5895 22.6708 23.5895 22.6708L23.1234 22.1906L22.7504 22.1906L18.8346 30.3538L18.5549 27.5687L16.3173 27.5687L15.7579 30.3538L12.215 22.1906L11.6556 22.1906C11.6556 22.1906 11.3229 22.4939 11.0962 22.6708Z" fill="black"/>
</svg>
