<svg width="40" height="40" viewBox="0 0 40 40" fill="none" xmlns="http://www.w3.org/2000/svg">
<path d="M0.388715 12.8713C0.388715 12.8713 0.0339515 14.9943 0.00610598 16.3676C-0.0187034 17.5911 0.0300369 18.2825 0.190119 19.4958C0.379427 20.9305 0.572027 21.7284 0.987509 23.1147C1.30949 24.189 1.51313 24.7889 1.96891 25.8136C2.44363 26.8808 2.77415 27.4522 3.37968 28.4511C3.513 28.671 3.6331 28.8674 3.7477 29.0507C3.7477 29.0507 3.26391 27.5418 3.13433 26.5413C2.9972 25.4826 3.0432 24.8332 3.11347 23.8413C3.12024 23.7457 3.12725 23.6467 3.13433 23.5441C3.19077 22.726 3.24943 22.2682 3.37968 21.4586C3.40902 21.2762 3.43153 21.1127 3.45267 20.9592C3.51537 20.5037 3.56606 20.1356 3.7477 19.6185C3.77624 19.5372 3.80213 19.4606 3.82683 19.3875C3.96198 18.9877 4.06132 18.6937 4.36108 18.3304C4.62066 18.0157 5.15847 17.6556 5.15847 17.6556L4.91312 17.4103C4.91312 17.4103 4.16441 16.9741 3.7477 16.6129C3.22154 16.1568 2.97224 15.8404 2.58229 15.2635C2.20418 14.7041 1.78383 13.73 1.78383 13.73C1.78383 13.73 1.27371 12.525 1.15177 11.7059C1.03538 10.924 1.15177 9.68175 1.15177 9.68175C0.769028 10.6929 0.508832 11.7618 0.388715 12.8713Z" fill="#6B90B7"/>
<path d="M27.103 10.4791C27.4715 11.6841 27.6694 12.9606 27.6694 14.2821C27.6694 15.1537 27.5833 16.0058 27.4189 16.8307C27.7159 16.7493 28.0201 16.6708 28.2828 16.6129C29.838 16.2702 32.3311 16.1222 32.3311 16.1222H34.149C34.204 15.7222 34.2325 15.2635 34.2325 15.2635C34.3839 14.2689 34.2325 12.6873 34.2325 12.6873C34.2325 12.6873 34.038 11.165 33.7418 10.2338C33.5301 9.56827 33.0671 8.57767 33.0671 8.57767C33.0671 8.57767 32.7464 7.86443 32.3311 7.78028C32.1902 7.75174 31.963 7.78028 31.963 7.78028C31.963 7.78028 30.5562 9.00674 29.5095 9.55908C28.6197 10.0287 27.103 10.4791 27.103 10.4791Z" fill="url(#paint0_linear_2669_535)"/>
<path d="M16.9967 15.4475C18.8182 15.3902 19.9798 14.5367 19.9409 13.3007C19.9107 12.3418 18.9932 11.581 17.7327 11.3149L17.7175 11.3117C17.7239 11.455 17.7006 11.6004 17.6437 11.7398C17.4178 12.294 16.7489 12.5452 16.1496 12.3009C15.7353 12.132 15.4628 11.7705 15.4087 11.3803C14.9096 11.5156 14.49 11.7281 14.1751 12.0012C14.1751 12.0012 13.6383 12.4511 13.3777 12.81C13.1385 13.1395 12.887 13.7301 12.887 13.7301L13.5617 14.2207L14.4823 14.8341C15.1244 15.2447 16.0295 15.478 16.9967 15.4475Z" fill="black"/>
<path d="M16.1496 12.3009C16.7489 12.5452 17.4178 12.294 17.6437 11.7398C17.7006 11.6004 17.7239 11.455 17.7175 11.3117C17.3576 11.237 16.97 11.2025 16.5673 11.2152C16.1478 11.2284 15.7587 11.2854 15.4087 11.3803C15.4628 11.7705 15.7353 12.132 16.1496 12.3009Z" fill="#DCEAFE"/>
<path d="M7.25438 8.27899C7.02846 8.83316 7.33111 9.48045 7.93036 9.72474C8.46106 9.94109 9.04641 9.76881 9.3303 9.34164C8.96472 8.91412 8.46098 8.55852 7.83141 8.36019C7.64661 8.30197 7.46213 8.25609 7.27964 8.22205C7.27069 8.24065 7.26226 8.25964 7.25438 8.27899Z" fill="#DCEAFE"/>
<path d="M4.11689 9.47524C3.75519 10.6234 4.83179 11.9857 6.52156 12.518C7.4314 12.8047 8.24847 12.88 8.86536 12.7093C8.90639 12.497 8.95758 12.2739 9.02274 12.0126C9.10781 11.6714 9.19113 11.4318 9.28322 11.167L9.30316 11.1096C9.34997 10.9747 9.39918 10.8312 9.45211 10.6632C9.52926 10.4181 9.63321 10.085 9.6981 9.8767C9.59757 9.69063 9.47472 9.51053 9.3303 9.34164C9.04641 9.76881 8.46106 9.94109 7.93036 9.72474C7.33111 9.48045 7.02846 8.83316 7.25438 8.27899C7.26226 8.25964 7.27069 8.24065 7.27964 8.22205C5.79346 7.94482 4.43904 8.45265 4.11689 9.47524Z" fill="black"/>
<path d="M23.1917 27.2857L19.3275 26.5413C19.3275 26.5413 21.4772 28.0599 22.9464 28.8804C24.5738 29.7894 25.5296 30.2347 27.2691 30.9046C28.6668 31.4429 30.9203 32.0788 30.9203 32.0788C31.0319 32.0295 31.1559 31.9738 31.2883 31.913C31.8826 31.6401 32.644 31.2648 33.1898 30.9046C34.2112 30.2305 34.7194 29.7485 35.582 28.8804C36.4225 28.0346 36.879 27.5306 37.5448 26.5413C38.3925 25.2817 39.2622 23.0534 39.2622 23.0534C39.2622 23.0534 40.0415 21.4843 39.9983 20.4158C39.9776 19.9042 39.7529 19.1278 39.7529 19.1278L38.1581 21.4586C38.1581 21.4586 36.9548 23.0228 36.0113 23.8508C35.0924 24.6572 34.5087 25.0446 33.4351 25.6295C32.0835 26.366 31.2423 26.6445 29.7549 27.0403C28.5561 27.3593 27.8657 27.5325 26.6267 27.5924C25.2815 27.6573 23.1917 27.2857 23.1917 27.2857Z" fill="url(#paint1_linear_2669_535)"/>
<path d="M27.6694 33.2968C26.2215 33.7457 25.3201 33.7175 23.8051 33.6648C22.6946 33.6262 22.07 33.5303 20.9836 33.2968C20.0571 33.0976 19.5337 32.9711 18.6528 32.622L18.6015 32.6018L18.5594 32.5851L18.4712 32.5504L18.4551 32.544L18.4527 32.5431L18.4433 32.5394C18.404 32.5239 18.3655 32.5088 18.3278 32.4939C17.7159 32.2522 17.2849 32.0703 16.69 31.6406C16.3319 31.382 15.8312 30.9046 15.8312 30.9046C15.8312 30.9046 16.5065 32.0095 17.058 32.622C17.7404 33.3799 18.2644 33.7371 19.0397 34.2655L19.0425 34.2674L19.0442 34.2686L19.0467 34.2703L19.0784 34.2919C19.1586 34.3466 19.2415 34.4031 19.3275 34.4622C20.7319 35.4264 21.5744 35.9512 23.1917 36.4863C23.1917 36.4863 24.9277 37.0909 26.0746 37.345C26.7398 37.4925 27.1108 37.6611 27.7921 37.6517C28.2765 37.645 29.0188 37.4677 29.0188 37.4677C29.3734 37.3055 29.5858 37.1444 29.7549 36.793C29.9522 36.3829 29.8226 36.0776 29.7549 35.6276C29.6839 35.1556 29.5717 34.9022 29.3868 34.4622C29.1283 33.8468 28.5281 32.9845 28.5281 32.9845C28.5281 32.9845 28.0102 33.1911 27.6694 33.2968Z" fill="url(#paint2_linear_2669_535)"/>
<path fill-rule="evenodd" clip-rule="evenodd" d="M12.7643 37.0997C11.9228 36.5584 11.5102 36.1453 10.8629 35.3822C10.3385 34.7642 10.068 34.3857 9.69746 33.6648C9.31294 32.9167 9.15489 32.4592 8.9614 31.6406C8.78917 30.912 8.73751 30.4876 8.71605 29.7392C8.68847 28.7766 8.75698 28.2266 8.9614 27.2857C9.15438 26.3974 9.27906 25.8845 9.69746 25.0775C10.2537 24.0047 10.7723 23.505 11.6603 22.6853C12.4807 21.9279 13.0169 21.575 13.9911 21.0292C15.3535 20.266 17.7327 19.6185 17.7327 19.6185L20.5542 18.5757C20.5542 18.5757 21.659 18.149 22.2103 17.6556C22.8143 17.1151 23.0581 16.6839 23.3758 15.9382C23.6832 15.2163 23.7829 14.7597 23.8051 13.9754C23.8307 13.0737 23.7133 12.5424 23.3758 11.7059C23.1267 11.0887 22.9463 10.7424 22.517 10.2338C21.9082 9.51242 21.41 9.22149 20.5542 8.82302C19.8533 8.49663 19.4232 8.33657 18.6528 8.27098C17.8192 8.20003 17.324 8.33608 16.5417 8.55102L16.5398 8.55154C16.5085 8.56013 16.4768 8.56884 16.4446 8.57767C15.8525 8.73999 15.5124 8.83734 14.9725 9.12971C14.2389 9.52698 13.8815 9.8654 13.3164 10.4791C12.6232 11.232 11.9056 12.6873 11.9056 12.6873C11.9056 12.6873 11.2099 14.0833 10.8629 15.0181C10.7794 15.2429 10.6956 15.4406 10.6167 15.6267C10.4306 16.0655 10.2719 16.4395 10.2107 16.9514L10.1268 17.533C10.1268 17.533 9.59479 17.1023 9.4876 16.9809C9.38041 16.8596 9.28096 16.7333 9.20676 16.6129C8.9126 16.1355 8.80806 15.8166 8.71605 15.2635C8.64997 14.8662 8.67007 14.6012 8.69643 14.2537C8.70299 14.1672 8.70995 14.0754 8.71605 13.9754C8.7469 13.4698 8.78818 13.1086 8.86536 12.7093C8.24847 12.88 7.4314 12.8047 6.52156 12.518C4.83179 11.9857 3.75519 10.6234 4.11689 9.47524C4.43904 8.45265 5.79346 7.94482 7.27964 8.22205C7.46213 8.25609 7.64661 8.30197 7.83141 8.36019C8.46098 8.55852 8.96472 8.91412 9.3303 9.34164C9.47472 9.51053 9.59757 9.69063 9.6981 9.8767C9.73464 9.75942 9.75879 9.68175 9.75879 9.68175C9.75879 9.68175 9.78047 9.03839 9.69746 8.63901C9.60331 8.18607 9.52489 7.91974 9.26809 7.53493C8.99527 7.12611 8.76359 6.93864 8.34803 6.6762C7.87391 6.3768 7.5486 6.29477 6.9986 6.1855C6.29376 6.04547 5.86483 6.05337 5.15847 6.1855C4.5851 6.29276 4.27014 6.41676 3.7477 6.6762C3.34291 6.87723 3.12296 7.01198 2.7663 7.28958C2.33835 7.62268 1.78383 8.27098 1.78383 8.27098C1.54634 8.72677 1.33501 9.19765 1.15177 9.68175C1.15177 9.68175 1.03538 10.924 1.15177 11.7059C1.27371 12.525 1.78383 13.73 1.78383 13.73C1.78383 13.73 2.20418 14.7041 2.58229 15.2635C2.97224 15.8404 3.22154 16.1568 3.7477 16.6129C4.16441 16.9741 4.91312 17.4103 4.91312 17.4103L5.15847 17.6556C5.15847 17.6556 4.62066 18.0157 4.36108 18.3304C4.06132 18.6937 3.96198 18.9877 3.82683 19.3875C3.80213 19.4606 3.77624 19.5372 3.7477 19.6185C3.56606 20.1356 3.51537 20.5037 3.45267 20.9592C3.43153 21.1127 3.40902 21.2762 3.37968 21.4586C3.24943 22.2682 3.19077 22.726 3.13433 23.5441C3.12725 23.6467 3.12024 23.7457 3.11347 23.8413C3.0432 24.8332 2.9972 25.4826 3.13433 26.5413C3.26391 27.5418 3.7477 29.0507 3.7477 29.0507C4.10975 29.6296 4.41699 30.0772 4.91312 30.7206C5.45255 31.4201 5.78141 31.7932 6.38522 32.438C7.0684 33.1676 7.46122 33.5726 8.22535 34.2168C8.86632 34.7572 9.24894 35.0343 9.94281 35.5049C11.0835 36.2785 13.0097 37.2514 13.0097 37.2514C12.9302 37.2043 12.8486 37.1539 12.7643 37.0997ZM19.9409 13.3007C19.9798 14.5367 18.8182 15.3902 16.9967 15.4475C16.0295 15.478 15.1244 15.2447 14.4823 14.8341L13.5617 14.2207L12.887 13.7301C12.887 13.7301 13.1385 13.1395 13.3777 12.81C13.6383 12.4511 14.1751 12.0012 14.1751 12.0012C14.49 11.7281 14.9096 11.5156 15.4087 11.3803C15.7587 11.2854 16.1478 11.2284 16.5673 11.2152C16.97 11.2025 17.3576 11.237 17.7175 11.3117L17.7327 11.3149C18.9932 11.581 19.9107 12.3418 19.9409 13.3007Z" fill="url(#paint3_linear_2669_535)"/>
<path d="M27.103 10.4791C25.4214 4.98107 20.1874 0.971802 13.9911 0.971802C8.65957 0.971802 4.04049 3.94006 1.78383 8.27098C1.78383 8.27098 2.33835 7.62268 2.7663 7.28958C3.12296 7.01198 3.34291 6.87723 3.7477 6.6762C4.27014 6.41676 4.5851 6.29276 5.15847 6.1855C5.86483 6.05337 6.29376 6.04547 6.9986 6.1855C7.5486 6.29477 7.87391 6.3768 8.34803 6.6762C8.76359 6.93864 8.99527 7.12611 9.26809 7.53493C9.52489 7.91974 9.60331 8.18607 9.69746 8.63901C9.78047 9.03839 9.75879 9.68175 9.75879 9.68175C9.75879 9.68175 9.73464 9.75942 9.6981 9.8767C9.63321 10.085 9.52926 10.4181 9.45211 10.6632C9.39918 10.8312 9.34997 10.9747 9.30316 11.1096L9.28322 11.167C9.19113 11.4318 9.10781 11.6714 9.02274 12.0126C8.95758 12.2739 8.90639 12.497 8.86536 12.7093C8.78818 13.1086 8.7469 13.4698 8.71605 13.9754C8.70995 14.0754 8.70299 14.1672 8.69643 14.2537C8.67007 14.6012 8.64997 14.8662 8.71605 15.2635C8.80806 15.8166 8.9126 16.1355 9.20676 16.6129C9.28096 16.7333 9.38041 16.8596 9.4876 16.9809C9.59479 17.1023 10.1268 17.533 10.1268 17.533L10.2107 16.9514C10.2719 16.4395 10.4306 16.0655 10.6167 15.6267C10.6956 15.4406 10.7794 15.2429 10.8629 15.0181C11.2099 14.0833 11.9056 12.6873 11.9056 12.6873C11.9056 12.6873 12.6232 11.232 13.3164 10.4791C13.8815 9.8654 14.2389 9.52698 14.9725 9.12971C15.5124 8.83734 15.8525 8.73999 16.4446 8.57767C16.4768 8.56884 16.5085 8.56013 16.5398 8.55154L16.5417 8.55102C17.324 8.33608 17.8192 8.20003 18.6528 8.27098C19.4232 8.33657 19.8533 8.49663 20.5542 8.82302C21.41 9.22149 21.9082 9.51242 22.517 10.2338C22.9463 10.7424 23.1267 11.0887 23.3758 11.7059C23.7133 12.5424 23.8307 13.0737 23.8051 13.9754C23.7829 14.7597 23.6832 15.2163 23.3758 15.9382C23.0581 16.6839 22.8143 17.1151 22.2103 17.6556C21.659 18.149 20.5542 18.5757 20.5542 18.5757L17.7327 19.6185C17.7327 19.6185 15.3535 20.266 13.9911 21.0292C13.0169 21.575 12.4807 21.9279 11.6603 22.6853C10.7723 23.505 10.2537 24.0047 9.69746 25.0775C9.27906 25.8845 9.15438 26.3974 8.9614 27.2857C8.75698 28.2266 8.68847 28.7766 8.71605 29.7392C8.73751 30.4876 8.78917 30.912 8.9614 31.6406C9.15489 32.4592 9.31294 32.9167 9.69746 33.6648C10.068 34.3857 10.3385 34.7642 10.8629 35.3822C11.5102 36.1453 11.9228 36.5584 12.7643 37.0997C12.8486 37.1539 12.9302 37.2043 13.0097 37.2514C13.403 37.4847 13.7463 37.6383 14.1138 37.7742C14.1138 37.7742 14.5709 37.9501 14.87 38.0445C14.9999 38.0855 15.0737 38.1051 15.2042 38.1439L15.5383 38.2434C16.1217 38.4202 16.6179 38.531 17.1193 38.6161C17.1193 38.6161 18.199 38.8351 18.8981 38.9286C19.7795 39.0465 21.1676 39.114 21.1676 39.114C21.7065 39.1519 22.2583 39.1603 22.9464 39.1238C24.4014 39.0466 25.239 38.9549 26.6267 38.5105C27.5972 38.1996 29.0188 37.4677 29.0188 37.4677C29.0188 37.4677 28.2765 37.645 27.7921 37.6517C27.1108 37.6611 26.7398 37.4925 26.0746 37.345C24.9277 37.0909 23.1917 36.4863 23.1917 36.4863C21.5744 35.9512 20.7319 35.4264 19.3275 34.4622C19.2415 34.4031 19.1586 34.3466 19.0784 34.2919L19.0467 34.2703L19.0442 34.2686L19.0425 34.2674L19.0397 34.2655C18.2644 33.7371 17.7404 33.3799 17.058 32.622C16.5065 32.0095 15.8312 30.9046 15.8312 30.9046C15.8312 30.9046 16.3319 31.382 16.69 31.6406C17.2849 32.0703 17.7159 32.2522 18.3278 32.4939C18.3655 32.5088 18.404 32.5239 18.4433 32.5394L18.4527 32.5431L18.4551 32.544L18.4712 32.5504L18.5594 32.5851L18.6015 32.6018L18.6528 32.622C19.5337 32.9711 20.0571 33.0976 20.9836 33.2968C22.07 33.5303 22.6946 33.6262 23.8051 33.6648C25.3201 33.7175 26.2215 33.7457 27.6694 33.2968C28.0102 33.1911 28.5281 32.9845 28.5281 32.9845L30.3683 32.3154C30.3683 32.3154 30.5891 32.2252 30.9203 32.0788C30.9203 32.0788 28.6668 31.4429 27.2691 30.9046C25.5296 30.2347 24.5738 29.7894 22.9464 28.8804C21.4772 28.0599 19.3275 26.5413 19.3275 26.5413L23.1917 27.2857C23.1917 27.2857 25.2815 27.6573 26.6267 27.5924C27.8657 27.5325 28.5561 27.3593 29.7549 27.0403C31.2423 26.6445 32.0835 26.366 33.4351 25.6295C34.5087 25.0446 35.0924 24.6572 36.0113 23.8508C36.9548 23.0228 38.1581 21.4586 38.1581 21.4586L39.7529 19.1278C39.7529 19.1278 39.4214 19.0169 39.2009 19.0051C38.9904 18.9938 38.8483 19.031 38.678 19.0756C38.6129 19.0927 38.5436 19.1108 38.4648 19.1278C38.2555 19.1727 38.0905 19.2285 37.9317 19.2853C37.909 19.2934 37.8864 19.3016 37.8639 19.3097C37.6756 19.3777 37.4885 19.4452 37.2381 19.4958C36.73 19.5984 36.3729 19.6023 35.9444 19.6068C35.7775 19.6086 35.5997 19.6105 35.3979 19.6185C34.3687 19.6588 32.7604 19.6185 32.7604 19.6185C32.7604 19.6185 30.9311 19.4042 29.7549 19.3118C29.4513 19.2879 29.1758 19.2639 28.9165 19.2414C28.3307 19.1904 27.8274 19.1465 27.2691 19.1278C27.0034 19.1188 26.7253 19.1156 26.4199 19.1199C26.3087 19.1215 26.1938 19.1241 26.0746 19.1278C25.1858 19.1553 24.6845 19.1802 23.8051 19.3118C22.6847 19.4794 20.9836 19.9865 20.9836 19.9865C20.9836 19.9865 21.4738 19.4262 21.8423 19.1278C22.3625 18.7065 22.778 18.529 23.3031 18.3047C23.4589 18.2381 23.6244 18.1674 23.8051 18.085C24.6673 17.6919 26.0746 17.2263 26.0746 17.2263C26.0746 17.2263 26.7274 17.0204 27.4189 16.8307C27.5833 16.0058 27.6694 15.1537 27.6694 14.2821C27.6694 12.9606 27.4715 11.6841 27.103 10.4791Z" fill="url(#paint4_linear_2669_535)"/>
<path fill-rule="evenodd" clip-rule="evenodd" d="M26.0746 17.2263C26.0746 17.2263 26.7274 17.0204 27.4189 16.8307C27.4189 16.8307 27.2066 17.5382 27.0199 17.9718C26.8199 18.4365 26.4199 19.1199 26.4199 19.1199C26.3087 19.1215 26.1938 19.1241 26.0746 19.1278C25.1858 19.1553 24.6845 19.1802 23.8051 19.3118C22.6847 19.4794 20.9836 19.9865 20.9836 19.9865C20.9836 19.9865 21.4738 19.4262 21.8423 19.1278C22.3625 18.7065 22.778 18.529 23.3031 18.3047C23.4589 18.2381 23.6244 18.1674 23.8051 18.085C24.6673 17.6919 26.0746 17.2263 26.0746 17.2263Z" fill="#0A427C"/>
<path d="M32.7604 19.6185C32.7604 19.6185 33.4796 18.4715 33.7418 17.6556C33.7418 17.6556 34.0128 16.8816 34.1099 16.3676C34.1241 16.292 34.1372 16.2084 34.149 16.1222H32.3311C32.3311 16.1222 29.838 16.2702 28.2828 16.6129C28.0201 16.6708 27.7159 16.7493 27.4189 16.8307C27.4189 16.8307 27.2066 17.5382 27.0199 17.9718C26.8199 18.4365 26.4199 19.1199 26.4199 19.1199C26.7253 19.1156 27.0034 19.1188 27.2691 19.1278C27.8274 19.1465 28.3307 19.1904 28.9165 19.2414C29.1758 19.2639 29.4513 19.2879 29.7549 19.3118C30.9311 19.4042 32.7604 19.6185 32.7604 19.6185Z" fill="url(#paint5_linear_2669_535)"/>
<defs>
<linearGradient id="paint0_linear_2669_535" x1="38.6488" y1="7.35092" x2="7.4893" y2="22.992" gradientUnits="userSpaceOnUse">
<stop offset="0.099817" stop-color="#4A7BAF"/>
<stop offset="1" stop-color="#4A7BAF" stop-opacity="0"/>
</linearGradient>
<linearGradient id="paint1_linear_2669_535" x1="40.9797" y1="22.1946" x2="-3.30612" y2="42.4974" gradientUnits="userSpaceOnUse">
<stop stop-color="#033D7B"/>
<stop offset="0.620861" stop-color="#4A77A7" stop-opacity="0"/>
</linearGradient>
<linearGradient id="paint2_linear_2669_535" x1="35.7046" y1="31.0273" x2="-0.0552292" y2="38.0811" gradientUnits="userSpaceOnUse">
<stop stop-color="#074584"/>
<stop offset="0.801393" stop-color="#235990" stop-opacity="0"/>
</linearGradient>
<linearGradient id="paint3_linear_2669_535" x1="-1.15931" y1="21.9493" x2="17.242" y2="21.6426" gradientUnits="userSpaceOnUse">
<stop stop-color="#96B6D9"/>
<stop offset="0.853675" stop-color="#D4E6F8" stop-opacity="0.56"/>
</linearGradient>
<linearGradient id="paint4_linear_2669_535" x1="7.85733" y1="1.83053" x2="44.1079" y2="69.6087" gradientUnits="userSpaceOnUse">
<stop stop-color="#265A92"/>
<stop offset="1" stop-color="#265A92" stop-opacity="0"/>
</linearGradient>
<linearGradient id="paint5_linear_2669_535" x1="33.8199" y1="15.1718" x2="11.4199" y2="30.5718" gradientUnits="userSpaceOnUse">
<stop stop-color="#5F8AB7"/>
<stop offset="1" stop-color="#5F8AB7" stop-opacity="0"/>
</linearGradient>
</defs>
</svg>
