<svg width="33" height="45" viewBox="0 0 33 45" fill="none" xmlns="http://www.w3.org/2000/svg">
<path d="M29.7094 14.7199L31.2137 13.2156L31.0256 14.0617L30.6496 14.5318L31.0256 14.7199L31.4957 16.3181L32.2479 18.3865C32.2479 18.3865 32.7884 19.9659 32.906 21.019C33.0037 21.8947 32.906 23.2754 32.906 23.2754C32.906 23.2754 32.7368 24.572 32.4359 25.3438C32.1612 26.0482 31.4957 27.0361 31.4957 27.0361L31.0256 27.6942C31.0256 27.6942 31.4883 28.47 31.6838 29.0104C31.9876 29.8505 32.0598 31.2669 32.0598 31.2669C32.0598 31.2669 32.2484 33.0021 32.0598 34.0874C31.9286 34.8427 31.4957 35.9677 31.4957 35.9677L30.7436 37.2839C30.7436 37.2839 31.2887 34.688 31.0256 33.0532C30.9111 32.341 30.5556 31.2669 30.5556 31.2669L29.8974 29.9506L29.4274 29.4805V29.7626L29.8974 30.7028L29.4274 30.3267L28.7692 29.5745L29.3333 31.1728L29.8974 32.4891C29.8974 32.4891 30.2795 33.4427 30.3675 34.0874C30.4317 34.5572 30.4121 34.8664 30.3862 35.2768C30.38 35.3746 30.3734 35.4788 30.3675 35.5916C30.333 36.2557 30.1795 37.2839 30.1795 37.2839C30.1795 37.2839 29.9953 38.2978 29.7094 38.8822C29.4543 39.4037 28.8633 40.1045 28.8633 40.1045L27.735 41.1386L26.9829 41.7027C26.9829 41.7027 27.6871 40.8904 28.0171 40.2925C28.3593 39.6724 28.4745 39.2813 28.6745 38.6026L28.6752 38.6002C28.873 37.9287 28.9338 37.5169 29.0304 36.861C29.0372 36.8152 29.0441 36.7682 29.0513 36.7198C29.1648 35.9537 29.2259 35.5199 29.2393 34.7455C29.2515 34.047 29.1453 32.9592 29.1453 32.9592C29.1453 32.9592 29.1395 32.2075 29.0513 31.7369C28.9593 31.2461 28.6752 30.5147 28.6752 30.5147L28.0171 29.7626L27.641 29.6686L27.735 30.1387L28.1111 30.7968L27.547 30.3267L26.9829 29.9506L26.7009 29.6686L26.5128 29.7626L26.9829 30.3267L26.2308 30.1387L25.3846 29.7626L24.3504 28.8224L23.8803 28.1643L25.1026 28.8224L25.0086 28.2583L26.2308 28.8224L26.0427 28.1643L26.9829 28.8224L26.5128 27.5062L27.265 28.1643L27.1709 27.4122L28.0171 28.2583L27.641 27.0361L28.3932 27.6942L27.8291 26.472L28.8633 27.4122L28.3932 25.8139L29.2393 26.8481L29.0513 25.7199L29.8034 26.284L29.5214 25.1557L30.0855 25.4378V24.6857H30.4615L30.3675 24.1216L30.5556 23.8395L30.0855 22.8053L30.8376 23.1814H31.4017L30.8376 22.2412L31.2137 22.0532L30.7436 21.5831L31.2137 21.3011L30.7436 21.019L31.2137 20.925L30.4615 20.4549L31.2137 20.1728L30.5556 19.5147L31.2137 19.4207L30.5556 18.9506L29.7094 18.8566L28.4872 18.6639L30.4615 18.5746H30.8376L30.5556 18.0105L30.4615 17.6344L29.7094 17.3523L30.6496 16.9763H28.7692L30.0855 16.1301L29.3333 15.9421L30.0855 15.66L29.8034 15.1899L30.1795 15.0959L30.3675 14.9079H30.1795L29.7094 15.0959V14.7199Z" fill="url(#paint0_linear_2669_536)"/>
<path fill-rule="evenodd" clip-rule="evenodd" d="M17.0171 24.6857L18.3333 23.5575L18.4274 24.2156H18.6154V24.4036H18.8034V23.1814H19.1795L19.4615 24.8737L20.1197 25.7199L19.7436 24.2156L19.5556 22.6173L19.9316 22.4293C19.9316 22.4293 19.9774 23.2461 20.1197 23.7455L20.1356 23.8013C20.2927 24.3536 20.394 24.71 20.7778 25.1557C20.9986 25.4123 21.4359 25.7199 21.4359 25.7199L21.2479 24.6857C21.2479 24.6857 21.8529 25.0435 22.2821 25.1557C22.9197 25.3226 23.3194 25.2593 23.9691 25.1566L23.9744 25.1557C24.5823 25.0596 24.9373 24.9786 25.4786 24.6857C26.0741 24.3635 26.3799 24.0924 26.7949 23.5575C27.1975 23.0385 27.3806 22.6886 27.547 22.0532C27.7054 21.4483 27.7504 21.0705 27.641 20.4549C27.5516 19.9514 27.1709 19.2327 27.1709 19.2327L26.6068 18.6686C26.6068 18.6686 27.0439 19.7343 27.0769 20.4549C27.0972 20.8966 27.0751 21.1507 26.9829 21.5831C26.8593 22.1632 26.7774 22.5209 26.4188 22.9934C26.1033 23.409 25.3846 23.8395 25.3846 23.8395C25.3846 23.8395 24.7925 24.2762 24.3504 24.4036C23.786 24.5663 22.8462 24.4036 22.8462 24.4036C22.8462 24.4036 22.1851 24.3113 21.812 24.1216C21.3254 23.8742 21.1032 23.6196 20.7778 23.1814C20.4841 22.7859 20.3205 22.5341 20.2137 22.0532C20.1181 21.6231 20.2137 20.925 20.2137 20.925L19.0855 22.1472L17.7692 23.7455L17.4872 23.8395L17.7692 23.2754L20.5898 19.3267L24.1624 16.5062L26.4188 14.5318L28.4872 12.0874L28.9573 11.4293L29.1453 11.8053L28.5812 12.7455L27.547 14.0617L26.1368 15.378L27.8291 14.4378L29.1453 13.2156V13.6857L28.0171 14.7199L27.1709 15.472L29.1453 14.4378C29.1453 14.4378 30.3975 13.3844 31.0256 12.5575C31.4942 11.9407 32.0598 10.8652 32.0598 10.8652L32.812 8.98482L32.906 8.51473L31.6838 9.64294L30.7436 10.207H30.3675L30.6496 9.73695L32.1538 8.23268L33 6.91644L31.9658 7.66858L31.7778 7.57456L32.6239 6.16431L33 4.94209L32.1538 5.78824L31.3077 6.91644L30.6496 7.66858L30.3675 7.57456L31.4957 5.6002L31.6838 2.40363L31.1197 0.147217L30.9316 3.81388C30.9316 3.81388 30.3817 5.32632 29.8034 6.16431C29.2281 6.99793 28.8246 7.43328 28.0171 8.04465C27.4397 8.48175 26.4188 8.98482 26.4188 8.98482L24.1624 9.92499L22.2821 10.8652L21.5299 11.4293L24.2564 10.7711L25.8547 10.4891L25.3846 11.6173L24.2564 13.2156L26.0427 11.7113L26.6068 11.0532L26.5128 11.5233L25.1026 13.2156L21.718 16.0361L19.3675 18.0105L19.1795 17.8224L18.8974 18.5746L18.6154 18.6686V18.2925L18.1453 18.8566L17.7692 19.9848L17.4872 19.0446L17.1111 18.3865L16.9231 18.2925L16.8291 19.8908L16.641 20.6429L16.453 19.3267L16.1709 18.3865H15.8889L15.7009 19.3267L15.5128 19.9848L15.1368 19.0446L14.7607 18.3865L14.4786 18.6686L14.0086 17.8224L13.6325 17.7284L13.4445 17.8224L11.188 16.0361L8.7436 13.6857L7.0513 12.0874V11.8993L7.33335 11.9934L8.64959 13.2156L7.70942 11.7113L7.23933 10.8652L7.0513 10.3951L8.36754 10.7711L11.188 11.4293L7.70942 9.54892C7.70942 9.54892 6.52192 8.98623 5.82908 8.51473C5.11786 8.03074 4.7328 7.72483 4.13677 7.10448C3.64813 6.59589 3.00857 5.69422 3.00857 5.69422C3.00857 5.69422 2.36388 4.65305 2.16241 3.9079C1.98886 3.26599 1.97438 2.21559 1.97438 2.21559L1.88036 0.335251L1.50429 2.68568C1.50429 2.68568 1.36379 3.66045 1.41028 4.28397C1.4606 4.9591 1.78634 5.97627 1.78634 5.97627L2.44446 7.19849L2.53848 7.66858C2.53848 7.66858 2.05815 7.35131 1.78634 7.10448C1.30241 6.665 0.752156 5.78824 0.752156 5.78824L0.282071 4.94209C0.282071 4.94209 0.212406 5.76968 0.376088 6.25832C0.496155 6.61676 0.846173 7.10448 0.846173 7.10448L0.94019 7.38653L0.564122 7.19849L0.094037 6.82243C0.094037 6.82243 0.229848 7.29703 0.376088 7.57456C0.59528 7.99054 1.12822 8.51473 1.12822 8.51473L1.97438 9.4549L2.53848 10.019H2.16241L1.12822 9.36089L0.282071 8.70277C0.282071 8.70277 0.365382 9.64336 0.564122 10.207C0.788241 10.8427 1.41028 11.7113 1.41028 11.7113L2.53848 13.1216L3.7607 14.3438L4.88891 15.0959L5.82908 15.472L4.98292 14.7199L4.41882 14.0617V13.8737L4.79489 14.1558L5.64104 14.8139L6.39318 15.0959L5.64104 14.3438L4.79489 13.2156L4.13677 12.2754L3.94874 11.7113L4.3248 11.8993L5.07694 12.8395L6.11113 14.1558L7.0513 14.9079L8.08549 15.9421L9.49574 16.9763L10.812 17.8224L12.5983 19.3267L13.7265 21.019L15.1368 22.9934L15.7009 23.7455L15.1368 23.5575L13.7265 21.9592L13.0684 21.019L12.8804 21.9592L12.3163 23.1814C12.3163 23.1814 11.6435 23.8752 11.094 24.1216C10.5157 24.3809 9.49574 24.4036 9.49574 24.4036L8.36754 24.2156C8.36754 24.2156 7.41505 23.8877 6.95728 23.4634C6.50911 23.048 6.31569 22.723 6.11113 22.1472C5.92513 21.6236 5.92309 20.7369 5.92309 20.7369L6.11113 19.3267V18.8566L5.64104 19.7028L5.26497 21.019C5.26497 21.019 5.08576 22.0194 5.26497 22.6173C5.40938 23.099 5.60035 23.3394 5.90984 23.7288L5.92309 23.7455C6.34426 24.2756 6.65328 24.5348 7.23933 24.8737C7.65251 25.1127 7.90216 25.2377 8.36754 25.3438C8.97611 25.4825 9.96583 25.3438 9.96583 25.3438L9.30771 26.1899L8.7436 26.754L9.77779 26.378L10.3419 25.5318L10.6239 25.1557L11.4701 24.6857L11.6581 24.8737L11.4701 25.5318L10.812 26.472L12.1282 25.3438L12.7863 24.0275L13.2564 22.7113L13.4445 23.5575L13.2564 24.6857L12.7863 26.0019L13.6325 24.8737L14.0086 23.8395V23.1814L14.1966 24.6857H14.4786L14.5727 24.0275H14.7607V23.5575L16.265 24.8737H16.8291L17.0171 24.6857ZM29.7094 14.7199V15.0959L30.1795 14.9079H30.3675L30.1795 15.0959L29.8034 15.1899L30.0855 15.66L29.3333 15.9421L30.0855 16.1301L28.7692 16.9763H30.6496L29.7094 17.3523L30.4615 17.6344L30.5556 18.0105L30.8376 18.5746H30.4615L28.4872 18.6639L29.7094 18.8566L30.5556 18.9506L31.2137 19.4207L30.5556 19.5147L31.2137 20.1728L30.4615 20.4549L31.2137 20.925L30.7436 21.019L31.2137 21.3011L30.7436 21.5831L31.2137 22.0532L30.8376 22.2412L31.4017 23.1814H30.8376L30.0855 22.8053L30.5556 23.8395L30.3675 24.1216L30.4615 24.6857H30.0855V25.4378L29.5214 25.1557L29.8034 26.284L29.0513 25.7199L29.2393 26.8481L28.3932 25.8139L28.8633 27.4122L27.8291 26.472L28.3932 27.6942L27.641 27.0361L28.0171 28.2583L27.1709 27.4122L27.265 28.1643L26.5128 27.5062L26.9829 28.8224L26.0427 28.1643L26.2308 28.8224L25.0086 28.2583L25.1026 28.8224L23.8803 28.1643L24.3504 28.8224L25.3846 29.7626L26.2308 30.1387L26.9829 30.3267L26.5128 29.7626L26.7009 29.6686L26.9829 29.9506L27.547 30.3267L28.1111 30.7968L27.735 30.1387L27.641 29.6686L28.0171 29.7626L28.6752 30.5147C28.6752 30.5147 28.9593 31.2461 29.0513 31.7369C29.1395 32.2075 29.1453 32.9592 29.1453 32.9592C29.1453 32.9592 29.2515 34.047 29.2393 34.7455C29.2259 35.5199 29.1648 35.9537 29.0513 36.7198C29.0441 36.7682 29.0372 36.8152 29.0304 36.861C28.9338 37.5169 28.873 37.9287 28.6752 38.6002L28.6745 38.6026C28.4745 39.2813 28.3593 39.6724 28.0171 40.2925C27.6871 40.8904 26.9829 41.7027 26.9829 41.7027L27.735 41.1386L28.8633 40.1045C28.8633 40.1045 29.4543 39.4037 29.7094 38.8822C29.9953 38.2978 30.1795 37.2839 30.1795 37.2839C30.1795 37.2839 30.333 36.2557 30.3675 35.5916C30.3734 35.4788 30.38 35.3746 30.3862 35.2768C30.4121 34.8664 30.4317 34.5572 30.3675 34.0874C30.2795 33.4427 29.8974 32.4891 29.8974 32.4891L29.3333 31.1728L28.7692 29.5745L29.4274 30.3267L29.8974 30.7028L29.4274 29.7626V29.4805L29.8974 29.9506L30.5556 31.2669C30.5556 31.2669 30.9111 32.341 31.0256 33.0532C31.2887 34.688 30.7436 37.2839 30.7436 37.2839L31.4957 35.9677C31.4957 35.9677 31.9286 34.8427 32.0598 34.0874C32.2484 33.0021 32.0598 31.2669 32.0598 31.2669C32.0598 31.2669 31.9876 29.8505 31.6838 29.0104C31.4883 28.47 31.0256 27.6942 31.0256 27.6942L31.4957 27.0361C31.4957 27.0361 32.1612 26.0482 32.4359 25.3438C32.7368 24.572 32.906 23.2754 32.906 23.2754C32.906 23.2754 33.0037 21.8947 32.906 21.019C32.7884 19.9659 32.2479 18.3865 32.2479 18.3865L31.4957 16.3181L31.0256 14.7199L30.6496 14.5318L31.0256 14.0617L31.2137 13.2156L29.7094 14.7199ZM14.5727 37.9421L16.265 39.3523L17.5812 40.2925L18.3333 40.8566C18.3333 40.8566 17.3647 40.8398 16.8291 40.5745C16.4077 40.3659 15.8889 39.8224 15.8889 39.8224C15.8889 39.8224 15.3296 39.2241 15.0427 38.7882C14.8349 38.4725 14.5727 37.9421 14.5727 37.9421ZM21.4359 35.2774C21.4359 35.2774 21.475 35.5315 21.5299 35.6857C21.713 36.1998 22.4701 36.7198 22.4701 36.7198C22.4701 36.7198 23.1358 37.4689 23.6923 37.754C24.1681 37.9978 25.0086 38.1301 25.0086 38.1301L23.8803 37.2839L21.4359 35.2774ZM24.3504 34.5575C24.3504 34.5575 25.4139 35.6403 25.6667 36.5318C25.8473 37.1686 25.7607 38.2241 25.7607 38.2241L25.3846 37.2839C25.3846 37.2839 25.1746 36.6461 25.0086 36.2498C24.6531 35.4011 23.8803 34.1814 23.8803 34.1814L24.3504 34.5575ZM21.906 32.7711C21.3665 32.3169 20.7778 31.3609 20.7778 31.3609C20.7778 31.3609 21.7665 31.7729 22.2821 32.207C22.8216 32.6613 23.4103 33.6173 23.4103 33.6173C23.4103 33.6173 22.4216 33.2052 21.906 32.7711ZM22.6581 30.7968C22.6581 30.7968 23.4803 31.9263 24.1624 32.4891C24.8229 33.0341 26.0427 33.6173 26.0427 33.6173C26.0427 33.6173 25.5624 32.5149 25.0086 32.019C24.5675 31.6241 23.6923 31.2669 23.6923 31.2669L22.6581 30.7968ZM26.7009 38.6002C26.4367 39.9327 25.5727 41.8908 25.5727 41.8908C25.5727 41.8908 26.5426 41.123 26.9829 40.4805C27.6196 39.5514 27.8271 38.8762 27.9231 37.754C28.0115 36.7193 27.8679 36.1092 27.547 35.1216C27.268 34.2626 26.5128 33.0532 26.5128 33.0532C26.5128 33.0532 26.801 34.1321 26.8889 34.8395C27.0703 36.2987 26.9868 37.1578 26.7009 38.6002ZM27.0769 31.925C27.0769 31.925 28.0985 32.5307 28.4872 33.1472C28.6801 33.4531 28.7867 33.6399 28.8633 33.9934C28.9697 34.4845 28.7692 35.2768 28.7692 35.2768L28.4872 34.5575L28.0171 33.6173L27.453 32.5831L27.0769 31.925ZM16.265 26.754L14.9487 24.6857C14.9487 24.6857 14.4803 25.7467 14.3846 26.472C14.3126 27.018 14.3178 27.3356 14.3846 27.8822C14.4777 28.6432 14.9487 29.7626 14.9487 29.7626L16.265 32.207V26.754ZM16.7351 26.754V32.207L18.0513 29.7626C18.0513 29.7626 18.6014 28.6527 18.7094 27.8822C18.7859 27.3368 18.7094 26.472 18.7094 26.472L18.2393 24.6857L16.7351 26.754ZM12.3163 28.6344C12.1597 28.1776 12.1282 27.4122 12.1282 27.4122C12.1282 27.4122 12.4571 27.9076 12.5983 28.2583C12.8081 28.7793 12.8804 29.6686 12.8804 29.6686C12.8804 29.6686 12.4655 29.0696 12.3163 28.6344ZM9.58976 30.0446L10.6239 29.2925L11.6581 28.4463C11.6581 28.4463 11.4236 29.1595 11.094 29.4805C10.6446 29.9183 9.58976 30.0446 9.58976 30.0446ZM9.11967 29.1045L7.33336 30.5147C7.33336 30.5147 8.35876 30.402 8.7436 29.9506C8.97822 29.6754 9.11967 29.1045 9.11967 29.1045ZM13.4445 26.8481C13.4445 26.8481 13.2508 27.9642 13.4445 28.6344C13.6088 29.2031 14.1966 29.9506 14.1966 29.9506L13.7265 28.2583L13.4445 26.8481ZM19.1795 28.4463C19.0519 28.8567 18.8034 29.4805 18.8034 29.4805C18.8034 29.4805 19.3841 28.9154 19.5556 28.4463C19.7699 27.8601 19.5556 26.8481 19.5556 26.8481C19.5556 26.8481 19.3699 27.8341 19.1795 28.4463ZM20.5898 27.6942C20.5898 27.6942 20.645 28.3853 20.5898 28.8224C20.5228 29.3528 20.2137 30.1387 20.2137 30.1387C20.2137 30.1387 20.968 29.3028 21.0763 28.6344C21.1652 28.0859 20.8882 27.2241 20.8882 27.2241L20.5898 27.6942ZM22.094 29.7626C21.7932 29.5206 21.4524 29.0104 21.4524 29.0104L21.5299 28.6344L22.2821 29.4805L23.4103 30.3267C23.4103 30.3267 22.5297 30.1131 22.094 29.7626ZM23.1282 29.4805L23.5043 29.1045L24.3504 30.3267L23.1282 29.4805ZM24.8205 29.6686L24.4596 29.7626C24.4596 29.7626 24.8185 30.151 25.1026 30.3267C25.4975 30.571 26.2308 30.7028 26.2308 30.7028L25.3846 30.1387L24.8205 29.6686Z" fill="url(#paint1_linear_2669_536)"/>
<path d="M9.40177 37.0959C8.82854 36.1678 8.109 34.4939 7.99875 34.1479L8.27357 36.4378C8.27357 36.4378 8.56013 37.8905 9.0257 38.6942C9.49489 39.5042 9.88225 39.9095 10.624 40.4805C11.2231 40.9417 11.6081 41.156 12.3163 41.4207C12.9169 41.6452 13.9146 41.7968 13.9146 41.7968L13.0684 41.1386C13.0684 41.1386 11.9375 40.1491 11.2821 39.4463L11.2565 39.4189C10.4706 38.5761 10.0129 38.0853 9.40177 37.0959Z" fill="url(#paint2_linear_2669_536)"/>
<path d="M11.8462 37.472C11.8462 37.472 12.5327 38.4415 13.0684 38.9763C13.7545 39.661 14.2162 39.9742 15.0427 40.4805C15.7428 40.9094 16.9231 41.4207 16.9231 41.4207C16.9231 41.4207 18.1394 41.8471 18.8974 42.1728C19.4558 42.4128 19.7834 42.5236 20.3077 42.831C20.9412 43.2023 21.812 43.9592 21.812 43.9592C21.812 43.9592 20.5419 43.9143 19.7436 43.7711C18.7259 43.5887 18.1605 43.4145 17.2052 43.019C16.1573 42.5852 14.6667 41.6087 14.6667 41.6087C14.6667 41.6087 13.4361 40.7004 12.8804 39.9164C12.5194 39.4072 12.3457 39.0912 12.1282 38.5062C11.9823 38.1138 11.8462 37.472 11.8462 37.472Z" fill="url(#paint3_linear_2669_536)"/>
<path d="M17.2052 38.7882C17.2052 38.7882 18.3622 39.7496 19.0855 40.3865C20.0605 41.245 21.5299 42.6429 21.5299 42.6429L23.2222 44.3352L23.5043 44.7113C23.5043 44.7113 23.1996 43.6337 22.8462 43.019C22.3537 42.1625 21.8982 41.7883 21.1539 41.1386C20.4314 40.5081 19.9501 40.2293 19.1338 39.7564L19.0855 39.7284C18.3751 39.3168 17.2052 38.7882 17.2052 38.7882Z" fill="url(#paint4_linear_2669_536)"/>
<path d="M15.3248 34.1814L17.5812 36.0617L19.9316 37.848L20.9658 38.3181L19.5556 36.0617L18.4274 33.8993L21.2479 37.1899L23.4103 39.8224C23.4103 39.8224 24.3403 41.3541 24.5385 42.4549C24.6946 43.3221 24.5385 44.7113 24.5385 44.7113C24.5385 44.7113 23.9738 43.263 23.4103 42.4549C22.7271 41.4753 21.2479 40.2925 21.2479 40.2925L17.8633 37.566C17.8633 37.566 16.2665 37.5328 15.3248 37.1899C14.3008 36.817 13.7716 36.4286 12.9744 35.6857C12.4791 35.2241 12.1968 34.9485 11.8462 34.3694C11.347 33.545 11.094 32.019 11.094 32.019C11.094 32.019 12.1202 33.5618 12.9744 34.3694C13.7962 35.1465 14.3537 35.4819 15.3248 36.0617C16.1707 36.5668 17.5812 37.1899 17.5812 37.1899L15.8889 35.0275L15.3248 34.1814Z" fill="url(#paint5_linear_2669_536)"/>
<path d="M8.36754 31.6429C8.36754 31.6429 8.47658 32.7131 8.7436 33.3352C9.00468 33.9435 9.68377 34.7455 9.68377 34.7455L10.3419 35.4976L10.0598 33.8993C10.0598 33.8993 9.51374 32.8618 9.02566 32.301C8.78703 32.0269 8.36754 31.6429 8.36754 31.6429Z" fill="url(#paint6_linear_2669_536)"/>
<path d="M6.58121 31.6429C6.58121 31.6429 6.44693 32.3515 6.58121 32.7711C6.70225 33.1494 7.14531 33.6173 7.14531 33.6173C7.14531 33.6173 6.99254 32.8191 6.95728 32.301C6.92487 31.8248 6.95728 31.0788 6.95728 31.0788L6.58121 31.6429Z" fill="url(#paint7_linear_2669_536)"/>
<path d="M3.24003 14.7199L1.73575 13.2156L1.92379 14.0617L2.29986 14.5318L1.92379 14.7199L1.4537 16.3181L0.701567 18.3865C0.701567 18.3865 0.161008 19.9659 0.0434477 21.019C-0.0543097 21.8947 0.0434477 23.2754 0.0434477 23.2754C0.0434477 23.2754 0.212596 24.572 0.513533 25.3438C0.788196 26.0482 1.4537 27.0361 1.4537 27.0361L1.92379 27.6942L2.11182 27.9763L1.92379 28.5404C1.92379 28.5404 1.62665 29.5023 1.54772 30.1387C1.45733 30.8674 1.4403 31.2926 1.54772 32.019C1.6311 32.5828 1.92379 33.4292 1.92379 33.4292L2.39387 34.1814L2.58191 33.6173C2.58191 33.6173 2.83246 34.3217 3.05199 34.7455C3.37988 35.3785 3.61852 35.7117 4.08618 36.2498C4.63224 36.878 5.68447 37.66 5.68447 37.66L4.70087 35.7797L3.89815 33.8053C3.89815 33.8053 3.59001 32.9028 3.52208 32.301C3.46441 31.7903 3.42007 31.4886 3.52208 30.9848C3.64269 30.3891 4.1802 29.5745 4.1802 29.5745L4.3248 29.8566L4.27421 30.5147L4.93233 29.7626V31.831C4.93233 31.831 4.82494 33.0988 4.93233 33.8993C5.06513 34.8892 5.24398 35.4474 5.68447 36.3438C6.01235 37.011 6.25292 37.3626 6.71866 37.9421C7.28046 38.6411 7.61344 39.055 8.36754 39.5404C8.78175 39.807 9.49574 40.1045 9.49574 40.1045C9.49574 40.1045 9.07319 39.7231 8.83762 39.4463C8.49443 39.0431 8.36141 38.7701 8.08549 38.3181C7.63194 37.5752 7.0513 36.3438 7.0513 36.3438L6.01711 33.8993C6.01711 33.8993 5.50203 32.6677 5.40242 31.831C5.33298 31.2476 5.40242 30.3267 5.40242 30.3267L5.96652 29.9506L6.24857 29.6686L6.43661 29.7626L5.96652 30.3267L6.71866 30.1387L7.56481 29.7626L8.599 28.8224L9.06908 28.1643L7.84686 28.8224L7.94088 28.2583L6.71866 28.8224L6.90669 28.1643L5.96652 28.8224L6.43661 27.5062L5.68447 28.1643L5.77849 27.4122L4.93233 28.2583L5.3084 27.0361L4.55627 27.6942L5.12037 26.472L4.08618 27.4122L4.55627 25.8139L3.71011 26.8481L3.89815 25.7199L3.14601 26.284L3.42806 25.1557L2.86396 25.4378V24.6857H2.48789L2.58191 24.1216L2.39387 23.8395L2.86396 22.8053L2.11182 23.1814H1.54772L2.11182 22.2412L1.73575 22.0532L2.20584 21.5831L1.73575 21.3011L2.20584 21.019L1.73575 20.925L2.48789 20.4549L1.73575 20.1728L2.39387 19.5147L1.73575 19.4207L2.39387 18.9506L3.24003 18.8566L4.46225 18.6639L2.48789 18.5746H2.11182L2.39387 18.0105L2.48789 17.6344L3.24003 17.3523L2.29986 16.9763H4.1802L2.86396 16.1301L3.6161 15.9421L2.86396 15.66L3.14601 15.1899L2.76994 15.0959L2.58191 14.9079H2.76994L3.24003 15.0959V14.7199Z" fill="url(#paint8_linear_2669_536)"/>
<path fill-rule="evenodd" clip-rule="evenodd" d="M8.74486 23.2661C10.2607 23.625 11.8496 22.8015 12.3163 20.831L12.1282 20.1728L11.7521 19.7028L10.1538 18.5746L8.36753 17.2583L6.86325 16.6002L5.26496 16.1301L3.7607 15.472L4.98296 16.7882L6.48722 17.9164L7.33336 18.6639C6.8667 20.6344 7.22906 22.9071 8.74486 23.2661ZM9.30771 21.3951C9.67118 21.3951 9.96583 21.1004 9.96583 20.7369C9.96583 20.3735 9.67118 20.0788 9.30771 20.0788C8.94424 20.0788 8.64959 20.3735 8.64959 20.7369C8.64959 21.1004 8.94424 21.3951 9.30771 21.3951Z" fill="url(#paint9_linear_2669_536)"/>
<path fill-rule="evenodd" clip-rule="evenodd" d="M24.4596 23.2661C22.9438 23.625 21.3549 22.8015 20.8882 20.831L21.0763 20.1728L21.4524 19.7028L23.0506 18.5746L24.837 17.2583L26.3412 16.6002L27.9395 16.1301L29.4438 15.472L28.2215 16.7882L26.7173 17.9164L25.8711 18.6639C26.3378 20.6344 25.9754 22.9071 24.4596 23.2661ZM23.7863 21.3951C24.1498 21.3951 24.4445 21.1004 24.4445 20.7369C24.4445 20.3735 24.1498 20.0788 23.7863 20.0788C23.4229 20.0788 23.1282 20.3735 23.1282 20.7369C23.1282 21.1004 23.4229 21.3951 23.7863 21.3951Z" fill="url(#paint10_linear_2669_536)"/>
<path d="M11.9402 15.754L12.8804 16.6002L13.3504 16.8822L13.0684 16.3181L12.3163 15.754L11.4701 15.0959L11.9402 15.754Z" fill="url(#paint11_linear_2669_536)"/>
<path d="M20.1197 16.6002L20.5898 15.9421L21.6239 15.1899L20.8882 16.0361L20.1197 16.6002Z" fill="url(#paint12_linear_2669_536)"/>
<path d="M22.094 13.8737L23.2222 12.8395L23.8803 12.4634L22.6581 13.6857L22.094 13.8737Z" fill="url(#paint13_linear_2669_536)"/>
<path d="M9.89303 6.28216L11.691 8.60477L13.601 10.8558L14.5095 11.5378L13.6189 9.03045L12.9834 6.67567L15.0282 10.497L16.5721 13.5338C16.5721 13.5338 17.1501 15.23 17.1062 16.3476C17.0717 17.2281 16.6197 18.5509 16.6197 18.5509C16.6197 18.5509 16.3806 17.0149 16.0045 16.1043C15.5487 15.0005 14.3592 13.5266 14.3592 13.5266L11.6421 10.1345C11.6421 10.1345 10.09 9.75781 9.24438 9.21995C8.32485 8.63506 7.89187 8.1417 7.27356 7.2443C6.88945 6.68681 6.67324 6.35687 6.45567 5.71577C6.14596 4.80315 6.22799 3.25846 6.22799 3.25846C6.22799 3.25846 6.89742 4.98626 7.55735 5.95902C8.19233 6.89502 8.66437 7.34268 9.48763 8.11828C10.2047 8.79386 11.4477 9.70644 11.4477 9.70644L10.2614 7.23004L9.89303 6.28216Z" fill="url(#paint14_linear_2669_536)"/>
<path d="M23.3643 6.09413L21.5664 8.41673L19.6564 10.6678L18.7478 11.3498L19.6384 8.84241L20.2739 6.48763L18.2292 10.3089L16.6852 13.3457C16.6852 13.3457 16.1073 15.0419 16.1511 16.1595C16.1857 17.04 16.6376 18.3629 16.6376 18.3629C16.6376 18.3629 16.8767 16.8269 17.2528 15.9163C17.7086 14.8125 18.8981 13.3385 18.8981 13.3385L21.6153 9.94644C21.6153 9.94644 23.1674 9.56978 24.013 9.03192C24.9325 8.44702 25.3655 7.95367 25.9838 7.05627C26.3679 6.49877 26.5841 6.16884 26.8017 5.52774C27.1114 4.61511 27.0293 3.07043 27.0293 3.07043C27.0293 3.07043 26.3599 4.79822 25.7 5.77098C25.065 6.70699 24.593 7.15464 23.7697 7.93025C23.0526 8.60582 21.8096 9.5184 21.8096 9.5184L22.9959 7.042L23.3643 6.09413Z" fill="url(#paint15_linear_2669_536)"/>
<defs>
<linearGradient id="paint0_linear_2669_536" x1="16.5" y1="0.147217" x2="24.8205" y2="66.2412" gradientUnits="userSpaceOnUse">
<stop offset="0.440528"/>
<stop offset="1"/>
</linearGradient>
<linearGradient id="paint1_linear_2669_536" x1="16.5" y1="0.147217" x2="24.8205" y2="66.2412" gradientUnits="userSpaceOnUse">
<stop offset="0.440528"/>
<stop offset="1"/>
</linearGradient>
<linearGradient id="paint2_linear_2669_536" x1="16.5" y1="0.147217" x2="24.8205" y2="66.2412" gradientUnits="userSpaceOnUse">
<stop offset="0.440528"/>
<stop offset="1"/>
</linearGradient>
<linearGradient id="paint3_linear_2669_536" x1="16.5" y1="0.147217" x2="24.8205" y2="66.2412" gradientUnits="userSpaceOnUse">
<stop offset="0.440528"/>
<stop offset="1"/>
</linearGradient>
<linearGradient id="paint4_linear_2669_536" x1="16.5" y1="0.147217" x2="24.8205" y2="66.2412" gradientUnits="userSpaceOnUse">
<stop offset="0.440528"/>
<stop offset="1"/>
</linearGradient>
<linearGradient id="paint5_linear_2669_536" x1="16.5" y1="0.147217" x2="24.8205" y2="66.2412" gradientUnits="userSpaceOnUse">
<stop offset="0.440528"/>
<stop offset="1"/>
</linearGradient>
<linearGradient id="paint6_linear_2669_536" x1="16.5" y1="0.147217" x2="24.8205" y2="66.2412" gradientUnits="userSpaceOnUse">
<stop offset="0.440528"/>
<stop offset="1"/>
</linearGradient>
<linearGradient id="paint7_linear_2669_536" x1="16.5" y1="0.147217" x2="24.8205" y2="66.2412" gradientUnits="userSpaceOnUse">
<stop offset="0.440528"/>
<stop offset="1"/>
</linearGradient>
<linearGradient id="paint8_linear_2669_536" x1="16.5" y1="0.147217" x2="24.8205" y2="66.2412" gradientUnits="userSpaceOnUse">
<stop offset="0.440528"/>
<stop offset="1"/>
</linearGradient>
<linearGradient id="paint9_linear_2669_536" x1="16.5" y1="0.147217" x2="24.8205" y2="66.2412" gradientUnits="userSpaceOnUse">
<stop offset="0.440528"/>
<stop offset="1"/>
</linearGradient>
<linearGradient id="paint10_linear_2669_536" x1="16.5" y1="0.147217" x2="24.8205" y2="66.2412" gradientUnits="userSpaceOnUse">
<stop offset="0.440528"/>
<stop offset="1"/>
</linearGradient>
<linearGradient id="paint11_linear_2669_536" x1="16.5" y1="0.147217" x2="24.8205" y2="66.2412" gradientUnits="userSpaceOnUse">
<stop offset="0.440528"/>
<stop offset="1"/>
</linearGradient>
<linearGradient id="paint12_linear_2669_536" x1="16.5" y1="0.147217" x2="24.8205" y2="66.2412" gradientUnits="userSpaceOnUse">
<stop offset="0.440528"/>
<stop offset="1"/>
</linearGradient>
<linearGradient id="paint13_linear_2669_536" x1="16.5" y1="0.147217" x2="24.8205" y2="66.2412" gradientUnits="userSpaceOnUse">
<stop offset="0.440528"/>
<stop offset="1"/>
</linearGradient>
<linearGradient id="paint14_linear_2669_536" x1="16.5" y1="0.147217" x2="24.8205" y2="66.2412" gradientUnits="userSpaceOnUse">
<stop offset="0.440528"/>
<stop offset="1"/>
</linearGradient>
<linearGradient id="paint15_linear_2669_536" x1="16.5" y1="0.147217" x2="24.8205" y2="66.2412" gradientUnits="userSpaceOnUse">
<stop offset="0.440528"/>
<stop offset="1"/>
</linearGradient>
</defs>
</svg>
