<svg width="40" height="44" viewBox="0 0 40 44" fill="none" xmlns="http://www.w3.org/2000/svg">
<path d="M16.2987 8.38739C16.2987 8.38739 16.6189 9.54842 17.0779 10.1406C17.3196 10.4524 17.4859 10.6063 17.7922 10.8549C18.391 11.341 18.8865 11.3632 19.5455 11.764C20.3212 12.2359 20.7301 12.5475 21.4286 13.1276C22.2149 13.7808 23.3117 14.9458 23.3117 14.9458L23.8312 15.725C23.8312 15.725 24.1179 15.1522 24.3507 14.816C24.7692 14.2113 25.6494 13.4523 25.6494 13.4523L27.013 12.4134L28.1818 11.6991C28.1818 11.6991 28.9138 11.3784 29.3506 11.1147C29.6939 10.9074 29.8922 10.7933 30.1948 10.5302C30.5064 10.2594 30.6838 10.097 30.9091 9.75102C31.1072 9.44676 31.1956 9.25501 31.2987 8.90687C31.3863 8.61106 31.4286 8.12765 31.4286 8.12765C31.4286 8.12765 30.9408 8.56251 30.5844 8.777C30.1365 9.0466 29.8519 9.14805 29.3506 9.29648C29.0025 9.39956 28.8019 9.4467 28.4416 9.49128C27.9382 9.55355 27.641 9.58643 27.1429 9.49128C26.6618 9.3994 25.974 9.03674 25.974 9.03674L25.3247 8.90687L23.8961 8.84193L22.7273 8.90687C22.7273 8.90687 22.2877 8.96664 22.013 9.03674C21.5384 9.15782 20.8442 9.49128 20.8442 9.49128C20.8442 9.49128 20.4116 9.58975 20.1299 9.62115C19.6762 9.67171 19.411 9.69816 18.961 9.62115C18.5104 9.54403 17.8571 9.23154 17.8571 9.23154C17.8571 9.23154 17.2457 8.94525 16.8831 8.71206C16.5632 8.5063 16.1039 8.12765 16.1039 8.12765L16.2987 8.38739Z" fill="url(#paint0_linear_2669_534)"/>
<path d="M13.0519 20.8549L15.2597 18.7121C15.2597 18.7121 14.8904 18.2747 14.8052 17.9328C14.7316 17.6376 14.6808 17.4313 14.8052 17.1536C14.9301 16.875 15.1074 16.7508 15.3896 16.6341C15.7177 16.4985 16.2987 16.6341 16.2987 16.6341C16.2987 16.6341 16.8195 16.4612 16.9481 16.1796C17.0534 15.9489 16.9752 15.7824 16.9481 15.5302C16.8904 14.996 16.5762 14.7625 16.4935 14.2315C16.4233 13.7805 16.4456 13.5166 16.4935 13.0627C16.5652 12.3837 16.9481 11.3744 16.9481 11.3744L16.1039 10.5302C16.1039 10.5302 15.5583 9.74362 15.3896 9.16661C15.2182 8.58042 15.2597 7.60816 15.2597 7.60816L15.6494 6.43933C15.6494 6.43933 16.1954 7.24757 16.6883 7.60816C17.2016 7.98368 17.5714 8.07905 18.1818 8.25751C18.9185 8.47288 20.1299 8.51725 20.1299 8.51725C20.1299 8.51725 21.4259 8.15377 22.2727 7.99777C23.0275 7.85874 23.4537 7.7631 24.2208 7.73803C24.9828 7.71314 25.4309 7.67629 26.1688 7.8679C26.7844 8.02774 27.0344 8.41648 27.6623 8.51725C28.063 8.58155 28.2987 8.56758 28.7013 8.51725C29.3379 8.43768 30.2597 7.99777 30.2597 7.99777L31.8831 7.21855L32.5974 6.76401L32.4675 7.8679C32.4675 7.8679 32.231 9.06407 31.8831 9.75102C31.6353 10.2404 31.3939 10.4542 31.1039 10.9199C30.9475 11.1709 30.7143 11.5692 30.7143 11.5692C30.7143 11.5692 31.1518 12.0403 31.2987 12.4134C31.4635 12.8317 31.4505 13.1115 31.4299 13.5536L31.4286 13.5822C31.4032 14.129 31.2193 14.4107 31.1039 14.9458C31.0221 15.325 30.7668 15.559 30.9091 15.9199C30.9949 16.1373 31.2987 16.3744 31.2987 16.3744L32.2727 16.6341L33.2468 16.8289C33.2468 16.8289 33.2781 17.3055 33.2468 17.6082C33.2037 18.0242 32.987 18.6471 32.987 18.6471V18.9718C32.987 18.9718 33.3777 20.2633 33.5065 21.1147C33.7265 22.5689 33.7237 23.4262 33.5065 24.8809C33.3157 26.159 33.041 26.8489 32.5974 28.0627C32.3433 28.7581 31.9236 29.6785 31.6624 30.2349L31.3636 30.79L31.8831 30.5013C36.7354 27.6944 40 22.4481 40 16.4393C40 7.47367 32.7319 0.205566 23.7662 0.205566C14.8006 0.205566 7.53247 7.47367 7.53247 16.4393C7.53247 19.1319 8.188 21.6714 9.34818 23.9069L9.93507 24.8809L13.0519 20.8549Z" fill="url(#paint1_linear_2669_534)"/>
<path d="M20.7983 16.6991C20.0705 16.6991 19.4805 16.0595 19.4805 15.2705C19.4805 14.4815 20.0705 13.8419 20.7983 13.8419C21.3263 13.8419 21.7817 14.1785 21.992 14.6644C21.9371 14.6604 21.8807 14.6583 21.8233 14.6583C21.241 14.6583 20.769 14.8753 20.769 15.143C20.769 15.4106 21.241 15.6276 21.8233 15.6276C21.9111 15.6276 21.9964 15.6227 22.0779 15.6134C21.9362 16.2368 21.4171 16.6991 20.7983 16.6991Z" fill="url(#paint2_linear_2669_534)"/>
<path d="M27.1238 16.4393C27.8516 16.4393 28.4416 15.7997 28.4416 15.0108C28.4416 14.2218 27.8516 13.5822 27.1238 13.5822C26.5958 13.5822 26.1404 13.9187 25.9301 14.4047C25.985 14.4006 26.0414 14.3985 26.0988 14.3985C26.681 14.3985 27.153 14.6155 27.153 14.8832C27.153 15.1509 26.681 15.3679 26.0988 15.3679C26.011 15.3679 25.9257 15.363 25.8442 15.3537C25.9858 15.977 26.505 16.4393 27.1238 16.4393Z" fill="url(#paint3_linear_2669_534)"/>
<path d="M2.5974 39.6212C1.65444 40.4916 0 41.6341 0 41.6341C0 41.6341 1.01314 42.0122 1.68831 42.1536C2.44912 42.313 2.9501 42.3234 3.63141 42.3376C3.77517 42.3405 3.92696 42.3437 4.09091 42.3484C4.22829 42.3524 4.35747 42.3567 4.48071 42.3609C5.24457 42.3865 5.78014 42.4044 6.62338 42.2835C7.75353 42.1214 8.40327 41.8688 9.39967 41.4814C9.48844 41.4469 9.58047 41.4111 9.67533 41.3744L9.78777 41.3309C10.8198 40.9321 11.4442 40.6908 12.4026 40.0757C13.2225 39.5495 14.3506 38.5173 14.3506 38.5173C14.3506 38.5173 15.0881 37.8662 15.5844 37.4783C16.4323 36.8156 16.9404 36.4836 17.8571 35.9199C18.4465 35.5574 18.9296 35.3229 19.4163 35.0867C19.8792 34.8621 20.3453 34.6358 20.9091 34.2965C22.036 33.6183 23.7013 32.4134 23.7013 32.4134C23.7013 32.4134 25.3458 31.0955 25.974 29.9458C26.567 28.8607 26.8182 26.8939 26.8182 26.8939L27.013 24.2315L27.4026 26.0497C27.4026 26.0497 27.5129 27.56 27.4026 28.5173C27.3166 29.2633 27.2599 29.6912 27.013 30.4004C26.7706 31.0965 26.5866 31.4813 26.1688 32.0887C25.6571 32.8327 25.2277 33.1817 24.5634 33.7217L24.4156 33.8419C23.7731 34.3658 23.266 34.6472 22.674 34.9758C22.4118 35.1213 22.1329 35.2761 21.8182 35.4653C21.3006 35.7765 20.8723 36.01 20.4566 36.2367C19.9261 36.526 19.4159 36.8042 18.7662 37.2186C17.6155 37.9525 15.9091 39.2315 15.9091 39.2315C15.9091 39.2315 14.7517 39.9192 14.4805 40.6601C14.3313 41.0677 14.2315 41.3466 14.3506 41.764C14.4648 42.164 14.6779 42.3451 15 42.6082C15.3073 42.8591 15.5793 42.9303 15.9041 43.0153C16.0266 43.0473 16.1565 43.0813 16.2987 43.1276C17.0885 43.385 18.3766 43.5822 18.3766 43.5822L20.5195 43.9718L19.9351 43.777C19.9351 43.777 19.1875 43.4362 18.7662 43.1276C18.3754 42.8413 18.1716 42.6521 17.8571 42.2835C17.5853 41.8863 17.5002 41.5747 17.5325 41.0945C17.5718 40.5095 17.8633 40.2246 18.2222 39.7611C18.6966 39.1485 19.6585 38.6794 20.2933 38.4199C20.654 38.2724 20.9091 38.1926 20.9091 38.1926C22.5788 37.4495 25 35.9199 25 35.9199C25 35.9199 27.738 34.0529 29.026 32.4134C29.73 31.5171 30.5844 29.9458 30.5844 29.9458C30.5844 29.9458 31.5206 28.1374 31.8831 26.8939C32.2005 25.8051 32.4026 24.0367 32.4026 24.0367L32.4675 21.2445L32.4026 19.3614C32.4026 19.3614 31.3527 20.0705 30.5844 20.2705C29.6519 20.5132 28.1169 20.2705 28.1169 20.2705C28.1169 20.2705 29.6051 20.0564 30.3896 19.5562C30.8442 19.2664 31.0715 19.0511 31.4286 18.6471C31.7175 18.3202 32.0779 17.738 32.0779 17.738C32.0779 17.738 31.3673 17.682 30.974 17.4783C30.5438 17.2555 30.3501 17.0258 30.0649 16.6341C29.7101 16.1469 29.4805 15.2056 29.4805 15.2056L29.7403 14.9458C29.7403 14.9458 30.1552 14.39 30.2597 13.9718C30.3643 13.5536 30.3567 13.288 30.2597 12.8679C30.1267 12.2916 29.4805 11.5692 29.4805 11.5692L27.6623 12.8679L27.543 12.974C28.4269 13.1585 29.0909 13.9422 29.0909 14.8809C29.0909 15.9568 28.2187 16.8289 27.1429 16.8289C26.1393 16.8289 25.313 16.0701 25.2064 15.0949L23.8312 16.8289L22.72 15.44C22.6341 16.4365 21.798 17.2186 20.7792 17.2186C19.7033 17.2186 18.8312 16.3464 18.8312 15.2705C18.8312 14.2548 19.6084 13.4207 20.6006 13.3305L20.3247 13.0627L17.9221 11.5692C17.9221 11.5692 17.6206 12.2245 17.5325 12.6731C17.4151 13.2703 17.438 13.6303 17.5325 14.2315C17.5706 14.4739 17.6493 14.6571 17.7264 14.8365C17.8158 15.0442 17.9029 15.2468 17.9221 15.5302C17.9568 16.0419 17.9167 16.3524 17.7273 16.8289L17.6879 16.9287C17.5145 17.3695 17.3772 17.7025 16.9481 17.9328C16.5878 18.1262 15.9091 18.0627 15.9091 18.0627C15.9091 18.0627 16.5178 18.6469 16.9481 18.9718C17.7814 19.6012 19.2857 20.2705 19.2857 20.2705L16.1039 19.6861C16.1039 19.6861 15.41 20.0063 15 20.2705C13.8084 21.0384 12.5325 22.9328 12.5325 22.9328L10.1948 26.5692L7.5974 32.4134C7.5974 32.4134 6.288 35.1911 5.12987 36.764C4.24583 37.9647 3.69297 38.6098 2.5974 39.6212Z" fill="url(#paint4_linear_2669_534)"/>
<defs>
<linearGradient id="paint0_linear_2669_534" x1="20" y1="0.205566" x2="20" y2="43.9718" gradientUnits="userSpaceOnUse">
<stop offset="0.716769"/>
<stop offset="1"/>
</linearGradient>
<linearGradient id="paint1_linear_2669_534" x1="20" y1="0.205566" x2="20" y2="43.9718" gradientUnits="userSpaceOnUse">
<stop offset="0.716769"/>
<stop offset="1"/>
</linearGradient>
<linearGradient id="paint2_linear_2669_534" x1="20" y1="0.205566" x2="20" y2="43.9718" gradientUnits="userSpaceOnUse">
<stop offset="0.716769"/>
<stop offset="1"/>
</linearGradient>
<linearGradient id="paint3_linear_2669_534" x1="20" y1="0.205566" x2="20" y2="43.9718" gradientUnits="userSpaceOnUse">
<stop offset="0.716769"/>
<stop offset="1"/>
</linearGradient>
<linearGradient id="paint4_linear_2669_534" x1="20" y1="0.205566" x2="20" y2="43.9718" gradientUnits="userSpaceOnUse">
<stop offset="0.716769"/>
<stop offset="1"/>
</linearGradient>
</defs>
</svg>
