<svg width="16" height="16" viewBox="0 0 16 16" fill="none" xmlns="http://www.w3.org/2000/svg">
<path d="M8.71195 1.14958L10.179 5.66481C10.2383 5.84717 10.4082 5.97064 10.6 5.97064H15.3476C15.7763 5.97064 15.9546 6.51928 15.6077 6.7713L11.7668 9.56187C11.6117 9.67458 11.5468 9.87435 11.6061 10.0567L13.0731 14.5719C13.2056 14.9797 12.7389 15.3188 12.3921 15.0668L8.55117 12.2762C8.39604 12.1635 8.18599 12.1635 8.03086 12.2762L4.18998 15.0668C3.84311 15.3188 3.3764 14.9797 3.50889 14.5719L4.97598 10.0567C5.03523 9.87435 4.97032 9.67458 4.81519 9.56187L0.97431 6.7713C0.62744 6.51928 0.805706 5.97064 1.23446 5.97064H5.98206C6.1738 5.97064 6.34374 5.84717 6.40299 5.66481L7.87008 1.14958C8.00257 0.741807 8.57946 0.741807 8.71195 1.14958Z" fill="#F5CB06"/>
</svg>
