<svg width="35" height="46" viewBox="0 0 35 46" fill="none" xmlns="http://www.w3.org/2000/svg">
<path fill-rule="evenodd" clip-rule="evenodd" d="M32.0104 1.17843L32.8512 2.39296L33.692 4.26147L33.9723 6.59711C33.9723 6.59711 33.9953 7.95586 33.692 8.7459C33.4453 9.38857 32.7578 10.2407 32.7578 10.2407L31.3564 11.5487L29.7682 12.5763L27.8062 13.8843L26.3114 15.6594L25.4706 17.8082L25.1903 19.7701L24.8166 17.8082L23.9758 16.1265L22.5744 14.4449L20.4256 12.9501L17.6229 11.7355L14.9135 10.8947L12.0173 9.77358L9.68168 8.09192L8.18687 6.59711L7.53289 5.1023L7.81317 6.59711L9.21455 8.3722L11.6436 10.6144L14.0727 12.1092L16.782 13.6975L19.7716 15.4725L22.2941 17.8082C22.2941 17.8082 23.4671 18.5361 23.6955 19.303C23.8413 19.7925 23.6955 20.6109 23.6955 20.6109L23.135 21.5452C23.135 21.5452 23.0771 20.9599 22.9481 20.6109C22.7305 20.0222 22.0139 19.303 22.0139 19.303C22.0139 19.303 21.1164 20.1092 20.4256 20.4241C19.709 20.7508 19.251 20.8698 18.4637 20.8912C17.7621 20.9103 17.3406 20.8707 16.6886 20.6109C16.1245 20.3862 15.8217 20.1875 15.3806 19.7701C14.9247 19.3387 14.4464 18.4622 14.4464 18.4622C14.4464 18.4622 13.9878 17.5824 13.8858 16.9673C13.7723 16.2825 13.9793 15.1923 13.9793 15.1923L14.4464 13.6975V13.5106L12.9516 12.4829L12.4844 12.2026L12.2042 12.1092L11.9239 12.2026L11.1765 12.6698L10.0554 13.6975L9.30798 14.7251C9.30798 14.7251 8.90927 15.443 8.74743 15.9397C8.54115 16.5727 8.50319 16.9565 8.46715 17.6213C8.43155 18.2781 8.36114 18.6762 8.56057 19.303C8.68426 19.6917 9.0277 20.2372 9.0277 20.2372L9.21455 20.4241L9.30798 19.6767C9.30798 19.6767 9.49019 19.0307 9.68168 18.649C9.83603 18.3414 9.90542 18.145 10.1488 17.9016C10.3922 17.6582 10.8962 17.4345 10.8962 17.4345L11.5502 17.0608C11.5502 17.0608 11.1305 17.6535 10.9896 18.0885C10.7983 18.6796 10.9127 19.0556 10.8962 19.6767C10.8827 20.1873 10.7747 20.4885 10.8962 20.9846C11.0244 21.5079 11.5502 22.1992 11.5502 22.1992L12.2042 23.1334L12.9516 23.8808L13.8858 24.5348L13.1384 23.694L12.4844 22.7597L12.0173 21.732L11.9239 21.3583L12.7647 22.386C12.7647 22.386 13.6419 23.333 14.2595 23.8808C14.7839 24.3459 15.0661 24.6313 15.6609 25.0019C16.3401 25.4251 17.5294 25.8428 17.5294 25.8428L19.0242 26.4033L20.1453 26.777C20.1453 26.777 20.0661 26.4206 19.9585 26.2165C19.7297 25.7822 19.4016 25.6896 19.0242 25.3756C18.7045 25.1096 18.1834 24.7217 18.1834 24.7217C18.1834 24.7217 18.6981 24.6833 19.0242 24.7217C19.724 24.8041 20.7059 25.3756 20.7059 25.3756C20.7059 25.3756 21.5925 25.9089 22.0139 26.4033C22.5643 27.0492 22.7339 27.5441 22.9481 28.3653C23.0875 28.8995 23.0986 29.2157 23.135 29.7666C23.171 30.3127 23.135 31.168 23.135 31.168V31.822L22.5744 30.5141C22.5744 30.5141 22.1252 29.7752 21.7336 29.3929C21.2629 28.9335 20.3322 28.4587 20.3322 28.4587L19.0242 27.8047L17.9966 27.3376L17.7163 27.2442C17.7163 27.2442 18.5643 27.8743 19.0242 28.3653C19.4334 28.8019 19.636 29.0758 19.9585 29.5798C20.4777 30.3911 20.6845 30.9072 20.9862 31.822C21.2439 32.6037 21.3648 33.059 21.4533 33.8774C21.5357 34.6391 21.5107 35.0753 21.4533 35.8393C21.3755 36.8741 21.3119 37.4699 20.9862 38.4552C20.5968 39.633 19.4914 41.258 19.4914 41.258L18.4637 42.2857L17.7163 43.0331C17.7163 43.0331 18.4054 41.6926 18.744 40.7909C18.9995 40.1103 19.3045 39.0158 19.3045 39.0158L19.4914 37.8947C19.4914 37.8947 18.898 39.4111 18.2768 40.2303C17.5427 41.1985 15.9412 42.2857 15.9412 42.2857C15.9412 42.2857 14.5839 43.1843 13.6056 43.5002C12.5547 43.8395 10.8028 43.8739 10.8028 43.8739H8.18687L7.81317 43.5002C7.81317 43.5002 8.84625 43.3703 9.49483 43.2199C10.6639 42.9489 12.391 42.1922 12.391 42.1922C12.391 42.1922 13.9422 41.383 14.8201 40.6974C15.5727 40.1097 16.5952 39.0158 16.5952 39.0158C16.5952 39.0158 17.5498 37.8231 17.9966 36.9604C18.4954 35.9971 18.7654 35.4166 18.9308 34.3445C19.0643 33.4791 19.0315 32.9721 18.9308 32.1023C18.8362 31.2846 18.8203 30.7888 18.4637 30.0469C18.1697 29.4353 17.436 28.6455 17.436 28.6455L16.5017 27.8047L15.2872 26.777L14.0727 25.9362L15.2872 27.2442C15.2872 27.2442 16.1018 27.9202 16.5017 28.4587C16.8039 28.8656 17.1557 29.5798 17.1557 29.5798C17.1557 29.5798 17.6416 30.2825 17.8097 30.7943C17.9933 31.3532 17.9966 32.2891 17.9966 32.2891C17.9966 32.2891 18.0013 33.2073 17.9031 33.7839C17.7946 34.4213 17.436 35.3722 17.436 35.3722L16.8754 36.4933C16.8754 36.4933 16.3558 37.3841 15.9412 37.8947C15.4858 38.4554 14.6332 39.2026 14.6332 39.2026L13.4187 40.2303C13.4187 40.2303 12.4939 41.0332 11.8305 41.4448C11.2066 41.832 10.1488 42.2857 10.1488 42.2857L8.37372 43.0331L7.43947 43.3134C7.43947 43.3134 7.3011 42.8629 7.25262 42.5659C7.15856 41.9898 7.25262 41.0711 7.25262 41.0711V40.4172H7.06577L6.78549 41.4448C6.78549 41.4448 6.56212 41.9443 6.50521 42.2857C6.44523 42.6456 6.45635 42.8584 6.50521 43.2199C6.5455 43.5181 6.59009 43.6843 6.69206 43.9673C6.84702 44.3974 7.25262 44.995 7.25262 44.995L7.62632 45.4621L7.81317 45.649C7.81317 45.649 7.27826 45.3998 6.97234 45.1819C6.34062 44.7317 5.66438 43.6871 5.66438 43.6871C5.66438 43.6871 5.17619 42.9256 5.0104 42.3791C4.86061 41.8853 4.78398 41.5856 4.82355 41.0711C4.84935 40.7358 4.85604 40.5292 5.0104 40.2303C5.14118 39.9771 5.47753 39.6698 5.47753 39.6698L5.66438 39.4829C5.66438 39.4829 5.24934 39.6213 5.0104 39.7632C4.6769 39.9612 4.53056 40.1364 4.263 40.4172C4.06642 40.6235 3.79587 40.9777 3.79587 40.9777L3.60902 41.258C3.60902 41.258 2.87977 40.1079 2.58134 39.2961C2.30959 38.5568 2.15673 38.1206 2.11421 37.3341C2.07659 36.6381 2.08446 36.2216 2.30106 35.559C2.45317 35.0938 2.86162 34.4379 2.86162 34.4379C2.86162 34.4379 3.10783 34.0574 3.32874 33.8774C3.49368 33.743 3.79587 33.5971 3.79587 33.5971C3.79587 33.5971 3.51474 33.4997 3.32874 33.5037C2.90336 33.5127 2.73126 33.8042 2.39449 34.0642C2.02693 34.348 1.82432 34.5277 1.55366 34.9051C1.38221 35.1441 1.17996 35.559 1.17996 35.559L0.993106 35.8393L0.245702 32.0089L0.0588507 30.0469C0.0588507 30.0469 -0.0735633 29.2878 0.0588507 28.8324C0.191656 28.3756 0.712829 27.8047 0.712829 27.8047L1.55366 26.9639C1.55366 26.9639 2.18691 26.4474 2.67477 26.3099C2.99276 26.2203 3.5156 26.2165 3.5156 26.2165L3.32874 25.9362L2.67477 25.8428C2.67477 25.8428 2.03044 25.724 1.64708 25.8428C1.36611 25.9298 0.993106 26.2165 0.993106 26.2165L0.712829 26.3099C0.712829 26.3099 0.714613 25.2626 0.899681 24.6282C1.13293 23.8288 1.92736 22.7597 1.92736 22.7597C1.92736 22.7597 2.64276 21.7167 3.32874 21.3583C3.83076 21.0961 4.73013 20.9846 4.73013 20.9846L5.94466 20.7044L5.57096 20.4241H4.16957C4.16957 20.4241 3.64071 20.3216 3.32874 20.4241C3.03056 20.522 2.67477 20.8912 2.67477 20.8912L3.79587 18.8359L5.47753 16.6871L7.06577 15.0054C7.06577 15.0054 7.04673 13.449 7.25262 12.4829C7.47158 11.4555 8.18687 9.96043 8.18687 9.96043L8.74743 8.93275L7.62632 7.53137C7.62632 7.53137 7.09709 6.65168 6.87891 6.03656C6.6421 5.3689 6.57082 4.96684 6.50521 4.26147C6.42743 3.42514 6.59864 2.11269 6.59864 2.11269L6.87891 0.711304L7.25262 2.57981L8.18687 4.54175L9.30798 6.03656L10.9896 7.25109L12.9516 8.3722L15.3806 9.1196L17.9966 9.96043L20.1453 10.8947L21.7336 11.9224L22.7613 12.7632L23.6955 13.7909L24.1626 14.5383L24.7232 15.4725V14.258L24.4429 13.1369L23.6955 11.6421L22.2941 9.86701L20.519 8.3722L19.4914 7.81165L17.9966 7.15767L17.3426 6.97082L18.09 7.43794L19.2111 8.09192L20.0519 8.83933L20.7993 9.68016L21.3599 10.521L21.4533 10.7078L20.519 9.96043L19.1177 9.21303L17.8097 8.65247L14.8201 7.62479L13.5121 7.15767L11.9239 6.59711L13.3253 6.03656L15.6609 5.47601L18.4637 5.28916L21.4533 5.47601L23.9758 6.03656L26.0311 6.97082L26.9654 7.43794L28.0865 8.27877L28.4602 8.55905L29.4879 8.09192L30.609 7.53137L31.6367 6.97082L32.4775 6.03656L32.7578 5.1023L32.8512 3.42064L32.2907 1.92584L32.0104 1.17843ZM16.128 14.7251L15.3806 14.0712C15.3806 14.0712 15.0275 14.7319 14.9135 15.1923C14.7817 15.7247 14.7606 16.0484 14.8201 16.5936C14.8777 17.1217 15.1938 17.9016 15.1938 17.9016C15.1938 17.9016 15.5868 18.5819 15.9412 18.9293C16.3748 19.3544 16.6679 19.5945 17.2491 19.7701C17.7045 19.9077 18.4637 19.8635 18.4637 19.8635C18.4637 19.8635 19.1009 19.9562 19.4914 19.8635C19.9362 19.7579 20.519 19.303 20.519 19.303L21.3599 18.649L20.519 17.8082L20.3322 18.0885C20.3322 18.0885 19.9105 18.4846 19.5848 18.649C19.2134 18.8364 18.9731 18.9293 18.5571 18.9293C18.1411 18.9293 17.9073 18.823 17.5294 18.649C17.1709 18.484 16.6886 18.0885 16.6886 18.0885C16.6886 18.0885 16.2839 17.6709 16.128 17.3411C15.8922 16.8418 15.9301 16.4917 15.9412 15.9397C15.9508 15.4599 16.128 14.7251 16.128 14.7251ZM26.9654 12.6698L25.4989 15.6945L25.7509 13.5106L26.3114 11.6421C26.3114 11.6421 26.8464 10.5375 26.9654 9.77358C27.0665 9.12468 26.9654 8.09192 26.9654 8.09192C26.9654 8.09192 27.2834 8.40967 27.4325 8.65247C27.6923 9.07532 27.8062 9.86701 27.8062 9.86701C27.8062 9.86701 27.8666 10.4979 27.8062 10.8947C27.6909 11.653 26.9654 12.6698 26.9654 12.6698ZM2.39449 30.2338L1.64708 28.8324L2.30106 31.3549L3.60902 30.0469L5.47753 32.0089L3.98272 28.9258L2.39449 30.2338ZM6.22493 35.1853L5.0104 34.0642L6.31836 36.3064L7.43947 34.7182L9.68168 36.1196L7.43947 33.5037L6.22493 35.1853ZM4.73013 25.9362L4.263 24.7217C4.263 24.7217 4.1434 25.9833 4.263 26.777C4.37651 27.5304 4.82355 28.6455 4.82355 28.6455V26.9639C4.82355 26.9639 5.99442 26.9301 6.50521 26.3099L7.81317 24.7217C8.32396 24.1014 8.00002 22.0123 8.00002 22.0123C8.00002 22.0123 7.70881 23.7041 7.06577 24.5348C6.7022 25.0045 6.46588 25.2777 5.94466 25.5625C5.50917 25.8004 4.73013 25.9362 4.73013 25.9362ZM7.81317 31.168L6.78549 29.7666L6.97234 30.5141L7.62632 31.6352C7.62632 31.6352 8.2346 32.3632 8.74743 32.6628C9.24553 32.9538 10.1488 33.13 10.1488 33.13C10.1488 33.13 9.02833 32.6117 9.21455 32.1023C9.30313 31.86 9.68168 31.6352 9.68168 31.6352L10.8962 30.7943C10.8962 30.7943 11.7082 29.8539 11.8305 29.1127C11.9447 28.4202 11.7779 28.0014 11.5502 27.3376C11.2578 26.4852 10.3357 25.3756 10.3357 25.3756L10.5225 26.2165C10.5225 26.2165 10.739 26.8908 10.8028 27.3376C10.8905 27.9516 10.9955 28.3363 10.8028 28.9258C10.585 29.592 9.68168 30.3272 9.68168 30.3272C9.68168 30.3272 9.02131 31.4059 8.37372 31.3549C8.14369 31.3368 7.81317 31.168 7.81317 31.168ZM11.1765 34.7182C10.8146 34.4272 10.3357 33.8774 10.3357 33.8774L10.8028 34.9051C10.8028 34.9051 11.2135 35.5153 11.5502 35.8393C11.9659 36.2393 12.233 36.4563 12.7647 36.6801C13.2462 36.8828 14.0727 36.9604 14.0727 36.9604L13.1384 36.1196L13.6056 35.6525C13.6056 35.6525 14.5978 34.7831 15.0069 34.0642C15.4236 33.3322 15.5991 32.8489 15.6609 32.0089C15.7177 31.237 15.6553 30.7705 15.3806 30.0469C15.1006 29.309 14.2595 28.3653 14.2595 28.3653L12.7647 26.9639C12.7647 26.9639 13.3237 27.5563 13.6056 27.9916C14.077 28.7195 14.2894 29.194 14.4464 30.0469C14.5851 30.8005 14.6037 31.259 14.4464 32.0089C14.2821 32.792 14.0494 33.2116 13.6056 33.8774C13.1617 34.5432 12.2042 35.3722 12.2042 35.3722C12.2042 35.3722 11.5472 35.0164 11.1765 34.7182Z" fill="url(#paint0_linear_2669_537)"/>
<path d="M28.3668 16.7805C28.3668 16.7805 27.1586 17.9131 26.6851 18.8359C26.3937 19.4039 26.18 20.2834 26.0853 20.7201L27.1523 20.9846C27.1523 20.9846 28.3251 21.1145 29.0208 20.8912C29.7242 20.6654 30.609 19.8635 30.609 19.8635C30.609 19.8635 31.4439 18.8659 31.6367 18.0885C31.8035 17.4156 31.7124 17.0024 31.6367 16.3134C31.5758 15.7586 31.3564 14.912 31.3564 14.912L31.2129 14.585L31.0695 14.258L30.5122 14.7781C30.5122 14.7781 30.5821 14.9659 30.6631 15.2211C30.7499 15.4949 30.8496 15.8463 30.8893 16.1265C30.9712 16.7045 31.0095 17.0501 30.8893 17.6213C30.7748 18.1651 30.6652 18.487 30.3287 18.9293C29.9664 19.4055 29.646 19.5891 29.1142 19.8635C28.7347 20.0594 28.5087 20.1732 28.0865 20.2372C27.5049 20.3254 26.5917 20.0504 26.5917 20.0504L26.9654 19.303C26.9654 19.303 27.7844 19.4509 28.2734 19.303C28.7287 19.1653 28.9647 18.9854 29.301 18.649C29.6374 18.3126 29.955 17.6213 29.955 17.6213C29.955 17.6213 30.137 16.9441 30.1419 16.5002C30.1444 16.273 30.1017 15.9882 30.0566 15.7528C30.0073 15.4961 29.955 15.2981 29.955 15.2981L28.3668 16.7805Z" fill="url(#paint1_linear_2669_537)"/>
<path fill-rule="evenodd" clip-rule="evenodd" d="M22.6678 23.5071C22.6678 23.5071 23.3036 24.3816 23.6021 25.0019C23.8224 25.4599 24.0692 26.2165 24.0692 26.2165L24.5363 27.9916C24.5363 27.9916 25.0455 27.3992 25.2837 26.9639C25.6161 26.3566 25.8443 25.2822 25.8443 25.2822C25.8443 25.2822 26.0709 23.8063 26.0853 22.8532C26.0941 22.2691 26.0311 21.3583 26.0311 21.3583L25.564 20.9846C25.564 20.9846 25.234 20.7875 25.0035 20.7978C24.7096 20.811 24.3495 21.1715 24.3495 21.1715L23.6021 21.9189C23.6021 21.9189 23.0565 22.4932 22.8547 22.9466C22.7608 23.1574 22.6678 23.5071 22.6678 23.5071ZM24.6298 23.9743C24.498 23.3055 24.1626 22.2926 24.1626 22.2926L24.2561 22.0123C24.2561 22.0123 24.4784 21.6268 24.7232 21.5452C24.8963 21.4875 25.0157 21.4923 25.1903 21.5452C25.4139 21.613 25.6574 21.9189 25.6574 21.9189C25.6574 21.9189 25.6767 22.6026 25.6574 23.04C25.6283 23.7001 25.6002 24.0737 25.4706 24.7217C25.3054 25.5476 24.8166 26.777 24.8166 26.777C24.8166 26.777 24.8527 25.9217 24.8166 25.3756C24.7802 24.8247 24.7365 24.516 24.6298 23.9743Z" fill="url(#paint2_linear_2669_537)"/>
<path d="M33.3183 11.7355C32.6237 12.7946 31.1696 14.1646 31.1696 14.1646L31.0695 14.258L31.2129 14.585L31.8235 13.9777L32.3841 15.2211C32.3841 15.2211 32.7977 16.2663 32.9446 16.9673C33.0802 17.6141 33.1315 18.649 33.1315 18.649C33.1315 18.649 33.0485 20.1079 32.7578 20.9846C32.542 21.6353 32.0104 22.5729 32.0104 22.5729L30.6631 24.2545L29.301 25.9362L28.6471 27.2442L28.3668 27.8981H28.0865C28.0865 27.8981 27.8443 26.989 27.8997 26.4033C27.9313 26.0684 27.9591 25.8738 28.0865 25.5625C28.236 25.1973 28.6471 24.7217 28.6471 24.7217L27.526 25.7493C27.526 25.7493 26.8694 26.4338 26.5917 26.9639C26.2245 27.6648 26.1563 28.1377 26.0853 28.9258C26.0461 29.3619 26.0853 30.0469 26.0853 30.0469H26.3114L26.872 28.8324C26.872 28.8324 27.0898 30.6606 26.9654 31.822C26.8246 33.1369 26.0853 35.0919 26.0853 35.0919C26.0853 35.0919 25.7815 36.258 25.4706 36.9604C24.9586 38.1171 23.6955 39.6698 23.6955 39.6698L22.5744 41.0711C22.5744 41.0711 24.0185 40.0164 24.8166 39.2026C25.7823 38.2179 26.2761 37.5945 26.9654 36.3999C27.6934 35.1381 27.9614 34.3422 28.3668 32.9431C28.7591 31.589 29.0208 29.3929 29.0208 29.3929L29.301 28.085L30.8893 25.9362L32.9446 22.8532C32.9446 22.8532 33.8106 21.0289 33.9723 19.7701C34.0793 18.9378 34.0804 18.4535 33.9723 17.6213C33.8509 16.6867 33.3183 15.2981 33.3183 15.2981L32.4775 13.5106L32.3841 13.3238C32.3841 13.3238 32.9853 12.6651 33.3183 12.2026C33.7864 11.5526 34.0371 11.1666 34.346 10.4276C34.524 10.0018 34.7197 9.30645 34.7197 9.30645L35 7.90507V6.41026C35 6.41026 34.8872 5.37299 34.7197 4.7286C34.5135 3.93506 33.9723 2.76667 33.9723 2.76667C33.9723 2.76667 33.6992 2.14612 33.4118 1.83241C33.2193 1.62231 32.8512 1.36528 32.8512 1.36528C32.8512 1.36528 33.1498 1.69605 33.3183 1.92584C33.9077 2.72941 34.346 4.26147 34.346 4.26147C34.346 4.26147 34.7465 6.07479 34.7197 7.25109C34.6971 8.24668 34.6656 8.83041 34.346 9.77358C34.0691 10.5909 33.7939 11.0104 33.3215 11.7307L33.3183 11.7355Z" fill="url(#paint3_linear_2669_537)"/>
<defs>
<linearGradient id="paint0_linear_2669_537" x1="17.5" y1="0.711304" x2="17.5" y2="45.649" gradientUnits="userSpaceOnUse">
<stop offset="0.165"/>
<stop offset="1"/>
</linearGradient>
<linearGradient id="paint1_linear_2669_537" x1="17.5" y1="0.711304" x2="17.5" y2="45.649" gradientUnits="userSpaceOnUse">
<stop offset="0.165"/>
<stop offset="1"/>
</linearGradient>
<linearGradient id="paint2_linear_2669_537" x1="17.5" y1="0.711304" x2="17.5" y2="45.649" gradientUnits="userSpaceOnUse">
<stop offset="0.165"/>
<stop offset="1"/>
</linearGradient>
<linearGradient id="paint3_linear_2669_537" x1="17.5" y1="0.711304" x2="17.5" y2="45.649" gradientUnits="userSpaceOnUse">
<stop offset="0.165"/>
<stop offset="1"/>
</linearGradient>
</defs>
</svg>
