<svg width="45" height="44" viewBox="0 0 45 44" fill="none" xmlns="http://www.w3.org/2000/svg">
<path d="M22.5 42.8273C23.1338 42.8273 23.7614 42.8024 24.382 42.7536C24.2454 42.4325 24.1582 42.0223 24.1443 41.5717C23.5838 41.6137 23.0171 41.6351 22.4453 41.6351C21.8919 41.6351 21.3436 41.6151 20.8008 41.5757C20.7866 42.0228 20.7002 42.4299 20.5651 42.7494C21.2028 42.801 21.8482 42.8273 22.5 42.8273Z" fill="black"/>
<path d="M22.4726 21.5104C22.5276 21.5104 22.5825 21.5163 22.6369 21.5276L24.2245 18.5537C24.2245 18.5537 24.7479 17.7035 25.2099 17.2423C25.4384 17.014 25.5316 16.8347 25.8394 16.6938C26.1382 16.5571 26.688 16.5508 26.688 16.5508L29.7263 16.4554C29.7263 16.4554 29.7468 16.4559 29.7836 16.4563C29.9955 16.4584 30.7481 16.4569 31.2318 16.3362C31.4074 16.2923 31.6141 16.2162 31.7968 16.1416C32.0591 16.0346 32.2719 15.9308 32.2719 15.9308C32.2719 15.9308 32.9175 15.5519 33.2573 15.2393C33.6976 14.8342 33.9051 14.5586 34.1606 14.0471C34.4109 13.5459 34.5438 12.688 34.5438 12.688L32.9562 13.0695C32.9562 13.0695 32.2107 13.2383 31.7245 13.3079C29.4448 13.6342 25.8394 12.7833 25.8394 12.7833L23.5949 12.2588C23.5949 12.2588 22.9156 12.117 22.4726 12.1157C22.0191 12.1144 21.323 12.2588 21.323 12.2588L19.3248 12.7833C19.3248 12.7833 16.1494 13.3956 14.0967 13.3079C13.2041 13.2698 11.8248 13.0695 11.8248 13.0695L10.3467 12.7833C10.3467 12.7833 10.4977 13.5785 10.7299 14.0471C10.9814 14.5546 11.1789 14.8303 11.6058 15.2393C11.9272 15.5472 12.1284 15.7145 12.5365 15.9308C12.7824 16.0611 12.9778 16.138 13.1934 16.2037C13.3379 16.2477 13.4914 16.2867 13.6752 16.3334L13.6861 16.3362C13.8191 16.37 13.941 16.3965 14.0566 16.4179C14.3468 16.4716 14.5978 16.4928 14.8868 16.5143C15.0306 16.525 15.1838 16.5358 15.3558 16.5508C15.8674 16.5951 16.1573 16.5864 16.6697 16.6223C17.4628 16.6778 17.9775 16.5141 18.6953 16.8131C19.035 16.9546 19.2046 17.075 19.4891 17.2899C20.0253 17.6951 20.5839 18.5537 20.5839 18.5537L22.3094 21.5276C22.3631 21.5163 22.4176 21.5104 22.4726 21.5104Z" fill="url(#paint0_linear_2669_532)"/>
<path d="M22.5547 25.254C23.235 25.254 23.8139 23.8931 23.8139 23.1557C23.8139 22.4778 23.2554 21.6561 22.6369 21.5276C22.5825 21.5163 22.5276 21.5104 22.4726 21.5104C22.4176 21.5104 22.3631 21.5163 22.3094 21.5276C21.6983 21.656 21.1861 22.4778 21.1861 23.1557C21.1861 23.8931 21.8745 25.254 22.5547 25.254Z" fill="black"/>
<path d="M14.3431 27.8292C14.3431 27.8292 13.9838 29.1967 13.7682 30.0944C13.4357 31.4794 13.3378 32.2803 13.3029 33.6949C13.2719 34.9539 13.3178 35.6672 13.5219 36.9139C13.7104 38.0658 13.8865 38.7061 14.2609 39.8229C14.2929 39.9182 14.3295 40.0223 14.3682 40.1293C14.6394 40.2349 14.9134 40.3355 15.1901 40.4307C15.3613 39.8387 15.6779 39.4414 16.0401 39.4414C16.3559 39.4414 16.6369 39.7433 16.8173 40.2127C16.8967 39.8661 17.0121 39.5632 17.1531 39.326C15.5269 38.1839 14.5073 36.5433 14.5073 34.7202C14.5073 31.27 18.1593 28.473 22.6642 28.473C27.1692 28.473 30.8212 31.27 30.8212 34.7202C30.8212 36.6618 29.6647 38.3965 27.8506 39.5423C27.9521 39.7624 28.035 40.0212 28.0938 40.3073C28.2716 39.7842 28.5686 39.4414 28.9051 39.4414C29.2638 39.4414 29.5778 39.8311 29.7501 40.4135C30.0316 40.3159 30.3103 40.2128 30.5861 40.1043C30.6214 40.0061 30.6549 39.9107 30.6843 39.8229C31.0588 38.7061 31.2348 38.0658 31.4234 36.9139C31.6274 35.6672 31.6734 34.9539 31.6423 33.6949C31.6075 32.2803 31.5096 31.4794 31.177 30.0944C30.9614 29.1967 30.6022 27.8292 30.6022 27.8292C30.6022 27.8292 30.5569 27.3305 30.6933 26.8893C29.7483 27.3228 28.6806 27.5669 27.5502 27.5669C27.5502 27.5669 24.5005 27.088 22.5274 27.09C20.5755 27.092 17.5593 27.5669 17.5593 27.5669C16.3499 27.5669 15.2122 27.2874 14.2198 26.7956C14.3951 27.2565 14.3431 27.8292 14.3431 27.8292Z" fill="url(#paint1_linear_2669_532)"/>
<path d="M12.1533 39.8229C13.046 40.5201 14.781 41.2059 14.781 41.2059C14.781 41.2059 14.5513 40.6353 14.3682 40.1293C14.3295 40.0223 14.2929 39.9182 14.2609 39.8229C13.8865 38.7061 13.7104 38.0658 13.5219 36.9139C13.3178 35.6672 13.2719 34.9539 13.3029 33.6949C13.3378 32.2803 13.4357 31.4794 13.7682 30.0944C13.9838 29.1967 14.3431 27.8292 14.3431 27.8292C14.3431 27.8292 14.3951 27.2565 14.2198 26.7956C14.1616 26.6426 14.0784 26.5019 13.9599 26.3985C13.6304 26.1113 13.3235 26.0121 12.9002 25.9485C12.8365 25.9389 12.7702 25.9301 12.7007 25.9216C12.1108 25.8495 11.7036 25.8656 11.1953 26.1362C10.8375 26.3267 10.5092 26.7921 10.3921 26.9708L10.0456 27.8292C10.0456 27.8292 9.65178 29.3027 9.49817 30.2613C9.28495 31.5919 9.25183 33.6949 9.25183 33.6949L9.25717 33.7776C9.34327 35.1106 9.39637 35.9326 10.0182 37.1762C10.2202 37.5801 10.4096 37.9215 10.6165 38.2308C11.0028 38.8084 11.45 39.2737 12.1533 39.8229Z" fill="url(#paint2_linear_2669_532)"/>
<path d="M16.8173 40.2127C16.6369 39.7433 16.3559 39.4414 16.0401 39.4414C15.6779 39.4414 15.3613 39.8387 15.1901 40.4307C15.1041 40.728 15.0547 41.0745 15.0547 41.4444C15.0547 41.507 15.0562 41.5689 15.0589 41.63C15.105 42.6492 15.5267 43.4473 16.0401 43.4473C16.3771 43.4473 16.6746 43.1035 16.8523 42.579C16.7535 42.2087 16.6971 41.7809 16.6971 41.3251C16.6971 40.9264 16.7403 40.5489 16.8173 40.2127Z" fill="url(#paint3_linear_2669_532)"/>
<path d="M19.1058 41.3251C19.1058 40.9667 19.0709 40.6255 19.008 40.316C19.0075 40.3137 19.007 40.3114 19.0065 40.3091C18.8212 39.4056 18.3962 38.7738 17.9015 38.7738C17.6187 38.7738 17.3586 38.9803 17.1531 39.326C17.0121 39.5632 16.8967 39.8661 16.8173 40.2127C16.7403 40.5489 16.6971 40.9264 16.6971 41.3251C16.6971 41.7809 16.7535 42.2087 16.8523 42.579C17.059 43.3536 17.4514 43.8765 17.9015 43.8765C18.3698 43.8765 18.7757 43.3103 18.9749 42.4833C19.0586 42.1358 19.1058 41.7421 19.1058 41.3251Z" fill="url(#paint4_linear_2669_532)"/>
<path d="M30.1642 41.2059C30.1642 41.2059 31.8993 40.5201 32.792 39.8229C33.5196 39.2546 33.9731 38.7763 34.3688 38.1703C34.5602 37.877 34.7381 37.5539 34.927 37.1762C35.5489 35.9326 35.602 35.1106 35.6881 33.7776L35.6934 33.6949C35.6934 33.6949 35.6603 31.5919 35.4471 30.2613C35.2935 29.3027 34.8996 27.8292 34.8996 27.8292L34.5531 26.9708C34.436 26.7921 34.1077 26.3267 33.75 26.1362C33.2417 25.8656 32.8345 25.8495 32.2445 25.9216L32.2417 25.922C31.7123 25.9868 31.3637 26.0687 30.9854 26.3985C30.843 26.5227 30.7515 26.7007 30.6933 26.8893C30.5569 27.3305 30.6022 27.8292 30.6022 27.8292C30.6022 27.8292 30.9614 29.1967 31.177 30.0944C31.5096 31.4794 31.6075 32.2803 31.6423 33.6949C31.6734 34.9539 31.6274 35.6672 31.4234 36.9139C31.2348 38.0658 31.0588 38.7061 30.6843 39.8229C30.6549 39.9107 30.6214 40.0061 30.5861 40.1043C30.4016 40.6163 30.1642 41.2059 30.1642 41.2059Z" fill="url(#paint5_linear_2669_532)"/>
<path d="M22.5 0.050415C10.0736 0.050415 0 9.62636 0 21.4389C0 30.7725 6.28922 38.7097 15.0589 41.63C15.0562 41.5689 15.0547 41.507 15.0547 41.4444C15.0547 41.0745 15.1041 40.728 15.1901 40.4307C14.9134 40.3355 14.6394 40.2349 14.3682 40.1293C14.5513 40.6353 14.781 41.2059 14.781 41.2059C14.781 41.2059 13.046 40.5201 12.1533 39.8229C11.45 39.2737 11.0028 38.8084 10.6165 38.2308C4.87639 34.5849 1.09489 28.3611 1.09489 21.2958C1.09489 10.0627 10.6538 0.956504 22.4453 0.956504C34.2367 0.956504 43.7956 10.0627 43.7956 21.2958C43.7956 28.3221 40.0557 34.5163 34.3688 38.1703C33.9731 38.7763 33.5196 39.2546 32.792 39.8229C31.8993 40.5201 30.1642 41.2059 30.1642 41.2059C30.1642 41.2059 30.4016 40.6163 30.5861 40.1043C30.3103 40.2128 30.0316 40.3159 29.7501 40.4135C29.8393 40.7146 29.8905 41.0673 29.8905 41.4444C29.8905 41.5133 29.8888 41.5813 29.8855 41.6485C38.6842 38.7432 45 30.7922 45 21.4389C45 9.62636 34.9264 0.050415 22.5 0.050415Z" fill="black"/>
<path fill-rule="evenodd" clip-rule="evenodd" d="M11.8796 21.2958C11.8796 24.3642 14.6247 26.8516 18.0109 26.8516C18.0109 26.8516 20.7699 26.4094 22.5547 26.4224C24.2121 26.4344 26.7701 26.8516 26.7701 26.8516C30.1563 26.8516 32.9015 24.3642 32.9015 21.2958C32.9015 19.2199 31.645 17.41 29.7836 16.4563C29.7468 16.4559 29.7263 16.4554 29.7263 16.4554L26.688 16.5508C26.688 16.5508 26.1382 16.5571 25.8394 16.6938C25.5316 16.8347 25.4384 17.014 25.2099 17.2423C24.7479 17.7035 24.2245 18.5537 24.2245 18.5537L22.6369 21.5276C23.2554 21.6561 23.8139 22.4778 23.8139 23.1557C23.8139 23.8931 23.235 25.254 22.5547 25.254C21.8745 25.254 21.1861 23.8931 21.1861 23.1557C21.1861 22.4778 21.6983 21.656 22.3094 21.5276L20.5839 18.5537C20.5839 18.5537 20.0253 17.6951 19.4891 17.2899C19.2046 17.075 19.035 16.9546 18.6953 16.8131C17.9775 16.5141 17.4628 16.6778 16.6697 16.6223C16.1573 16.5864 15.8674 16.5951 15.3558 16.5508C15.1838 16.5358 15.0306 16.525 14.8868 16.5143C14.3242 16.8168 13.8195 17.1985 13.3916 17.6424C12.45 18.6191 11.8796 19.8971 11.8796 21.2958ZM17.9836 24.181C19.7523 24.181 21.1861 22.9106 21.1861 21.3435C21.1861 19.7764 19.7523 18.506 17.9836 18.506C16.2149 18.506 14.781 19.7764 14.781 21.3435C14.781 22.9106 16.2149 24.181 17.9836 24.181ZM27.2354 24.181C29.0041 24.181 30.438 22.9106 30.438 21.3435C30.438 19.7764 29.0041 18.506 27.2354 18.506C25.4667 18.506 24.0328 19.7764 24.0328 21.3435C24.0328 22.9106 25.4667 24.181 27.2354 24.181Z" fill="black" fill-opacity="0.3"/>
<path d="M24.1851 40.8591C24.1573 41.0442 24.1423 41.2407 24.1423 41.4444C24.1423 41.4871 24.143 41.5296 24.1443 41.5717C24.1582 42.0223 24.2454 42.4325 24.382 42.7536C24.5627 43.1785 24.8298 43.4473 25.1277 43.4473C25.4647 43.4473 25.7622 43.1035 25.9399 42.579C25.8411 42.2087 25.7847 41.7809 25.7847 41.3251C25.7847 40.9264 25.8279 40.5489 25.9049 40.2127C25.7245 39.7433 25.4435 39.4414 25.1277 39.4414C24.6837 39.4414 24.3082 40.0384 24.1851 40.8591Z" fill="url(#paint6_linear_2669_532)"/>
<path d="M27.8506 39.5423C27.6319 39.0681 27.3267 38.7738 26.989 38.7738C26.5121 38.7738 26.1 39.361 25.9049 40.2127C25.8279 40.5489 25.7847 40.9264 25.7847 41.3251C25.7847 41.7809 25.8411 42.2087 25.9399 42.579C26.1466 43.3536 26.539 43.8765 26.989 43.8765C27.4574 43.8765 27.8633 43.3103 28.0625 42.4833C28.0636 42.4788 28.0647 42.4742 28.0657 42.4697C28.1474 42.1255 28.1934 41.7367 28.1934 41.3251C28.1934 40.9633 28.1579 40.6191 28.0938 40.3073C28.035 40.0212 27.9521 39.7624 27.8506 39.5423Z" fill="url(#paint7_linear_2669_532)"/>
<path d="M29.7501 40.4135C29.5778 39.8311 29.2638 39.4414 28.9051 39.4414C28.5686 39.4414 28.2716 39.7842 28.0938 40.3073C28.1579 40.6191 28.1934 40.9633 28.1934 41.3251C28.1934 41.7367 28.1474 42.1255 28.0657 42.4697C28.0647 42.4742 28.0636 42.4788 28.0625 42.4833C28.2353 43.0613 28.548 43.4473 28.9051 43.4473C29.4154 43.4473 29.8352 42.6588 29.8855 41.6485C29.8888 41.5813 29.8905 41.5133 29.8905 41.4444C29.8905 41.0673 29.8393 40.7146 29.7501 40.4135Z" fill="url(#paint8_linear_2669_532)"/>
<path d="M18.0109 26.8516C14.6247 26.8516 11.8796 24.3642 11.8796 21.2958C11.8796 19.8971 12.45 18.6191 13.3916 17.6424C13.8195 17.1985 14.3242 16.8168 14.8868 16.5143C14.5978 16.4928 14.3468 16.4716 14.0566 16.4179C13.8777 16.3999 13.7004 16.3739 13.5493 16.3361C13.3736 16.2923 13.1669 16.2162 12.9842 16.1416C11.3143 17.305 10.2372 19.1382 10.2372 21.2004C10.2372 23.0731 11.1226 24.7386 12.5365 25.9035C12.5897 25.9087 12.6444 25.9147 12.7007 25.9216C12.7702 25.9301 12.8365 25.9389 12.9002 25.9485C13.3235 26.0121 13.6304 26.1113 13.9599 26.3985C14.0784 26.5019 14.1616 26.6426 14.2198 26.7956C15.2122 27.2874 16.3499 27.5669 17.5593 27.5669C17.5593 27.5669 20.5755 27.092 22.5274 27.09C24.5005 27.088 27.5502 27.5669 27.5502 27.5669C28.6806 27.5669 29.7483 27.3228 30.6933 26.8893C30.7515 26.7007 30.843 26.5227 30.9854 26.3985C31.3637 26.0687 31.7123 25.9868 32.2417 25.922C33.6556 24.757 34.5438 23.0732 34.5438 21.2004C34.5438 19.1383 33.4667 17.3051 31.7968 16.1416C31.6141 16.2162 31.4074 16.2923 31.2318 16.3362C30.7481 16.4569 29.9955 16.4584 29.7836 16.4563C31.645 17.41 32.9015 19.2199 32.9015 21.2958C32.9015 24.3642 30.1563 26.8516 26.7701 26.8516C26.7701 26.8516 24.2121 26.4344 22.5547 26.4224C20.7699 26.4094 18.0109 26.8516 18.0109 26.8516Z" fill="url(#paint9_linear_2669_532)"/>
<path fill-rule="evenodd" clip-rule="evenodd" d="M20.7499 40.7945C20.6171 40.0073 20.2498 39.4414 19.8175 39.4414C19.4828 39.4414 19.1866 39.7826 19.0085 40.3012L19.0063 40.3078L19.0065 40.3091L19.008 40.316C19.0709 40.6255 19.1058 40.9667 19.1058 41.3251C19.1058 41.7421 19.0586 42.1358 18.9749 42.4833C19.1477 43.0613 19.4604 43.4473 19.8175 43.4473C20.1165 43.4473 20.3844 43.1767 20.5651 42.7494C20.7002 42.4299 20.7866 42.0228 20.8008 41.5757C20.8022 41.5323 20.8029 41.4885 20.8029 41.4444C20.8029 41.2169 20.7843 40.9983 20.7499 40.7945Z" fill="url(#paint10_linear_2669_532)"/>
<path d="M22.6642 28.473C18.1593 28.473 14.5073 31.27 14.5073 34.7202C14.5073 36.5433 15.5269 38.1839 17.1531 39.326C17.3586 38.9803 17.6187 38.7738 17.9015 38.7738C18.3962 38.7738 18.8212 39.4056 19.0065 40.3091L19.0063 40.3078L19.0085 40.3012C19.1866 39.7826 19.4828 39.4414 19.8175 39.4414C20.2498 39.4414 20.6171 40.0073 20.7499 40.7945C20.7843 40.9983 20.8029 41.2169 20.8029 41.4444C20.8029 41.4885 20.8022 41.5323 20.8008 41.5757C21.3436 41.6151 21.8919 41.6351 22.4453 41.6351C23.0171 41.6351 23.5838 41.6137 24.1443 41.5717C24.143 41.5296 24.1423 41.4871 24.1423 41.4444C24.1423 41.2407 24.1573 41.0442 24.1851 40.8591C24.3082 40.0384 24.6837 39.4414 25.1277 39.4414C25.4435 39.4414 25.7245 39.7433 25.9049 40.2127C26.1 39.361 26.5121 38.7738 26.989 38.7738C27.3267 38.7738 27.6319 39.0681 27.8506 39.5423C29.6647 38.3965 30.8212 36.6618 30.8212 34.7202C30.8212 31.27 27.1692 28.473 22.6642 28.473Z" fill="url(#paint11_linear_2669_532)"/>
<path d="M28.8504 21.5581C28.8504 22.2956 28.2989 22.8934 27.6186 22.8934C27.0403 22.8934 26.555 22.4613 26.4226 21.8786C26.4988 21.8873 26.5785 21.8919 26.6606 21.8919C27.2048 21.8919 27.646 21.6891 27.646 21.4389C27.646 21.1887 27.2048 20.9858 26.6606 20.9858C26.6069 20.9858 26.5542 20.9878 26.5029 20.9916C26.6995 20.5374 27.1252 20.2228 27.6186 20.2228C28.2989 20.2228 28.8504 20.8206 28.8504 21.5581Z" fill="black"/>
<path d="M19.5985 21.5581C19.5985 22.2956 19.0471 22.8934 18.3668 22.8934C17.7884 22.8934 17.3032 22.4613 17.1707 21.8786C17.247 21.8873 17.3267 21.8919 17.4088 21.8919C17.953 21.8919 18.3942 21.6891 18.3942 21.4389C18.3942 21.1887 17.953 20.9858 17.4088 20.9858C17.3551 20.9858 17.3024 20.9878 17.2511 20.9916C17.4477 20.5374 17.8733 20.2228 18.3668 20.2228C19.0471 20.2228 19.5985 20.8206 19.5985 21.5581Z" fill="black"/>
<defs>
<linearGradient id="paint0_linear_2669_532" x1="22.5" y1="0.050415" x2="22.5" y2="43.8765" gradientUnits="userSpaceOnUse">
<stop offset="0.127557" stop-opacity="0.01"/>
<stop offset="0.39729"/>
</linearGradient>
<linearGradient id="paint1_linear_2669_532" x1="22.5" y1="0.050415" x2="22.5" y2="43.8765" gradientUnits="userSpaceOnUse">
<stop offset="0.621414" stop-opacity="0.62"/>
<stop offset="0.780856"/>
<stop offset="0.990854" stop-opacity="0.04"/>
</linearGradient>
<linearGradient id="paint2_linear_2669_532" x1="-4.51643" y1="20.342" x2="11.2742" y2="44.4502" gradientUnits="userSpaceOnUse">
<stop offset="0.556284" stop-opacity="0.67"/>
<stop offset="0.918421" stop-opacity="0.17"/>
</linearGradient>
<linearGradient id="paint3_linear_2669_532" x1="22.5" y1="0.050415" x2="22.5" y2="43.8765" gradientUnits="userSpaceOnUse">
<stop offset="0.905"/>
<stop offset="1" stop-opacity="0.22"/>
</linearGradient>
<linearGradient id="paint4_linear_2669_532" x1="22.5" y1="0.050415" x2="22.5" y2="43.8765" gradientUnits="userSpaceOnUse">
<stop offset="0.905"/>
<stop offset="1" stop-opacity="0.22"/>
</linearGradient>
<linearGradient id="paint5_linear_2669_532" x1="38.0474" y1="31.3105" x2="28.9492" y2="49.1244" gradientUnits="userSpaceOnUse">
<stop offset="0.0816287" stop-opacity="0.59"/>
<stop offset="0.613912" stop-opacity="0.08"/>
</linearGradient>
<linearGradient id="paint6_linear_2669_532" x1="22.5" y1="0.050415" x2="22.5" y2="43.8765" gradientUnits="userSpaceOnUse">
<stop offset="0.905"/>
<stop offset="1" stop-opacity="0.22"/>
</linearGradient>
<linearGradient id="paint7_linear_2669_532" x1="22.5" y1="0.050415" x2="22.5" y2="43.8765" gradientUnits="userSpaceOnUse">
<stop offset="0.905"/>
<stop offset="1" stop-opacity="0.22"/>
</linearGradient>
<linearGradient id="paint8_linear_2669_532" x1="22.5" y1="0.050415" x2="22.5" y2="43.8765" gradientUnits="userSpaceOnUse">
<stop offset="0.905"/>
<stop offset="1" stop-opacity="0.22"/>
</linearGradient>
<linearGradient id="paint9_linear_2669_532" x1="21.8157" y1="11.615" x2="22.6676" y2="38.1387" gradientUnits="userSpaceOnUse">
<stop offset="0.312231"/>
<stop offset="0.783828" stop-opacity="0.13"/>
</linearGradient>
<linearGradient id="paint10_linear_2669_532" x1="22.5" y1="0.050415" x2="22.5" y2="43.8765" gradientUnits="userSpaceOnUse">
<stop offset="0.905"/>
<stop offset="1" stop-opacity="0.22"/>
</linearGradient>
<linearGradient id="paint11_linear_2669_532" x1="22.5" y1="0.050415" x2="22.5" y2="43.8765" gradientUnits="userSpaceOnUse">
<stop offset="0.631602" stop-opacity="0.79"/>
<stop offset="0.975046" stop-opacity="0.15"/>
</linearGradient>
</defs>
</svg>
