<svg width="33" height="41" viewBox="0 0 33 41" fill="none" xmlns="http://www.w3.org/2000/svg">
<path d="M16.5342 38.9782C17.3251 38.9782 18.1085 38.9471 18.8829 38.8861C18.7125 38.4854 18.6037 37.9734 18.5863 37.411C17.8867 37.4635 17.1796 37.4902 16.4658 37.4902C15.7753 37.4902 15.0909 37.4652 14.4135 37.4161C14.3958 37.974 14.288 38.4821 14.1193 38.8808C14.9153 38.9453 15.7207 38.9782 16.5342 38.9782Z" fill="black"/>
<path d="M16.5 12.3739C16.5686 12.3739 16.6371 12.3813 16.705 12.3954L18.6863 8.68384C18.6863 8.68384 19.3396 7.62276 19.9162 7.04711C20.2014 6.76226 20.3177 6.53847 20.7019 6.36266C21.0748 6.19199 21.7609 6.18411 21.7609 6.18411L25.5528 6.06508C25.5528 6.06508 25.5784 6.06569 25.6243 6.06616C25.8888 6.06887 26.8281 6.06692 27.4317 5.91628C27.6509 5.86158 27.9089 5.76652 28.1369 5.67347C28.4643 5.53987 28.7298 5.41039 28.7298 5.41039C28.7298 5.41039 29.5356 4.93749 29.9596 4.54738C30.5091 4.04183 30.7681 3.69788 31.087 3.05945C31.3993 2.43396 31.5652 1.36321 31.5652 1.36321L29.5839 1.83935C29.5839 1.83935 28.6534 2.05009 28.0466 2.13693C25.2015 2.54407 20.7019 1.48224 20.7019 1.48224L17.9006 0.827552C17.9006 0.827552 17.0528 0.650642 16.5 0.648999C15.934 0.647316 15.0652 0.827552 15.0652 0.827552L12.5714 1.48224C12.5714 1.48224 8.60846 2.24636 6.04658 2.13693C4.93262 2.08935 3.21118 1.83935 3.21118 1.83935L1.36646 1.48224C1.36646 1.48224 1.55486 2.47456 1.84472 3.05945C2.15862 3.69284 2.40509 4.03696 2.93789 4.54738C3.33897 4.93162 3.59004 5.14047 4.09938 5.41039C4.40623 5.573 4.65011 5.66891 4.91925 5.75092C5.09952 5.80584 5.29111 5.85452 5.52054 5.91282L5.53416 5.91628C5.70013 5.95845 5.85223 5.9916 5.99655 6.0183C6.35874 6.08531 6.67201 6.11175 7.03268 6.13863C7.2121 6.152 7.40325 6.16548 7.61801 6.18411C8.25647 6.23949 8.61821 6.22861 9.25776 6.27339C10.2476 6.34267 10.8899 6.13832 11.7857 6.51145C12.2097 6.68806 12.4214 6.83838 12.7764 7.10663C13.4456 7.61224 14.1429 8.68384 14.1429 8.68384L16.2963 12.3954C16.3634 12.3813 16.4314 12.3739 16.5 12.3739Z" fill="url(#paint0_linear_2669_538)"/>
<path d="M3.62112 35.2286C4.73523 36.0987 6.90062 36.9546 6.90062 36.9546C6.90062 36.9546 6.6139 36.2424 6.38542 35.6109C6.33711 35.4773 6.2914 35.3474 6.25155 35.2286C5.7842 33.8347 5.56451 33.0356 5.32919 31.598C5.07451 30.0421 5.01718 29.1519 5.0559 27.5806C5.09941 25.8151 5.22158 24.8155 5.63665 23.087C5.90568 21.9666 6.35406 20.26 6.35406 20.26C6.35406 20.26 6.419 19.5452 6.20024 18.97C6.12761 18.779 6.0237 18.6034 5.87578 18.4744C5.46463 18.116 5.08163 17.9922 4.55327 17.9128C4.47379 17.9008 4.39101 17.8899 4.30435 17.8793C3.56806 17.7892 3.05989 17.8094 2.42546 18.1471C1.97899 18.3848 1.5693 18.9656 1.42313 19.1886L0.990679 20.26C0.990679 20.26 0.499162 22.099 0.30745 23.2953C0.0413383 24.956 0 27.5806 0 27.5806L0.00667248 27.6838C0.114131 29.3474 0.1804 30.3733 0.956521 31.9253C1.20856 32.4294 1.44496 32.8555 1.70311 33.2415C2.18532 33.9624 2.74343 34.5431 3.62112 35.2286Z" fill="url(#paint1_linear_2669_538)"/>
<path d="M9.44194 35.715C9.21687 35.1291 8.8661 34.7524 8.47205 34.7524C8.01995 34.7524 7.62483 35.2483 7.41114 35.987C7.31541 36.318 7.25609 36.6977 7.24438 37.1034C7.24296 37.1526 7.24224 37.2022 7.24224 37.2521C7.24224 37.3303 7.244 37.4075 7.24745 37.4838C7.26008 37.7633 7.29534 38.0294 7.34947 38.2745C7.54172 39.1454 7.97204 39.7519 8.47205 39.7519C8.89262 39.7519 9.26389 39.3228 9.48565 38.6682C9.36232 38.206 9.29193 37.6721 9.29193 37.1034C9.29193 36.6056 9.34583 36.1346 9.44194 35.715Z" fill="url(#paint2_linear_2669_538)"/>
<path d="M12.2981 37.1034C12.2981 36.656 12.2546 36.2302 12.176 35.8439L12.1742 35.8353C11.9429 34.7077 11.4124 33.9192 10.795 33.9192C10.4421 33.9192 10.1175 34.1769 9.86106 34.6083C9.68502 34.9044 9.54104 35.2824 9.44194 35.715C9.34583 36.1346 9.29193 36.6056 9.29193 37.1034C9.29193 37.6721 9.36232 38.206 9.48565 38.6682C9.74367 39.6349 10.2334 40.2875 10.795 40.2875C11.3795 40.2875 11.8861 39.5808 12.1347 38.5488C12.2392 38.115 12.2981 37.6238 12.2981 37.1034Z" fill="url(#paint3_linear_2669_538)"/>
<path d="M26.0994 36.9546C26.0994 36.9546 28.2648 36.0987 29.3789 35.2286C30.287 34.5193 30.853 33.9223 31.3468 33.166C31.5857 32.8 31.8078 32.3967 32.0435 31.9253C32.8196 30.3733 32.8859 29.3474 32.9933 27.6838L33 27.5806C33 27.5806 32.9587 24.956 32.6926 23.2953C32.5008 22.099 32.0093 20.26 32.0093 20.26L31.5769 19.1886C31.4307 18.9656 31.021 18.3848 30.5745 18.1471C29.9401 17.8094 29.4319 17.7892 28.6957 17.8793L28.6921 17.8797C28.0314 17.9607 27.5964 18.0628 27.1242 18.4744C26.9465 18.6293 26.8324 18.8516 26.7596 19.0869C26.5894 19.6375 26.6459 20.26 26.6459 20.26C26.6459 20.26 27.0943 21.9666 27.3634 23.087C27.7784 24.8155 27.9006 25.8151 27.9441 27.5806C27.9828 29.1519 27.9255 30.0421 27.6708 31.598C27.4355 33.0356 27.2158 33.8347 26.7485 35.2286C26.7117 35.3381 26.67 35.4571 26.6258 35.5797C26.3956 36.2188 26.0994 36.9546 26.0994 36.9546Z" fill="url(#paint4_linear_2669_538)"/>
<path fill-rule="evenodd" clip-rule="evenodd" d="M3.2795 12.1061C3.2795 15.9355 6.7055 19.0398 10.9317 19.0398C10.9317 19.0398 11.7831 18.9034 12.913 18.7682C14.0555 18.6315 15.4826 18.496 16.6025 18.5042C17.574 18.5113 18.7935 18.6298 19.8137 18.7537C19.9337 18.7682 20.0511 18.7829 20.1649 18.7974C21.143 18.9224 21.8634 19.0398 21.8634 19.0398C26.0895 19.0398 29.5155 15.9355 29.5155 12.1061C29.5155 9.51531 27.9474 7.25641 25.6243 6.06616C25.5784 6.06569 25.5528 6.06508 25.5528 6.06508L21.7609 6.18411C21.7609 6.18411 21.0748 6.19199 20.7019 6.36266C20.3177 6.53847 20.2014 6.76226 19.9162 7.04711C19.3396 7.62276 18.6863 8.68384 18.6863 8.68384L16.705 12.3954C17.477 12.5557 18.1739 13.5813 18.1739 14.4273C18.1739 15.3476 17.4515 17.046 16.6025 17.046C15.7535 17.046 14.8944 15.3476 14.8944 14.4273C14.8944 13.5813 15.5336 12.5557 16.2963 12.3954L14.1429 8.68384C14.1429 8.68384 13.4456 7.61224 12.7764 7.10663C12.4214 6.83838 12.2097 6.68806 11.7857 6.51145C10.8899 6.13832 10.2476 6.34267 9.25776 6.27339C8.61821 6.22861 8.25647 6.23949 7.61801 6.18411C7.40325 6.16548 7.2121 6.152 7.03268 6.13863C6.50606 6.42176 6.02011 6.76049 5.58471 7.14591C5.43958 7.27438 5.30006 7.40804 5.16653 7.54655C3.99142 8.76547 3.2795 10.3604 3.2795 12.1061ZM10.8975 15.7069C13.1049 15.7069 14.8944 14.1214 14.8944 12.1656C14.8944 10.2098 13.1049 8.62432 10.8975 8.62432C8.69009 8.62432 6.90062 10.2098 6.90062 12.1656C6.90062 14.1214 8.69009 15.7069 10.8975 15.7069ZM22.4441 15.7069C24.6515 15.7069 26.441 14.1214 26.441 12.1656C26.441 10.2098 24.6515 8.62432 22.4441 8.62432C20.2367 8.62432 18.4472 10.2098 18.4472 12.1656C18.4472 14.1214 20.2367 15.7069 22.4441 15.7069Z" fill="black" fill-opacity="0.27"/>
<path d="M18.6372 36.5217C18.6025 36.7528 18.5839 36.998 18.5839 37.2521C18.5839 37.3055 18.5847 37.3585 18.5863 37.411C18.6037 37.9734 18.7125 38.4854 18.8829 38.8861C19.1084 39.4163 19.4418 39.7519 19.8137 39.7519C20.2342 39.7519 20.6055 39.3227 20.8273 38.6681C20.704 38.206 20.6335 37.6721 20.6335 37.1034C20.6335 36.6056 20.6874 36.1346 20.7836 35.715C20.5585 35.1291 20.2077 34.7524 19.8137 34.7524C19.2595 34.7524 18.7909 35.4975 18.6372 36.5217Z" fill="url(#paint5_linear_2669_538)"/>
<path d="M23.2119 34.8783C22.939 34.2865 22.558 33.9192 22.1366 33.9192C21.5414 33.9192 21.027 34.652 20.7836 35.715C20.6874 36.1346 20.6335 36.6056 20.6335 37.1034C20.6335 37.6721 20.704 38.206 20.8273 38.6681C21.0853 39.6349 21.575 40.2875 22.1366 40.2875C22.7211 40.2875 23.2277 39.5808 23.4763 38.5488C23.4777 38.5431 23.479 38.5375 23.4804 38.5318C23.5824 38.1022 23.6397 37.617 23.6397 37.1034C23.6397 36.6518 23.5954 36.2222 23.5154 35.8331C23.442 35.476 23.3386 35.153 23.2119 34.8783Z" fill="url(#paint6_linear_2669_538)"/>
<path d="M25.5826 35.9656C25.3675 35.2387 24.9757 34.7524 24.5279 34.7524C24.108 34.7524 23.7373 35.1802 23.5154 35.8331C23.5954 36.2222 23.6397 36.6518 23.6397 37.1034C23.6397 37.617 23.5824 38.1022 23.4804 38.5318C23.479 38.5375 23.4777 38.5431 23.4763 38.5488C23.692 39.2701 24.0823 39.7519 24.5279 39.7519C24.9485 39.7519 25.3198 39.3227 25.5416 38.6681C25.6556 38.3315 25.7301 37.9351 25.7515 37.5069C25.7556 37.4231 25.7578 37.3381 25.7578 37.2521C25.7578 36.7816 25.6938 36.3414 25.5826 35.9656Z" fill="url(#paint7_linear_2669_538)"/>
<path fill-rule="evenodd" clip-rule="evenodd" d="M14.35 36.4411C14.1843 35.4586 13.7259 34.7524 13.1863 34.7524C12.7686 34.7524 12.3989 35.1783 12.1767 35.8254L12.1739 35.8336L12.1742 35.8353L12.176 35.8439C12.2546 36.2302 12.2981 36.656 12.2981 37.1034C12.2981 37.6238 12.2392 38.115 12.1347 38.5488C12.3504 39.2701 12.7407 39.7519 13.1863 39.7519C13.5595 39.7519 13.8938 39.4141 14.1193 38.8808C14.288 38.4821 14.3958 37.974 14.4135 37.4161C14.4153 37.3619 14.4162 37.3072 14.4162 37.2521C14.4162 36.9682 14.3929 36.6954 14.35 36.4411Z" fill="url(#paint8_linear_2669_538)"/>
<path d="M26.5948 37.2138C26.3158 37.3156 26.0347 37.4133 25.7515 37.5069C25.7301 37.9351 25.6556 38.3315 25.5416 38.6681L31.1362 38.5318V36.9546L26.5948 37.2138Z" fill="black"/>
<path d="M25.7578 37.2521C25.7578 37.3381 25.7556 37.4231 25.7515 37.5069C26.0347 37.4133 26.3158 37.3156 26.5948 37.2138L25.7578 37.2521Z" fill="black"/>
<path d="M7.34947 38.2745L1.93217 37.8213V38.2745H7.34947Z" fill="black"/>
<path fill-rule="evenodd" clip-rule="evenodd" d="M6.09065 37.071C6.47219 37.2164 6.85786 37.3541 7.24745 37.4838C7.26008 37.7633 7.29534 38.0294 7.34947 38.2745L1.93217 37.8213V36.9546L6.09065 37.071Z" fill="black"/>
<path fill-rule="evenodd" clip-rule="evenodd" d="M7.24224 37.2521C7.24224 37.3303 7.244 37.4075 7.24745 37.4838C6.85786 37.3541 6.47219 37.2164 6.09065 37.071L7.24438 37.1034C7.24296 37.1526 7.24224 37.2022 7.24224 37.2521Z" fill="black"/>
<path fill-rule="evenodd" clip-rule="evenodd" d="M5.63665 23.087C5.90568 21.9666 6.35406 20.26 6.35406 20.26C6.35406 20.26 6.419 19.5452 6.20024 18.97C7.43871 19.5838 8.85862 19.9326 10.368 19.9326C10.368 19.9326 11.8917 19.6927 13.6276 19.5175L15.4516 21.1911C10.71 21.8559 6.55901 25.0366 6.55901 28.8602C6.55901 31.1354 7.83146 33.183 9.86106 34.6083C9.68502 34.9044 9.54104 35.2824 9.44194 35.715C9.21687 35.1291 8.8661 34.7524 8.47205 34.7524C8.01995 34.7524 7.62483 35.2483 7.41114 35.987C7.06586 35.8682 6.7239 35.7427 6.38542 35.6109C6.33711 35.4773 6.2914 35.3474 6.25155 35.2286C5.7842 33.8347 5.56451 33.0356 5.32919 31.598C5.07451 30.0421 5.01718 29.1519 5.0559 27.5806C5.09941 25.8151 5.22158 24.8155 5.63665 23.087ZM17.9698 21.1911C18.07 21.2052 18.7838 21.2203 18.8829 21.2366C23.4758 21.9906 26.9193 25.1174 26.9193 28.8602C26.9193 31.2833 25.476 33.4483 23.2119 34.8783C23.3386 35.153 23.442 35.476 23.5154 35.8331C23.7373 35.1802 24.108 34.7524 24.5279 34.7524C24.9757 34.7524 25.3675 35.2387 25.5826 35.9656C25.9338 35.8437 26.2816 35.7151 26.6258 35.5797C26.67 35.4571 26.7117 35.3381 26.7485 35.2286C27.2158 33.8347 27.4355 33.0356 27.6708 31.598C27.9255 30.0421 27.9828 29.1519 27.9441 27.5806C27.9006 25.8151 27.7784 24.8155 27.3634 23.087C27.0943 21.9666 26.6459 20.26 26.6459 20.26C26.6459 20.26 26.5894 19.6375 26.7596 19.0869C25.5803 19.6279 24.2477 19.9326 22.837 19.9326C22.837 19.9326 21.3523 19.6994 19.6375 19.525L17.9698 21.1911Z" fill="url(#paint9_linear_2669_538)"/>
<path fill-rule="evenodd" clip-rule="evenodd" d="M17.9698 21.1911L19.5637 29.4949L16.7391 33.9192L13.6276 29.6732L15.4516 21.1911C10.71 21.8559 6.55901 25.0366 6.55901 28.8602C6.55901 31.1354 7.83146 33.183 9.86106 34.6083C10.1175 34.1769 10.4421 33.9192 10.795 33.9192C11.4124 33.9192 11.9429 34.7077 12.1742 35.8353L12.1739 35.8336L12.1767 35.8254C12.3989 35.1783 12.7686 34.7524 13.1863 34.7524C13.7259 34.7524 14.1843 35.4586 14.35 36.4411C14.3929 36.6954 14.4162 36.9682 14.4162 37.2521C14.4162 37.3072 14.4153 37.3619 14.4135 37.4161C15.0909 37.4652 15.7753 37.4902 16.4658 37.4902C17.1796 37.4902 17.8867 37.4635 18.5863 37.411C18.5847 37.3585 18.5839 37.3055 18.5839 37.2521C18.5839 36.998 18.6025 36.7528 18.6372 36.5217C18.7909 35.4975 19.2595 34.7524 19.8137 34.7524C20.2077 34.7524 20.5585 35.1291 20.7836 35.715C21.027 34.652 21.5414 33.9192 22.1366 33.9192C22.558 33.9192 22.939 34.2865 23.2119 34.8783C25.476 33.4483 26.9193 31.2833 26.9193 28.8602C26.9193 25.1174 23.4758 21.9906 18.8829 21.2366C18.7838 21.2203 18.07 21.2052 17.9698 21.1911Z" fill="url(#paint10_linear_2669_538)"/>
<path d="M12.913 12.4334C12.913 13.3538 12.2248 14.0999 11.3758 14.0999C10.654 14.0999 10.0483 13.5606 9.88308 12.8334C9.97821 12.8443 10.0777 12.85 10.1801 12.85C10.8593 12.85 11.4099 12.5969 11.4099 12.2846C11.4099 11.9724 10.8593 11.7192 10.1801 11.7192C10.1131 11.7192 10.0474 11.7217 9.98331 11.7264C10.2287 11.1595 10.7599 10.7669 11.3758 10.7669C12.2248 10.7669 12.913 11.5131 12.913 12.4334Z" fill="black"/>
<path d="M24.4596 12.4334C24.4596 13.3538 23.7714 14.0999 22.9224 14.0999C22.2006 14.0999 21.5949 13.5606 21.4297 12.8334C21.5248 12.8443 21.6243 12.85 21.7267 12.85C22.4059 12.85 22.9565 12.5969 22.9565 12.2846C22.9565 11.9724 22.4059 11.7192 21.7267 11.7192C21.6597 11.7192 21.594 11.7217 21.5299 11.7264C21.7753 11.1595 22.3065 10.7669 22.9224 10.7669C23.7714 10.7669 24.4596 11.5131 24.4596 12.4334Z" fill="black"/>
<path d="M16.6025 17.046C17.4515 17.046 18.1739 15.3476 18.1739 14.4273C18.1739 13.5813 17.477 12.5557 16.705 12.3954C16.6371 12.3813 16.5686 12.3739 16.5 12.3739C16.4314 12.3739 16.3634 12.3813 16.2963 12.3954C15.5336 12.5557 14.8944 13.5813 14.8944 14.4273C14.8944 15.3476 15.7535 17.046 16.6025 17.046Z" fill="black"/>
<path d="M10.9317 19.0398C6.7055 19.0398 3.2795 15.9355 3.2795 12.1061C3.2795 10.3604 3.99142 8.76547 5.16653 7.54655C5.30006 7.40804 5.43958 7.27438 5.58471 7.14591C6.02011 6.76049 6.50606 6.42176 7.03268 6.13863C6.67201 6.11175 6.35874 6.08531 5.99655 6.0183C5.77326 5.99587 5.55192 5.96332 5.36335 5.91625C5.14417 5.86155 4.88617 5.7665 4.65816 5.67345C2.574 7.12547 1.22981 9.41335 1.22981 11.987C1.22981 14.3243 2.33479 16.4028 4.09938 17.8567C4.16583 17.8631 4.23405 17.8707 4.30435 17.8793C4.39101 17.8899 4.47379 17.9008 4.55327 17.9128C5.08163 17.9922 5.46463 18.116 5.87578 18.4744C6.0237 18.6034 6.12761 18.779 6.20024 18.97C7.43871 19.5838 8.85862 19.9326 10.368 19.9326C10.368 19.9326 11.8917 19.6927 13.6276 19.5175L12.913 18.7682C11.7831 18.9034 10.9317 19.0398 10.9317 19.0398Z" fill="black"/>
<path d="M29.5155 12.1061C29.5155 15.9355 26.0895 19.0398 21.8634 19.0398C21.8634 19.0398 21.143 18.9224 20.1649 18.7974L19.6375 19.525C21.3523 19.6994 22.837 19.9326 22.837 19.9326C24.2477 19.9326 25.5803 19.6279 26.7596 19.0869C26.8324 18.8516 26.9465 18.6293 27.1242 18.4744C27.5964 18.0628 28.0314 17.9607 28.6921 17.8797C30.4567 16.4258 31.5652 14.3243 31.5652 11.987C31.5652 9.41337 30.221 7.1255 28.1369 5.67347C27.9089 5.76652 27.6509 5.86158 27.4317 5.91628C26.8281 6.06692 25.8888 6.06887 25.6243 6.06616C27.9474 7.25641 29.5155 9.51531 29.5155 12.1061Z" fill="black"/>
<path d="M16.6025 18.5042C15.4826 18.496 14.0555 18.6315 12.913 18.7682L13.6276 19.5175C14.6202 19.4174 15.6821 19.3383 16.5683 19.3374C17.4708 19.3365 18.5538 19.4162 19.5637 19.5175L19.6375 19.525L20.1649 18.7974C20.0511 18.7829 19.9337 18.7682 19.8137 18.7537C18.7935 18.6298 17.574 18.5113 16.6025 18.5042Z" fill="black"/>
<defs>
<linearGradient id="paint0_linear_2669_538" x1="16.5" y1="0.648987" x2="16.5" y2="40.2875" gradientUnits="userSpaceOnUse">
<stop stop-opacity="0.49"/>
<stop offset="0.19"/>
</linearGradient>
<linearGradient id="paint1_linear_2669_538" x1="-3.31204" y1="19.0018" x2="7.91727" y2="41.9202" gradientUnits="userSpaceOnUse">
<stop offset="0.145228"/>
<stop offset="0.918421" stop-opacity="0.12"/>
</linearGradient>
<linearGradient id="paint2_linear_2669_538" x1="16.5" y1="0.648987" x2="16.5" y2="40.2875" gradientUnits="userSpaceOnUse">
<stop offset="0.905"/>
<stop offset="1" stop-opacity="0.24"/>
</linearGradient>
<linearGradient id="paint3_linear_2669_538" x1="16.5" y1="0.648987" x2="16.5" y2="40.2875" gradientUnits="userSpaceOnUse">
<stop offset="0.905"/>
<stop offset="1" stop-opacity="0.24"/>
</linearGradient>
<linearGradient id="paint4_linear_2669_538" x1="33.6791" y1="17.7092" x2="18.0628" y2="43.0615" gradientUnits="userSpaceOnUse">
<stop offset="0.0613341"/>
<stop offset="0.613912" stop-opacity="0.24"/>
</linearGradient>
<linearGradient id="paint5_linear_2669_538" x1="16.5" y1="0.648987" x2="16.5" y2="40.2875" gradientUnits="userSpaceOnUse">
<stop offset="0.905"/>
<stop offset="1" stop-opacity="0.24"/>
</linearGradient>
<linearGradient id="paint6_linear_2669_538" x1="16.5" y1="0.648987" x2="16.5" y2="40.2875" gradientUnits="userSpaceOnUse">
<stop offset="0.905"/>
<stop offset="1" stop-opacity="0.24"/>
</linearGradient>
<linearGradient id="paint7_linear_2669_538" x1="16.5" y1="0.648987" x2="16.5" y2="40.2875" gradientUnits="userSpaceOnUse">
<stop offset="0.905"/>
<stop offset="1" stop-opacity="0.24"/>
</linearGradient>
<linearGradient id="paint8_linear_2669_538" x1="16.5" y1="0.648987" x2="16.5" y2="40.2875" gradientUnits="userSpaceOnUse">
<stop offset="0.905"/>
<stop offset="1" stop-opacity="0.24"/>
</linearGradient>
<linearGradient id="paint9_linear_2669_538" x1="16.5" y1="0.648987" x2="16.5" y2="40.2875" gradientUnits="userSpaceOnUse">
<stop offset="0.621414" stop-opacity="0.64"/>
<stop offset="0.780856"/>
<stop offset="0.990854" stop-opacity="0"/>
</linearGradient>
<linearGradient id="paint10_linear_2669_538" x1="16.5" y1="0.648987" x2="16.5" y2="40.2875" gradientUnits="userSpaceOnUse">
<stop offset="0.502954"/>
<stop offset="0.975046" stop-opacity="0.29"/>
</linearGradient>
</defs>
</svg>
