<svg width="40" height="46" viewBox="0 0 40 46" fill="none" xmlns="http://www.w3.org/2000/svg">
<path fill-rule="evenodd" clip-rule="evenodd" d="M20.3703 24.9398L19.9532 24.9766C17.2285 25.2171 14.7095 23.5578 13.7209 20.9609C13.5556 20.5266 13.4009 20.086 13.191 19.6732L12.0746 17.4775C11.1344 17.2207 10.3581 15.9502 10.252 14.3704C10.1614 13.021 10.5853 11.8242 11.2697 11.2605C11.0272 8.30014 12.2541 5.51013 14.3402 3.72446L16.1894 2.27018C16.1894 2.27018 17.1575 1.67553 17.8286 1.41651C18.2203 1.26534 18.4461 1.1938 18.8532 1.09638C19.482 0.945927 19.8474 0.892168 20.4925 0.882964C21.217 0.872627 21.6537 0.844098 22.3366 1.09638C22.8091 1.27092 23.0926 1.38543 23.4636 1.73663C23.7597 2.01692 24.0784 2.5903 24.0784 2.5903L24.4095 3.23056C24.4874 3.28534 24.5643 3.34143 24.6402 3.39878C24.6402 3.39878 25.3504 3.51383 25.7547 3.72446C26.3125 4.0151 26.5479 4.33207 26.9471 4.83119C27.3649 5.35358 27.541 5.70353 27.8056 6.32511C28.1895 7.22712 28.3045 7.796 28.3815 8.77942C28.4754 9.98062 28.0485 11.8459 28.0485 11.8459C28.6674 12.5006 28.9282 13.7711 28.6394 15.1147C28.4107 16.1787 27.8889 17.0481 27.2706 17.5215L26.0969 19.708C25.8695 20.1316 25.7012 20.5862 25.5213 21.0339C24.6451 23.2146 22.6699 24.7368 20.3703 24.9398ZM19.7753 24.1455C23.3401 24.1455 26.2299 19.8935 26.2299 14.6484L26.3324 13.1545C26.3324 13.1545 26.3815 12.047 26.3324 11.3404C26.3062 10.964 26.307 10.7488 26.2299 10.38C26.1303 9.90345 26.0475 9.63265 25.8201 9.20623C25.5986 8.79086 25.1029 8.24586 25.1029 8.24586C25.1029 8.24586 24.7797 7.7343 24.4882 7.4989C24.2055 7.2706 23.6686 7.07276 23.6686 7.07276C23.6686 7.07276 22.9835 6.97179 22.5416 6.96535C22.0199 6.95776 21.7283 7.01417 21.2097 7.07276C20.6471 7.13632 20.3411 7.28548 19.7753 7.28548C19.2095 7.28548 18.9034 7.13632 18.3409 7.07276C17.8223 7.01417 17.5307 6.95776 17.009 6.96535C16.5671 6.97179 15.882 7.07276 15.882 7.07276L15.2673 7.4989C15.2673 7.4989 14.6294 8.01919 14.3452 8.45927C14.0549 8.90877 14.0135 9.23176 13.8329 9.73978C13.6 10.3949 13.4504 10.7618 13.3206 11.4471C13.0885 12.6737 13.3206 14.6484 13.3206 14.6484C13.3206 19.8935 16.2105 24.1455 19.7753 24.1455Z" fill="black"/>
<path d="M17.9311 31.5084H20.39L21.517 28.9244H16.8041L17.9311 31.5084Z" fill="black"/>
<path d="M12.1936 26.0662C11.3945 26.6969 9.93963 27.3467 9.93963 27.3467L8.71017 27.987L7.68563 28.4138L2.5629 31.0815L1.6408 32.1486C1.6408 32.1486 1.00826 33.751 0.718713 34.8164C0.243964 36.5632 0.00153029 39.4048 0.00153029 39.4048C-0.0547156 41.3087 1.44665 42.888 3.33037 42.9063L24.6402 43.114V35.1802C24.6402 35.1802 24.7295 34.2217 25.0838 33.7667C25.3812 33.3849 26.0969 33.06 26.0969 33.06L34.2857 31.7895L35.6044 31.893L34.7253 31.0041L33.4066 30.1152L31.6484 29.2263L29.8303 28.2673L28.0741 27.3467C28.0082 27.3103 27.9396 27.272 27.8692 27.2321C27.0267 26.7549 25.9226 26.0662 25.9226 26.0662L25.4103 25.5327H25.0005L20.6974 34.6029L20.39 31.5084H17.9311L17.3164 34.6029L13.4231 25.5327H12.8084C12.8084 25.5327 12.4427 25.8697 12.1936 26.0662Z" fill="black"/>
<path d="M36.9605 33.6806L27.5574 35.1031C27.0804 35.1753 26.7515 35.6248 26.8229 36.1071L26.9692 37.0954C27.0275 36.7795 27.2522 36.5229 27.5477 36.4218C27.6243 36.0761 27.9037 35.7969 28.271 35.7413L36.1772 34.5452C36.6542 34.4731 37.0987 34.8056 37.1701 35.2879L37.2461 35.8016H38.1574L37.9534 34.4232C37.882 33.9409 37.4375 33.6084 36.9605 33.6806Z" fill="black"/>
<path fill-rule="evenodd" clip-rule="evenodd" d="M40 41.6178V39.9401C40 39.8425 39.9218 39.7635 39.8253 39.7635H36.5941C36.4977 39.7635 36.4195 39.8425 36.4195 39.9401V41.6178C36.4195 41.7153 36.4977 41.7944 36.5941 41.7944H39.8253C39.9218 41.7944 40 41.7153 40 41.6178ZM38.821 41.3529C39.1828 41.3529 39.476 41.0564 39.476 40.6906C39.476 40.3248 39.1828 40.0284 38.821 40.0284C38.4593 40.0284 38.1661 40.3248 38.1661 40.6906C38.1661 41.0564 38.4593 41.3529 38.821 41.3529Z" fill="black"/>
<path d="M38.0452 36.3755H27.8276C27.7297 36.3755 27.6356 36.3918 27.5477 36.4218C27.2522 36.5229 27.0275 36.7795 26.9692 37.0954C26.9594 37.1482 26.9543 37.2028 26.9543 37.2585V44.3225C26.9543 44.8102 27.3453 45.2055 27.8276 45.2055H38.0452C38.5275 45.2055 38.9185 44.8102 38.9185 44.3225V42.1476H36.2448C36.1484 42.1476 36.0702 42.0685 36.0702 41.971V39.5868C36.0702 39.4893 36.1484 39.4103 36.2448 39.4103H38.9185V37.2585C38.9185 36.7709 38.5275 36.3755 38.0452 36.3755Z" fill="black"/>
</svg>
