<svg width="45" height="38" viewBox="0 0 45 38" fill="none" xmlns="http://www.w3.org/2000/svg">
<path d="M3.64928 19.6403C3.64928 24.1244 8.09998 28.8293 12.8479 28.8293C13.6522 28.8293 14.4307 28.725 15.169 28.5299L16.843 27.9012C19.5789 26.5426 21.4447 23.8321 21.4447 20.7101C21.4447 16.226 17.5958 12.5909 12.8479 12.5909C12.2118 12.5909 11.5384 12.5397 10.8623 12.4916L14.105 14.4172C17.0261 15.0604 19.2095 17.6336 19.2095 20.7101C19.2095 24.271 16.5422 26.7895 12.9338 26.7895C9.32545 26.7895 5.88445 23.1291 5.88445 19.5682C5.88445 17.5386 6.53674 15.1024 8.11963 14.0489L6.16427 12.9396L6.05215 12.8875C6.04971 12.8893 6.04727 12.891 6.04483 12.8928C4.26632 14.1639 3.64928 17.3198 3.64928 19.6403Z" fill="black"/>
<path d="M27.7677 20.2322C27.7677 22.9385 29.9616 25.1324 32.6679 25.1324C35.3644 25.1324 37.5521 22.9544 37.568 20.2617C37.0205 20.7245 36.2975 21.0059 35.5049 21.0059C33.7956 21.0059 32.41 19.6972 32.41 18.083C32.41 16.9783 33.0588 16.0168 34.0162 15.5198C33.5878 15.3975 33.1355 15.332 32.6679 15.332C29.9616 15.332 27.7677 17.5259 27.7677 20.2322Z" fill="black"/>
<path d="M32.1521 28.8293C36.9 28.8293 41.3507 24.1244 41.3507 19.6403C41.3507 17.3166 40.6418 14.3978 38.8576 13.1301L36.8804 14.0489C38.4633 15.1024 39.1155 17.5386 39.1155 19.5682C39.1155 23.1291 35.6746 26.7895 32.0662 26.7895C28.4578 26.7895 26.166 24.1542 26.166 20.5933C26.166 17.5168 28.3495 14.9435 31.2705 14.3004L31.6622 14.0533C31.7166 13.9936 31.7743 13.9403 31.8843 13.9132L34.1377 12.4916C33.4616 12.5397 32.7882 12.5909 32.1521 12.5909C27.4042 12.5909 23.5553 16.226 23.5553 20.7101C23.5553 23.8321 25.4211 26.5426 28.157 27.9012L29.831 28.5299C30.5693 28.725 31.3478 28.8293 32.1521 28.8293Z" fill="black"/>
<path d="M17.2323 20.2322C17.2323 22.9385 15.0384 25.1324 12.3321 25.1324C9.63562 25.1324 7.44785 22.9544 7.43197 20.2617C7.9795 20.7245 8.70251 21.0059 9.49512 21.0059C11.2044 21.0059 12.59 19.6972 12.59 18.083C12.59 16.9783 11.9412 16.0168 10.9838 15.5198C11.4122 15.3975 11.8645 15.332 12.3321 15.332C15.0384 15.332 17.2323 17.5259 17.2323 20.2322Z" fill="black"/>
<path d="M12.8479 12.5909C17.5958 12.5909 21.4447 16.226 21.4447 20.7101C21.4447 23.8321 19.5789 26.5426 16.843 27.9012L18.2639 27.3675C18.2639 27.3675 18.8502 27.2822 19.2095 27.3675C19.6188 27.4647 20.1552 27.8833 20.1552 27.8833L22.4763 30.4516L24.8448 27.8833C24.8448 27.8833 25.3812 27.4647 25.7905 27.3675C26.1498 27.2822 26.7361 27.3675 26.7361 27.3675L28.157 27.9012C25.4211 26.5426 23.5553 23.8321 23.5553 20.7101C23.5553 16.226 27.4042 12.5909 32.1521 12.5909C32.7882 12.5909 33.4616 12.5397 34.1377 12.4916L34.9031 12.1512L38.8576 10.8616C38.8576 10.8616 39.0499 10.7711 39.3314 10.6285L39.3521 10.618L41.0068 9.65807C42.0301 8.92553 42.5901 8.44231 43.328 7.4229C44.2094 6.20512 44.5766 5.37149 44.8754 3.8982C45.1557 2.51629 44.8754 0.287537 44.8754 0.287537C44.8754 0.287537 43.4782 1.78077 42.4683 2.60868C41.3089 3.55912 40.6141 4.05955 39.2875 4.75788C37.8862 5.49556 36.997 5.68873 35.5049 6.21934C34.4046 6.61064 33.7605 6.75262 32.6679 7.16499C31.542 7.58995 30.8832 7.78443 29.831 8.36855C29.3829 8.61728 28.7134 9.0563 28.7134 9.0563C28.7134 9.0563 29.6112 7.80639 30.3468 7.16499C31.1541 6.46099 31.7236 6.2091 32.6679 5.70353C33.6086 5.19996 35.161 4.58595 35.161 4.58595C35.161 4.58595 32.7703 4.92411 31.2924 5.35966L31.2705 5.36612C29.7949 5.80099 28.9366 6.05397 27.5958 6.82112C26.4302 7.48805 25.7422 7.88531 24.8448 8.88436C23.9098 9.9253 23.5086 10.661 23.0395 11.9792C22.7282 12.8541 22.5237 14.3004 22.5237 14.3004H22.4763C22.4763 14.3004 22.2718 12.8541 21.9605 11.9792C21.4914 10.661 21.0902 9.9253 20.1552 8.88436C19.2578 7.88531 18.5698 7.48805 17.4042 6.82112C16.0634 6.05397 15.2051 5.80099 13.7295 5.36612L13.7076 5.35966C12.2297 4.92411 9.83899 4.58595 9.83899 4.58595C9.83899 4.58595 11.3914 5.19996 12.3321 5.70353C13.2764 6.2091 13.8459 6.46099 14.6532 7.16499C15.3888 7.80639 16.2866 9.0563 16.2866 9.0563C16.2866 9.0563 15.6171 8.61728 15.169 8.36855C14.1168 7.78443 13.458 7.58995 12.3321 7.16499C11.2395 6.75262 10.5954 6.61064 9.49512 6.21934C8.00304 5.68873 7.11383 5.49556 5.71252 4.75788C4.38594 4.05955 3.69107 3.55912 2.53169 2.60868C1.52179 1.78077 0.124583 0.287537 0.124583 0.287537C0.124583 0.287537 -0.155729 2.51629 0.124583 3.8982C0.423431 5.37149 0.790595 6.20512 1.67201 7.4229C2.40985 8.44231 2.96993 8.92553 3.99315 9.65807C4.32407 9.89498 4.75967 10.1469 5.15215 10.3586L5.62994 10.6088L5.66042 10.6243C5.9464 10.7694 6.14236 10.8616 6.14236 10.8616L10.0969 12.1512L10.8623 12.4916C11.5384 12.5397 12.2118 12.5909 12.8479 12.5909Z" fill="url(#paint0_linear_2669_539)"/>
<path d="M12.8479 28.8293C8.09998 28.8293 3.64928 24.1244 3.64928 19.6403C3.64928 17.3198 4.26632 14.1639 6.04483 12.8928L4.77351 12.1843L4.73184 12.2667L4.72255 12.2858C4.71958 12.292 4.71659 12.2982 4.71348 12.3044L4.31189 13.1301C3.43829 14.9941 2.67797 17.558 2.67797 19.6369C2.67797 32.0633 10.0499 37.6363 22.4763 37.6363C34.9027 37.6363 42.2763 32.0633 42.2763 19.6369C42.2763 16.9681 41.4629 14.9054 40.391 12.7774L40.2712 12.5394L38.8576 13.1301C40.6418 14.3978 41.3507 17.3166 41.3507 19.6403C41.3507 24.1244 36.9 28.8293 32.1521 28.8293C31.3478 28.8293 30.5693 28.725 29.831 28.5299C29.2453 28.3752 28.685 28.1634 28.157 27.9012L26.7361 27.3675C26.7361 27.3675 26.1498 27.2822 25.7905 27.3675C25.3812 27.4647 24.8448 27.8833 24.8448 27.8833L22.4763 30.4516L20.1552 27.8833C20.1552 27.8833 19.6188 27.4647 19.2095 27.3675C18.8502 27.2822 18.2639 27.3675 18.2639 27.3675L16.843 27.9012C16.315 28.1634 15.7547 28.3752 15.169 28.5299C14.4307 28.725 13.6522 28.8293 12.8479 28.8293Z" fill="url(#paint1_linear_2669_539)"/>
<defs>
<linearGradient id="paint0_linear_2669_539" x1="22.5" y1="0.287537" x2="22.2522" y2="44.3861" gradientUnits="userSpaceOnUse">
<stop offset="0.153603"/>
<stop offset="0.457843" stop-opacity="0.61"/>
<stop offset="1" stop-opacity="0"/>
</linearGradient>
<linearGradient id="paint1_linear_2669_539" x1="22.5" y1="0.287537" x2="22.7021" y2="64.6354" gradientUnits="userSpaceOnUse">
<stop offset="0.0260384" stop-opacity="0.18"/>
<stop offset="0.24375"/>
<stop offset="0.929956" stop-opacity="0.41"/>
</linearGradient>
</defs>
</svg>
