<svg width="22" height="22" viewBox="0 0 22 22" fill="none" xmlns="http://www.w3.org/2000/svg">
<path fill-rule="evenodd" clip-rule="evenodd" d="M11 1C16.5228 1 21 5.47715 21 11C21 16.5228 16.5228 21 11 21C9.3596 21 7.77516 20.6039 6.35578 19.8583L2.06538 20.9753C1.6111 21.0937 1.1469 20.8213 1.02858 20.367C0.99199 20.2266 0.99198 20.0791 1.02855 19.9386L2.1449 15.6502C1.3972 14.2294 1 12.6428 1 11C1 5.47715 5.47715 1 11 1ZM11.75 18.5C12.1642 18.5 12.5 18.1642 12.5 17.75C12.5 17.3358 12.1642 17 11.75 17C11.3358 17 11 17.3358 11 17.75C11 18.1642 11.3358 18.5 11.75 18.5Z" fill="black"/>
<path d="M8.17466 9.00001C8.17466 7.48123 9.40586 6.25001 10.9247 6.25001C12.4435 6.25001 13.6747 7.48123 13.6747 9.00001C13.6747 10.0108 13.3772 10.574 12.6236 11.3586L12.3196 11.6678C11.8097 12.1947 11.6747 12.4612 11.6747 13V14.1386M11 1C16.5228 1 21 5.47715 21 11C21 16.5228 16.5228 21 11 21C9.3596 21 7.77516 20.6039 6.35578 19.8583L2.06538 20.9753C1.6111 21.0937 1.1469 20.8213 1.02858 20.367C0.99199 20.2266 0.99198 20.0791 1.02855 19.9386L2.1449 15.6502C1.3972 14.2294 1 12.6428 1 11C1 5.47715 5.47715 1 11 1ZM12.5 17.75C12.5 18.1642 12.1642 18.5 11.75 18.5C11.3358 18.5 11 18.1642 11 17.75C11 17.3358 11.3358 17 11.75 17C12.1642 17 12.5 17.3358 12.5 17.75Z" stroke="white" stroke-width="1.5" stroke-linecap="round"/>
</svg>
