<svg width="20" height="20" viewBox="0 0 20 20" fill="none" xmlns="http://www.w3.org/2000/svg">
<path d="M9.37185 1.05536C8.72842 0.464545 7.75276 0.464533 7.10937 1.05536L0.903058 6.75455C0.545756 7.08266 0.34167 7.55048 0.34167 8.04141L0.317139 16.9343L0.317864 16.9854L0.34167 18.6643H5.98377L5.95924 16.9343L5.98377 11.5638C5.98377 11.2454 6.23638 10.9872 6.54798 10.9872H10.4974C10.4974 9.07627 12.013 7.52718 13.8827 7.52718C14.4975 7.52718 15.077 7.69569 15.5761 7.99077C15.778 8.11007 15.9667 8.25023 16.1395 8.40839V8.04141C16.1395 7.55048 15.9354 7.08266 15.5782 6.75455L9.37185 1.05536Z" fill="#316397"/>
<path fill-rule="evenodd" clip-rule="evenodd" d="M11.9321 13.5011L12.0859 13.7777L12.2754 12.7882C12.2754 12.7882 12.2115 12.2906 12.2754 11.9816C12.3065 11.8316 12.3417 11.7422 12.3924 11.6131C12.4001 11.5936 12.4081 11.5731 12.4166 11.5514C12.4306 11.5154 12.4415 11.4832 12.4518 11.4528C12.4782 11.3752 12.5002 11.3102 12.5577 11.2287C12.6361 11.1178 12.8118 10.9867 12.8118 10.9867L12.9812 10.8794C12.9812 10.8794 13.1699 10.8539 13.2917 10.8523C13.404 10.8508 13.4775 10.8591 13.5725 10.8699C13.5991 10.8729 13.6274 10.8761 13.6587 10.8794C13.7218 10.8859 13.7732 10.896 13.8224 10.9057C13.8942 10.9197 13.9615 10.933 14.0539 10.933C14.1464 10.933 14.2136 10.9197 14.2854 10.9057C14.3347 10.896 14.386 10.8859 14.4491 10.8794C14.4804 10.8761 14.5087 10.8729 14.5353 10.8699C14.6303 10.8591 14.7039 10.8508 14.8161 10.8523C14.9379 10.8539 15.1266 10.8794 15.1266 10.8794C15.1266 10.8794 15.2746 10.9292 15.3525 10.9867C15.4328 11.0461 15.5218 11.175 15.5218 11.175C15.5218 11.175 15.6584 11.3123 15.7195 11.4169C15.7821 11.5244 15.8049 11.5926 15.8324 11.7127C15.8494 11.787 15.8526 11.8365 15.8569 11.9019C15.858 11.9183 15.8592 11.9357 15.8606 11.9547C15.8741 12.1327 15.8606 12.4118 15.8606 12.4118L15.8324 12.7882L15.9574 13.7876L16.1191 13.5122C16.2895 13.3929 16.4332 13.1738 16.4963 12.9057C16.5758 12.5672 16.504 12.247 16.3335 12.0821C16.3335 12.0821 16.4511 11.6121 16.4252 11.3094C16.404 11.0616 16.3723 10.9183 16.2665 10.691C16.1936 10.5344 16.1451 10.4462 16.03 10.3146C16.0243 10.3081 16.0188 10.3018 16.0134 10.2956C15.9131 10.1806 15.8473 10.1052 15.7014 10.0357C15.59 9.98261 15.3944 9.95362 15.3944 9.95362C15.3734 9.93917 15.3523 9.92504 15.3308 9.91123L15.2395 9.74991C15.2395 9.74991 15.1518 9.60543 15.0702 9.53481C14.968 9.44631 14.8898 9.41746 14.7596 9.37348C14.5855 9.31466 14.4695 9.31642 14.295 9.31908C14.2809 9.31929 14.2664 9.31951 14.2515 9.31971C14.0738 9.32203 13.9731 9.33557 13.7998 9.37348C13.6877 9.39803 13.6255 9.41605 13.5175 9.45415C13.3326 9.51941 13.0659 9.66925 13.0659 9.66925L12.5564 10.0357C11.9816 10.4856 11.6435 11.1886 11.7103 11.9345C11.5218 12.0766 11.405 12.3782 11.4299 12.7182C11.4592 13.1162 11.6731 13.4364 11.9321 13.5011Z" fill="#316397"/>
<path d="M11.9649 15.6652C11.7447 15.8241 11.3439 15.9878 11.3439 15.9878L11.0051 16.1492L10.7228 16.2567L9.31134 16.9289L9.05727 17.1978C9.05727 17.1978 8.88298 17.6015 8.8032 17.87C8.75397 18.0357 8.7138 18.2404 8.68285 18.4313C8.6764 18.4712 8.67035 18.5104 8.6647 18.5485C8.62665 18.8052 8.84549 19.0274 9.12573 19.0289L12.9406 19.0487L13.3764 17.0902L13.2352 16.3854L12.3037 15.5308H12.1343C12.1343 15.5308 12.0335 15.6157 11.9649 15.6652Z" fill="#316397"/>
<path d="M15.6065 15.5308H15.4936L14.5338 16.3854L14.308 17.0902L14.7284 19.058L18.5178 19.0777C18.8026 19.0791 19.0261 18.8523 18.998 18.5902L18.9094 17.7624C18.9094 17.7624 18.8437 17.5088 18.7682 17.3591L18.7548 17.3323C18.7073 17.2375 18.676 17.1751 18.5989 17.0902C18.5043 16.9862 18.4142 16.9419 18.3061 16.8887C18.2655 16.8687 18.2223 16.8475 18.1754 16.8214C18.0124 16.7305 17.8901 16.6797 17.7502 16.6215C17.682 16.5931 17.6095 16.563 17.5261 16.5256C17.4029 16.4704 17.3023 16.4272 17.2048 16.3854C17.0765 16.3303 16.9537 16.2776 16.7922 16.203L16.3405 15.9878C16.3223 15.9787 16.3034 15.969 16.284 15.959C16.0519 15.8387 15.7477 15.6652 15.7477 15.6652L15.6065 15.5308Z" fill="#316397"/>
<path d="M18.7682 17.3591C18.8437 17.5088 18.9094 17.7624 18.9094 17.7624L18.998 18.5902C19.0261 18.8523 18.8026 19.0791 18.5178 19.0777L14.7284 19.058M18.7682 17.3591C18.7636 17.3499 18.7591 17.341 18.7548 17.3323M18.7682 17.3591L18.7548 17.3323M18.7548 17.3323C18.7073 17.2375 18.676 17.1751 18.5989 17.0902C18.5043 16.9862 18.4142 16.9419 18.3061 16.8887C18.2655 16.8687 18.2223 16.8475 18.1754 16.8214C18.0124 16.7305 17.8901 16.6797 17.7502 16.6215C17.682 16.5931 17.6095 16.563 17.5261 16.5256C17.4029 16.4704 17.3023 16.4272 17.2048 16.3854C17.0765 16.3303 16.9537 16.2776 16.7922 16.203L16.3405 15.9878C16.3223 15.9787 16.3034 15.969 16.284 15.959C16.0519 15.8387 15.7477 15.6652 15.7477 15.6652L15.6065 15.5308H15.4936L14.5338 16.3854M14.5338 16.3854L14.308 17.0902L14.7284 19.058M14.5338 16.3854H13.2352M13.2352 16.3854L13.3764 17.0902L12.9406 19.0487M13.2352 16.3854L12.3037 15.5308H12.1343C12.1343 15.5308 12.0335 15.6157 11.9649 15.6652C11.7447 15.8241 11.3439 15.9878 11.3439 15.9878L11.0051 16.1492L10.7228 16.2567L9.31134 16.9289L9.05727 17.1978C9.05727 17.1978 8.88298 17.6015 8.8032 17.87C8.75397 18.0357 8.7138 18.2404 8.68285 18.4313M12.0859 13.7777L11.9321 13.5011C11.6731 13.4364 11.4592 13.1162 11.4299 12.7182C11.405 12.3782 11.5218 12.0766 11.7103 11.9345C11.6435 11.1886 11.9816 10.4856 12.5564 10.0357L13.0659 9.66925C13.0659 9.66925 13.3326 9.51941 13.5175 9.45415C13.6255 9.41605 13.6877 9.39803 13.7998 9.37348C13.9731 9.33557 14.0738 9.32203 14.2515 9.31971C14.2664 9.31951 14.2809 9.31929 14.295 9.31908C14.4695 9.31642 14.5855 9.31466 14.7596 9.37348C14.8898 9.41746 14.968 9.44631 15.0702 9.53481C15.1518 9.60543 15.2395 9.74991 15.2395 9.74991L15.3308 9.91123C15.3523 9.92504 15.3734 9.93917 15.3944 9.95362C15.3944 9.95362 15.59 9.98261 15.7014 10.0357C15.8473 10.1052 15.9131 10.1806 16.0134 10.2956C16.0188 10.3018 16.0243 10.3081 16.03 10.3146C16.1451 10.4462 16.1936 10.5344 16.2665 10.691C16.3723 10.9183 16.404 11.0616 16.4252 11.3094C16.4511 11.6121 16.3335 12.0821 16.3335 12.0821C16.504 12.247 16.5758 12.5672 16.4963 12.9057C16.4332 13.1738 16.2895 13.3929 16.1191 13.5122L15.9574 13.7876M12.0859 13.7777L12.2397 14.0543C12.2976 14.1584 12.3402 14.2694 12.3857 14.3788C12.6581 15.0331 13.3522 15.4512 14.1029 15.3906L14.2179 15.3814C14.8515 15.3302 15.3957 14.9467 15.6371 14.3972C15.6867 14.2844 15.7331 14.1698 15.7957 14.0631L15.9574 13.7876M12.0859 13.7777L12.2754 12.7882C12.2754 12.7882 12.2115 12.2906 12.2754 11.9816C12.3065 11.8316 12.3417 11.7422 12.3924 11.6131C12.4001 11.5936 12.4081 11.5731 12.4166 11.5514C12.4306 11.5154 12.4415 11.4832 12.4518 11.4528C12.4782 11.3752 12.5002 11.3102 12.5577 11.2287C12.6361 11.1178 12.8118 10.9867 12.8118 10.9867L12.9812 10.8794C12.9812 10.8794 13.1699 10.8539 13.2917 10.8523C13.404 10.8508 13.4775 10.8591 13.5725 10.8699C13.5991 10.8729 13.6274 10.8761 13.6587 10.8794C13.7218 10.8859 13.7732 10.896 13.8224 10.9057C13.8942 10.9197 13.9615 10.933 14.0539 10.933C14.1464 10.933 14.2136 10.9197 14.2854 10.9057C14.3347 10.896 14.386 10.8859 14.4491 10.8794C14.4804 10.8761 14.5087 10.8729 14.5353 10.8699C14.6303 10.8591 14.7039 10.8508 14.8161 10.8523C14.9379 10.8539 15.1266 10.8794 15.1266 10.8794C15.1266 10.8794 15.2746 10.9292 15.3525 10.9867C15.4328 11.0461 15.5218 11.175 15.5218 11.175C15.5218 11.175 15.6584 11.3123 15.7195 11.4169C15.7821 11.5244 15.8049 11.5926 15.8324 11.7127C15.8494 11.787 15.8526 11.8365 15.8569 11.9019C15.858 11.9183 15.8592 11.9357 15.8606 11.9547C15.8741 12.1327 15.8606 12.4118 15.8606 12.4118L15.8324 12.7882L15.9574 13.7876M14.7284 19.058L12.9406 19.0487M12.9406 19.0487L9.12573 19.0289C8.84549 19.0274 8.62665 18.8052 8.6647 18.5485C8.67035 18.5104 8.6764 18.4711 8.68285 18.4313M8.61597 18.4313H8.68285" stroke="#316397" stroke-width="0.5"/>
</svg>
