<svg width="18" height="17" viewBox="0 0 18 17" fill="none" xmlns="http://www.w3.org/2000/svg">
<path d="M7.53106 7.33867C7.3979 7.25434 7.22406 7.35002 7.22406 7.50764V12.0577C7.22406 12.2173 7.40183 12.3126 7.53476 12.2243L11.0406 9.89444C11.1613 9.81426 11.1593 9.6364 11.0369 9.5589L7.53106 7.33867Z" fill="#898989"/>
<path d="M5 1.60204L3.40909 4.13591H6.09091L7.72727 1.60204H5Z" fill="#898989"/>
<path d="M10.5455 1.60204L8.90909 4.13591H12L13.5455 1.60204H10.5455Z" fill="#898989"/>
<path d="M17 1.60204H16.4545L15.0455 4.13591H17V1.60204Z" fill="#898989"/>
<path d="M1 4.13591L2.5 1.60204H1V4.13591Z" fill="#898989"/>
<path d="M1 4.13591V14.4053C1 15.1088 1.4291 15.6791 1.95843 15.6791H16.0416C16.5709 15.6791 17 15.1088 17 14.4053V4.13591M1 4.13591L2.5 1.60204M1 4.13591H3.40909M1 4.13591V1.60204H2.5M17 4.13591H15.0455M17 4.13591V1.60204H16.4545M2.5 1.60204H5M3.40909 4.13591L5 1.60204M3.40909 4.13591H6.09091M5 1.60204H7.72727M6.09091 4.13591L7.72727 1.60204M6.09091 4.13591H8.90909M7.72727 1.60204H10.5455M8.90909 4.13591L10.5455 1.60204M8.90909 4.13591H12M10.5455 1.60204H13.5455M12 4.13591L13.5455 1.60204M12 4.13591H15.0455M13.5455 1.60204H16.4545M15.0455 4.13591L16.4545 1.60204M11.0406 9.89444L7.53476 12.2243C7.40183 12.3126 7.22406 12.2173 7.22406 12.0577V7.50764C7.22406 7.35002 7.3979 7.25434 7.53106 7.33867L11.0369 9.5589C11.1593 9.6364 11.1613 9.81426 11.0406 9.89444Z" stroke="#898989" stroke-width="1.5"/>
</svg>
