<svg width="16" height="16" viewBox="0 0 16 16" fill="none" xmlns="http://www.w3.org/2000/svg">
<path d="M7.972 14.6442C4.66044 14.6442 1.89813 12.2926 1.26391 9.1682H2.40111C3.04103 11.6863 5.32321 13.549 8.04045 13.549C10.0175 13.549 11.7643 12.5629 12.8157 11.0557L11.5975 10.981L14.2792 8.37933L14.753 12.1835L13.7818 11.4205C12.5726 13.3563 10.4227 14.6442 7.972 14.6442Z" fill="#555555"/>
<path fill-rule="evenodd" clip-rule="evenodd" d="M1.75353 7.4602L1.4789 6.12639L1 3.80057L2.14285 4.47983C3.4738 2.12411 6.14048 0.687345 8.98858 1.05801C12.0815 1.46053 14.422 3.86883 14.8723 6.80455L13.7562 6.64398C13.2865 4.25837 11.3412 2.33057 8.79702 1.99946C6.47732 1.69757 4.2992 2.80625 3.12588 4.6611L4.28534 4.58159L1.75353 7.4602Z" fill="#555555"/>
<path d="M1.46311 6.18873C1.46828 6.16791 1.47354 6.14713 1.4789 6.12639M1.4789 6.12639L1.75353 7.4602L4.28534 4.58159L3.12588 4.6611C4.2992 2.80625 6.47732 1.69757 8.79702 1.99946C11.3412 2.33057 13.2865 4.25837 13.7562 6.64398L14.8723 6.80455C14.422 3.86883 12.0815 1.46053 8.98858 1.05801C6.14048 0.687345 3.4738 2.12411 2.14285 4.47983L1 3.80057L1.4789 6.12639ZM14.2792 8.37933L11.5975 10.981L12.8157 11.0557C11.7643 12.5629 10.0175 13.549 8.04045 13.549C5.32321 13.549 3.04103 11.6863 2.40111 9.1682H1.26391C1.89813 12.2926 4.66044 14.6442 7.972 14.6442C10.4227 14.6442 12.5726 13.3563 13.7818 11.4205L14.753 12.1835L14.2792 8.37933Z" stroke="#555555"/>
</svg>
