<svg width="17" height="17" viewBox="0 0 17 17" fill="none" xmlns="http://www.w3.org/2000/svg">
<path d="M5.8 8.65C5.8 9.28513 5.28513 9.8 4.65 9.8C4.01487 9.8 3.5 9.28513 3.5 8.65C3.5 8.01487 4.01487 7.5 4.65 7.5C5.28513 7.5 5.8 8.01487 5.8 8.65Z" fill="#555555"/>
<path d="M9.3 8.49999C9.3 9.13512 8.78513 9.64999 8.15 9.64999C7.51487 9.64999 7 9.13512 7 8.49999C7 7.86486 7.51487 7.34999 8.15 7.34999C8.78513 7.34999 9.3 7.86486 9.3 8.49999Z" fill="#555555"/>
<path d="M12.9499 8.49999C12.9499 9.13512 12.435 9.64999 11.7999 9.64999C11.1648 9.64999 10.6499 9.13512 10.6499 8.49999C10.6499 7.86486 11.1648 7.34999 11.7999 7.34999C12.435 7.34999 12.9499 7.86486 12.9499 8.49999Z" fill="#555555"/>
<path fill-rule="evenodd" clip-rule="evenodd" d="M8.5 1C12.6421 1 16 4.35786 16 8.5C16 12.6421 12.6421 16 8.5 16C7.2697 16 6.08137 15.7029 5.01684 15.1437L1.79904 15.9815C1.45833 16.0703 1.11017 15.866 1.02143 15.5253C0.993992 15.42 0.993985 15.3093 1.02141 15.204L1.85868 11.9876C1.2979 10.922 1 9.7321 1 8.5C1 4.35786 4.35786 1 8.5 1Z" stroke="#555555" stroke-width="2"/>
</svg>
