<svg width="20" height="25" viewBox="0 0 20 25" fill="none" xmlns="http://www.w3.org/2000/svg">
<path d="M14.4067 20.4291C14.4067 22.6362 12.4337 24.398 9.96228 24.398C7.49086 24.398 5.51784 22.6362 5.51784 20.4291H9.96228H14.4067Z" fill="#4285F4"/>
<path d="M14.4067 20.4291C14.4067 22.6362 12.4337 24.398 9.96228 24.398C7.49086 24.398 5.51784 22.6362 5.51784 20.4291H9.96228H14.4067Z" fill="#555555"/>
<path d="M18.2127 9.27985V14.5132C18.2127 14.6464 18.2411 14.7784 18.2965 14.902L20 18.709H0L1.70366 14.902C1.75899 14.7784 1.78742 14.6464 1.78742 14.5132V9.27985C1.78742 5.95891 4.25929 3.15353 7.64967 2.25083C7.94906 1.31749 8.90523 0.642853 10.0522 0.642853C11.212 0.642853 12.1766 1.33256 12.4646 2.28202C15.7961 3.21672 18.2127 5.99628 18.2127 9.27985Z" fill="#555555"/>
</svg>
