<svg width="34" height="21" viewBox="0 0 34 21" fill="none" xmlns="http://www.w3.org/2000/svg">
<path fill-rule="evenodd" clip-rule="evenodd" d="M31.7633 16.7873L33.2374 9.71566C33.4381 8.75308 32.9951 7.80592 32.2014 7.32126C31.9859 7.18972 31.7446 7.09224 31.4834 7.03778L30.3686 6.8054L23.9758 5.47278L22.1194 5.08582C21.6785 4.99391 21.2422 5.09105 20.8945 5.32207C21.8102 5.50523 22.5001 6.31364 22.5001 7.28319L22.5002 14.2832C22.5002 15.3878 21.6047 16.2832 20.5001 16.2832L18.1103 16.2798C18.3124 16.7448 19.0554 17.1111 19.5895 17.2225L28.3203 19.0424C29.7702 19.3447 31.193 18.5111 31.6641 17.1472C31.6923 17.0656 31.7171 16.9822 31.7383 16.8969C31.7473 16.8607 31.7556 16.8241 31.7633 16.7873ZM26.0952 8.59879C25.2022 8.59879 24.4783 9.32267 24.4783 10.2156C24.4783 10.6769 24.6715 11.0931 24.9814 11.3877L24.423 13.9306C24.3464 14.2794 24.5671 14.6244 24.916 14.701L25.4627 14.821C25.8116 14.8976 26.1565 14.6769 26.2331 14.328L26.8185 11.662C27.3483 11.3966 27.712 10.8486 27.712 10.2156C27.712 9.32267 26.9882 8.59879 26.0952 8.59879Z" fill="#555555"/>
<path fill-rule="evenodd" clip-rule="evenodd" d="M3.01603 5.47278H19.0875C19.3092 5.47278 19.5236 5.50468 19.7261 5.56413C20.6653 5.83981 21.3511 6.708 21.3511 7.73637V13.3307C21.3511 14.5808 20.3376 15.5942 19.0875 15.5942H17.6496H17.524H3.71127L0.752441 16.9362V7.73637C0.752441 6.48622 1.76588 5.47278 3.01603 5.47278ZM7.13683 10.4355C7.22993 10.2923 7.27648 10.1383 7.27648 9.97362C7.27648 9.8662 7.255 9.76415 7.21203 9.66747C7.17264 9.56721 7.11714 9.47948 7.04552 9.40429C6.97391 9.32909 6.88797 9.27001 6.78771 9.22704C6.68745 9.18049 6.57824 9.15722 6.46007 9.15722C6.40994 9.15722 6.3616 9.1608 6.31505 9.16796C6.27209 9.17154 6.22554 9.18228 6.17541 9.20019C6.0644 9.24674 5.93192 9.32372 5.77794 9.43114C5.62755 9.53856 5.47716 9.65315 5.32677 9.77489C5.359 9.67821 5.38944 9.57974 5.41808 9.47948C5.45031 9.37922 5.47716 9.28254 5.49865 9.18944C5.52371 9.09634 5.54341 9.01041 5.55773 8.93163C5.57205 8.84927 5.57921 8.77766 5.57921 8.71679C5.57921 8.60578 5.55773 8.50015 5.51476 8.39989C5.47179 8.29963 5.4145 8.2119 5.34289 8.13671C5.27127 8.06151 5.18533 8.00243 5.08507 7.95946C4.98481 7.91649 4.87918 7.89501 4.76818 7.89501C4.6536 7.89501 4.54617 7.91649 4.44591 7.95946C4.34923 8.00243 4.2633 8.06151 4.1881 8.13671C4.11649 8.2119 4.05919 8.29963 4.01623 8.39989C3.97326 8.50015 3.95177 8.60578 3.95177 8.71679C3.95177 8.77766 3.95893 8.84927 3.97326 8.93163C3.98758 9.01041 4.00548 9.09634 4.02697 9.18944C4.05203 9.28254 4.07889 9.37922 4.10753 9.47948C4.13976 9.57616 4.17199 9.67105 4.20421 9.76415C4.0574 9.64241 3.90701 9.52782 3.75304 9.4204C3.60265 9.31298 3.47196 9.23957 3.36095 9.20019C3.2786 9.17154 3.18192 9.15722 3.07091 9.15722C2.96707 9.15722 2.86681 9.1787 2.77013 9.22167C2.67345 9.26106 2.58751 9.31835 2.51232 9.39355C2.43712 9.46516 2.37625 9.5511 2.3297 9.65136C2.28315 9.75162 2.25988 9.85904 2.25988 9.97362C2.25988 10.1383 2.30822 10.2923 2.4049 10.4355C2.50158 10.5788 2.63227 10.6808 2.79699 10.7417C2.81847 10.7489 2.84891 10.7578 2.8883 10.7685C2.92768 10.7793 2.98498 10.7918 3.06017 10.8061C3.13537 10.8169 3.23026 10.8276 3.34484 10.8384C3.463 10.8491 3.6116 10.8581 3.79064 10.8652C3.62951 10.9762 3.47554 11.0926 3.32873 11.2143C3.18192 11.3361 3.07449 11.4471 3.00646 11.5474C2.95275 11.619 2.91336 11.696 2.8883 11.7783C2.86323 11.8571 2.8507 11.9377 2.8507 12.02C2.8507 12.1239 2.87218 12.2241 2.91515 12.3208C2.95812 12.4175 3.01541 12.5034 3.08703 12.5786C3.16222 12.6538 3.24816 12.7147 3.34484 12.7612C3.4451 12.8078 3.55252 12.831 3.6671 12.831C3.79959 12.831 3.92492 12.8024 4.04308 12.7451C4.16125 12.6878 4.25972 12.6037 4.33849 12.4927C4.38146 12.4318 4.42264 12.3548 4.46203 12.2617C4.505 12.1686 4.54617 12.0666 4.58556 11.9556C4.62495 11.8446 4.66255 11.7318 4.69835 11.6172C4.73416 11.499 4.76818 11.3862 4.80041 11.2788C4.82547 11.3862 4.85591 11.499 4.89171 11.6172C4.92752 11.7318 4.96512 11.8446 5.00451 11.9556C5.0439 12.0666 5.08328 12.1686 5.12267 12.2617C5.16564 12.3548 5.20861 12.4318 5.25158 12.4927C5.33035 12.6037 5.42882 12.6878 5.54699 12.7451C5.66515 12.8024 5.79048 12.831 5.92296 12.831C6.03039 12.831 6.13244 12.8096 6.22912 12.7666C6.32938 12.7236 6.41531 12.6663 6.48693 12.5947C6.56212 12.5231 6.62121 12.439 6.66418 12.3423C6.71072 12.242 6.734 12.1346 6.734 12.02C6.734 11.9377 6.72147 11.8571 6.6964 11.7783C6.67492 11.696 6.63732 11.619 6.58361 11.5474C6.51557 11.4471 6.40815 11.3361 6.26134 11.2143C6.11453 11.0926 5.96056 10.9762 5.79943 10.8652C5.96772 10.8581 6.10737 10.8491 6.21837 10.8384C6.33296 10.8276 6.42606 10.8169 6.49767 10.8061C6.56929 10.7918 6.623 10.7793 6.6588 10.7685C6.69819 10.7578 6.72684 10.7489 6.74474 10.7417C6.91304 10.6808 7.04373 10.5788 7.13683 10.4355ZM13.0236 10.4355C13.1166 10.2923 13.1632 10.1383 13.1632 9.97362C13.1632 9.8662 13.1417 9.76415 13.0987 9.66747C13.0594 9.56721 13.0039 9.47948 12.9322 9.40429C12.8606 9.32909 12.7747 9.27001 12.6744 9.22704C12.5742 9.18049 12.465 9.15722 12.3468 9.15722C12.2967 9.15722 12.2483 9.1608 12.2018 9.16796C12.1588 9.17154 12.1123 9.18228 12.0621 9.20019C11.9511 9.24674 11.8186 9.32372 11.6647 9.43114C11.5143 9.53856 11.3639 9.65315 11.2135 9.77489C11.2457 9.67821 11.2762 9.57974 11.3048 9.47948C11.337 9.37922 11.3639 9.28254 11.3854 9.18944C11.4104 9.09634 11.4301 9.01041 11.4444 8.93163C11.4588 8.84927 11.4659 8.77766 11.4659 8.71679C11.4659 8.60578 11.4444 8.50015 11.4015 8.39989C11.3585 8.29963 11.3012 8.2119 11.2296 8.13671C11.158 8.06151 11.0721 8.00243 10.9718 7.95946C10.8715 7.91649 10.7659 7.89501 10.6549 7.89501C10.5403 7.89501 10.4329 7.91649 10.3326 7.95946C10.236 8.00243 10.15 8.06151 10.0748 8.13671C10.0032 8.2119 9.94591 8.29963 9.90294 8.39989C9.85998 8.50015 9.83849 8.60578 9.83849 8.71679C9.83849 8.77766 9.84565 8.84927 9.85998 8.93163C9.8743 9.01041 9.8922 9.09634 9.91369 9.18944C9.93875 9.28254 9.96561 9.37922 9.99425 9.47948C10.0265 9.57616 10.0587 9.67105 10.0909 9.76415C9.94412 9.64241 9.79373 9.52782 9.63976 9.4204C9.48937 9.31298 9.35867 9.23957 9.24767 9.20019C9.16531 9.17154 9.06863 9.15722 8.95763 9.15722C8.85379 9.15722 8.75353 9.1787 8.65685 9.22167C8.56017 9.26106 8.47423 9.31835 8.39904 9.39355C8.32384 9.46516 8.26297 9.5511 8.21642 9.65136C8.16987 9.75162 8.1466 9.85904 8.1466 9.97362C8.1466 10.1383 8.19494 10.2923 8.29162 10.4355C8.3883 10.5788 8.51899 10.6808 8.68371 10.7417C8.70519 10.7489 8.73563 10.7578 8.77501 10.7685C8.8144 10.7793 8.87169 10.7918 8.94689 10.8061C9.02209 10.8169 9.11697 10.8276 9.23156 10.8384C9.34972 10.8491 9.49832 10.8581 9.67736 10.8652C9.51623 10.9762 9.36225 11.0926 9.21544 11.2143C9.06863 11.3361 8.96121 11.4471 8.89318 11.5474C8.83947 11.619 8.80008 11.696 8.77501 11.7783C8.74995 11.8571 8.73742 11.9377 8.73742 12.02C8.73742 12.1239 8.7589 12.2241 8.80187 12.3208C8.84484 12.4175 8.90213 12.5034 8.97375 12.5786C9.04894 12.6538 9.13488 12.7147 9.23156 12.7612C9.33182 12.8078 9.43924 12.831 9.55382 12.831C9.68631 12.831 9.81164 12.8024 9.9298 12.7451C10.048 12.6878 10.1464 12.6037 10.2252 12.4927C10.2682 12.4318 10.3094 12.3548 10.3487 12.2617C10.3917 12.1686 10.4329 12.0666 10.4723 11.9556C10.5117 11.8446 10.5493 11.7318 10.5851 11.6172C10.6209 11.499 10.6549 11.3862 10.6871 11.2788C10.7122 11.3862 10.7426 11.499 10.7784 11.6172C10.8142 11.7318 10.8518 11.8446 10.8912 11.9556C10.9306 12.0666 10.97 12.1686 11.0094 12.2617C11.0524 12.3548 11.0953 12.4318 11.1383 12.4927C11.2171 12.6037 11.3155 12.6878 11.4337 12.7451C11.5519 12.8024 11.6772 12.831 11.8097 12.831C11.9171 12.831 12.0192 12.8096 12.1158 12.7666C12.2161 12.7236 12.302 12.6663 12.3736 12.5947C12.4488 12.5231 12.5079 12.439 12.5509 12.3423C12.5974 12.242 12.6207 12.1346 12.6207 12.02C12.6207 11.9377 12.6082 11.8571 12.5831 11.7783C12.5616 11.696 12.524 11.619 12.4703 11.5474C12.4023 11.4471 12.2949 11.3361 12.1481 11.2143C12.0013 11.0926 11.8473 10.9762 11.6861 10.8652C11.8544 10.8581 11.9941 10.8491 12.1051 10.8384C12.2197 10.8276 12.3128 10.8169 12.3844 10.8061C12.456 10.7918 12.5097 10.7793 12.5455 10.7685C12.5849 10.7578 12.6136 10.7489 12.6315 10.7417C12.7998 10.6808 12.9305 10.5788 13.0236 10.4355ZM18.9103 10.4355C19.0034 10.2923 19.0499 10.1383 19.0499 9.97362C19.0499 9.8662 19.0284 9.76415 18.9855 9.66747C18.9461 9.56721 18.8906 9.47948 18.819 9.40429C18.7473 9.32909 18.6614 9.27001 18.5611 9.22704C18.4609 9.18049 18.3517 9.15722 18.2335 9.15722C18.1834 9.15722 18.135 9.1608 18.0885 9.16796C18.0455 9.17154 17.999 9.18228 17.9488 9.20019C17.8378 9.24674 17.7054 9.32372 17.5514 9.43114C17.401 9.53856 17.2506 9.65315 17.1002 9.77489C17.1324 9.67821 17.1629 9.57974 17.1915 9.47948C17.2237 9.37922 17.2506 9.28254 17.2721 9.18944C17.2971 9.09634 17.3168 9.01041 17.3312 8.93163C17.3455 8.84927 17.3527 8.77766 17.3527 8.71679C17.3527 8.60578 17.3312 8.50015 17.2882 8.39989C17.2452 8.29963 17.1879 8.2119 17.1163 8.13671C17.0447 8.06151 16.9588 8.00243 16.8585 7.95946C16.7583 7.91649 16.6526 7.89501 16.5416 7.89501C16.427 7.89501 16.3196 7.91649 16.2194 7.95946C16.1227 8.00243 16.0367 8.06151 15.9615 8.13671C15.8899 8.2119 15.8326 8.29963 15.7897 8.39989C15.7467 8.50015 15.7252 8.60578 15.7252 8.71679C15.7252 8.77766 15.7324 8.84927 15.7467 8.93163C15.761 9.01041 15.7789 9.09634 15.8004 9.18944C15.8255 9.28254 15.8523 9.37922 15.881 9.47948C15.9132 9.57616 15.9454 9.67105 15.9777 9.76415C15.8308 9.64241 15.6805 9.52782 15.5265 9.4204C15.3761 9.31298 15.2454 9.23957 15.1344 9.20019C15.052 9.17154 14.9554 9.15722 14.8444 9.15722C14.7405 9.15722 14.6402 9.1787 14.5436 9.22167C14.4469 9.26106 14.361 9.31835 14.2858 9.39355C14.2106 9.46516 14.1497 9.5511 14.1031 9.65136C14.0566 9.75162 14.0333 9.85904 14.0333 9.97362C14.0333 10.1383 14.0817 10.2923 14.1783 10.4355C14.275 10.5788 14.4057 10.6808 14.5704 10.7417C14.5919 10.7489 14.6223 10.7578 14.6617 10.7685C14.7011 10.7793 14.7584 10.7918 14.8336 10.8061C14.9088 10.8169 15.0037 10.8276 15.1183 10.8384C15.2364 10.8491 15.385 10.8581 15.5641 10.8652C15.4029 10.9762 15.249 11.0926 15.1022 11.2143C14.9554 11.3361 14.8479 11.4471 14.7799 11.5474C14.7262 11.619 14.6868 11.696 14.6617 11.7783C14.6367 11.8571 14.6241 11.9377 14.6241 12.02C14.6241 12.1239 14.6456 12.2241 14.6886 12.3208C14.7316 12.4175 14.7888 12.5034 14.8605 12.5786C14.9357 12.6538 15.0216 12.7147 15.1183 12.7612C15.2185 12.8078 15.326 12.831 15.4405 12.831C15.573 12.831 15.6984 12.8024 15.8165 12.7451C15.9347 12.6878 16.0332 12.6037 16.1119 12.4927C16.1549 12.4318 16.1961 12.3548 16.2355 12.2617C16.2784 12.1686 16.3196 12.0666 16.359 11.9556C16.3984 11.8446 16.436 11.7318 16.4718 11.6172C16.5076 11.499 16.5416 11.3862 16.5738 11.2788C16.5989 11.3862 16.6293 11.499 16.6652 11.6172C16.701 11.7318 16.7386 11.8446 16.7779 11.9556C16.8173 12.0666 16.8567 12.1686 16.8961 12.2617C16.9391 12.3548 16.982 12.4318 17.025 12.4927C17.1038 12.6037 17.2023 12.6878 17.3204 12.7451C17.4386 12.8024 17.5639 12.831 17.6964 12.831C17.8038 12.831 17.9059 12.8096 18.0026 12.7666C18.1028 12.7236 18.1888 12.6663 18.2604 12.5947C18.3356 12.5231 18.3946 12.439 18.4376 12.3423C18.4842 12.242 18.5074 12.1346 18.5074 12.02C18.5074 11.9377 18.4949 11.8571 18.4698 11.7783C18.4484 11.696 18.4108 11.619 18.357 11.5474C18.289 11.4471 18.1816 11.3361 18.0348 11.2143C17.888 11.0926 17.734 10.9762 17.5729 10.8652C17.7412 10.8581 17.8808 10.8491 17.9918 10.8384C18.1064 10.8276 18.1995 10.8169 18.2711 10.8061C18.3427 10.7918 18.3964 10.7793 18.4322 10.7685C18.4716 10.7578 18.5003 10.7489 18.5182 10.7417C18.6865 10.6808 18.8172 10.5788 18.9103 10.4355Z" fill="#555555"/>
<path d="M24.0884 4.72242C24.5746 2.7362 26.4102 1.47894 28.1883 1.91425C29.9664 2.34955 31.0136 4.31258 30.5273 6.2988C30.4845 6.47353 30.4313 6.64261 30.3686 6.8054L31.4834 7.03778C31.7446 7.09224 31.9859 7.18972 32.2014 7.32126C32.2649 7.13997 32.3204 6.9537 32.3671 6.76285C33.0957 3.78682 31.4303 0.821948 28.6474 0.140626C25.8644 -0.540696 23.0178 1.31954 22.2892 4.29557L22.1194 5.08582L23.9758 5.47278C23.9898 5.22507 24.0268 4.97393 24.0884 4.72242Z" fill="#555555"/>
<path d="M28.3203 19.0424L19.5895 17.2225C19.0554 17.1111 18.3124 16.7448 18.1103 16.2798C17.928 17.154 18.489 18.0104 19.3631 18.1926L28.094 20.0126C29.6675 20.3406 31.2089 19.3309 31.5369 17.7574L31.6641 17.1472C31.193 18.5111 29.7702 19.3447 28.3203 19.0424Z" fill="#555555"/>
</svg>
