<svg width="21" height="17" viewBox="0 0 21 17" fill="none" xmlns="http://www.w3.org/2000/svg">
<path fill-rule="evenodd" clip-rule="evenodd" d="M5.63908 7.34434L5.853 7.78955L6.11659 6.19709C6.11659 6.19709 6.02763 5.39631 6.11659 4.8989C6.15975 4.65756 6.20868 4.51359 6.27926 4.30593C6.28996 4.27445 6.30116 4.2415 6.31291 4.20653C6.33234 4.14868 6.34757 4.09675 6.36188 4.04793C6.39854 3.92291 6.4292 3.81835 6.50922 3.68726C6.61815 3.50879 6.86258 3.2978 6.86258 3.2978L7.09816 3.12499C7.09816 3.12499 7.3607 3.08404 7.53005 3.08143C7.68617 3.07903 7.78852 3.09245 7.92054 3.10977C7.95757 3.11462 7.99693 3.11979 8.04047 3.12499C8.12821 3.13548 8.19967 3.15172 8.26818 3.1673C8.368 3.18998 8.46157 3.21125 8.59014 3.21125C8.71871 3.21125 8.81229 3.18998 8.9121 3.1673C8.98062 3.15172 9.05208 3.13548 9.13982 3.12499C9.18336 3.11979 9.22272 3.11462 9.25974 3.10977C9.39177 3.09245 9.49412 3.07903 9.65024 3.08143C9.81959 3.08404 10.0821 3.12499 10.0821 3.12499C10.0821 3.12499 10.2879 3.20522 10.3962 3.2978C10.508 3.39326 10.6318 3.60071 10.6318 3.60071C10.6318 3.60071 10.8218 3.82172 10.9066 3.99017C10.9938 4.16309 11.0255 4.2729 11.0637 4.46617C11.0873 4.58571 11.0919 4.66548 11.0979 4.77065C11.0994 4.79703 11.101 4.82502 11.103 4.85563C11.1218 5.14216 11.103 5.59127 11.103 5.59127L11.0637 6.19709L11.2376 7.80553L11.4625 7.3622C11.6995 7.17024 11.8994 6.81767 11.9871 6.38618C12.0977 5.84131 11.9978 5.3261 11.7606 5.06063C11.7606 5.06063 11.9242 4.3042 11.8882 3.81708C11.8587 3.41828 11.8147 3.18759 11.6675 2.8218C11.5661 2.56974 11.4987 2.42782 11.3385 2.21598C11.3307 2.20562 11.323 2.19544 11.3155 2.18546C11.176 2.00044 11.0844 1.879 10.8816 1.76718C10.7267 1.68176 10.4545 1.6351 10.4545 1.6351C10.4254 1.61185 10.3959 1.5891 10.3661 1.56688L10.2392 1.30725C10.2392 1.30725 10.1171 1.07473 10.0036 0.961062C9.86143 0.818641 9.75278 0.772206 9.57171 0.701424C9.32952 0.606753 9.16815 0.609595 8.9254 0.613868C8.90581 0.614213 8.8857 0.614566 8.86498 0.614879C8.61776 0.618612 8.47773 0.640411 8.23677 0.701424C8.08076 0.740929 7.99425 0.76994 7.84415 0.831244C7.58695 0.936282 7.21594 1.17743 7.21594 1.17743L6.50732 1.76718C5.70787 2.49131 5.23768 3.62272 5.33062 4.8232C5.06834 5.05181 4.90592 5.53714 4.94063 6.08437C4.98128 6.72502 5.27878 7.2402 5.63908 7.34434Z" fill="#898989"/>
<path d="M16.7877 5.9822C16.7061 6.3835 16.5202 6.7114 16.2998 6.88993L16.0907 7.30225L15.9289 5.80634L15.9654 5.2429C15.9654 5.2429 15.9829 4.82522 15.9654 4.55873C15.9635 4.53026 15.9621 4.50424 15.9607 4.4797C15.9551 4.38189 15.9509 4.3077 15.9289 4.19652C15.8934 4.01678 15.8639 3.91465 15.7828 3.75383C15.7039 3.59717 15.5272 3.39162 15.5272 3.39162C15.5272 3.39162 15.412 3.19868 15.3081 3.1099C15.2074 3.0238 15.016 2.94918 15.016 2.94918C15.016 2.94918 14.7718 2.9111 14.6143 2.90867C14.4691 2.90644 14.374 2.91892 14.2512 2.93503C14.2167 2.93954 14.1801 2.94434 14.1396 2.94918C14.058 2.95894 13.9916 2.97405 13.9278 2.98853C13.835 3.00963 13.748 3.02941 13.6284 3.02941C13.5088 3.02941 13.4218 3.00963 13.329 2.98853C13.2653 2.97405 13.1988 2.95894 13.1172 2.94918C13.0767 2.94434 13.0401 2.93954 13.0057 2.93502C12.8829 2.91892 13.0798 2.98629 12.9346 2.98853C12.9346 2.98853 12.9895 2.62507 12.9346 2.40227C12.8644 2.11722 12.7389 1.9638 12.6425 1.68637C12.5629 1.45741 12.252 1.25862 12.252 1.25862C12.252 1.25862 12.6954 0.913611 12.9346 0.815921C13.0742 0.758907 13.1547 0.731926 13.2998 0.695185C13.5239 0.638441 13.6541 0.618166 13.884 0.614695L13.9402 0.613754C14.166 0.60978 14.3161 0.607137 14.5413 0.695185C14.7097 0.761014 14.8108 0.804201 14.943 0.936656C15.0485 1.04237 15.1621 1.25862 15.1621 1.25862L15.2801 1.50009C15.3079 1.52075 15.3353 1.54191 15.3623 1.56354C15.3623 1.56354 15.6154 1.60693 15.7595 1.68637C15.9482 1.79037 16.0333 1.90331 16.1631 2.07538L16.1845 2.10377C16.3334 2.30079 16.3962 2.43278 16.4905 2.66721C16.6273 3.0074 16.6683 3.22196 16.6957 3.59285C16.7292 4.04589 16.5771 4.74939 16.5771 4.74939C16.7976 4.99629 16.8906 5.47545 16.7877 5.9822Z" fill="#898989"/>
<path d="M15.4907 9.91136H15.6368L15.8194 10.1126C15.8194 10.1126 16.2129 10.3723 16.5132 10.5523C16.5382 10.5673 16.5627 10.5818 16.5862 10.5955L17.1704 10.9175C17.3793 11.0292 17.5382 11.1081 17.7042 11.1906C17.8302 11.2531 17.9604 11.3178 18.1198 11.4004C18.2277 11.4564 18.3214 11.5014 18.4096 11.5439C18.5906 11.631 18.7488 11.7072 18.9597 11.8431C19.0203 11.8822 19.0762 11.914 19.1287 11.9439C19.2685 12.0235 19.3852 12.0899 19.5074 12.2456C19.6072 12.3726 19.6476 12.466 19.7091 12.6079L19.7265 12.648C19.8241 12.8721 19.9091 13.2517 19.9091 13.2517L20.0238 14.4907C20.0601 14.883 19.771 15.2226 19.4025 15.2204L16.4905 15.2028L16.2998 13.8736L16.0907 12.8535L15.6368 12.2456L14.2512 11.4004L14.8699 10.551L15.4907 9.91136Z" fill="#898989"/>
<path d="M9.52826 16.2876L8.9435 13.1208H7.64783L7.04174 16.2727L9.52826 16.2876Z" fill="#898989"/>
<path d="M8.9435 13.1208L9.25761 11.9864H7.45152L7.64783 13.1208H8.9435Z" fill="#898989"/>
<path d="M4.82092 11.3466L4.56452 10.8041L4.54766 10.8121L4.53133 10.8211L4.82092 11.3466ZM5.6847 10.8273L5.3001 10.3668L5.6847 10.8273ZM5.92027 10.6109V10.0109H5.67615L5.50137 10.1814L5.92027 10.6109ZM6.15585 10.6109L6.59259 10.1995L6.41494 10.0109H6.15585V10.6109ZM10.5925 10.6109V10.0109H10.3387L10.162 10.1931L10.5925 10.6109ZM10.7496 10.6109L11.1939 10.2078L11.0154 10.0109H10.7496V10.6109ZM10.9459 10.8273L10.5015 11.2305L10.5523 11.2864L10.6154 11.3281L10.9459 10.8273ZM11.7704 11.3466L11.4679 11.8647L11.4743 11.8685L11.4808 11.8721L11.7704 11.3466ZM12.3986 11.6928L12.109 12.2183L12.1157 12.2219L12.3986 11.6928ZM13.4195 12.212L13.6956 11.6794V11.6794L13.4195 12.212ZM14.3225 12.688L13.9974 13.1923L13.9974 13.1923L14.3225 12.688ZM14.9114 13.1208L15.3833 12.7502V12.7502L14.9114 13.1208ZM15.3433 14.2026L15.9408 14.1473L15.9372 14.109L15.9288 14.0715L15.3433 14.2026ZM1.28727 14.3757L1.86841 14.5249L1.28727 14.3757ZM1.64064 13.2939L1.1759 12.9144L1.11315 12.9912L1.07848 13.0841L1.64064 13.2939ZM1.994 12.8611L1.70442 12.3356L1.60271 12.3917L1.52927 12.4816L1.994 12.8611ZM3.95714 11.7793L3.7151 11.2303L3.69081 11.241L3.66755 11.2538L3.95714 11.7793ZM4.34976 11.6062L4.5918 12.1552L4.61609 12.1445L4.63935 12.1317L4.34976 11.6062ZM11.6919 11.3001L12.0003 10.7854L11.6919 11.3001ZM12.9726 11.9864L13.2395 11.449L13.2395 11.449L12.9726 11.9864ZM13.7311 12.3663L13.4708 12.907H13.4708L13.7311 12.3663ZM14.5042 12.7964L14.2074 13.3178L14.2074 13.3178L14.5042 12.7964ZM15.1283 13.5103L14.5777 13.7489L14.5777 13.7489L15.1283 13.5103ZM4.94063 6.08437L4.34184 6.12236L4.94063 6.08437ZM11.9871 6.38618L12.5751 6.50563L11.9871 6.38618ZM8.65834 10.3854L8.71413 10.9828H8.71414L8.65834 10.3854ZM8.81818 10.3705L8.76239 9.77309H8.76239L8.81818 10.3705ZM5.63908 7.34434L6.17989 7.08449L6.06361 6.84248L5.80568 6.76793L5.63908 7.34434ZM11.4625 7.3622L11.0848 6.89598L10.9853 6.97658L10.9274 7.09076L11.4625 7.3622ZM6.50732 1.76718L6.12351 1.306L6.11384 1.31404L6.10452 1.32248L6.50732 1.76718ZM7.21594 1.17743L6.88896 0.674354L6.85931 0.693626L6.83213 0.716247L7.21594 1.17743ZM7.84415 0.831244L8.071 1.38671V1.38671L7.84415 0.831244ZM8.23677 0.701424L8.0895 0.119781L8.23677 0.701424ZM8.86498 0.614879L8.87404 1.21481L8.87404 1.21481L8.86498 0.614879ZM9.57171 0.701424L9.79015 0.142603L9.79015 0.142603L9.57171 0.701424ZM10.0036 0.961062L9.57896 1.38496L10.0036 0.961062ZM10.2392 1.30725L10.7782 1.04375L10.7744 1.03596L10.7704 1.02828L10.2392 1.30725ZM10.3661 1.56688L9.82704 1.83038L9.89099 1.96119L10.0078 2.04814L10.3661 1.56688ZM10.4545 1.6351L10.0798 2.10375L10.2007 2.20034L10.3531 2.22648L10.4545 1.6351ZM10.8816 1.76718L10.5919 2.29261V2.29261L10.8816 1.76718ZM11.3385 2.21598L10.8599 2.57777L10.8599 2.57778L11.3385 2.21598ZM11.6675 2.8218L11.1109 3.04571L11.6675 2.8218ZM11.8882 3.81708L12.4866 3.77285L11.8882 3.81708ZM11.7606 5.06063L11.1742 4.9338L11.1096 5.23246L11.3132 5.46034L11.7606 5.06063ZM11.0637 6.19709L10.465 6.15829L10.4616 6.21003L10.4672 6.26159L11.0637 6.19709ZM6.11659 6.19709L6.70854 6.29507L6.72208 6.21326L6.71292 6.13085L6.11659 6.19709ZM6.11659 4.8989L6.70722 5.00453V5.00453L6.11659 4.8989ZM6.31291 4.20653L5.74415 4.01543L5.74415 4.01543L6.31291 4.20653ZM6.50922 3.68726L5.99708 3.37466L5.99708 3.37466L6.50922 3.68726ZM6.86258 3.2978L6.5077 2.81401L6.48852 2.82807L6.47053 2.84361L6.86258 3.2978ZM7.09816 3.12499L7.00569 2.53216L6.86119 2.5547L6.74327 2.6412L7.09816 3.12499ZM7.53005 3.08143L7.53929 3.68136H7.53929L7.53005 3.08143ZM8.04047 3.12499L8.11169 2.52923L8.11169 2.52923L8.04047 3.12499ZM9.13982 3.12499L9.06859 2.52923L9.06859 2.52923L9.13982 3.12499ZM9.65024 3.08143L9.641 3.68136H9.641L9.65024 3.08143ZM10.0821 3.12499L10.3001 2.56598L10.2392 2.54223L10.1746 2.53216L10.0821 3.12499ZM10.3962 3.2978L10.786 2.84164L10.3962 3.2978ZM10.6318 3.60071L10.1166 3.90828L10.1431 3.95263L10.1768 3.9918L10.6318 3.60071ZM10.9066 3.99017L11.4425 3.72016H11.4425L10.9066 3.99017ZM11.0637 4.46617L11.6523 4.34985L11.6523 4.34985L11.0637 4.46617ZM11.103 4.85563L11.7017 4.81633V4.81632L11.103 4.85563ZM11.103 5.59127L11.7019 5.63008L11.7024 5.61637L11.103 5.59127ZM5.33062 4.8232L5.72486 5.2755L5.9521 5.07743L5.92883 4.77688L5.33062 4.8232ZM10.7921 8.78658L10.2312 8.57358L10.7921 8.78658ZM11.0127 8.24887L11.5478 8.52031L11.5478 8.52031L11.0127 8.24887ZM6.26998 8.75696L5.7054 8.96007L6.26998 8.75696ZM6.06691 8.23476L5.5261 8.49461L5.5261 8.49461L6.06691 8.23476ZM14.7987 16.3193L14.8023 15.7193H14.8023L14.7987 16.3193ZM15.4666 15.5348L14.8692 15.5901V15.5901L15.4666 15.5348ZM1.09463 15.4677L1.68977 15.5439L1.09463 15.4677ZM1.73585 16.2408L1.73224 16.8408H1.73224L1.73585 16.2408ZM6.27926 4.30593L5.71117 4.11286V4.11286L6.27926 4.30593ZM6.36188 4.04793L5.78613 3.87911L5.78612 3.87911L6.36188 4.04793ZM7.92054 3.10977L7.99856 2.51486L7.99856 2.51486L7.92054 3.10977ZM8.26818 3.1673L8.40117 2.58222L8.40117 2.58222L8.26818 3.1673ZM8.9121 3.1673L8.77912 2.58222L8.77911 2.58222L8.9121 3.1673ZM9.25974 3.10977L9.33777 3.70467L9.33777 3.70467L9.25974 3.10977ZM11.0979 4.77065L11.6969 4.73654L11.6969 4.73652L11.0979 4.77065ZM11.3155 2.18546L11.7946 1.82423L11.7946 1.8242L11.3155 2.18546ZM8.9254 0.613868L8.91484 0.0139605L8.91483 0.0139607L8.9254 0.613868ZM9.52826 16.2876L9.52465 16.8876H9.52465L9.52826 16.2876ZM15.4907 9.91136V9.31136H15.2369L15.0602 9.49348L15.4907 9.91136ZM15.6368 9.91136L16.0811 9.50819L15.9025 9.31136H15.6368V9.91136ZM15.8194 10.1126L15.375 10.5158L15.4258 10.5717L15.4888 10.6134L15.8194 10.1126ZM16.5862 10.5955L16.2836 11.1137L16.2901 11.1174L16.2966 11.121L16.5862 10.5955ZM17.1704 10.9175L16.8808 11.443L16.8876 11.4466L17.1704 10.9175ZM18.1198 11.4004L18.396 10.8678L18.1198 11.4004ZM18.9597 11.8431L18.6346 12.3474L18.6346 12.3474L18.9597 11.8431ZM19.5074 12.2456L19.9793 11.875L19.5074 12.2456ZM19.9091 13.2517L20.5066 13.1964L20.503 13.1582L20.4946 13.1207L19.9091 13.2517ZM16.5132 10.5523L16.8216 10.0376L16.5132 10.5523ZM17.7042 11.1906L17.9711 10.6532V10.6532L17.7042 11.1906ZM18.4096 11.5439L18.1494 12.0846L18.4096 11.5439ZM19.1287 11.9439L18.8319 12.4654L18.8319 12.4654L19.1287 11.9439ZM19.7091 12.6079L19.1585 12.8464L19.1585 12.8464L19.7091 12.6079ZM16.7877 5.9822L17.3757 6.10165L16.7877 5.9822ZM13.8405 9.68774L13.7847 9.09034H13.7847L13.8405 9.68774ZM16.2998 6.88993L15.9221 6.42371L15.8226 6.50431L15.7647 6.61849L16.2998 6.88993ZM12.252 1.25862L11.8835 0.78506C11.7297 0.904726 11.6436 1.09164 11.6526 1.28631C11.6616 1.48098 11.7646 1.65916 11.9288 1.76413L12.252 1.25862ZM12.9346 0.815921L13.1615 1.37138V1.37138L12.9346 0.815921ZM13.2998 0.695185L13.1525 0.113541L13.2998 0.695185ZM13.884 0.614695L13.8931 1.21463L13.8931 1.21463L13.884 0.614695ZM14.5413 0.695185L14.7597 0.136363L14.7597 0.136363L14.5413 0.695185ZM14.943 0.936656L14.5183 1.36055V1.36055L14.943 0.936656ZM15.1621 1.25862L15.7011 0.995124L15.6973 0.987331L15.6933 0.979651L15.1621 1.25862ZM15.2801 1.50009L14.7411 1.76359L14.805 1.8944L14.9218 1.98135L15.2801 1.50009ZM15.3623 1.56354L14.9877 2.03219L15.1085 2.12878L15.2609 2.15491L15.3623 1.56354ZM15.7595 1.68637L15.4698 2.2118L15.4698 2.2118L15.7595 1.68637ZM16.1845 2.10377L15.7059 2.46556L15.7059 2.46557L16.1845 2.10377ZM16.4905 2.66721L15.9338 2.89111L16.4905 2.66721ZM16.6957 3.59285L17.2941 3.54862L16.6957 3.59285ZM16.5771 4.74939L15.9906 4.62256L15.926 4.92122L16.1296 5.1491L16.5771 4.74939ZM15.9289 5.80634L15.3302 5.76754L15.3268 5.81928L15.3324 5.87084L15.9289 5.80634ZM12.9346 2.98853L12.3413 2.89895L12.2356 3.59937L12.9439 3.58846L12.9346 2.98853ZM13.1172 2.94918L13.1884 2.35343L13.1884 2.35343L13.1172 2.94918ZM14.1396 2.94918L14.0684 2.35343H14.0684L14.1396 2.94918ZM14.6143 2.90867L14.6051 3.5086H14.6051L14.6143 2.90867ZM15.016 2.94918L15.234 2.39018L15.1731 2.36643L15.1085 2.35635L15.016 2.94918ZM15.3081 3.1099L15.6979 2.65374L15.3081 3.1099ZM15.5272 3.39162L15.0121 3.69919L15.0385 3.74354L15.0722 3.78271L15.5272 3.39162ZM15.7828 3.75383L16.3187 3.48382L15.7828 3.75383ZM15.9289 4.19652L16.5175 4.08021L16.5175 4.0802L15.9289 4.19652ZM15.9654 4.55873L16.5641 4.51943V4.51943L15.9654 4.55873ZM15.9654 5.2429L16.5643 5.28172L16.5649 5.26801L15.9654 5.2429ZM15.6764 8.21465L15.1154 8.00165L15.6764 8.21465ZM15.8815 7.71457L16.4166 7.986L16.4166 7.986L15.8815 7.71457ZM19.4025 15.2204L19.4062 14.6204L19.4025 15.2204ZM20.0238 14.4907L19.4263 14.546V14.546L20.0238 14.4907ZM13.0057 2.93502L13.0837 2.34012L13.0837 2.34012L13.0057 2.93502ZM13.329 2.98853L13.462 2.40345L13.462 2.40345L13.329 2.98853ZM13.9278 2.98853L13.7949 2.40345L13.7949 2.40345L13.9278 2.98853ZM14.2512 2.93503L14.3292 3.52993L14.3292 3.52993L14.2512 2.93503ZM15.9607 4.4797L16.5597 4.44559L16.5597 4.44557L15.9607 4.4797ZM12.6425 1.68637L13.2092 1.48933L12.6425 1.68637ZM12.9346 2.40227L13.5172 2.25877L12.9346 2.40227ZM16.4905 15.2028L15.8966 15.288L15.97 15.7997L16.4869 15.8028L16.4905 15.2028ZM14.8699 10.551L14.4394 10.1331L14.4099 10.1635L14.385 10.1977L14.8699 10.551ZM12.9657 9.12709C12.6561 9.00907 12.3094 9.1644 12.1914 9.47404C12.0734 9.78368 12.2287 10.1304 12.5383 10.2484L12.9657 9.12709ZM14.2512 11.4004L13.7662 11.0472L13.3828 11.5736L13.9387 11.9127L14.2512 11.4004ZM15.6368 12.2456L16.1175 11.8866L16.0482 11.7937L15.9492 11.7334L15.6368 12.2456ZM16.0907 12.8535L16.6784 12.733L16.6515 12.6018L16.5714 12.4945L16.0907 12.8535ZM16.2998 13.8736L16.8937 13.7884L16.8912 13.7706L16.8876 13.7531L16.2998 13.8736ZM13.5444 9.72451L13.6214 10.3196L13.5444 9.72451ZM4.82092 11.3466C5.07731 11.889 5.07735 11.889 5.0774 11.889C5.07742 11.889 5.07747 11.889 5.07751 11.8889C5.07758 11.8889 5.07766 11.8889 5.07776 11.8888C5.07794 11.8887 5.07816 11.8886 5.07841 11.8885C5.07891 11.8883 5.07955 11.888 5.08032 11.8876C5.08187 11.8869 5.08394 11.8859 5.08652 11.8846C5.09168 11.8822 5.09887 11.8787 5.10788 11.8743C5.1259 11.8656 5.15129 11.8531 5.18245 11.8374C5.24455 11.8062 5.33062 11.7617 5.42741 11.7084C5.61174 11.6069 5.8698 11.4544 6.06929 11.2878L5.3001 10.3668C5.19334 10.4559 5.0195 10.5631 4.8485 10.6573C4.76763 10.7018 4.69518 10.7392 4.64318 10.7654C4.61728 10.7784 4.59673 10.7885 4.58306 10.7952C4.57623 10.7985 4.57114 10.8009 4.56798 10.8025C4.5664 10.8032 4.56531 10.8037 4.56472 10.804C4.56443 10.8042 4.56427 10.8042 4.56423 10.8043C4.56421 10.8043 4.56423 10.8043 4.56428 10.8042C4.5643 10.8042 4.56434 10.8042 4.56438 10.8042C4.5644 10.8042 4.56443 10.8042 4.56444 10.8042C4.56448 10.8041 4.56452 10.8041 4.82092 11.3466ZM6.06929 11.2878C6.13117 11.2362 6.20064 11.1721 6.24913 11.1265C6.2746 11.1026 6.29676 11.0814 6.31261 11.0662C6.32056 11.0585 6.32699 11.0523 6.33153 11.0479C6.3338 11.0457 6.3356 11.044 6.33689 11.0427C6.33754 11.0421 6.33805 11.0416 6.33843 11.0412C6.33863 11.041 6.33878 11.0409 6.33891 11.0408C6.33897 11.0407 6.33902 11.0406 6.33907 11.0406C6.33909 11.0406 6.33911 11.0406 6.33913 11.0405C6.33914 11.0405 6.33915 11.0405 6.33915 11.0405C6.33916 11.0405 6.33918 11.0405 5.92027 10.6109C5.50137 10.1814 5.50138 10.1814 5.50139 10.1814C5.50139 10.1814 5.5014 10.1813 5.5014 10.1813C5.50141 10.1813 5.50142 10.1813 5.50143 10.1813C5.50144 10.1813 5.50144 10.1813 5.50143 10.1813C5.50142 10.1813 5.50138 10.1814 5.5013 10.1814C5.50115 10.1816 5.50086 10.1819 5.50046 10.1823C5.49965 10.1831 5.49835 10.1843 5.4966 10.186C5.4931 10.1894 5.48784 10.1945 5.48116 10.2009C5.46776 10.2138 5.44892 10.2318 5.42742 10.252C5.38199 10.2947 5.33367 10.3387 5.3001 10.3668L6.06929 11.2878ZM5.92027 11.2109H6.15585V10.0109H5.92027V11.2109ZM10.5925 11.2109H10.7496V10.0109H10.5925V11.2109ZM10.3052 11.0141L10.5015 11.2305L11.3903 10.4241L11.1939 10.2078L10.3052 11.0141ZM14.597 13.7931C14.6311 13.8714 14.6709 13.9985 14.7056 14.1259C14.7218 14.1855 14.7351 14.2386 14.7444 14.2766C14.749 14.2955 14.7525 14.3105 14.7548 14.3204C14.7559 14.3254 14.7568 14.329 14.7573 14.3313C14.7575 14.3324 14.7577 14.3332 14.7578 14.3336C14.7579 14.3338 14.7579 14.3339 14.7579 14.3339C14.7579 14.3339 14.7579 14.3339 14.7579 14.3339C14.7579 14.3338 14.7579 14.3338 14.7578 14.3338C14.7578 14.3338 14.7578 14.3337 14.7578 14.3337C14.7578 14.3337 14.7578 14.3337 15.3433 14.2026C15.9288 14.0715 15.9288 14.0715 15.9288 14.0715C15.9288 14.0714 15.9288 14.0714 15.9288 14.0714C15.9288 14.0713 15.9288 14.0713 15.9288 14.0712C15.9287 14.071 15.9287 14.0709 15.9287 14.0707C15.9286 14.0703 15.9285 14.0698 15.9283 14.0692C15.9281 14.0681 15.9277 14.0665 15.9273 14.0646C15.9264 14.0608 15.9252 14.0554 15.9236 14.0488C15.9205 14.0354 15.9161 14.0166 15.9105 13.9935C15.8993 13.9474 15.8832 13.8834 15.8635 13.8108C15.8262 13.6739 15.7679 13.4764 15.6971 13.3139L14.597 13.7931ZM1.86841 14.5249C1.91764 14.3333 1.99944 14.0815 2.07292 13.868C2.10893 13.7633 2.14163 13.6716 2.1653 13.6061C2.17711 13.5734 2.18663 13.5474 2.19312 13.5297C2.19637 13.5209 2.19886 13.5142 2.2005 13.5097C2.20133 13.5075 2.20193 13.5059 2.20232 13.5048C2.20251 13.5043 2.20265 13.504 2.20273 13.5037C2.20277 13.5036 2.20279 13.5036 2.2028 13.5035C2.20281 13.5035 2.20281 13.5035 2.20281 13.5035C2.20281 13.5035 2.2028 13.5035 2.2028 13.5035C2.2028 13.5036 2.20279 13.5036 1.64064 13.2939C1.07848 13.0841 1.07847 13.0842 1.07846 13.0842C1.07846 13.0842 1.07845 13.0842 1.07844 13.0842C1.07842 13.0843 1.0784 13.0843 1.07838 13.0844C1.07833 13.0845 1.07827 13.0847 1.07819 13.0849C1.07804 13.0853 1.07782 13.0859 1.07755 13.0866C1.07701 13.0881 1.07625 13.0901 1.07527 13.0928C1.0733 13.0981 1.07048 13.1057 1.06688 13.1155C1.05969 13.1351 1.0494 13.1632 1.03676 13.1982C1.0115 13.2681 0.976663 13.3658 0.938204 13.4776C0.862741 13.6969 0.767863 13.9861 0.70613 14.2264L1.86841 14.5249ZM2.10537 13.6734L2.45873 13.2406L1.52927 12.4816L1.1759 12.9144L2.10537 13.6734ZM2.28358 13.3866L4.24672 12.3048L3.66755 11.2538L1.70442 12.3356L2.28358 13.3866ZM4.19917 12.3283L4.5918 12.1552L4.10772 11.0572L3.7151 11.2303L4.19917 12.3283ZM10.9459 10.8273C10.6154 11.3281 10.6154 11.3281 10.6154 11.3281C10.6154 11.3281 10.6154 11.3281 10.6154 11.3281C10.6155 11.3281 10.6155 11.3281 10.6155 11.3282C10.6156 11.3282 10.6157 11.3283 10.6158 11.3284C10.6161 11.3285 10.6164 11.3287 10.6169 11.329C10.6178 11.3296 10.6191 11.3305 10.6207 11.3316C10.6241 11.3338 10.629 11.337 10.6353 11.3412C10.6479 11.3494 10.6661 11.3614 10.689 11.3763C10.7346 11.4061 10.7988 11.4478 10.8732 11.4957C11.0211 11.5908 11.2138 11.7131 11.3834 11.8147L12.0003 10.7854C11.8471 10.6936 11.6669 10.5794 11.5224 10.4865C11.4508 10.4404 11.389 10.4002 11.3452 10.3716C11.3233 10.3573 11.3059 10.346 11.2941 10.3382C11.2882 10.3343 11.2837 10.3313 11.2807 10.3294C11.2792 10.3284 11.2781 10.3277 11.2774 10.3272C11.277 10.3269 11.2768 10.3268 11.2766 10.3267C11.2765 10.3266 11.2765 10.3266 11.2764 10.3265C11.2764 10.3265 11.2764 10.3265 11.2764 10.3265C11.2764 10.3265 11.2764 10.3265 11.2764 10.3265C11.2764 10.3265 11.2764 10.3265 10.9459 10.8273ZM11.3834 11.8147C11.4121 11.8319 11.4403 11.8486 11.4679 11.8647L12.073 10.8285C12.05 10.815 12.0257 10.8006 12.0003 10.7854L11.3834 11.8147ZM12.1157 12.2219C12.349 12.3466 12.5267 12.4349 12.7057 12.5237L13.2395 11.449C13.0613 11.3605 12.8975 11.2791 12.6815 11.1636L12.1157 12.2219ZM12.7057 12.5237C12.8411 12.591 12.977 12.6585 13.1433 12.7447L13.6956 11.6794C13.5191 11.5879 13.375 11.5163 13.2395 11.449L12.7057 12.5237ZM13.1433 12.7447C13.2681 12.8094 13.3762 12.8614 13.4708 12.907L13.9913 11.8257C13.8961 11.7799 13.8027 11.7349 13.6956 11.6794L13.1433 12.7447ZM13.4708 12.907C13.663 12.9994 13.8042 13.0678 13.9974 13.1923L14.6476 12.1837C14.3872 12.0159 14.1883 11.9205 13.9913 11.8257L13.4708 12.907ZM14.2074 13.3178C14.2876 13.3635 14.3245 13.3853 14.357 13.4095C14.3825 13.4284 14.408 13.4512 14.4396 13.4913L15.3833 12.7502C15.1742 12.4839 14.9584 12.3645 14.801 12.2749L14.2074 13.3178ZM14.4396 13.4913C14.4953 13.5623 14.5135 13.6005 14.5777 13.7489L15.6788 13.2718C15.6109 13.1151 15.5421 12.9523 15.3833 12.7502L14.4396 13.4913ZM14.5777 13.7489C14.5837 13.7627 14.5902 13.7776 14.597 13.7932L15.6971 13.3138C15.6909 13.2996 15.6849 13.2858 15.6788 13.2718L14.5777 13.7489ZM4.63935 12.1317L5.1105 11.8721L4.53133 10.8211L4.06018 11.0807L4.63935 12.1317ZM11.4808 11.8721L12.109 12.2183L12.6882 11.1673L12.06 10.8211L11.4808 11.8721ZM9.52175 13.2809L9.83585 12.1465L8.67936 11.8263L8.36526 12.9607L9.52175 13.2809ZM9.25761 11.3864H7.45152V12.5864H9.25761V11.3864ZM6.86031 12.0887L7.05662 13.2231L8.23905 13.0185L8.04273 11.884L6.86031 12.0887ZM8.76239 9.77309L8.60254 9.78802L8.71414 10.9828L8.87398 10.9679L8.76239 9.77309ZM8.60254 9.78802C7.8656 9.85685 7.13309 9.38372 6.83456 8.55386L5.7054 8.96007C6.16455 10.2364 7.36275 11.109 8.71413 10.9828L8.60254 9.78802ZM10.2312 8.57358C9.96715 9.26902 9.39011 9.71447 8.76239 9.77309L8.87398 10.9679C10.0087 10.8619 10.9456 10.0727 11.3531 8.99958L10.2312 8.57358ZM5.80568 6.76793C5.8328 6.77577 5.77471 6.76716 5.69326 6.62197C5.61827 6.48831 5.55481 6.28883 5.53943 6.04638L4.34184 6.12236C4.3671 6.52056 4.47272 6.89899 4.64671 7.20913C4.81424 7.50773 5.08506 7.80877 5.47248 7.92075L5.80568 6.76793ZM11.3991 6.26674C11.3309 6.60241 11.1852 6.81469 11.0848 6.89598L11.8402 7.82841C12.2137 7.52578 12.4679 7.03293 12.5751 6.50563L11.3991 6.26674ZM6.89113 2.22835L7.59976 1.63861L6.83213 0.716247L6.12351 1.306L6.89113 2.22835ZM7.21594 1.17743C7.54293 1.6805 7.5429 1.68052 7.54287 1.68053C7.54287 1.68054 7.54284 1.68055 7.54283 1.68056C7.5428 1.68058 7.54278 1.6806 7.54276 1.68061C7.54273 1.68063 7.54272 1.68064 7.54273 1.68063C7.54275 1.68061 7.54286 1.68054 7.54305 1.68042C7.54344 1.68017 7.54417 1.6797 7.54522 1.67902C7.54732 1.67766 7.55073 1.67548 7.55531 1.67255C7.56448 1.66669 7.57832 1.65791 7.59591 1.64692C7.63124 1.62484 7.6809 1.59434 7.73764 1.56099C7.85834 1.49004 7.9845 1.42203 8.071 1.38671L7.6173 0.275781C7.4466 0.345495 7.25865 0.45058 7.12955 0.526464C7.06139 0.566529 7.00222 0.602877 6.95995 0.629297C6.93874 0.642553 6.92159 0.65343 6.90947 0.66117C6.9034 0.665044 6.89858 0.66814 6.89513 0.670367C6.8934 0.671481 6.89201 0.672377 6.89098 0.673046C6.89046 0.67338 6.89003 0.673657 6.8897 0.673875C6.88953 0.673985 6.88938 0.674079 6.88926 0.674159C6.8892 0.674199 6.88914 0.674236 6.88909 0.674268C6.88907 0.674284 6.88903 0.674306 6.88902 0.674314C6.88899 0.674335 6.88896 0.674354 7.21594 1.17743ZM8.071 1.38671C8.19691 1.33528 8.25685 1.31528 8.38405 1.28307L8.0895 0.119781C7.90466 0.166582 7.7916 0.204597 7.6173 0.275781L8.071 1.38671ZM8.38405 1.28307C8.58673 1.23175 8.68009 1.21774 8.87404 1.21481L8.85592 0.0149478C8.55544 0.0194845 8.36873 0.0490752 8.0895 0.119781L8.38405 1.28307ZM9.35326 1.26025C9.44683 1.29682 9.48131 1.31217 9.5066 1.32649C9.52228 1.33536 9.54227 1.3482 9.57896 1.38496L10.4282 0.537168C10.196 0.304544 9.9922 0.221583 9.79015 0.142603L9.35326 1.26025ZM9.57896 1.38496C9.57655 1.38254 9.58477 1.39083 9.60258 1.41538C9.61882 1.43778 9.63638 1.46444 9.65356 1.49223C9.67044 1.51955 9.68488 1.54458 9.695 1.56262C9.69998 1.57151 9.70374 1.57838 9.70601 1.58258C9.70714 1.58467 9.7079 1.58608 9.70823 1.58672C9.7084 1.58704 9.70847 1.58716 9.70843 1.58708C9.70841 1.58704 9.70836 1.58695 9.70828 1.58681C9.70824 1.58673 9.7082 1.58665 9.70815 1.58655C9.70812 1.5865 9.70809 1.58645 9.70807 1.58639C9.70805 1.58636 9.70803 1.58632 9.70802 1.58631C9.708 1.58626 9.70797 1.58621 10.2392 1.30725C10.7704 1.02828 10.7704 1.02823 10.7703 1.02818C10.7703 1.02816 10.7703 1.02811 10.7703 1.02808C10.7702 1.02801 10.7702 1.02793 10.7702 1.02786C10.7701 1.0277 10.77 1.02753 10.7699 1.02735C10.7697 1.02698 10.7695 1.02655 10.7692 1.02607C10.7687 1.0251 10.7681 1.02391 10.7673 1.0225C10.7658 1.01967 10.7638 1.01597 10.7614 1.01148C10.7566 1.00253 10.7499 0.990338 10.7416 0.975657C10.7253 0.946544 10.7021 0.906348 10.6743 0.861321C10.626 0.783218 10.537 0.646159 10.4282 0.537168L9.57896 1.38496ZM9.70013 1.57074L9.82704 1.83038L10.9051 1.30339L10.7782 1.04375L9.70013 1.57074ZM10.0078 2.04814C10.0321 2.06622 10.0561 2.08476 10.0798 2.10375L10.8292 1.16646C10.7947 1.13893 10.7598 1.11198 10.7244 1.08562L10.0078 2.04814ZM10.4545 1.6351C10.3531 2.22648 10.3531 2.22647 10.353 2.22646C10.353 2.22645 10.3529 2.22644 10.3529 2.22644C10.3528 2.22643 10.3527 2.22641 10.3527 2.2264C10.3525 2.22638 10.3524 2.22636 10.3523 2.22634C10.3521 2.22631 10.352 2.22628 10.3519 2.22627C10.3518 2.22624 10.3518 2.22626 10.3522 2.22631C10.3528 2.22642 10.3543 2.2267 10.3566 2.22713C10.3613 2.228 10.3691 2.22949 10.3793 2.23158C10.4001 2.23582 10.4292 2.24219 10.4614 2.25042C10.4941 2.25879 10.5259 2.26802 10.5531 2.27745C10.5827 2.28769 10.594 2.29375 10.5919 2.29261L11.1713 1.24174C11.0238 1.16044 10.8553 1.11253 10.7585 1.0878C10.7033 1.07369 10.6547 1.06305 10.6196 1.05588C10.6018 1.05226 10.5872 1.04944 10.5764 1.04742C10.5709 1.04641 10.5665 1.0456 10.563 1.04498C10.5613 1.04468 10.5598 1.04442 10.5586 1.04421C10.558 1.04411 10.5575 1.04401 10.557 1.04393C10.5568 1.04389 10.5566 1.04386 10.5564 1.04382C10.5563 1.04381 10.5562 1.04379 10.5561 1.04377C10.5561 1.04377 10.556 1.04375 10.556 1.04375C10.5559 1.04374 10.5559 1.04373 10.4545 1.6351ZM10.8599 2.57778C10.9761 2.73153 11.0202 2.8203 11.1109 3.04571L12.2242 2.5979C12.1121 2.31917 12.0212 2.12412 11.8172 1.85418L10.8599 2.57778ZM11.1109 3.04571C11.2305 3.34312 11.264 3.51115 11.2898 3.86131L12.4866 3.77285C12.4535 3.32542 12.3988 3.03207 12.2242 2.5979L11.1109 3.04571ZM11.3132 5.46034C11.376 5.53066 11.4893 5.82269 11.3991 6.26674L12.5751 6.50563C12.7062 5.85993 12.6196 5.12154 12.2081 4.66091L11.3132 5.46034ZM11.2898 3.86131C11.3028 4.03599 11.2795 4.29267 11.2442 4.53508C11.2274 4.65008 11.2096 4.75148 11.196 4.82389C11.1892 4.85996 11.1835 4.88849 11.1796 4.90752C11.1777 4.91703 11.1762 4.92414 11.1753 4.92861C11.1748 4.93084 11.1745 4.93241 11.1743 4.93329C11.1742 4.93373 11.1741 4.93399 11.1741 4.93408C11.1741 4.93412 11.1741 4.93412 11.1741 4.93407C11.1741 4.93405 11.1741 4.93402 11.1741 4.93397C11.1742 4.93395 11.1742 4.93391 11.1742 4.9339C11.1742 4.93385 11.1742 4.9338 11.7606 5.06063C12.3471 5.18745 12.3471 5.1874 12.3471 5.18734C12.3471 5.18732 12.3471 5.18726 12.3471 5.18721C12.3471 5.18712 12.3472 5.18702 12.3472 5.1869C12.3472 5.18668 12.3473 5.1864 12.3474 5.18608C12.3475 5.18543 12.3477 5.1846 12.3479 5.1836C12.3483 5.18158 12.3489 5.17884 12.3496 5.17542C12.3511 5.16857 12.3531 5.15895 12.3555 5.14682C12.3605 5.12259 12.3673 5.08822 12.3753 5.04576C12.3912 4.96112 12.412 4.84296 12.4317 4.70796C12.4692 4.45038 12.5097 4.08529 12.4866 3.77285L11.2898 3.86131ZM6.11659 6.19709C6.71292 6.13085 6.71293 6.13089 6.71293 6.13094C6.71293 6.13095 6.71294 6.13099 6.71294 6.13102C6.71295 6.13106 6.71295 6.13109 6.71295 6.13112C6.71296 6.13116 6.71296 6.13115 6.71295 6.1311C6.71294 6.131 6.71291 6.1307 6.71286 6.13023C6.71275 6.12928 6.71257 6.12759 6.71232 6.1252C6.71182 6.12042 6.71104 6.11284 6.71004 6.10274C6.70804 6.0825 6.70519 6.05223 6.70198 6.01404C6.69555 5.93738 6.68783 5.83021 6.68269 5.70912C6.67189 5.45419 6.67498 5.18481 6.70722 5.00453L5.52596 4.79327C5.46925 5.11039 5.47234 5.49012 5.48377 5.75993C5.48976 5.9012 5.49871 6.02532 5.50618 6.11435C5.50993 6.159 5.51333 6.19518 5.51585 6.22069C5.51711 6.23345 5.51815 6.24356 5.51891 6.25075C5.51929 6.25435 5.51959 6.25722 5.51982 6.25933C5.51994 6.26038 5.52003 6.26125 5.5201 6.26192C5.52014 6.26225 5.52017 6.26254 5.5202 6.26277C5.52021 6.26289 5.52022 6.263 5.52023 6.26309C5.52024 6.26314 5.52024 6.2632 5.52025 6.26322C5.52025 6.26328 5.52026 6.26334 6.11659 6.19709ZM7.02135 3.99986C7.03734 3.97367 7.08385 3.91734 7.15195 3.84893C7.18148 3.81927 7.20861 3.79374 7.22815 3.77582C7.23781 3.76696 7.24534 3.76022 7.25004 3.75606C7.25238 3.75398 7.25399 3.75256 7.2548 3.75186C7.2552 3.75151 7.25539 3.75134 7.25537 3.75136C7.25536 3.75137 7.25529 3.75143 7.25517 3.75153C7.25511 3.75159 7.25504 3.75165 7.25495 3.75173C7.2549 3.75177 7.25486 3.75181 7.2548 3.75185C7.25478 3.75187 7.25474 3.75191 7.25472 3.75192C7.25468 3.75196 7.25464 3.75199 6.86258 3.2978C6.47053 2.84361 6.47048 2.84364 6.47044 2.84368C6.47042 2.8437 6.47037 2.84374 6.47034 2.84377C6.47027 2.84382 6.4702 2.84389 6.47013 2.84395C6.46998 2.84408 6.46982 2.84422 6.46964 2.84437C6.46928 2.84468 6.46886 2.84504 6.46839 2.84546C6.46743 2.84629 6.46624 2.84732 6.46483 2.84856C6.46199 2.85104 6.45825 2.85433 6.4537 2.85837C6.4446 2.86644 6.43218 2.87758 6.41722 2.89129C6.38753 2.91851 6.34675 2.95688 6.30155 3.00228C6.22021 3.08398 6.09003 3.22238 5.99708 3.37466L7.02135 3.99986ZM7.21747 3.78159L7.45305 3.60878L6.74327 2.6412L6.5077 2.81401L7.21747 3.78159ZM7.09816 3.12499C7.19063 3.71782 7.1906 3.71783 7.19058 3.71783C7.19057 3.71783 7.19055 3.71784 7.19053 3.71784C7.19051 3.71784 7.19049 3.71785 7.19047 3.71785C7.19043 3.71785 7.19041 3.71786 7.1904 3.71786C7.19039 3.71786 7.19044 3.71785 7.19055 3.71784C7.19076 3.7178 7.19122 3.71773 7.1919 3.71763C7.19327 3.71742 7.19555 3.71707 7.19865 3.71661C7.20486 3.71568 7.21433 3.71428 7.22637 3.71257C7.25059 3.70912 7.28457 3.70448 7.32308 3.6998C7.40605 3.6897 7.48792 3.68215 7.53929 3.68136L7.52081 2.4815C7.40283 2.48332 7.26875 2.49756 7.17812 2.50858C7.12982 2.51446 7.08758 2.52023 7.05728 2.52454C7.04207 2.5267 7.0297 2.52853 7.02089 2.52985C7.01649 2.53051 7.01296 2.53104 7.0104 2.53143C7.00912 2.53163 7.00808 2.53179 7.00729 2.53191C7.0069 2.53197 7.00657 2.53202 7.0063 2.53207C7.00617 2.53209 7.00605 2.5321 7.00595 2.53212C7.0059 2.53213 7.00585 2.53213 7.00581 2.53214C7.00579 2.53214 7.00576 2.53215 7.00575 2.53215C7.00572 2.53216 7.00569 2.53216 7.09816 3.12499ZM9.641 3.68136C9.69237 3.68215 9.77424 3.6897 9.85721 3.6998C9.89571 3.70448 9.9297 3.70912 9.95392 3.71257C9.96596 3.71428 9.97543 3.71568 9.98164 3.71661C9.98474 3.71707 9.98702 3.71742 9.98839 3.71763C9.98907 3.71773 9.98953 3.7178 9.98974 3.71784C9.98985 3.71785 9.9899 3.71786 9.98989 3.71786C9.98988 3.71786 9.98986 3.71785 9.98982 3.71785C9.9898 3.71785 9.98978 3.71784 9.98975 3.71784C9.98974 3.71784 9.98972 3.71783 9.98971 3.71783C9.98969 3.71783 9.98966 3.71782 10.0821 3.12499C10.1746 2.53216 10.1746 2.53216 10.1745 2.53215C10.1745 2.53215 10.1745 2.53214 10.1745 2.53214C10.1744 2.53213 10.1744 2.53213 10.1743 2.53212C10.1742 2.5321 10.1741 2.53209 10.174 2.53207C10.1737 2.53202 10.1734 2.53197 10.173 2.53191C10.1722 2.53179 10.1712 2.53163 10.1699 2.53143C10.1673 2.53104 10.1638 2.53051 10.1594 2.52985C10.1506 2.52853 10.1382 2.5267 10.123 2.52454C10.0927 2.52023 10.0505 2.51446 10.0022 2.50858C9.91154 2.49756 9.77746 2.48332 9.65948 2.4815L9.641 3.68136ZM10.0821 3.12499C9.86416 3.684 9.8641 3.68398 9.86405 3.68395C9.86403 3.68395 9.86397 3.68393 9.86394 3.68391C9.86386 3.68388 9.8638 3.68386 9.86373 3.68383C9.8636 3.68378 9.86348 3.68373 9.86337 3.68369C9.86316 3.68361 9.86298 3.68354 9.86286 3.68349C9.86261 3.68339 9.86253 3.68336 9.86262 3.6834C9.86281 3.68347 9.86366 3.68381 9.86511 3.6844C9.86802 3.68558 9.87322 3.68773 9.88016 3.69069C9.89434 3.69675 9.91423 3.70559 9.93596 3.71616C9.99194 3.74342 10.013 3.75958 10.0065 3.75396L10.786 2.84164C10.6711 2.74344 10.5351 2.6732 10.4611 2.63719C10.4179 2.61614 10.3796 2.59913 10.3518 2.58725C10.3377 2.58125 10.326 2.5764 10.3173 2.57284C10.3129 2.57105 10.3092 2.56958 10.3063 2.56843C10.3049 2.56786 10.3036 2.56737 10.3026 2.56696C10.3021 2.56676 10.3016 2.56657 10.3012 2.56641C10.301 2.56633 10.3008 2.56625 10.3006 2.56618C10.3005 2.56615 10.3004 2.56611 10.3003 2.56608C10.3003 2.56606 10.3002 2.56604 10.3002 2.56603C10.3002 2.56601 10.3001 2.56598 10.0821 3.12499ZM10.0065 3.75396C10.0015 3.74974 10.0245 3.77255 10.0654 3.83053C10.0814 3.85325 10.0952 3.87429 10.1049 3.88947C10.1096 3.89694 10.1132 3.90264 10.1152 3.90603C10.1163 3.90771 10.1169 3.9088 10.1172 3.9092C10.1173 3.9094 10.1173 3.90944 10.1172 3.90929C10.1172 3.90921 10.1171 3.90909 10.117 3.90893C10.117 3.90884 10.1169 3.90875 10.1169 3.90864C10.1168 3.90859 10.1168 3.90853 10.1168 3.90847C10.1167 3.90844 10.1167 3.9084 10.1167 3.90838C10.1167 3.90833 10.1166 3.90828 10.6318 3.60071C11.147 3.29314 11.1469 3.29309 11.1469 3.29304C11.1469 3.29302 11.1469 3.29297 11.1469 3.29293C11.1468 3.29286 11.1468 3.29278 11.1467 3.29271C11.1466 3.29255 11.1465 3.29238 11.1464 3.2922C11.1462 3.29183 11.1459 3.29141 11.1457 3.29094C11.1451 3.29 11.1444 3.28885 11.1436 3.28751C11.142 3.28483 11.1399 3.28137 11.1373 3.27719C11.1322 3.26886 11.1252 3.25762 11.1166 3.24414C11.0995 3.21745 11.0754 3.18065 11.0465 3.13957C10.9974 3.06997 10.9027 2.94132 10.786 2.84164L10.0065 3.75396ZM10.6318 3.60071C10.1768 3.9918 10.1768 3.99177 10.1767 3.99173C10.1767 3.99172 10.1767 3.99169 10.1767 3.99167C10.1766 3.99163 10.1766 3.99159 10.1766 3.99156C10.1765 3.99149 10.1765 3.99144 10.1764 3.9914C10.1764 3.99132 10.1763 3.99129 10.1764 3.99131C10.1764 3.99134 10.1766 3.99158 10.177 3.992C10.1777 3.99285 10.179 3.99446 10.181 3.99675C10.1848 4.00136 10.1909 4.00866 10.1987 4.01816C10.2144 4.03733 10.2362 4.0645 10.26 4.09574C10.3137 4.16626 10.3544 4.22753 10.3708 4.26017L11.4425 3.72016C11.374 3.58436 11.2773 3.45091 11.2148 3.36881C11.1805 3.32374 11.1495 3.28513 11.1269 3.25759C11.1156 3.24374 11.1062 3.23246 11.0993 3.22432C11.0959 3.22024 11.0931 3.21693 11.091 3.21447C11.0899 3.21323 11.089 3.21221 11.0884 3.2114C11.088 3.21099 11.0877 3.21064 11.0875 3.21034C11.0873 3.2102 11.0872 3.21006 11.0871 3.20994C11.0871 3.20988 11.087 3.20982 11.087 3.20977C11.0869 3.20975 11.0869 3.20971 11.0869 3.20969C11.0869 3.20966 11.0868 3.20962 10.6318 3.60071ZM10.3708 4.26017C10.427 4.37162 10.4442 4.42632 10.4751 4.58249L11.6523 4.34985C11.6068 4.11948 11.5606 3.95456 11.4425 3.72016L10.3708 4.26017ZM10.5042 4.89492C10.512 5.01261 10.5124 5.17628 10.5101 5.32137C10.509 5.39161 10.5073 5.45349 10.5059 5.4977C10.5052 5.51976 10.5046 5.53728 10.5041 5.54911C10.5039 5.55502 10.5038 5.5595 10.5036 5.56239C10.5036 5.56384 10.5035 5.56489 10.5035 5.56552C10.5035 5.56584 10.5035 5.56605 10.5035 5.56616C10.5035 5.56621 10.5035 5.56624 10.5035 5.56624C10.5035 5.56624 10.5035 5.56624 10.5035 5.56622C10.5035 5.56622 10.5035 5.5662 10.5035 5.5662C10.5035 5.56618 10.5035 5.56616 11.103 5.59127C11.7024 5.61637 11.7024 5.61635 11.7024 5.61633C11.7024 5.61632 11.7024 5.61629 11.7024 5.61627C11.7024 5.61623 11.7024 5.61618 11.7024 5.61613C11.7024 5.61602 11.7025 5.61588 11.7025 5.61572C11.7025 5.61539 11.7025 5.61496 11.7025 5.61442C11.7026 5.61334 11.7026 5.61183 11.7027 5.60992C11.7028 5.60609 11.7031 5.60064 11.7033 5.59371C11.7038 5.57985 11.7045 5.56006 11.7053 5.53553C11.7069 5.48658 11.7087 5.41828 11.7099 5.34042C11.7123 5.18932 11.7128 4.98518 11.7017 4.81633L10.5042 4.89492ZM10.5042 5.55246L10.465 6.15829L11.6624 6.2359L11.7017 5.63007L10.5042 5.55246ZM6.10452 1.32248C5.16482 2.17365 4.62542 3.48756 4.73241 4.86952L5.92883 4.77688C5.84994 3.75788 6.25092 2.80896 6.91012 2.21187L6.10452 1.32248ZM5.53943 6.04638C5.52638 5.84066 5.55141 5.65725 5.59632 5.51525C5.64316 5.36718 5.70058 5.29666 5.72486 5.2755L4.93638 4.3709C4.479 4.76958 4.30077 5.47497 4.34184 6.12236L5.53943 6.04638ZM11.3531 8.99958C11.4302 8.79654 11.4794 8.65522 11.5478 8.52031L10.4776 7.97744C10.3718 8.18613 10.292 8.41349 10.2312 8.57358L11.3531 8.99958ZM6.83456 8.55386C6.77859 8.39829 6.7054 8.1782 6.60772 7.97491L5.5261 8.49461C5.58932 8.62618 5.63465 8.7634 5.7054 8.96007L6.83456 8.55386ZM14.801 12.275C14.7436 12.2423 14.697 12.2156 14.6476 12.1837L13.9974 13.1923C14.0783 13.2445 14.1519 13.2862 14.2074 13.3178L14.801 12.275ZM15.6974 13.3146L15.6787 13.2714L14.5779 13.7493L14.5966 13.7924L15.6974 13.3146ZM16.0641 15.4795L15.9408 14.1473L14.7459 14.2579L14.8692 15.5901L16.0641 15.4795ZM14.7951 16.9193C15.5891 16.9241 16.1317 16.2099 16.0641 15.4795L14.8692 15.5901C14.8736 15.6379 14.8579 15.6749 14.839 15.6972C14.8208 15.7185 14.8074 15.7194 14.8023 15.7193L14.7951 16.9193ZM0.499491 15.3915C0.40427 16.135 0.955748 16.8361 1.73224 16.8408L1.73946 15.6408C1.73336 15.6407 1.72267 15.6391 1.7095 15.6234C1.69642 15.6077 1.68496 15.5815 1.68977 15.5439L0.499491 15.3915ZM5.09827 7.6042L5.31218 8.0494L6.39381 7.5297L6.17989 7.08449L5.09827 7.6042ZM5.31218 8.0494L5.5261 8.49461L6.60772 7.97491L6.39381 7.5297L5.31218 8.0494ZM5.52465 6.09911L5.26105 7.69157L6.44494 7.88753L6.70854 6.29507L5.52465 6.09911ZM10.9274 7.09076L10.7025 7.5341L11.7727 8.07697L11.9976 7.63363L10.9274 7.09076ZM10.7025 7.5341L10.4776 7.97744L11.5478 8.52031L11.7727 8.07697L10.7025 7.5341ZM10.4672 6.26159L10.6411 7.87004L11.8341 7.74103L11.6602 6.13259L10.4672 6.26159ZM6.70722 5.00453C6.74192 4.81052 6.77814 4.70263 6.84735 4.49901L5.71117 4.11286C5.63922 4.32456 5.57759 4.50459 5.52596 4.79327L6.70722 5.00453ZM6.84734 4.49901C6.85801 4.46761 6.86953 4.43373 6.88166 4.39763L5.74415 4.01543C5.73278 4.04928 5.7219 4.08128 5.71117 4.11286L6.84734 4.49901ZM6.88166 4.39763C6.90529 4.32729 6.92352 4.26491 6.93764 4.21676L5.78612 3.87911C5.77162 3.92859 5.75939 3.97007 5.74415 4.01543L6.88166 4.39763ZM6.93764 4.21676C6.95705 4.15056 6.96744 4.11626 6.97968 4.08427C6.98993 4.05748 7.00187 4.03178 7.02135 3.99985L5.99708 3.37466C5.87229 3.57911 5.82372 3.75091 5.78613 3.87911L6.93764 4.21676ZM7.53929 3.68136C7.64858 3.67968 7.71396 3.68781 7.84252 3.70467L7.99856 2.51486C7.86309 2.49709 7.72376 2.47838 7.5208 2.4815L7.53929 3.68136ZM7.84252 3.70467C7.87927 3.70949 7.92184 3.71508 7.96924 3.72075L8.11169 2.52923C8.07202 2.52449 8.03586 2.51975 7.99856 2.51486L7.84252 3.70467ZM7.96924 3.72075C8.0224 3.72711 8.06627 3.73671 8.1352 3.75237L8.40117 2.58222C8.33307 2.56674 8.23401 2.54386 8.11169 2.52923L7.96924 3.72075ZM8.1352 3.75237C8.2374 3.7756 8.38839 3.81125 8.59014 3.81125V2.61125C8.53476 2.61125 8.4986 2.60436 8.40117 2.58222L8.1352 3.75237ZM8.59014 3.81125C8.7919 3.81125 8.94288 3.7756 9.04509 3.75237L8.77911 2.58222C8.68169 2.60437 8.64553 2.61125 8.59014 2.61125V3.81125ZM9.04508 3.75237C9.11402 3.73671 9.15788 3.72711 9.21105 3.72075L9.06859 2.52923C8.94627 2.54386 8.84722 2.56674 8.77912 2.58222L9.04508 3.75237ZM9.21105 3.72075C9.25844 3.71508 9.301 3.7095 9.33777 3.70467L9.18172 2.51486C9.14444 2.51975 9.10827 2.52449 9.06859 2.52923L9.21105 3.72075ZM9.33777 3.70467C9.46633 3.68781 9.53171 3.67968 9.641 3.68136L9.65948 2.4815C9.45653 2.47838 9.3172 2.49709 9.18172 2.51486L9.33777 3.70467ZM10.4751 4.58248C10.4901 4.65848 10.493 4.70291 10.4988 4.80478L11.6969 4.73652C11.6907 4.62804 11.6845 4.51293 11.6523 4.34985L10.4751 4.58248ZM10.4988 4.80476C10.5003 4.83093 10.502 4.86136 10.5042 4.89493L11.7017 4.81632C11.6999 4.78867 11.6984 4.76314 11.6969 4.73654L10.4988 4.80476ZM11.8172 1.85419C11.8096 1.84412 11.8021 1.83419 11.7946 1.82423L10.8364 2.54669C10.844 2.5567 10.8518 2.56711 10.8599 2.57777L11.8172 1.85419ZM11.7946 1.8242C11.654 1.63776 11.4966 1.42109 11.1713 1.24174L10.5919 2.29261C10.641 2.31966 10.6674 2.3418 10.6924 2.36743C10.7267 2.40272 10.7614 2.44719 10.8364 2.54671L11.7946 1.8242ZM9.79015 0.142603C9.42988 0.00176984 9.16541 0.00955033 8.91484 0.0139605L8.93595 1.21377C9.1709 1.20964 9.22917 1.21174 9.35326 1.26025L9.79015 0.142603ZM8.91483 0.0139607C8.89516 0.0143072 8.87578 0.0146479 8.85592 0.0149479L8.87404 1.21481C8.89563 1.21448 8.91647 1.21412 8.93596 1.21377L8.91483 0.0139607ZM5.71911 11.0224L7.01478 12.3978L7.88826 11.5749L6.59259 10.1995L5.71911 11.0224ZM9.68816 12.4042L11.0231 11.0288L10.162 10.1931L8.82705 11.5685L9.68816 12.4042ZM9.52465 16.8876L14.7951 16.9193L14.8023 15.7193L9.53187 15.6876L9.52465 16.8876ZM8.35348 13.2297L8.93824 16.3966L10.1183 16.1787L9.53353 13.0118L8.35348 13.2297ZM1.73224 16.8408L7.03813 16.8727L7.04535 15.6727L1.73946 15.6408L1.73224 16.8408ZM7.03813 16.8727L9.52465 16.8876L9.53187 15.6876L7.04535 15.6727L7.03813 16.8727ZM7.05863 13.0075L6.45254 16.1594L7.63095 16.386L8.23704 13.2341L7.05863 13.0075ZM7.64783 13.7208H8.9435V12.5208H7.64783V13.7208ZM1.68977 15.5439C1.69736 15.4846 1.70546 15.4239 1.71408 15.3624L0.525684 15.1959C0.516352 15.2625 0.507622 15.328 0.499491 15.3915L1.68977 15.5439ZM1.71408 15.3624C1.75607 15.0626 1.80827 14.7591 1.86841 14.5249L0.70613 14.2264C0.629313 14.5255 0.56979 14.881 0.525684 15.1959L1.71408 15.3624ZM1.02686 15.8791H1.11988V14.6791H1.02686V15.8791ZM15.4907 10.5114H15.6368V9.31136H15.4907V10.5114ZM15.1924 10.3145L15.375 10.5158L16.2637 9.70942L16.0811 9.50819L15.1924 10.3145ZM19.1765 12.8877C19.2069 12.9576 19.2433 13.0733 19.2755 13.1914C19.2904 13.2464 19.3027 13.2954 19.3112 13.3305C19.3155 13.3479 19.3187 13.3617 19.3208 13.3708C19.3219 13.3753 19.3227 13.3787 19.3231 13.3807C19.3234 13.3818 19.3235 13.3825 19.3236 13.3828C19.3236 13.383 19.3237 13.3831 19.3237 13.3831C19.3237 13.3831 19.3237 13.383 19.3236 13.383C19.3236 13.383 19.3236 13.3829 19.3236 13.3829C19.3236 13.3829 19.3236 13.3829 19.3236 13.3829C19.3236 13.3828 19.3236 13.3828 19.9091 13.2517C20.4946 13.1207 20.4946 13.1206 20.4946 13.1206C20.4946 13.1206 20.4946 13.1205 20.4946 13.1205C20.4946 13.1205 20.4946 13.1204 20.4945 13.1203C20.4945 13.1202 20.4945 13.12 20.4944 13.1198C20.4944 13.1195 20.4942 13.119 20.4941 13.1185C20.4939 13.1174 20.4935 13.1159 20.4931 13.1141C20.4923 13.1104 20.4911 13.1054 20.4897 13.0992C20.4868 13.0866 20.4826 13.069 20.4774 13.0473C20.4669 13.0042 20.4518 12.9443 20.4334 12.8764C20.3986 12.7487 20.3437 12.5625 20.2766 12.4084L19.1765 12.8877ZM15.8194 10.1126C15.4888 10.6134 15.4888 10.6134 15.4889 10.6134C15.4889 10.6134 15.4889 10.6134 15.4889 10.6134C15.4889 10.6134 15.4889 10.6134 15.489 10.6134C15.489 10.6135 15.4891 10.6135 15.4893 10.6136C15.4895 10.6138 15.4898 10.614 15.4902 10.6143C15.4911 10.6148 15.4923 10.6156 15.4939 10.6167C15.497 10.6187 15.5016 10.6217 15.5074 10.6256C15.5192 10.6333 15.5362 10.6444 15.5574 10.6583C15.5999 10.6861 15.6597 10.725 15.7291 10.7696C15.8667 10.8581 16.0464 10.972 16.2047 11.0669L16.8216 10.0376C16.6797 9.95258 16.5125 9.84669 16.3783 9.76034C16.3117 9.71753 16.2543 9.68021 16.2136 9.65365C16.1933 9.64038 16.1772 9.62981 16.1663 9.62262C16.1608 9.61902 16.1566 9.61627 16.1538 9.61444C16.1524 9.61353 16.1514 9.61285 16.1507 9.61241C16.1504 9.61219 16.1502 9.61203 16.15 9.61193C16.1499 9.61188 16.1499 9.61185 16.1499 9.61183C16.1499 9.61182 16.1498 9.61182 16.1498 9.61182C16.1498 9.61182 16.1498 9.61182 16.1498 9.61182C16.1499 9.61182 16.1499 9.61183 15.8194 10.1126ZM16.2047 11.0669C16.2314 11.083 16.2579 11.0986 16.2836 11.1137L16.8887 10.0774C16.8675 10.065 16.845 10.0517 16.8216 10.0376L16.2047 11.0669ZM16.8876 11.4466C17.1051 11.5629 17.2709 11.6452 17.4373 11.7279L17.9711 10.6532C17.8054 10.5709 17.6536 10.4955 17.4533 10.3884L16.8876 11.4466ZM17.4373 11.7279C17.5633 11.7905 17.6894 11.8531 17.8437 11.9331L18.396 10.8678C18.2315 10.7825 18.0972 10.7158 17.9711 10.6532L17.4373 11.7279ZM17.8437 11.9331C17.9604 11.9936 18.0614 12.0422 18.1494 12.0846L18.6699 11.0033C18.5813 10.9607 18.495 10.9191 18.396 10.8678L17.8437 11.9331ZM18.1494 12.0846C18.328 12.1705 18.4573 12.2331 18.6346 12.3474L19.2848 11.3388C19.0403 11.1812 18.8532 11.0915 18.6699 11.0033L18.1494 12.0846ZM18.8319 12.4654C18.9068 12.508 18.939 12.5271 18.9668 12.5478C18.9876 12.5633 19.0086 12.5818 19.0355 12.6162L19.9793 11.875C19.7794 11.6204 19.5724 11.506 19.4255 11.4225L18.8319 12.4654ZM19.0355 12.6162C19.0838 12.6776 19.0989 12.7088 19.1585 12.8464L20.2597 12.3694C20.1964 12.2233 20.1306 12.0676 19.9793 11.875L19.0355 12.6162ZM19.1585 12.8464C19.1641 12.8593 19.1702 12.8732 19.1765 12.8877L20.2766 12.4084C20.2709 12.3952 20.2653 12.3825 20.2597 12.3694L19.1585 12.8464ZM16.2966 11.121L16.8809 11.443L17.46 10.392L16.8758 10.07L16.2966 11.121ZM15.1154 8.00165C14.8748 8.63522 14.3508 9.03748 13.7847 9.09034L13.8963 10.2851C14.9694 10.1849 15.8533 9.43893 16.2373 8.42765L15.1154 8.00165ZM16.1997 5.86276C16.1376 6.16824 16.0059 6.35585 15.9221 6.42371L16.6775 7.35614C17.0345 7.06695 17.2747 6.59876 17.3757 6.10165L16.1997 5.86276ZM12.252 1.25862C12.6204 1.73218 12.6204 1.7322 12.6203 1.73222C12.6203 1.73222 12.6203 1.73224 12.6203 1.73225C12.6203 1.73227 12.6203 1.73229 12.6202 1.73229C12.6202 1.73231 12.6202 1.73231 12.6202 1.73229C12.6203 1.73224 12.6205 1.73212 12.6207 1.73192C12.6213 1.73151 12.6222 1.73079 12.6235 1.72978C12.6261 1.72775 12.6303 1.72455 12.6358 1.72031C12.6469 1.71183 12.6635 1.69927 12.6842 1.68376C12.726 1.65256 12.7836 1.61026 12.8475 1.56556C12.9927 1.46399 13.1123 1.39146 13.1615 1.37138L12.7078 0.260458C12.5177 0.338075 12.296 0.486886 12.1597 0.582248C12.0828 0.636015 12.0146 0.686072 11.9658 0.722613C11.9412 0.740968 11.9212 0.756125 11.9071 0.766894C11.9001 0.772284 11.8945 0.776589 11.8905 0.779662C11.8885 0.7812 11.8869 0.78243 11.8858 0.783335C11.8852 0.783788 11.8847 0.78416 11.8843 0.784448C11.8841 0.784592 11.884 0.784715 11.8838 0.784817C11.8838 0.784868 11.8837 0.784914 11.8837 0.784955C11.8836 0.784975 11.8836 0.785001 11.8836 0.785011C11.8836 0.785036 11.8835 0.78506 12.252 1.25862ZM13.1615 1.37138C13.2769 1.32425 13.3308 1.30627 13.447 1.27683L13.1525 0.113541C12.9786 0.157578 12.8716 0.193564 12.7078 0.260458L13.1615 1.37138ZM13.447 1.27683C13.6329 1.22978 13.7164 1.21729 13.8931 1.21463L13.875 0.0147634C13.5918 0.0190389 13.4149 0.0471045 13.1525 0.113541L13.447 1.27683ZM14.3229 1.25401C14.4101 1.28811 14.4395 1.3014 14.4601 1.31304C14.471 1.31924 14.4866 1.32877 14.5183 1.36055L15.3676 0.512763C15.1453 0.290103 14.9491 0.210392 14.7597 0.136363L14.3229 1.25401ZM14.5183 1.36055C14.5139 1.35615 14.5201 1.36192 14.536 1.38384C14.5504 1.40359 14.5661 1.42747 14.5817 1.45274C14.597 1.47752 14.6102 1.50027 14.6194 1.51666C14.6239 1.52473 14.6273 1.53093 14.6293 1.53467C14.6303 1.53653 14.631 1.53776 14.6312 1.53828C14.6314 1.53853 14.6314 1.53861 14.6313 1.5385C14.6313 1.53844 14.6313 1.53834 14.6312 1.53819C14.6311 1.53811 14.6311 1.53803 14.631 1.53793C14.631 1.53788 14.631 1.53782 14.631 1.53777C14.6309 1.53774 14.6309 1.53769 14.6309 1.53768C14.6309 1.53763 14.6309 1.53759 15.1621 1.25862C15.6933 0.979651 15.6932 0.979603 15.6932 0.979555C15.6932 0.979537 15.6932 0.979488 15.6932 0.979453C15.6931 0.979383 15.6931 0.97931 15.6931 0.979234C15.693 0.979081 15.6929 0.978914 15.6928 0.978734C15.6926 0.978373 15.6924 0.977958 15.6921 0.97749C15.6916 0.976554 15.691 0.975405 15.6903 0.974053C15.6889 0.971351 15.687 0.967829 15.6847 0.963572C15.6801 0.955074 15.6738 0.943554 15.666 0.929696C15.6506 0.902234 15.6287 0.864319 15.6025 0.821823C15.5573 0.748781 15.4724 0.617777 15.3676 0.512763L14.5183 1.36055ZM14.623 1.52211L14.7411 1.76359L15.8191 1.2366L15.7011 0.995124L14.623 1.52211ZM14.9218 1.98135C14.944 1.99787 14.9659 2.01481 14.9877 2.03219L15.737 1.09489C15.7046 1.069 15.6717 1.04364 15.6384 1.01883L14.9218 1.98135ZM15.3623 1.56354C15.2609 2.15491 15.2609 2.1549 15.2608 2.15489C15.2608 2.15489 15.2608 2.15488 15.2607 2.15487C15.2606 2.15486 15.2606 2.15485 15.2605 2.15484C15.2604 2.15481 15.2603 2.15479 15.2601 2.15477C15.2599 2.15474 15.2598 2.15471 15.2597 2.1547C15.2595 2.15466 15.2595 2.15467 15.2598 2.15471C15.2602 2.15479 15.2616 2.15503 15.2636 2.15541C15.2677 2.15618 15.2748 2.15752 15.284 2.15941C15.3028 2.16325 15.3292 2.16903 15.3583 2.17647C15.388 2.18407 15.4164 2.19233 15.4403 2.20061C15.4665 2.2097 15.4746 2.21444 15.4698 2.2118L16.0492 1.16094C15.9072 1.08263 15.7461 1.03702 15.6555 1.01385C15.6033 1.00052 15.5574 0.990483 15.5242 0.983706C15.5075 0.980287 15.4936 0.977617 15.4833 0.975703C15.4782 0.974744 15.4739 0.973969 15.4706 0.97338C15.469 0.973086 15.4676 0.972837 15.4664 0.972634C15.4658 0.972533 15.4653 0.972443 15.4649 0.972365C15.4646 0.972325 15.4644 0.972289 15.4642 0.972256C15.4641 0.972239 15.464 0.972223 15.464 0.972208C15.4639 0.9722 15.4638 0.972189 15.4638 0.972185C15.4638 0.972174 15.4637 0.972164 15.3623 1.56354ZM15.7059 2.46557C15.8109 2.6045 15.8503 2.68335 15.9338 2.89111L17.0471 2.4433C16.9421 2.18221 16.856 1.99709 16.6632 1.74197L15.7059 2.46557ZM15.9338 2.89111C16.0432 3.16293 16.0735 3.31482 16.0974 3.63708L17.2941 3.54862C17.2631 3.12909 17.2115 2.85188 17.0471 2.4433L15.9338 2.89111ZM16.1296 5.1491C16.1443 5.16552 16.1879 5.23224 16.2129 5.37311C16.2367 5.5075 16.2373 5.67774 16.1997 5.86276L17.3757 6.10165C17.4991 5.49407 17.4194 4.79173 17.0245 4.34968L16.1296 5.1491ZM16.0974 3.63708C16.109 3.79471 16.088 4.02965 16.0552 4.25457C16.0398 4.36082 16.0233 4.45454 16.0107 4.52145C16.0044 4.55478 15.9992 4.58111 15.9956 4.59863C15.9938 4.60738 15.9925 4.6139 15.9916 4.61798C15.9912 4.62001 15.9909 4.62143 15.9907 4.62221C15.9906 4.62259 15.9906 4.62282 15.9906 4.62288C15.9906 4.62291 15.9906 4.6229 15.9906 4.62285C15.9906 4.62282 15.9906 4.62278 15.9906 4.62274C15.9906 4.62271 15.9906 4.62267 15.9906 4.62266C15.9906 4.62261 15.9906 4.62256 16.5771 4.74939C17.1635 4.87622 17.1635 4.87616 17.1635 4.87611C17.1635 4.87608 17.1636 4.87602 17.1636 4.87598C17.1636 4.87589 17.1636 4.87579 17.1636 4.87568C17.1637 4.87545 17.1637 4.87519 17.1638 4.87488C17.1639 4.87426 17.1641 4.87347 17.1643 4.87251C17.1647 4.8706 17.1653 4.86801 17.1659 4.86478C17.1673 4.85833 17.1692 4.8493 17.1715 4.83793C17.1761 4.8152 17.1825 4.78303 17.19 4.74333C17.2049 4.66417 17.2243 4.5537 17.2427 4.42745C17.2777 4.18736 17.3159 3.84402 17.2941 3.54862L16.0974 3.63708ZM14.6051 3.5086C14.6505 3.5093 14.7249 3.51609 14.8018 3.52544C14.8372 3.52976 14.8685 3.53403 14.8909 3.53721C14.9019 3.53879 14.9107 3.54007 14.9163 3.54092C14.9192 3.54135 14.9212 3.54166 14.9225 3.54185C14.9231 3.54195 14.9235 3.54201 14.9237 3.54204C14.9238 3.54205 14.9238 3.54206 14.9238 3.54205C14.9238 3.54205 14.9237 3.54205 14.9237 3.54204C14.9237 3.54204 14.9237 3.54203 14.9236 3.54203C14.9236 3.54203 14.9236 3.54202 14.9236 3.54202C14.9236 3.54202 14.9235 3.54202 15.016 2.94918C15.1085 2.35635 15.1085 2.35635 15.1084 2.35634C15.1084 2.35634 15.1084 2.35634 15.1084 2.35633C15.1083 2.35633 15.1083 2.35632 15.1082 2.35631C15.1081 2.3563 15.108 2.35628 15.1079 2.35626C15.1076 2.35622 15.1073 2.35617 15.1069 2.35611C15.1062 2.356 15.1052 2.35584 15.104 2.35566C15.1016 2.35529 15.0982 2.35478 15.0941 2.35416C15.0858 2.35292 15.0742 2.35121 15.0599 2.34918C15.0316 2.34514 14.992 2.33974 14.9467 2.33423C14.8622 2.32394 14.7356 2.31047 14.6236 2.30874L14.6051 3.5086ZM15.016 2.94918C14.798 3.50819 14.798 3.50817 14.7979 3.50815C14.7979 3.50814 14.7979 3.50812 14.7978 3.5081C14.7977 3.50808 14.7977 3.50805 14.7976 3.50802C14.7975 3.50797 14.7974 3.50792 14.7972 3.50788C14.797 3.50779 14.7968 3.50772 14.7967 3.50767C14.7964 3.50756 14.7963 3.50751 14.7963 3.50752C14.7964 3.50756 14.7971 3.50783 14.7984 3.50834C14.8009 3.50936 14.8055 3.51125 14.8117 3.51391C14.8244 3.51934 14.8422 3.52727 14.8617 3.53674C14.9131 3.56178 14.9287 3.57492 14.9184 3.56606L15.6979 2.65374C15.5868 2.55878 15.4563 2.49156 15.3869 2.45777C15.3459 2.43782 15.3096 2.42172 15.2833 2.41047C15.27 2.40478 15.2589 2.40018 15.2505 2.39678C15.2463 2.39507 15.2428 2.39366 15.24 2.39256C15.2386 2.39201 15.2374 2.39153 15.2364 2.39114C15.2359 2.39094 15.2355 2.39076 15.2351 2.3906C15.2349 2.39052 15.2347 2.39044 15.2345 2.39037C15.2344 2.39034 15.2343 2.3903 15.2342 2.39027C15.2342 2.39025 15.2341 2.39023 15.2341 2.39022C15.234 2.3902 15.234 2.39018 15.016 2.94918ZM14.9184 3.56606C14.9095 3.5585 14.9284 3.57601 14.9661 3.62953C14.9805 3.65002 14.993 3.66903 15.0018 3.68275C15.0061 3.68948 15.0092 3.6946 15.0111 3.69757C15.012 3.69905 15.0125 3.69998 15.0127 3.70027C15.0128 3.70042 15.0128 3.70041 15.0127 3.70024C15.0126 3.70015 15.0126 3.70002 15.0125 3.69984C15.0124 3.69976 15.0123 3.69966 15.0123 3.69955C15.0122 3.6995 15.0122 3.69944 15.0122 3.69938C15.0122 3.69935 15.0121 3.6993 15.0121 3.69929C15.0121 3.69924 15.0121 3.69919 15.5272 3.39162C16.0424 3.08405 16.0424 3.084 16.0423 3.08395C16.0423 3.08393 16.0423 3.08388 16.0423 3.08384C16.0422 3.08377 16.0422 3.08369 16.0421 3.08362C16.0421 3.08346 16.042 3.08329 16.0418 3.08311C16.0416 3.08275 16.0414 3.08235 16.0411 3.08189C16.0406 3.08098 16.0399 3.07987 16.0391 3.07859C16.0376 3.07601 16.0355 3.07271 16.0331 3.06874C16.0282 3.06081 16.0216 3.05016 16.0135 3.03742C15.9974 3.01219 15.9746 2.97742 15.9472 2.93857C15.9013 2.87343 15.8107 2.75009 15.6979 2.65374L14.9184 3.56606ZM15.5272 3.39162C15.0722 3.78271 15.0722 3.78267 15.0721 3.78264C15.0721 3.78263 15.0721 3.7826 15.0721 3.78258C15.0721 3.78254 15.072 3.7825 15.072 3.78247C15.0719 3.7824 15.0719 3.78234 15.0719 3.7823C15.0718 3.78221 15.0717 3.78216 15.0717 3.78217C15.0717 3.78218 15.0719 3.78237 15.0722 3.78273C15.0728 3.78347 15.0741 3.7849 15.0758 3.78698C15.0793 3.79113 15.0849 3.79779 15.092 3.80647C15.1063 3.824 15.1263 3.84887 15.1481 3.87744C15.1977 3.94262 15.2335 3.99708 15.247 4.02383L16.3187 3.48382C16.2532 3.35391 16.1613 3.22727 16.1028 3.15051C16.0705 3.10811 16.0414 3.0718 16.0202 3.0459C16.0095 3.03286 16.0006 3.02223 15.9941 3.01454C15.9909 3.01068 15.9882 3.00755 15.9862 3.0052C15.9852 3.00402 15.9844 3.00304 15.9837 3.00226C15.9834 3.00187 15.9831 3.00153 15.9829 3.00124C15.9827 3.0011 15.9826 3.00096 15.9825 3.00085C15.9825 3.00079 15.9824 3.00073 15.9824 3.00068C15.9824 3.00065 15.9823 3.00061 15.9823 3.0006C15.9823 3.00057 15.9823 3.00053 15.5272 3.39162ZM15.247 4.02383C15.2971 4.12318 15.3121 4.1702 15.3403 4.31284L16.5175 4.0802C16.4747 3.86336 16.4307 3.70612 16.3187 3.48382L15.247 4.02383ZM15.3667 4.59803C15.3738 4.70569 15.3742 4.8565 15.3721 4.99123C15.371 5.05628 15.3695 5.11361 15.3682 5.15456C15.3675 5.17498 15.367 5.19121 15.3665 5.20214C15.3663 5.2076 15.3662 5.21172 15.3661 5.21438C15.366 5.21571 15.366 5.21667 15.366 5.21725C15.366 5.21753 15.3659 5.21773 15.3659 5.21782C15.3659 5.21786 15.3659 5.21789 15.3659 5.21788C15.3659 5.21788 15.3659 5.21787 15.3659 5.21786C15.3659 5.21785 15.3659 5.21784 15.3659 5.21783C15.3659 5.21782 15.3659 5.2178 15.9654 5.2429C16.5649 5.26801 16.5649 5.26798 16.5649 5.26796C16.5649 5.26795 16.5649 5.26793 16.5649 5.26791C16.5649 5.26787 16.5649 5.26782 16.5649 5.26777C16.5649 5.26766 16.5649 5.26753 16.5649 5.26738C16.5649 5.26707 16.5649 5.26666 16.565 5.26614C16.565 5.26512 16.5651 5.26371 16.5651 5.26191C16.5653 5.25832 16.5655 5.25321 16.5657 5.24673C16.5662 5.23378 16.5669 5.21529 16.5676 5.19239C16.569 5.1467 16.5707 5.08295 16.5719 5.01027C16.5741 4.86954 16.5746 4.67826 16.5641 4.51943L15.3667 4.59803ZM15.3667 5.2041L15.3302 5.76754L16.5276 5.84514L16.5642 5.28171L15.3667 5.2041ZM16.2373 8.42765C16.3095 8.23731 16.3543 8.10889 16.4166 7.986L15.3464 7.44313C15.2466 7.6398 15.1714 7.85426 15.1154 8.00165L16.2373 8.42765ZM19.4255 11.4225C19.3721 11.392 19.3297 11.3678 19.2848 11.3388L18.6346 12.3474C18.7109 12.3966 18.7803 12.436 18.8319 12.4654L19.4255 11.4225ZM20.2769 12.4091L20.2595 12.369L19.1587 12.8468L19.1761 12.8869L20.2769 12.4091ZM20.6212 14.4354L20.5066 13.1964L19.3117 13.307L19.4263 14.546L20.6212 14.4354ZM19.3989 15.8203C20.1653 15.825 20.6861 15.1363 20.6212 14.4354L19.4263 14.546C19.4294 14.5791 19.4184 14.6023 19.4081 14.6145C19.4031 14.6204 19.3997 14.6219 19.4002 14.6217C19.4015 14.6211 19.4042 14.6204 19.4062 14.6204L19.3989 15.8203ZM15.7647 6.61849L15.5556 7.03081L16.6257 7.57368L16.8349 7.16136L15.7647 6.61849ZM15.5556 7.03081L15.3464 7.44314L16.4166 7.986L16.6257 7.57368L15.5556 7.03081ZM15.3324 5.87084L15.4941 7.36675L16.6872 7.23774L16.5254 5.74184L15.3324 5.87084ZM12.9439 3.58846C12.9644 3.58814 12.9882 3.58717 13.0137 3.58479C13.0384 3.58248 13.0718 3.57823 13.1096 3.56948C13.129 3.565 13.152 3.55876 13.1775 3.54988C13.2028 3.54108 13.2336 3.52859 13.2671 3.51071C13.3005 3.49286 13.3405 3.46763 13.3813 3.43218C13.4226 3.39628 13.4657 3.34903 13.5025 3.28843C13.5399 3.2269 13.5666 3.15828 13.5803 3.08543C13.5939 3.01337 13.593 2.94633 13.5848 2.88829C13.5768 2.83118 13.5618 2.78315 13.5469 2.74588C13.5319 2.70863 13.5155 2.67813 13.5014 2.655C13.4873 2.63169 13.4735 2.6125 13.4622 2.59779C13.4508 2.58296 13.4403 2.57061 13.4317 2.56104C13.4153 2.54266 13.401 2.52871 13.3941 2.52211C13.3903 2.51848 13.3871 2.51548 13.3855 2.514C13.3849 2.51337 13.3839 2.51244 13.3838 2.51235C13.3834 2.51202 13.3835 2.51211 13.3838 2.51236C13.3842 2.51274 13.3866 2.51498 13.3898 2.51818C13.3931 2.52133 13.3988 2.52704 13.4059 2.53459C13.4127 2.5419 13.4234 2.55371 13.4356 2.56916C13.4474 2.58397 13.4654 2.60823 13.484 2.64056C13.4936 2.65719 13.5045 2.67803 13.5151 2.70275C13.5257 2.72738 13.5369 2.75817 13.5458 2.79443C13.5637 2.86713 13.5744 2.97088 13.5435 3.0886C13.5282 3.14697 13.5042 3.20241 13.4725 3.25314C13.4411 3.30348 13.405 3.34481 13.3685 3.37804C13.3325 3.41094 13.2967 3.43553 13.2651 3.45379C13.2335 3.47201 13.2043 3.48504 13.1797 3.49441C13.1321 3.5126 13.0913 3.521 13.0654 3.52522C13.0383 3.52963 13.0159 3.53128 13.0008 3.53198C12.9853 3.53269 12.9725 3.5326 12.9637 3.53238C12.9546 3.53215 12.9474 3.53171 12.9424 3.53135C12.9374 3.53098 12.9337 3.53061 12.9314 3.53037C12.9292 3.53013 12.9279 3.52996 12.9276 3.52993L13.0837 2.34012C13.0685 2.33813 13.0501 2.33602 13.03 2.33455C13.0115 2.33319 12.9815 2.3316 12.9458 2.33324C12.9274 2.33409 12.9021 2.33601 12.8726 2.34082C12.8442 2.34544 12.8015 2.35436 12.7522 2.37317C12.7039 2.39158 12.6313 2.42627 12.5596 2.49173C12.5227 2.52538 12.4861 2.56714 12.4544 2.61795C12.4225 2.66914 12.3983 2.72507 12.3828 2.78395C12.3517 2.90269 12.3624 3.00756 12.3806 3.08145C12.3982 3.15295 12.4254 3.20681 12.444 3.23913C12.4634 3.27281 12.4825 3.29849 12.4954 3.31479C12.5088 3.33172 12.5208 3.34507 12.5292 3.35399C12.5447 3.37063 12.5585 3.38349 12.5616 3.38639C12.5699 3.39424 12.5636 3.38825 12.563 3.38768C12.56 3.38487 12.5496 3.37477 12.5366 3.36023C12.5246 3.34683 12.5004 3.31849 12.4756 3.27774C12.4524 3.23949 12.4116 3.16265 12.3966 3.05548C12.3886 2.99921 12.3878 2.93392 12.401 2.86355C12.4144 2.7924 12.4405 2.72543 12.4769 2.66549C12.5485 2.5475 12.6429 2.4836 12.7021 2.45205C12.7613 2.42043 12.8124 2.40655 12.8391 2.40037C12.8681 2.39365 12.8907 2.39106 12.9022 2.38998C12.9147 2.38882 12.9229 2.38864 12.9254 2.3886L12.9439 3.58846ZM12.9276 3.52993C12.9618 3.53441 13.0016 3.53964 13.046 3.54494L13.1884 2.35343C13.1518 2.34905 13.1184 2.34467 13.0837 2.34012L12.9276 3.52993ZM13.046 3.54494C13.093 3.55056 13.1319 3.55903 13.196 3.57361L13.462 2.40345C13.3987 2.38906 13.3046 2.36732 13.1884 2.35343L13.046 3.54494ZM13.196 3.57361C13.2912 3.59525 13.4357 3.62941 13.6284 3.62941V2.42941C13.582 2.42941 13.5524 2.42401 13.462 2.40345L13.196 3.57361ZM13.6284 3.62941C13.8212 3.62941 13.9656 3.59525 14.0608 3.57361L13.7949 2.40345C13.7044 2.42401 13.6748 2.42941 13.6284 2.42941V3.62941ZM14.0608 3.57361C14.125 3.55903 14.1638 3.55056 14.2109 3.54494L14.0684 2.35343C13.9522 2.36732 13.8582 2.38906 13.7949 2.40345L14.0608 3.57361ZM14.2109 3.54494C14.2552 3.53964 14.295 3.53441 14.3292 3.52993L14.1731 2.34012C14.1385 2.34467 14.105 2.34905 14.0684 2.35343L14.2109 3.54494ZM14.3292 3.52993C14.4485 3.51428 14.5067 3.50709 14.6051 3.5086L14.6236 2.30874C14.4316 2.30579 14.2994 2.32356 14.1731 2.34012L14.3292 3.52993ZM15.3403 4.31284C15.3536 4.38047 15.3563 4.41931 15.3616 4.51383L16.5597 4.44557C16.5539 4.34446 16.5481 4.23493 16.5175 4.08021L15.3403 4.31284ZM15.3616 4.51381C15.363 4.53812 15.3646 4.56661 15.3667 4.59803L16.5641 4.51943C16.5625 4.49392 16.5611 4.47036 16.5597 4.44559L15.3616 4.51381ZM16.6632 1.74198C16.6561 1.73265 16.6492 1.72344 16.6422 1.71415L15.684 2.43662C15.691 2.4459 15.6983 2.45561 15.7059 2.46556L16.6632 1.74198ZM16.6421 1.71413C16.5113 1.54063 16.3603 1.33245 16.0492 1.16094L15.4698 2.2118C15.5118 2.23494 15.5331 2.253 15.5535 2.27391C15.5833 2.30448 15.6139 2.34359 15.684 2.43664L16.6421 1.71413ZM14.7597 0.136363C14.4164 0.00215399 14.1632 0.00973564 13.9297 0.0138469L13.9508 1.21366C14.1687 1.20982 14.2157 1.21212 14.3229 1.25401L14.7597 0.136363ZM13.9296 0.0138471C13.9113 0.0141694 13.8934 0.0144854 13.875 0.0147635L13.8931 1.21463C13.9132 1.21432 13.9327 1.21398 13.9508 1.21366L13.9296 0.0138471ZM12.252 1.25862C11.9288 1.76413 11.9287 1.76407 11.9286 1.76401C11.9285 1.76399 11.9284 1.76392 11.9284 1.76388C11.9283 1.7638 11.9281 1.76373 11.928 1.76365C11.9278 1.7635 11.9276 1.76337 11.9274 1.76324C11.927 1.76298 11.9266 1.76277 11.9264 1.7626C11.9259 1.76226 11.9256 1.76208 11.9256 1.76207C11.9255 1.76205 11.9265 1.76267 11.9283 1.76388C11.9319 1.76632 11.9387 1.77103 11.9477 1.77767C11.9665 1.79135 11.9918 1.81103 12.0177 1.83412C12.0444 1.85799 12.0648 1.87946 12.0779 1.89593C12.0928 1.91464 12.0853 1.91073 12.0758 1.8834L13.2092 1.48933C13.1171 1.22436 12.9218 1.03268 12.8171 0.939145C12.7552 0.883922 12.6979 0.839591 12.6558 0.808849C12.6345 0.793274 12.6164 0.780658 12.6027 0.771339C12.5958 0.766667 12.59 0.762788 12.5854 0.759743C12.5831 0.758219 12.581 0.756901 12.5793 0.755794C12.5785 0.75524 12.5777 0.754739 12.577 0.754291C12.5767 0.754066 12.5763 0.753855 12.576 0.753658C12.5759 0.753559 12.5757 0.753463 12.5756 0.753371C12.5755 0.753325 12.5754 0.753258 12.5754 0.753235C12.5753 0.75317 12.5752 0.753105 12.252 1.25862ZM12.0758 1.8834C12.138 2.06242 12.2127 2.2079 12.2576 2.30125C12.304 2.39785 12.3318 2.46353 12.352 2.54577L13.5172 2.25877C13.4672 2.05596 13.3972 1.9024 13.3392 1.78167C13.2797 1.65769 13.2434 1.58774 13.2092 1.48933L12.0758 1.8834ZM12.352 2.54577C12.3518 2.54484 12.3531 2.55011 12.3546 2.56292C12.3561 2.57535 12.3574 2.59153 12.3582 2.61145C12.3598 2.65195 12.3589 2.69794 12.3562 2.74434C12.3536 2.79001 12.3495 2.83095 12.3462 2.8602C12.3446 2.87464 12.3431 2.88575 12.3422 2.8926C12.3417 2.89601 12.3414 2.89833 12.3413 2.89943C12.3412 2.89999 12.3411 2.90023 12.3412 2.90016C12.3412 2.90012 12.3412 2.9 12.3412 2.8998C12.3412 2.8997 12.3412 2.89958 12.3413 2.89944C12.3413 2.89936 12.3413 2.89929 12.3413 2.89921C12.3413 2.89917 12.3413 2.8991 12.3413 2.89908C12.3413 2.89901 12.3413 2.89895 12.9346 2.98853C13.5279 3.07811 13.5279 3.07804 13.5279 3.07797C13.5279 3.07794 13.5279 3.07787 13.5279 3.07782C13.5279 3.07771 13.528 3.0776 13.528 3.07749C13.528 3.07726 13.5281 3.07701 13.5281 3.07673C13.5282 3.07618 13.5283 3.07554 13.5284 3.0748C13.5286 3.07334 13.5289 3.07152 13.5292 3.06935C13.5298 3.06502 13.5306 3.05932 13.5315 3.05236C13.5334 3.03846 13.5358 3.01943 13.5385 2.99631C13.5437 2.95046 13.55 2.88661 13.5542 2.81356C13.5616 2.68485 13.5674 2.46247 13.5172 2.25877L12.352 2.54577ZM16.4869 15.8028L19.3989 15.8203L19.4062 14.6204L16.4941 14.6029L16.4869 15.8028ZM15.3005 10.9688L15.9213 10.3292L15.0602 9.49348L14.4394 10.1331L15.3005 10.9688ZM13.8941 1.21461L13.9503 1.21367L13.9302 0.0138381L13.874 0.0147792L13.8941 1.21461ZM15.6842 2.43682L15.7056 2.46521L16.6634 1.74234L16.642 1.71395L15.6842 2.43682ZM12.5383 10.2484C12.7549 10.3309 12.9867 10.3481 13.1572 10.3495C13.3378 10.351 13.5061 10.3345 13.6214 10.3196L13.4674 9.12947C13.3835 9.14032 13.2737 9.15042 13.1669 9.14956C13.0501 9.14861 12.9853 9.13455 12.9657 9.12709L12.5383 10.2484ZM14.7361 11.7537L15.3549 10.9042L14.385 10.1977L13.7662 11.0472L14.7361 11.7537ZM13.9387 11.9127L15.3243 12.7578L15.9492 11.7334L14.5636 10.8882L13.9387 11.9127ZM15.156 12.6046L15.6099 13.2125L16.5714 12.4945L16.1175 11.8866L15.156 12.6046ZM15.5029 12.974L15.712 13.9941L16.8876 13.7531L16.6784 12.733L15.5029 12.974ZM15.7059 13.9588L15.8966 15.288L17.0844 15.1177L16.8937 13.7884L15.7059 13.9588ZM13.7847 9.09034C13.6715 9.10091 13.55 9.11878 13.4674 9.12947L13.6214 10.3196C13.736 10.3047 13.8114 10.2931 13.8963 10.2851L13.7847 9.09034Z" fill="#898989"/>
</svg>
