<svg width="31" height="26" viewBox="0 0 31 26" fill="none" xmlns="http://www.w3.org/2000/svg">
<path d="M27.9162 15.44L30.5 18.0001L28.91 19.4772L26.3261 17.0155L27.9162 15.44Z" fill="#6F6E6E"/>
<path d="M20.7149 22.38L20.3836 25.2027H23.2324L28.4599 19.8403L25.9064 17.357L20.7149 22.38Z" fill="#6F6E6E"/>
<path fill-rule="evenodd" clip-rule="evenodd" d="M12.8506 14.4293L12.5977 14.4514C10.9457 14.5956 9.41838 13.6006 8.819 12.0434C8.71876 11.783 8.625 11.5188 8.49772 11.2712L7.82084 9.95459C7.2508 9.80061 6.78012 9.03881 6.71582 8.0915C6.66089 7.28233 6.91787 6.56468 7.33283 6.22664C7.18577 4.45152 7.92968 2.77852 9.1945 1.70777L10.3156 0.835725C10.3156 0.835725 10.9026 0.479147 11.3095 0.32383C11.547 0.233182 11.6839 0.190285 11.9307 0.131871C12.3119 0.041652 12.5335 0.00941633 12.9246 0.00389732C13.3639 -0.00230153 13.6287 -0.0194086 14.0427 0.131871C14.3292 0.236533 14.5011 0.305195 14.726 0.515789C14.9055 0.683861 15.0987 1.02768 15.0987 1.02768L15.2995 1.4116C15.3467 1.44446 15.3934 1.47809 15.4394 1.51248C15.4394 1.51248 15.87 1.58147 16.1151 1.70777C16.4533 1.88205 16.596 2.07211 16.8381 2.3714C17.0914 2.68465 17.1981 2.89449 17.3586 3.26722C17.5913 3.8081 17.6611 4.14922 17.7077 4.73891C17.7647 5.4592 17.5059 6.57772 17.5059 6.57772C17.8811 6.97026 18.0392 7.73209 17.8641 8.53778C17.7254 9.17581 17.4091 9.69715 17.0342 9.98099L16.3226 11.2921C16.1847 11.5461 16.0827 11.8187 15.9736 12.0872C15.4423 13.3948 14.2448 14.3076 12.8506 14.4293ZM12.4898 13.953C14.6511 13.953 16.4032 11.4033 16.4032 8.25817L16.4654 7.36236C16.4654 7.36236 16.4951 6.69828 16.4654 6.27459C16.4495 6.0489 16.45 5.9198 16.4032 5.69871C16.3428 5.41293 16.2926 5.25054 16.1548 4.99485C16.0205 4.74578 15.7199 4.41897 15.7199 4.41897C15.7199 4.41897 15.524 4.11222 15.3472 3.97106C15.1758 3.83417 14.8503 3.71554 14.8503 3.71554C14.8503 3.71554 14.4349 3.65499 14.167 3.65113C13.8507 3.64658 13.6739 3.6804 13.3594 3.71554C13.0184 3.75365 12.8328 3.84309 12.4898 3.84309C12.1467 3.84309 11.9612 3.75365 11.6201 3.71554C11.3057 3.6804 11.1289 3.64658 10.8126 3.65113C10.5446 3.65499 10.1293 3.71554 10.1293 3.71554L9.75657 3.97106C9.75657 3.97106 9.36985 4.28305 9.1975 4.54694C9.02148 4.81648 8.99643 5.01015 8.88691 5.31479C8.7457 5.7076 8.65496 5.9276 8.57632 6.33857C8.43558 7.07407 8.57632 8.25817 8.57632 8.25817C8.57632 11.4033 10.3284 13.953 12.4898 13.953Z" fill="#6F6E6E"/>
<path d="M11.3716 18.3681H12.8625L13.5458 16.8186H10.6883L11.3716 18.3681Z" fill="#6F6E6E"/>
<path d="M7.89301 15.1048C7.40848 15.4829 6.52641 15.8726 6.52641 15.8726L5.78099 16.2565L5.1598 16.5125L2.05389 18.1121L1.49482 18.752C1.49482 18.752 1.11131 19.7128 0.935756 20.3517C0.647916 21.3992 0.500928 23.1031 0.500928 23.1031C0.466826 24.2447 1.3771 25.1917 2.51921 25.2027L15.3059 25.326L15.4394 25.3262L16.2169 25.3273H18.5862L19.0441 21.8497L21.3056 19.4772L20.3399 18.0001L19.5224 17.1795C19.5224 17.1795 18.9795 16.6813 18.5862 16.4246C18.1939 16.1686 17.5214 15.8726 17.5214 15.8726C17.4814 15.8508 17.4398 15.8278 17.3971 15.8038C16.8863 15.5177 16.2169 15.1048 16.2169 15.1048L15.9063 14.7848H15.6578L13.0488 20.2237L12.8625 18.3681H11.3716L10.9989 20.2237L8.63843 14.7848H8.26572C8.26572 14.7848 8.04402 14.9869 7.89301 15.1048Z" fill="#6F6E6E"/>
</svg>
