<svg width="22" height="19" viewBox="0 0 22 19" fill="none" xmlns="http://www.w3.org/2000/svg">
<path d="M19.128 10.949C19.6678 11.4385 20.0953 11.909 20.3908 12.3437C20.1089 11.8632 19.6674 11.3311 19.1469 10.8306C19.1409 10.8702 19.1346 10.9096 19.128 10.949Z" fill="#898989"/>
<path d="M3.72106 4.25092C3.94561 4.26053 4.18184 4.27887 4.42872 4.30579C4.44805 4.2801 4.46751 4.25452 4.48712 4.22906C4.23053 4.22706 3.9722 4.23429 3.72106 4.25092Z" fill="#898989"/>
<path fill-rule="evenodd" clip-rule="evenodd" d="M20.5161 13.8135C20.521 13.8021 20.5256 13.7906 20.5299 13.779C20.1292 14.2214 19.173 14.3591 17.8542 14.2232L17.8387 14.2216C17.6878 14.2059 17.5322 14.1866 17.3721 14.1637L17.3471 14.1601C15.8393 13.9422 13.9417 13.414 11.8923 12.6143C11.7517 12.5594 11.6104 12.5033 11.4685 12.4459C11.2338 12.3509 10.9974 12.2526 10.7595 12.1508L10.6951 12.1231C10.4767 12.0292 10.2572 11.9324 10.0369 11.8328C9.29784 11.4989 8.58821 11.151 7.91597 10.7958C7.67955 10.6708 7.44776 10.545 7.22094 10.4185C7.03742 10.3162 6.85716 10.2135 6.68033 10.1105C6.60826 10.0685 6.53676 10.0265 6.46584 9.9844C5.25576 9.26676 4.21573 8.53955 3.40777 7.85347C3.37655 7.82696 3.34567 7.80051 3.31515 7.77412C3.217 7.68929 3.12248 7.60512 3.03169 7.52171C3.00366 7.49595 2.97598 7.47027 2.94866 7.44466C1.89231 6.45443 1.37421 5.57721 1.59691 4.97856C1.53651 5.04524 1.48873 5.11885 1.45423 5.19948C1.31443 5.52621 1.40473 5.94 1.69035 6.41242C1.97057 6.82949 2.37329 7.27992 2.88094 7.74883C2.91188 7.77741 2.94321 7.80606 2.97493 7.83477C3.06546 7.91673 3.15914 7.99923 3.25587 8.08217C3.29031 8.11171 3.32514 8.1413 3.36035 8.17094C4.26355 8.93138 5.41853 9.72732 6.75483 10.499L6.75651 10.5001L6.77849 10.5127C6.79908 10.5244 6.81968 10.5361 6.84036 10.5479C7.13799 10.7168 7.44464 10.8848 7.75949 11.0512C8.43173 11.4064 9.14137 11.7543 9.8804 12.0883C10.1008 12.1879 10.3203 12.2846 10.5386 12.3785C10.7982 12.4902 11.0561 12.5978 11.312 12.7013C12.6471 13.2413 13.9257 13.6692 15.084 13.9749C15.8239 14.1674 16.5195 14.3115 17.1559 14.4051L17.1943 14.4107C17.3524 14.4336 17.5068 14.4533 17.6572 14.4698L17.6852 14.4728C17.9136 14.4974 18.1328 14.5145 18.3419 14.5242C19.5067 14.5647 20.2918 14.3376 20.5161 13.8135ZM11.312 12.7013C11.0561 12.5978 10.7982 12.4902 10.5386 12.3785C10.3203 12.2846 10.1008 12.1879 9.8804 12.0883C9.14137 11.7543 8.43173 11.4064 7.75949 11.0512C7.44464 10.8848 7.13799 10.7168 6.84036 10.5479C6.81968 10.5361 6.79908 10.5244 6.77849 10.5127C7.32479 10.8275 7.90124 11.1383 8.50302 11.4409C8.95706 11.6693 9.42552 11.8929 9.90636 12.1102C10.1191 12.2064 10.3311 12.2998 10.5422 12.3906C10.7466 12.4785 10.9501 12.5638 11.1524 12.6466L11.287 12.7013H11.312Z" fill="#898989"/>
<path d="M19.1469 10.8306C19.6674 11.3311 20.1089 11.8632 20.3908 12.3437C20.8121 12.9636 20.9649 13.5107 20.7918 13.9365C20.8545 13.8634 20.9047 13.7834 20.9419 13.6965C21.2327 13.0168 20.3977 11.5438 19.2042 10.3766C19.189 10.5292 19.1699 10.6806 19.1469 10.8306Z" fill="#898989"/>
<path d="M20.3908 12.3437C20.6764 12.8305 20.7983 13.2642 20.6726 13.5581C20.6381 13.6387 20.5903 13.7123 20.5299 13.779C20.5256 13.7906 20.521 13.8021 20.5161 13.8135C20.2918 14.3376 19.5067 14.5647 18.3419 14.5242C19.5349 14.5794 20.4026 14.3908 20.7918 13.9365C20.9649 13.5107 20.8121 12.9636 20.3908 12.3437Z" fill="#898989"/>
<path d="M19.128 10.949C19.1128 11.04 19.0962 11.1304 19.0782 11.2203C20.2016 12.2484 20.7595 13.1617 20.5299 13.779C20.5903 13.7123 20.6381 13.6387 20.6726 13.5581C20.7983 13.2642 20.6764 12.8305 20.3908 12.3437C20.0953 11.909 19.6678 11.4385 19.128 10.949Z" fill="#898989"/>
<path d="M1.61071 4.94404C1.78106 4.54593 2.69043 4.31918 3.72106 4.25092C2.54458 4.20056 1.68885 4.3898 1.30314 4.8401C1.132 5.26122 1.27953 5.80097 1.69035 6.41242C1.40473 5.94 1.31443 5.52621 1.45423 5.19948C1.48873 5.11885 1.53651 5.04524 1.59691 4.97856C1.60123 4.96695 1.60583 4.95545 1.61071 4.94404Z" fill="#898989"/>
<path d="M3.72106 4.25092C3.9722 4.23429 4.23053 4.22706 4.48712 4.22906C4.5491 4.14859 4.61246 4.0693 4.67717 3.99123C3.14526 3.95252 1.56829 4.22005 1.30957 4.82467L1.30314 4.8401C1.68885 4.3898 2.54458 4.20056 3.72106 4.25092Z" fill="#898989"/>
<path d="M4.26334 4.53336C4.31726 4.45653 4.3724 4.38066 4.42872 4.30579C4.18184 4.27887 3.94561 4.26053 3.72106 4.25092C2.69043 4.31918 1.78106 4.54593 1.61071 4.94404C1.60583 4.95545 1.60123 4.96695 1.59691 4.97856C1.9967 4.53717 2.94933 4.39911 4.26334 4.53336Z" fill="#898989"/>
<path d="M19.2477 9.5C19.2477 4.80558 15.5445 1 10.9765 1C8.45346 1 6.1943 2.16088 4.67717 3.99123C4.61246 4.0693 4.5491 4.14859 4.48712 4.22906C4.46751 4.25452 4.44805 4.2801 4.42872 4.30579C4.3724 4.38066 4.31726 4.45653 4.26334 4.53336C3.65766 5.39642 3.20569 6.38098 2.94866 7.44466C2.97598 7.47027 3.00366 7.49595 3.03169 7.52171C3.12248 7.60512 3.217 7.68929 3.31515 7.77412C3.48508 6.97382 3.77072 6.21795 4.15317 5.52597C4.27915 5.29803 4.41563 5.07702 4.56194 4.86364C4.62456 4.77231 4.68899 4.68237 4.75516 4.59389C4.81179 4.51816 4.86971 4.44349 4.92887 4.36992C4.96201 4.3287 4.99555 4.28783 5.02948 4.2473C5.09437 4.16978 5.16067 4.09355 5.22834 4.01864C6.03995 3.12022 7.04856 2.41238 8.18357 1.96767C8.46273 1.8583 8.74953 1.76484 9.04292 1.68839C9.11415 1.66982 9.18577 1.65226 9.25776 1.63572C9.81087 1.50861 10.386 1.44156 10.9765 1.44156C12.0846 1.44156 13.1391 1.67778 14.0948 2.1039C14.3139 2.20161 14.5279 2.30931 14.7361 2.42644C16.59 3.46929 17.9892 5.25943 18.5498 7.4026C18.6066 7.61988 18.6549 7.8408 18.6941 8.06494C18.7755 8.53063 18.818 9.01021 18.818 9.5C18.818 9.87775 18.7927 10.2494 18.7438 10.6134C18.7313 10.7059 18.7174 10.798 18.7019 10.8895C18.4982 12.0938 18.0344 13.2063 17.3721 14.1637C17.5322 14.1866 17.6878 14.2059 17.8387 14.2216L17.8542 14.2232C18.4376 13.3279 18.8598 12.3123 19.0782 11.2203C19.0962 11.1304 19.1128 11.04 19.128 10.949C19.1346 10.9096 19.1409 10.8702 19.1469 10.8306C19.1699 10.6806 19.189 10.5292 19.2042 10.3766C19.233 10.0884 19.2477 9.79599 19.2477 9.5Z" fill="#898989"/>
<path d="M8.9355 2.65584C9.00605 2.45285 8.9355 2.1039 8.9355 2.1039L9.04292 1.68839C8.74953 1.76484 8.46273 1.8583 8.18357 1.96767C7.04856 2.41238 6.03995 3.12022 5.22834 4.01864C5.16067 4.09355 5.09437 4.16978 5.02948 4.2473C4.99555 4.28783 4.96201 4.3287 4.92887 4.36992C4.86971 4.44349 4.81179 4.51816 4.75516 4.59389C4.68899 4.68237 4.62456 4.77231 4.56194 4.86364C4.41563 5.07702 4.27915 5.29803 4.15317 5.52597L4.20908 5.74675L4.42392 6.18831C4.42392 6.18831 4.47205 6.46289 4.53133 6.62987C4.59564 6.81098 4.74617 7.07143 4.74617 7.07143C4.74617 7.07143 4.83826 7.31178 4.96101 7.4026C5.16527 7.55373 5.60552 7.4026 5.60552 7.4026C5.60552 7.4026 5.73892 7.46516 5.82036 7.51299C6.00247 7.61993 6.25003 7.84416 6.25003 7.84416L6.46487 7.95455C6.46487 7.95455 6.69333 7.94055 6.78713 7.84416C6.88093 7.74776 6.89455 7.51299 6.89455 7.51299C6.89455 7.51299 7.00711 7.082 6.89455 6.85065C6.81495 6.68706 6.57229 6.51948 6.57229 6.51948L6.35745 6.18831V5.96753L6.46487 5.85714L6.78713 5.96753L7.00197 6.07792C7.00197 6.07792 7.25868 6.18831 7.43164 6.18831C7.6046 6.18831 7.86132 6.07792 7.86132 6.07792L8.18357 5.85714L8.39841 5.63636L8.50583 5.19481L8.77363 4.86364L9.15034 4.53247L9.58002 4.31169L9.90227 3.98052C9.90227 3.98052 10.1598 3.90021 10.2245 3.75974C10.2784 3.64286 10.2245 3.42857 10.2245 3.42857L10.0097 3.20779L9.58002 3.0974C9.58002 3.0974 9.25625 3.00305 9.04292 2.98701C8.91741 2.97758 8.79793 3.0891 8.72067 2.98701C8.62781 2.86432 8.88463 2.80222 8.9355 2.65584Z" fill="#898989"/>
<path d="M14.0948 2.1039C14.0948 2.1039 13.9427 2.80603 14.0948 3.20779C14.1286 3.2971 14.1578 3.3426 14.199 3.42857C14.2405 3.51505 14.2601 3.56552 14.3064 3.64935C14.5407 4.07352 14.884 4.13998 15.1658 4.53247C15.2556 4.65755 15.326 4.71868 15.3806 4.86364C15.4715 5.10485 15.3547 5.26869 15.3806 5.52597C15.4162 5.87958 15.455 6.08424 15.5955 6.40909C15.6948 6.6388 15.9177 6.96104 15.9177 6.96104C15.9177 6.96104 16.1516 7.32399 16.3474 7.51299C16.5003 7.66057 16.5858 7.75574 16.7771 7.84416C16.9721 7.93432 17.1035 7.91646 17.3142 7.95455C17.6063 8.00736 17.7701 8.04538 18.0661 8.06494C18.3108 8.08111 18.6941 8.06494 18.6941 8.06494C18.6549 7.8408 18.6066 7.61988 18.5498 7.4026C17.9892 5.25943 16.59 3.46929 14.7361 2.42644C14.5279 2.30931 14.3139 2.20161 14.0948 2.1039Z" fill="#898989"/>
<path d="M12.0506 12.3701C12.1345 12.2408 12.0361 12.1004 12.0506 11.9286C12.0692 11.7096 12.0696 11.5767 12.1581 11.3766C12.2207 11.2351 12.3729 11.0455 12.3729 11.0455L12.4803 10.7143C12.4803 10.7143 12.6223 10.4469 12.5877 10.2727C12.5575 10.1204 12.4679 10.0626 12.3729 9.94156C12.2612 9.79919 12.2052 9.70113 12.0506 9.61039C11.8649 9.50133 11.5136 9.5 11.5136 9.5C11.5136 9.5 11.1047 9.59082 10.869 9.5C10.5913 9.39297 10.3319 8.94805 10.3319 8.94805C10.3319 8.94805 9.73205 8.32421 9.25776 8.06494C9.07515 7.96511 8.97031 7.90999 8.77363 7.84416C8.59003 7.7827 8.29099 7.73377 8.29099 7.73377C8.29099 7.73377 7.95718 7.68066 7.7539 7.73377C7.51683 7.7957 7.3978 7.89584 7.2168 8.06494C6.99297 8.27405 6.91764 8.44683 6.78713 8.72727C6.67266 8.97324 6.57229 9.38961 6.57229 9.38961C6.57229 9.38961 6.46585 9.72174 6.46487 9.94156C6.46481 9.9553 6.46516 9.96964 6.46584 9.9844C6.53676 10.0265 6.60826 10.0685 6.68033 10.1105C6.85716 10.2135 7.03742 10.3162 7.22094 10.4185C7.44776 10.545 7.67955 10.6708 7.91597 10.7958C8.58821 11.151 9.29784 11.4989 10.0369 11.8328C10.2572 11.9324 10.4767 12.0292 10.6951 12.1231L10.7595 12.1508C10.9974 12.2526 11.2338 12.3509 11.4685 12.4459C11.6104 12.5033 11.7517 12.5594 11.8923 12.6143L12.0506 12.3701Z" fill="#898989"/>
<path d="M8.61325 15.9026C8.7541 15.9084 8.9355 15.7355 8.9355 15.7355C8.9355 15.7355 9.07604 15.5755 9.15034 15.461C9.25448 15.3007 9.30087 15.2006 9.36518 15.0195C9.39482 14.936 9.40685 14.8673 9.41889 14.7987C9.43092 14.7301 9.44295 14.6614 9.4726 14.5779L9.4897 14.5294C9.54359 14.376 9.58007 14.2722 9.68743 14.1364C9.80744 13.9846 9.91329 13.9233 10.0681 13.8337L10.1171 13.8052C10.2059 13.7533 10.2874 13.7318 10.3666 13.7109C10.4626 13.6856 10.5554 13.6611 10.6542 13.5844C10.7489 13.5109 10.8053 13.4665 10.869 13.3636C10.9068 13.3027 10.9316 13.2184 10.9477 13.1397L10.9193 13.1281C10.7315 13.0513 10.5427 12.9723 10.3531 12.891L10.3091 12.8721C10.098 12.7814 9.88601 12.6879 9.67326 12.5918C9.32367 12.4338 8.98062 12.2724 8.6449 12.1084C8.51886 12.0468 8.39386 11.9848 8.26993 11.9225C7.80183 11.6871 7.34906 11.4468 6.91388 11.2034C7.00235 11.305 7.08857 11.3837 7.2168 11.487C7.33585 11.5829 7.53906 11.7078 7.53906 11.7078L7.86132 12.039L7.96873 12.4805C7.96873 12.4805 7.82929 13.9048 7.96873 14.7987C7.97872 14.8627 7.98446 14.9195 7.98986 14.973C8.00277 15.1009 8.01374 15.2095 8.07615 15.3506C8.13874 15.4922 8.29099 15.6818 8.29099 15.6818C8.29099 15.6818 8.46212 15.8964 8.61325 15.9026Z" fill="#898989"/>
<path fill-rule="evenodd" clip-rule="evenodd" d="M1.09661 5.26242C1.13114 5.19224 1.17457 5.12686 1.22652 5.06621C1.05538 5.48733 1.2029 6.02708 1.61373 6.63854C1.8652 7.05447 2.26807 7.51584 2.7986 8.00326C2.91762 8.11261 3.04307 8.22327 3.17467 8.33502C4.02998 9.0613 5.14537 9.83369 6.44724 10.592L6.46915 10.6048C6.53887 10.6453 6.60912 10.6858 6.67989 10.7262L6.70187 10.7388C7.24817 11.0537 7.82462 11.3644 8.4264 11.667C8.88044 11.8954 9.3489 12.119 9.82974 12.3363C10.0425 12.4325 10.2545 12.5259 10.4655 12.6167C10.6699 12.7046 10.8734 12.7899 11.0758 12.8727L11.2103 12.9274C12.5471 13.468 13.833 13.8954 15.0074 14.201C15.7674 14.4015 16.4757 14.5494 17.1141 14.6417C17.2829 14.6661 17.4469 14.6866 17.6056 14.7032C17.837 14.7273 18.0572 14.7431 18.2653 14.7503C19.0014 14.7844 19.6137 14.7256 20.0662 14.5689C20.4218 14.4305 20.6682 14.2258 20.7854 13.9519L20.7918 13.9365C20.4026 14.3908 19.5349 14.5794 18.3419 14.5242C18.1338 14.517 17.9136 14.5012 17.6822 14.4771C17.5235 14.4605 17.3595 14.44 17.1907 14.4156C16.5523 14.3233 15.8441 14.1754 15.084 13.9749C13.9096 13.6693 12.6238 13.2419 11.287 12.7013L11.1524 12.6466C10.9501 12.5638 10.7466 12.4785 10.5422 12.3906C10.3311 12.2998 10.1191 12.2064 9.90636 12.1102C9.42552 11.8929 8.95706 11.6693 8.50302 11.4409C7.90124 11.1383 7.32479 10.8275 6.77849 10.5127L6.75651 10.5001C6.68574 10.4597 6.61549 10.4192 6.54577 10.3786L6.52386 10.3659C5.22199 9.60757 4.10661 8.83519 3.2513 8.10891C3.11969 7.99716 2.99424 7.8865 2.87522 7.77715C2.34469 7.28973 1.94182 6.82835 1.69035 6.41242C1.27953 5.80097 1.132 5.26122 1.30314 4.8401C1.24053 4.91319 1.1903 4.99316 1.1531 5.0801C1.12807 5.13859 1.10929 5.1994 1.09661 5.26242ZM2.78016 8.35088C2.73074 8.72668 2.70522 9.11028 2.70522 9.5C2.70522 14.1944 6.40838 18 10.9765 18C13.5305 18 15.8142 16.8103 17.3315 14.9408C17.1982 14.9252 17.0619 14.9072 16.9228 14.8867C16.8893 14.8818 16.8557 14.8767 16.822 14.8715C15.3861 16.5206 13.2992 17.5584 10.9765 17.5584C6.64568 17.5584 3.13489 13.9506 3.13489 9.5C3.13489 9.22715 3.14809 8.95746 3.17386 8.69157L3.12726 8.65249C3.00704 8.55128 2.89129 8.45069 2.78016 8.35088Z" fill="#898989"/>
<path d="M1.07648 5.30622C0.76583 6.03219 1.41747 7.11736 2.74184 8.31632L2.78016 8.35088C2.79164 8.26356 2.80442 8.17666 2.81846 8.09021C1.60078 6.98783 0.951806 5.98166 1.09661 5.26242C1.08952 5.27681 1.08281 5.29141 1.07648 5.30622Z" fill="#898989"/>
<path d="M6.59835 10.7545C5.26206 9.98275 4.10708 9.18682 3.20388 8.42638C3.19248 8.51434 3.18247 8.60274 3.17386 8.69157C4.07005 9.44017 5.20831 10.2221 6.52173 10.9806C6.65078 11.0551 6.78151 11.1294 6.91388 11.2034C6.8735 11.157 6.83265 11.1059 6.78713 11.0455C6.70577 10.9375 6.59835 10.7545 6.59835 10.7545Z" fill="#898989"/>
<path d="M3.20388 8.42638C3.06978 8.31348 2.94123 8.20135 2.81846 8.09021C2.80442 8.17666 2.79164 8.26356 2.78016 8.35088C2.89129 8.45069 3.00704 8.55128 3.12726 8.65249L3.17386 8.69157C3.18247 8.60274 3.19248 8.51434 3.20388 8.42638Z" fill="#898989"/>
<path d="M6.59835 10.7545C6.59835 10.7545 6.70577 10.9375 6.78713 11.0455C6.83265 11.1059 6.8735 11.157 6.91388 11.2034C7.34906 11.4468 7.80183 11.6871 8.26993 11.9225C8.39386 11.9848 8.51886 12.0468 8.6449 12.1084C8.98062 12.2724 9.32367 12.4338 9.67326 12.5918C9.88601 12.6879 10.098 12.7814 10.3091 12.8721L10.3531 12.891C10.5427 12.9723 10.7315 13.0513 10.9193 13.1281L10.9477 13.1397C10.9713 13.0248 10.9765 12.9221 10.9765 12.9221L10.996 12.902C10.7936 12.8193 10.5901 12.7339 10.3857 12.646C10.1746 12.5553 9.96263 12.4618 9.74988 12.3656C9.26905 12.1484 8.80059 11.9247 8.34655 11.6964C7.73607 11.3894 7.15167 11.074 6.59835 10.7545Z" fill="#898989"/>
<path d="M16.9994 14.6606C15.3191 14.4134 13.2253 13.8139 10.996 12.902L10.9765 12.9221C10.9765 12.9221 10.9713 13.0248 10.9477 13.1397C13.1221 14.027 15.1663 14.6166 16.822 14.8715C16.8823 14.8023 16.9414 14.732 16.9994 14.6606Z" fill="#898989"/>
<path d="M17.4241 14.9513C19.1793 15.144 20.3981 14.904 20.7088 14.178L20.7152 14.1626C20.5662 14.3366 20.347 14.4716 20.0662 14.5689C19.479 14.7974 18.5939 14.8452 17.5008 14.7252C17.4454 14.7981 17.389 14.8699 17.3315 14.9408C17.3625 14.9445 17.3934 14.948 17.4241 14.9513Z" fill="#898989"/>
<path d="M17.5008 14.7252C17.3381 14.7074 17.1709 14.6858 16.9994 14.6606C16.9414 14.732 16.8823 14.8023 16.822 14.8715C16.8557 14.8767 16.8893 14.8818 16.9228 14.8867C17.0619 14.9072 17.1982 14.9252 17.3315 14.9408C17.389 14.8699 17.4454 14.7981 17.5008 14.7252Z" fill="#898989"/>
<path d="M14.0948 2.1039C13.1391 1.67778 12.0846 1.44156 10.9765 1.44156C10.386 1.44156 9.81087 1.50861 9.25776 1.63572C9.18577 1.65226 9.11415 1.66982 9.04292 1.68839M14.0948 2.1039C14.0948 2.1039 13.9427 2.80603 14.0948 3.20779C14.1286 3.2971 14.1578 3.3426 14.199 3.42857C14.2405 3.51505 14.2601 3.56552 14.3064 3.64935C14.5407 4.07352 14.884 4.13998 15.1658 4.53247C15.2556 4.65755 15.326 4.71868 15.3806 4.86364C15.4715 5.10485 15.3547 5.26869 15.3806 5.52597C15.4162 5.87958 15.455 6.08424 15.5955 6.40909C15.6948 6.6388 15.9177 6.96104 15.9177 6.96104C15.9177 6.96104 16.1516 7.32399 16.3474 7.51299C16.5003 7.66057 16.5858 7.75574 16.7771 7.84416C16.9721 7.93432 17.1035 7.91646 17.3142 7.95455C17.6063 8.00736 17.7701 8.04538 18.0661 8.06494C18.3108 8.08111 18.6941 8.06494 18.6941 8.06494M14.0948 2.1039C14.3139 2.20161 14.5279 2.30931 14.7361 2.42644C16.59 3.46928 17.9892 5.25943 18.5498 7.4026C18.6066 7.61988 18.6549 7.8408 18.6941 8.06494M18.6941 8.06494C18.7755 8.53063 18.818 9.01021 18.818 9.5C18.818 9.87775 18.7927 10.2494 18.7438 10.6134C18.7313 10.7059 18.7174 10.798 18.7019 10.8895C18.4982 12.0938 18.0344 13.2063 17.3721 14.1637M4.15317 5.52597L4.20908 5.74675L4.42392 6.18831C4.42392 6.18831 4.47205 6.46289 4.53133 6.62987C4.59564 6.81098 4.74617 7.07143 4.74617 7.07143C4.74617 7.07143 4.83826 7.31178 4.96101 7.4026C5.16527 7.55373 5.60552 7.4026 5.60552 7.4026C5.60552 7.4026 5.73892 7.46516 5.82036 7.51299C6.00247 7.61993 6.25003 7.84416 6.25003 7.84416L6.46487 7.95455C6.46487 7.95455 6.69333 7.94055 6.78713 7.84416C6.88093 7.74776 6.89455 7.51299 6.89455 7.51299C6.89455 7.51299 7.00711 7.082 6.89455 6.85065C6.81495 6.68706 6.57229 6.51948 6.57229 6.51948L6.35745 6.18831V5.96753L6.46487 5.85714L6.78713 5.96753L7.00197 6.07792C7.00197 6.07792 7.25868 6.18831 7.43164 6.18831C7.6046 6.18831 7.86132 6.07792 7.86132 6.07792L8.18357 5.85714L8.39841 5.63636L8.50583 5.19481L8.77363 4.86364L9.15034 4.53247L9.58002 4.31169L9.90227 3.98052C9.90227 3.98052 10.1598 3.90021 10.2245 3.75974C10.2784 3.64286 10.2245 3.42857 10.2245 3.42857L10.0097 3.20779L9.58002 3.0974C9.58002 3.0974 9.25625 3.00305 9.04292 2.98701C8.91741 2.97758 8.79793 3.0891 8.72067 2.98701C8.62781 2.86432 8.88463 2.80222 8.9355 2.65584C9.00605 2.45285 8.9355 2.1039 8.9355 2.1039L9.04292 1.68839M4.15317 5.52597C4.27915 5.29803 4.41563 5.07702 4.56194 4.86364C4.62456 4.77231 4.68899 4.68237 4.75516 4.59389C4.81179 4.51816 4.86971 4.44349 4.92887 4.36992C4.96201 4.3287 4.99555 4.28783 5.02948 4.2473C5.09437 4.16978 5.16067 4.09355 5.22834 4.01864C6.03995 3.12022 7.04856 2.41238 8.18357 1.96767C8.46273 1.8583 8.74953 1.76484 9.04292 1.68839M4.15317 5.52597C3.77072 6.21795 3.48508 6.97382 3.31515 7.77412M10.7616 12.1494L10.7595 12.1508M8.61325 12.039C8.62502 12.0611 8.63554 12.0843 8.6449 12.1084M9.4726 14.5779C9.44295 14.6614 9.43092 14.7301 9.41889 14.7987C9.40685 14.8673 9.39482 14.936 9.36518 15.0195C9.30087 15.2006 9.25448 15.3007 9.15034 15.461C9.07604 15.5755 8.9355 15.7355 8.9355 15.7355C8.9355 15.7355 8.7541 15.9084 8.61325 15.9026C8.46212 15.8964 8.29099 15.6818 8.29099 15.6818C8.29099 15.6818 8.13874 15.4922 8.07615 15.3506C8.01374 15.2095 8.00277 15.1009 7.98986 14.973C7.98446 14.9195 7.97872 14.8627 7.96873 14.7987C7.82929 13.9048 7.96873 12.4805 7.96873 12.4805L7.86132 12.039L7.53906 11.7078C7.53906 11.7078 7.33585 11.5829 7.2168 11.487C7.08857 11.3837 7.00235 11.305 6.91388 11.2034M9.4726 14.5779L9.4897 14.5294M9.4726 14.5779C9.47854 14.5612 9.48421 14.545 9.4897 14.5294M10.1171 13.8052L10.0681 13.8337M10.1171 13.8052C10.2059 13.7533 10.2874 13.7318 10.3666 13.7109C10.4626 13.6856 10.5554 13.6611 10.6542 13.5844C10.7489 13.5109 10.8053 13.4665 10.869 13.3636C10.9068 13.3027 10.9316 13.2184 10.9477 13.1397M10.1171 13.8052C10.1002 13.8151 10.0839 13.8245 10.0681 13.8337M12.0506 12.3701C12.1345 12.2408 12.0361 12.1004 12.0506 11.9286C12.0692 11.7096 12.0696 11.5767 12.1581 11.3766C12.2207 11.2351 12.3729 11.0455 12.3729 11.0455L12.4803 10.7143C12.4803 10.7143 12.6223 10.4469 12.5877 10.2727C12.5575 10.1204 12.4679 10.0626 12.3729 9.94156C12.2612 9.79919 12.2052 9.70113 12.0506 9.61039C11.8649 9.50133 11.5136 9.5 11.5136 9.5C11.5136 9.5 11.1047 9.59082 10.869 9.5C10.5913 9.39297 10.3319 8.94805 10.3319 8.94805C10.3319 8.94805 9.73205 8.32421 9.25776 8.06494C9.07515 7.96511 8.97031 7.90999 8.77363 7.84416C8.59003 7.7827 8.29099 7.73377 8.29099 7.73377C8.29099 7.73377 7.95718 7.68066 7.7539 7.73377C7.51683 7.7957 7.3978 7.89584 7.2168 8.06494C6.99297 8.27405 6.91764 8.44683 6.78713 8.72727C6.67266 8.97324 6.57229 9.38961 6.57229 9.38961C6.57229 9.38961 6.46585 9.72174 6.46487 9.94156C6.46481 9.9553 6.46516 9.96964 6.46584 9.9844M12.0506 12.3701L11.8923 12.6143M12.0506 12.3701C11.9874 12.4676 11.9452 12.5327 11.8923 12.6143M6.57229 10.7143L6.59835 10.7545M20.7854 13.9519L20.7918 13.9365M20.7854 13.9519C20.7876 13.9468 20.7898 13.9416 20.7918 13.9365M20.7854 13.9519C20.6682 14.2258 20.4218 14.4305 20.0662 14.5689M17.5008 14.7252C17.3381 14.7074 17.1709 14.6858 16.9994 14.6606M17.5008 14.7252C17.4454 14.7981 17.389 14.8699 17.3315 14.9408M17.5008 14.7252C18.5939 14.8452 19.479 14.7974 20.0662 14.5689M16.9994 14.6606C15.3191 14.4134 13.2253 13.8139 10.996 12.902M16.9994 14.6606C16.9414 14.732 16.8823 14.8023 16.822 14.8715M3.20388 8.42638C3.06978 8.31348 2.94123 8.20135 2.81846 8.09021M3.20388 8.42638C4.10708 9.18682 5.26206 9.98275 6.59835 10.7545M3.20388 8.42638C3.19248 8.51434 3.18247 8.60274 3.17386 8.69157M2.81846 8.09021C2.80442 8.17666 2.79164 8.26356 2.78016 8.35088M2.81846 8.09021C1.60078 6.98783 0.951806 5.98166 1.09661 5.26242M17.6822 14.4771C17.5235 14.4605 17.3595 14.44 17.1907 14.4156M17.6822 14.4771L17.6852 14.4728M17.6822 14.4771C17.9136 14.5012 18.1338 14.517 18.3419 14.5242M19.128 10.949C19.1128 11.04 19.0962 11.1304 19.0782 11.2203M19.128 10.949C19.6678 11.4385 20.0953 11.909 20.3908 12.3437M19.128 10.949C19.1346 10.9096 19.1409 10.8702 19.1469 10.8306M19.0782 11.2203C18.8598 12.3123 18.4376 13.3279 17.8542 14.2232M19.0782 11.2203C20.2016 12.2484 20.7595 13.1617 20.5299 13.779M2.87522 7.77715C2.99424 7.8865 3.11969 7.99716 3.2513 8.10891M2.87522 7.77715C2.34469 7.28973 1.94182 6.82835 1.69035 6.41242M2.87522 7.77715L2.88094 7.74883M2.87522 7.77715C2.87711 7.7677 2.87902 7.75826 2.88094 7.74883M4.26334 4.53336C4.31726 4.45653 4.3724 4.38066 4.42872 4.30579M4.26334 4.53336C3.65766 5.39642 3.20569 6.38098 2.94866 7.44466M4.26334 4.53336C2.94933 4.39911 1.9967 4.53717 1.59691 4.97856M4.42872 4.30579C4.18184 4.27887 3.94561 4.26053 3.72106 4.25092M4.42872 4.30579C4.44805 4.2801 4.46752 4.25452 4.48712 4.22906M6.52386 10.3659C5.22199 9.60757 4.10661 8.83519 3.2513 8.10891M6.52386 10.3659C6.53116 10.3701 6.53846 10.3744 6.54577 10.3786M6.52386 10.3659L6.54577 10.3786M3.2513 8.10891L3.25587 8.08217M3.2513 8.10891C3.25281 8.09999 3.25433 8.09108 3.25587 8.08217M6.59835 10.7545C6.59835 10.7545 6.70577 10.9375 6.78713 11.0455C6.83265 11.1059 6.8735 11.157 6.91388 11.2034M6.59835 10.7545C7.15167 11.074 7.73607 11.3894 8.34655 11.6964C8.80059 11.9247 9.26905 12.1484 9.74988 12.3656C9.96263 12.4618 10.1746 12.5553 10.3857 12.646C10.5901 12.7339 10.7936 12.8193 10.996 12.902M10.996 12.902L10.9765 12.9221C10.9765 12.9221 10.9713 13.0248 10.9477 13.1397M17.1907 14.4156L17.1943 14.4107M17.1907 14.4156C16.5523 14.3233 15.8441 14.1754 15.084 13.9749M11.312 12.7013C11.0561 12.5978 10.7982 12.4902 10.5386 12.3785C10.3203 12.2846 10.1008 12.1879 9.8804 12.0883C9.14137 11.7543 8.43173 11.4064 7.75949 11.0512C7.44464 10.8848 7.13799 10.7168 6.84036 10.5479M11.312 12.7013C12.6471 13.2413 13.9257 13.6692 15.084 13.9749M11.312 12.7013H11.287M1.30957 4.82467C1.56829 4.22005 3.14526 3.95252 4.67717 3.99123M1.30957 4.82467C1.30738 4.82979 1.30524 4.83493 1.30314 4.8401M1.30957 4.82467L1.30314 4.8401M17.6572 14.4698C17.6666 14.4708 17.6759 14.4718 17.6852 14.4728M17.6572 14.4698C17.5068 14.4533 17.3524 14.4336 17.1943 14.4107M17.6572 14.4698L17.6852 14.4728M17.1559 14.4051C17.1687 14.407 17.1815 14.4089 17.1943 14.4107M17.1559 14.4051C16.5195 14.3115 15.8239 14.1674 15.084 13.9749M17.1559 14.4051L17.1943 14.4107M17.8387 14.2216C17.6878 14.2059 17.5322 14.1866 17.3721 14.1637M17.8387 14.2216C17.8439 14.2222 17.8491 14.2227 17.8542 14.2232M17.8387 14.2216L17.8542 14.2232M11.1524 12.6466C10.9501 12.5638 10.7466 12.4785 10.5422 12.3906C10.3311 12.2998 10.1191 12.2064 9.90636 12.1102C9.42552 11.8929 8.95706 11.6693 8.50302 11.4409M11.1524 12.6466L11.287 12.7013M11.1524 12.6466C11.1973 12.665 11.2422 12.6832 11.287 12.7013M17.3471 14.1601C15.8393 13.9422 13.9417 13.414 11.8923 12.6143M17.3471 14.1601C17.3555 14.1613 17.3638 14.1625 17.3721 14.1637M17.3471 14.1601L17.3721 14.1637M10.6951 12.1231C10.4767 12.0292 10.2572 11.9324 10.0369 11.8328C9.29784 11.4989 8.58821 11.151 7.91597 10.7958C7.67955 10.6708 7.44776 10.545 7.22094 10.4185C7.03742 10.3162 6.85716 10.2135 6.68033 10.1105C6.60826 10.0685 6.53676 10.0265 6.46584 9.9844M10.6951 12.1231C10.7166 12.1324 10.7381 12.1416 10.7595 12.1508M10.6951 12.1231L10.7595 12.1508M8.50302 11.4409C7.90124 11.1383 7.32479 10.8275 6.77849 10.5127M8.50302 11.4409C7.92385 11.1497 7.36831 10.8506 6.84036 10.5479M20.3908 12.3437C20.1089 11.8632 19.6674 11.3311 19.1469 10.8306M20.3908 12.3437C20.6764 12.8305 20.7983 13.2642 20.6726 13.5581C20.6381 13.6387 20.5903 13.7123 20.5299 13.779M20.3908 12.3437C20.8121 12.9636 20.9649 13.5107 20.7918 13.9365M19.1469 10.8306C19.1699 10.6806 19.189 10.5292 19.2042 10.3766M3.72106 4.25092C3.9722 4.23429 4.23053 4.22706 4.48712 4.22906M3.72106 4.25092C2.69043 4.31918 1.78106 4.54593 1.61071 4.94404C1.60583 4.95545 1.60123 4.96695 1.59691 4.97856M3.72106 4.25092C2.54458 4.20056 1.68885 4.3898 1.30314 4.8401M4.48712 4.22906C4.5491 4.14859 4.61246 4.0693 4.67717 3.99123M3.31515 7.77412C3.34567 7.80051 3.37655 7.82696 3.40777 7.85347C4.21573 8.53955 5.25576 9.26676 6.46584 9.9844M3.31515 7.77412C3.217 7.68929 3.12248 7.60512 3.03169 7.52171C3.00366 7.49595 2.97598 7.47027 2.94866 7.44466M11.8923 12.6143C11.7517 12.5594 11.6104 12.5033 11.4685 12.4459C11.2338 12.3509 10.9974 12.2526 10.7595 12.1508M19.2042 10.3766C19.233 10.0884 19.2477 9.79599 19.2477 9.5C19.2477 4.80558 15.5445 1 10.9765 1C8.45346 1 6.1943 2.16088 4.67717 3.99123M19.2042 10.3766C20.3977 11.5438 21.2327 13.0168 20.9419 13.6965C20.9047 13.7834 20.8545 13.8634 20.7918 13.9365M2.94866 7.44466C1.89231 6.45443 1.37421 5.57721 1.59691 4.97856M17.6852 14.4728C17.9136 14.4974 18.1328 14.5145 18.3419 14.5242M17.8542 14.2232C19.173 14.3591 20.1292 14.2214 20.5299 13.779M1.30314 4.8401C1.132 5.26122 1.27953 5.80097 1.69035 6.41242M1.30314 4.8401C1.24053 4.91319 1.1903 4.99316 1.1531 5.0801C1.12807 5.13859 1.10929 5.1994 1.09661 5.26242M1.69035 6.41242C1.40473 5.94 1.31443 5.52621 1.45423 5.19948C1.48873 5.11885 1.53651 5.04524 1.59691 4.97856M1.69035 6.41242C1.97057 6.82949 2.37329 7.27992 2.88094 7.74883M6.54577 10.3786C6.61549 10.4192 6.68574 10.4597 6.75651 10.5001M6.77849 10.5127C6.79908 10.5244 6.81968 10.5361 6.84036 10.5479M6.77849 10.5127C6.7709 10.5083 6.76409 10.5045 6.75651 10.5001M6.77849 10.5127L6.75651 10.5001M11.287 12.7013C12.6238 13.2419 13.9096 13.6693 15.084 13.9749M20.7918 13.9365C20.4026 14.3908 19.5349 14.5794 18.3419 14.5242M18.3419 14.5242C19.5067 14.5647 20.2918 14.3376 20.5161 13.8135C20.521 13.8021 20.5256 13.7906 20.5299 13.779M2.88094 7.74883C2.91188 7.77741 2.94321 7.80606 2.97493 7.83477C3.06546 7.91673 3.15914 7.99923 3.25587 8.08217M3.25587 8.08217C3.29031 8.11171 3.32514 8.1413 3.36035 8.17094C4.26355 8.93138 5.41853 9.72732 6.75483 10.499L6.75651 10.5001M6.84036 10.5479C6.81233 10.532 6.78438 10.5161 6.75651 10.5001M3.12726 8.65249L3.17386 8.69157M3.12726 8.65249C3.00704 8.55128 2.89129 8.45069 2.78016 8.35088M3.12726 8.65249C3.14272 8.66551 3.15825 8.67854 3.17386 8.69157M2.74184 8.31632C1.41747 7.11736 0.76583 6.03219 1.07648 5.30622C1.08281 5.29141 1.08952 5.27681 1.09661 5.26242M2.74184 8.31632L2.78016 8.35088M2.74184 8.31632C2.75455 8.32783 2.76732 8.33935 2.78016 8.35088M10.9193 13.1281L10.9477 13.1397M10.9193 13.1281C10.9288 13.132 10.9383 13.1359 10.9477 13.1397M10.9193 13.1281C10.7315 13.0513 10.5427 12.9723 10.3531 12.891M10.3091 12.8721C10.098 12.7814 9.88601 12.6879 9.67326 12.5918C9.32367 12.4338 8.98062 12.2724 8.6449 12.1084M10.3091 12.8721L10.3531 12.891M10.3091 12.8721C10.3237 12.8784 10.3384 12.8847 10.3531 12.891M6.70187 10.7388C7.24817 11.0537 7.82462 11.3644 8.4264 11.667C8.88044 11.8954 9.3489 12.119 9.82974 12.3363C10.0425 12.4325 10.2545 12.5259 10.4655 12.6167C10.6699 12.7046 10.8734 12.7899 11.0758 12.8727L11.2103 12.9274C12.5471 13.468 13.833 13.8954 15.0074 14.201C15.7674 14.4015 16.4757 14.5494 17.1141 14.6417C17.2829 14.6661 17.4469 14.6866 17.6056 14.7032C17.837 14.7273 18.0572 14.7431 18.2653 14.7503C19.0014 14.7844 19.6137 14.7256 20.0662 14.5689M6.70187 10.7388C6.69428 10.7345 6.68747 10.7306 6.67989 10.7262M6.70187 10.7388L6.67989 10.7262M6.67989 10.7262C6.60912 10.6858 6.53887 10.6453 6.46915 10.6048L6.44724 10.592C5.14537 9.83369 4.02998 9.0613 3.17467 8.33502C3.04307 8.22327 2.91762 8.11261 2.7986 8.00326C2.26807 7.51584 1.8652 7.05447 1.61373 6.63854C1.2029 6.02708 1.05538 5.48733 1.22652 5.06621C1.17457 5.12686 1.13114 5.19224 1.09661 5.26242M17.3315 14.9408C17.3625 14.9445 17.3934 14.948 17.4241 14.9513C19.1793 15.144 20.3981 14.904 20.7088 14.178L20.7152 14.1626C20.5662 14.3366 20.347 14.4716 20.0662 14.5689M17.3315 14.9408C15.8142 16.8103 13.5305 18 10.9765 18C6.40838 18 2.70522 14.1944 2.70522 9.5C2.70522 9.11028 2.73074 8.72668 2.78016 8.35088M17.3315 14.9408C17.1982 14.9252 17.0619 14.9072 16.9228 14.8867C16.8893 14.8818 16.8557 14.8767 16.822 14.8715M3.17386 8.69157C3.14809 8.95746 3.13489 9.22714 3.13489 9.5C3.13489 13.9506 6.64568 17.5584 10.9765 17.5584C13.2992 17.5584 15.3861 16.5206 16.822 14.8715M3.17386 8.69157C4.07005 9.44017 5.20831 10.2221 6.52173 10.9806C6.65078 11.0551 6.78151 11.1294 6.91388 11.2034M16.822 14.8715C15.1663 14.6166 13.1221 14.027 10.9477 13.1397M6.91388 11.2034C7.34906 11.4468 7.80183 11.6871 8.26993 11.9225C8.39386 11.9848 8.51886 12.0468 8.6449 12.1084M9.4897 14.5294C9.54359 14.376 9.58007 14.2722 9.68743 14.1364C9.80744 13.9846 9.91329 13.9233 10.0681 13.8337" stroke="#898989" stroke-width="0.7"/>
</svg>
