<svg width="29" height="18" viewBox="0 0 29 18" fill="none" xmlns="http://www.w3.org/2000/svg">
<path fill-rule="evenodd" clip-rule="evenodd" d="M19.5094 7.27442L16.5846 7.21758C16.3739 6.44305 15.7235 5.84694 14.9147 5.70755L14.752 2.42344C14.752 2.42344 14.649 2.28316 14.551 2.27185C14.4344 2.25839 14.2925 2.42344 14.2925 2.42344L14.1394 5.71636C13.3561 5.86997 12.7292 6.4535 12.52 7.2081L9.57341 7.25547C9.57341 7.25547 9.45093 7.33345 9.45854 7.40707C9.46527 7.47219 9.57341 7.53024 9.57341 7.53024L12.4455 7.71973C12.4454 7.72665 12.4452 7.73358 12.4452 7.74053C12.4451 7.74733 12.4451 7.75415 12.4451 7.76098C12.4451 8.08575 12.5201 8.39317 12.654 8.66719L1.45613 8.923L1.21683 8.97985C1.21683 8.97985 1.07324 9.00789 1.07324 9.07459C1.07324 9.1413 1.21683 9.16934 1.21683 9.16934L1.45613 9.23566L6.34756 9.29251V9.38725L9.42025 9.4405C9.61009 9.07152 9.99746 8.81878 10.4445 8.81878C10.8915 8.81878 11.2789 9.07152 11.4687 9.4405H13.3035C13.3035 9.4405 13.6382 9.66697 13.8809 9.74728C14.1318 9.8303 14.551 9.84538 14.551 9.84538C14.9913 9.84538 15.4 9.71165 15.7379 9.48299L17.6237 9.44126C17.6446 9.40231 17.6678 9.36471 17.693 9.32862C17.9003 9.03203 18.2464 8.83773 18.6383 8.83773C19.078 8.83773 19.4599 9.08218 19.653 9.44126L22.7161 9.37778V9.27356L27.6267 9.23566L27.8277 9.18829C27.8277 9.18829 27.9969 9.16206 28 9.08407C28.0032 9.00409 27.8277 8.97037 27.8277 8.97037L27.6267 8.91353L16.448 8.66719C16.5818 8.39317 16.6569 8.08575 16.6569 7.76098C16.6569 7.75415 16.6568 7.74733 16.6568 7.74053L19.5094 7.52076C19.5094 7.52076 19.653 7.47104 19.653 7.39759C19.653 7.32415 19.5094 7.27442 19.5094 7.27442ZM14.551 7.05651C14.0426 7.05651 13.5654 7.15434 13.1525 7.32573C13.2622 6.64863 13.8551 6.13135 14.5701 6.13135C15.2912 6.13135 15.8882 6.65749 15.9905 7.34307C15.5683 7.16096 15.0763 7.05651 14.551 7.05651Z" fill="#898989"/>
<path d="M10.4445 11.0927C11.0789 11.0927 11.5932 10.5836 11.5932 9.95573C11.5932 9.77026 11.5483 9.59517 11.4687 9.4405C11.2789 9.07152 10.8915 8.81878 10.4445 8.81878C9.99746 8.81878 9.61009 9.07152 9.42025 9.4405C9.34068 9.59517 9.29581 9.77026 9.29581 9.95573C9.29581 10.5836 9.81009 11.0927 10.4445 11.0927Z" fill="#898989"/>
<path d="M18.6383 11.1116C19.2727 11.1116 19.787 10.6026 19.787 9.97468C19.787 9.7819 19.7385 9.60033 19.653 9.44126C19.4599 9.08218 19.078 8.83773 18.6383 8.83773C18.2464 8.83773 17.9003 9.03203 17.693 9.32862C17.6678 9.36471 17.6446 9.40231 17.6237 9.44126C17.5381 9.60033 17.4897 9.7819 17.4897 9.97468C17.4897 10.6026 18.0039 11.1116 18.6383 11.1116Z" fill="#898989"/>
<path d="M19.653 9.44126C19.4599 9.08218 19.078 8.83773 18.6383 8.83773C18.2464 8.83773 17.9003 9.03203 17.693 9.32862C17.6678 9.36471 17.6446 9.40231 17.6237 9.44126M19.653 9.44126C19.7385 9.60033 19.787 9.7819 19.787 9.97468C19.787 10.6026 19.2727 11.1116 18.6383 11.1116C18.0039 11.1116 17.4897 10.6026 17.4897 9.97468C17.4897 9.7819 17.5381 9.60033 17.6237 9.44126M19.653 9.44126L22.7161 9.37778V9.27356L27.6267 9.23566L27.8277 9.18829C27.8277 9.18829 27.9969 9.16206 28 9.08407C28.0032 9.00409 27.8277 8.97037 27.8277 8.97037L27.6267 8.91352L16.448 8.66719C16.5818 8.39317 16.6569 8.08575 16.6569 7.76098C16.6569 7.75415 16.6568 7.74733 16.6568 7.74053L19.5094 7.52076C19.5094 7.52076 19.653 7.47104 19.653 7.39759C19.653 7.32415 19.5094 7.27442 19.5094 7.27442L16.5846 7.21758C16.3739 6.44305 15.7235 5.84694 14.9147 5.70755L14.752 2.42344C14.752 2.42344 14.649 2.28316 14.551 2.27185C14.4344 2.25839 14.2925 2.42344 14.2925 2.42344L14.1394 5.71636C13.3561 5.86997 12.7292 6.4535 12.52 7.2081L9.5734 7.25547C9.5734 7.25547 9.45093 7.33345 9.45854 7.40707C9.46527 7.47219 9.5734 7.53024 9.5734 7.53024L12.4455 7.71973C12.4454 7.72665 12.4452 7.73358 12.4452 7.74053C12.4451 7.74733 12.4451 7.75415 12.4451 7.76098C12.4451 8.08575 12.5201 8.39317 12.654 8.66719L1.45613 8.923L1.21683 8.97985C1.21683 8.97985 1.07324 9.00789 1.07324 9.07459C1.07324 9.1413 1.21683 9.16934 1.21683 9.16934L1.45613 9.23566L6.34756 9.29251V9.38725L9.42025 9.4405M17.6237 9.44126L15.7379 9.48299C15.4 9.71165 14.9913 9.84538 14.551 9.84538C14.551 9.84538 14.1318 9.8303 13.8809 9.74729C13.6382 9.66697 13.3035 9.4405 13.3035 9.4405H11.4687M9.42025 9.4405C9.34068 9.59517 9.29581 9.77026 9.29581 9.95573C9.29581 10.5836 9.81009 11.0927 10.4445 11.0927C11.0789 11.0927 11.5932 10.5836 11.5932 9.95573C11.5932 9.77026 11.5483 9.59517 11.4687 9.4405M9.42025 9.4405C9.61009 9.07152 9.99746 8.81878 10.4445 8.81878C10.8915 8.81878 11.2789 9.07152 11.4687 9.4405M14.551 7.05651C14.0426 7.05651 13.5654 7.15434 13.1525 7.32573C13.2622 6.64863 13.8551 6.13135 14.5701 6.13135C15.2912 6.13135 15.8882 6.65749 15.9905 7.34307C15.5683 7.16096 15.0763 7.05651 14.551 7.05651Z" stroke="#898989" stroke-width="0.3"/>
<path fill-rule="evenodd" clip-rule="evenodd" d="M22.233 10.3995C22.052 11.7541 21.523 12.9987 20.7388 14.0405C20.052 13.6566 19.3035 13.3349 18.5072 13.086C18.5988 12.7615 18.6791 12.4244 18.747 12.0765C18.747 12.0765 18.7338 12.0352 18.722 12.0102C18.7094 11.9831 18.702 11.9676 18.6837 11.9438C18.6646 11.9188 18.652 11.9055 18.6263 11.887C18.5993 11.8675 18.5806 11.8599 18.5491 11.8489C18.5135 11.8364 18.4919 11.8289 18.454 11.8301C18.4068 11.8317 18.3792 11.8432 18.3391 11.868C18.303 11.8905 18.2611 11.9438 18.2611 11.9438C18.1971 12.2907 18.1206 12.6261 18.0327 12.9479C17.0043 12.6704 15.904 12.5123 14.7591 12.495V10.8543C14.7591 10.8543 14.6376 10.6458 14.5102 10.6458C14.3829 10.6458 14.2614 10.8543 14.2614 10.8543V12.4963C13.1176 12.5199 12.019 12.6841 10.9931 12.9674C10.9014 12.6337 10.8219 12.2855 10.7559 11.9249C10.7559 11.9249 10.729 11.9005 10.7101 11.887C10.6788 11.8647 10.6611 11.8495 10.6239 11.8396C10.5842 11.8291 10.5591 11.8323 10.5186 11.8396C10.4708 11.8483 10.4425 11.858 10.4037 11.887C10.372 11.9107 10.3555 11.9281 10.3367 11.9628C10.3167 11.9998 10.31 12.067 10.31 12.067C10.379 12.4223 10.4609 12.7662 10.5547 13.0971C9.74556 13.3526 8.98622 13.6834 8.29113 14.0783C7.48387 13.0192 6.94166 11.7473 6.76339 10.3616C6.76339 10.3616 6.72869 10.3111 6.69928 10.2858C6.6664 10.2575 6.64491 10.2426 6.60356 10.2289C6.54327 10.2091 6.50112 10.2091 6.44083 10.2289C6.39459 10.2442 6.36911 10.2603 6.33553 10.2953C6.30284 10.3293 6.2749 10.3995 6.2749 10.3995C6.81707 14.427 10.2975 17.5338 14.5102 17.5338C18.723 17.5338 22.2002 14.427 22.7424 10.3995C22.7424 10.3995 22.7041 10.2895 22.6467 10.2479C22.6046 10.2175 22.5742 10.2038 22.5222 10.2005C22.4597 10.1965 22.4228 10.216 22.3691 10.2479C22.3004 10.2886 22.233 10.3995 22.233 10.3995ZM14.2614 12.989C13.1671 13.0122 12.1169 13.1736 11.1382 13.4518C11.8016 15.4921 12.9449 16.8881 14.2614 17.0453V12.989ZM10.7044 13.5842C9.96609 13.8254 9.27277 14.1343 8.63709 14.5008C9.73935 15.7551 11.2381 16.6528 12.9376 16.9983C12.0035 16.3448 11.219 15.1329 10.7044 13.5842ZM14.7591 17.0453V12.988C15.8544 13.0068 16.906 13.1641 17.8867 13.4383C17.224 15.4859 16.0784 16.8877 14.7591 17.0453ZM16.1453 16.9813C17.8234 16.6213 19.3012 15.722 20.388 14.4736C19.7618 14.1169 19.0804 13.816 18.3557 13.5801C17.8456 15.1174 17.0696 16.3233 16.1453 16.9813Z" fill="#898989"/>
<path fill-rule="evenodd" clip-rule="evenodd" d="M6.36109 7.90767C6.38021 7.93272 6.39173 7.94771 6.41852 7.96452C6.45453 7.9871 6.48153 7.98771 6.52382 7.99294C6.56091 7.99753 6.58286 8.00006 6.61954 7.99294C6.65088 7.98686 6.66928 7.98165 6.69612 7.96452C6.72278 7.9475 6.73234 7.93101 6.75355 7.90767C6.77599 7.88298 6.80734 7.84135 6.80734 7.84135C6.99973 6.44093 7.56416 5.15907 8.39776 4.09858C9.07332 4.47576 9.80835 4.79278 10.5898 5.03955C10.4541 5.51831 10.3433 6.02465 10.2603 6.5528C10.2603 6.5528 10.2705 6.60132 10.2857 6.6286C10.3024 6.65844 10.3171 6.67263 10.3432 6.69492C10.3699 6.71773 10.3865 6.73054 10.4197 6.7423C10.4586 6.75605 10.484 6.75609 10.525 6.75177C10.5638 6.74769 10.6208 6.72335 10.6208 6.72335C10.6208 6.72335 10.6643 6.7042 10.6878 6.68545C10.7112 6.66671 10.7392 6.6286 10.7392 6.6286C10.8201 6.12045 10.9273 5.6347 11.0578 5.17735C11.3929 5.26902 11.7357 5.34798 12.0853 5.41351C12.0853 5.41351 12.1553 5.38877 12.1906 5.35901C12.2231 5.33167 12.2434 5.31352 12.2576 5.27374C12.2639 5.25595 12.2651 5.24512 12.2672 5.22636C12.2696 5.20429 12.2707 5.19145 12.2672 5.16952L12.267 5.16826C12.2634 5.14587 12.2611 5.13163 12.248 5.11267L12.2097 5.04367C12.197 5.04124 12.1842 5.03879 12.1714 5.03632C11.8315 4.97046 11.4985 4.89092 11.1733 4.79851C11.6519 3.32642 12.3613 2.17559 13.2244 1.5976L13.4829 1.43653L13.77 1.30389C13.77 1.30389 13.9958 1.21785 14.1433 1.17124C14.214 1.14893 14.3252 1.15229 14.3252 1.15229V1.41758C14.3252 1.41758 14.432 1.57437 14.5358 1.57865C14.6456 1.58318 14.7655 1.41758 14.7655 1.41758V1.15229C14.7655 1.15229 15.051 1.18037 15.225 1.24704C15.384 1.30799 15.4698 1.35209 15.6175 1.43653C15.8034 1.54283 15.9064 1.60862 16.0674 1.74919C16.1543 1.82515 16.278 1.9565 16.278 1.9565C16.9548 2.59098 17.5249 3.58565 17.9218 4.81197C17.586 4.90588 17.2419 4.98608 16.8906 5.0517C16.8906 5.0517 16.8491 5.11496 16.8331 5.16004C16.8229 5.18883 16.8116 5.20542 16.814 5.23584C16.8158 5.25917 16.8219 5.27212 16.8331 5.29269C16.8446 5.31351 16.8548 5.32298 16.8714 5.34006C16.8905 5.35973 16.9037 5.36928 16.925 5.38463L16.9289 5.38743C16.9539 5.40551 16.9959 5.42936 16.9959 5.42936C17.3505 5.36532 17.6984 5.28747 18.0384 5.19658C18.1648 5.64261 18.2692 6.11548 18.3485 6.60965C18.3485 6.60965 18.3837 6.65434 18.4126 6.67597C18.4459 6.70095 18.4687 6.71016 18.5083 6.72335C18.5444 6.73537 18.5659 6.7423 18.604 6.7423C18.6421 6.7423 18.665 6.73897 18.6997 6.72335C18.729 6.71016 18.744 6.69848 18.7667 6.67597C18.7895 6.65347 18.8146 6.60965 18.8146 6.60965L18.8658 6.53385C18.7838 6.01659 18.675 5.52036 18.5423 5.05059C19.3112 4.81031 20.0354 4.50212 20.7027 4.13559C21.5186 5.18643 22.0716 6.45139 22.2629 7.83187C22.2629 7.83187 22.2998 7.90276 22.3372 7.93609C22.3696 7.96498 22.3921 7.97789 22.4329 7.99294C22.4721 8.00737 22.4964 8.01189 22.5382 8.01189C22.58 8.01189 22.6062 8.01168 22.6435 7.99294C22.6742 7.97748 22.6859 7.95994 22.7105 7.93609C22.7456 7.90217 22.7939 7.84135 22.7939 7.84135C22.3701 4.42075 19.8276 1.64905 16.5077 0.852647C15.8785 0.701705 15.2213 0.612244 14.5454 0.612244C10.353 0.612244 6.86979 3.68562 6.29934 7.68028L6.28392 7.79397L6.36109 7.90767ZM12.7284 1.32473C11.1353 1.70245 9.73124 2.56846 8.6833 3.75587C9.3063 4.11408 9.98448 4.41691 10.706 4.65508C11.1752 3.19563 11.882 2.02542 12.7284 1.32473ZM20.4121 3.78299C19.3794 2.60191 17.996 1.73497 16.4243 1.34441C17.261 2.04788 17.9595 3.21142 18.4244 4.6592C19.1323 4.42642 19.7986 4.13144 20.4121 3.78299Z" fill="#898989"/>
<path d="M6.29934 7.68028C6.86979 3.68562 10.353 0.612244 14.5454 0.612244C15.2213 0.612244 15.8785 0.701705 16.5077 0.852647C19.8276 1.64905 22.3701 4.42075 22.7939 7.84135C22.7939 7.84135 22.7456 7.90217 22.7105 7.93609C22.6859 7.95994 22.6742 7.97748 22.6435 7.99294C22.6062 8.01168 22.58 8.01189 22.5382 8.01189C22.4964 8.01189 22.4721 8.00737 22.4329 7.99294C22.3921 7.97789 22.3696 7.96498 22.3372 7.93609C22.2998 7.90276 22.2629 7.83187 22.2629 7.83187C22.0716 6.45139 21.5186 5.18643 20.7027 4.13559C20.0354 4.50212 19.3112 4.81031 18.5423 5.05059C18.675 5.52036 18.7838 6.01659 18.8658 6.53385L18.8146 6.60965C18.8146 6.60965 18.7895 6.65347 18.7667 6.67597C18.744 6.69848 18.729 6.71016 18.6997 6.72335C18.665 6.73897 18.6421 6.7423 18.604 6.7423C18.5659 6.7423 18.5444 6.73537 18.5083 6.72335C18.4687 6.71016 18.4459 6.70095 18.4126 6.67597C18.3837 6.65434 18.3485 6.60965 18.3485 6.60965C18.2692 6.11548 18.1648 5.64261 18.0384 5.19658C17.6984 5.28747 17.3505 5.36532 16.9959 5.42936C16.9959 5.42936 16.9539 5.40551 16.9289 5.38743L16.925 5.38463C16.9037 5.36928 16.8905 5.35973 16.8714 5.34006C16.8548 5.32297 16.8446 5.31351 16.8331 5.29269C16.8219 5.27212 16.8158 5.25917 16.814 5.23584C16.8116 5.20542 16.8229 5.18883 16.8331 5.16004C16.8491 5.11496 16.8906 5.0517 16.8906 5.0517C17.2419 4.98608 17.586 4.90588 17.9218 4.81197C17.5249 3.58565 16.9548 2.59098 16.278 1.9565C16.278 1.9565 16.1543 1.82515 16.0674 1.74919C15.9064 1.60862 15.8034 1.54283 15.6175 1.43653C15.4698 1.35209 15.384 1.30799 15.225 1.24704C15.051 1.18037 14.7655 1.15229 14.7655 1.15229V1.41758C14.7655 1.41758 14.6456 1.58318 14.5358 1.57865C14.432 1.57437 14.3252 1.41758 14.3252 1.41758V1.15229C14.3252 1.15229 14.214 1.14893 14.1433 1.17124C13.9958 1.21785 13.77 1.30389 13.77 1.30389L13.4829 1.43653L13.2244 1.5976C12.3613 2.17559 11.6519 3.32642 11.1733 4.79851C11.4985 4.89092 11.8315 4.97046 12.1714 5.03632C12.1842 5.03879 12.197 5.04124 12.2097 5.04367L12.248 5.11267C12.2611 5.13163 12.2634 5.14587 12.267 5.16826L12.2672 5.16952C12.2707 5.19145 12.2696 5.20429 12.2672 5.22636C12.2651 5.24512 12.2639 5.25595 12.2576 5.27374C12.2434 5.31352 12.2231 5.33167 12.1906 5.35901C12.1553 5.38877 12.0853 5.41351 12.0853 5.41351C11.7357 5.34798 11.3929 5.26902 11.0578 5.17735C10.9273 5.6347 10.8201 6.12045 10.7392 6.6286C10.7392 6.6286 10.7112 6.66671 10.6878 6.68545C10.6643 6.7042 10.6208 6.72335 10.6208 6.72335C10.6208 6.72335 10.5638 6.74769 10.525 6.75177C10.484 6.75609 10.4586 6.75605 10.4197 6.7423C10.3865 6.73054 10.3699 6.71773 10.3432 6.69492C10.3171 6.67263 10.3024 6.65844 10.2857 6.6286C10.2705 6.60132 10.2603 6.5528 10.2603 6.5528C10.3433 6.02465 10.4541 5.51831 10.5898 5.03955C9.80835 4.79278 9.07332 4.47576 8.39776 4.09858C7.56416 5.15907 6.99973 6.44093 6.80734 7.84135C6.80734 7.84135 6.77599 7.88297 6.75355 7.90767C6.73234 7.93101 6.72278 7.9475 6.69612 7.96452C6.66928 7.98165 6.65088 7.98686 6.61954 7.99294C6.58286 8.00006 6.56091 7.99753 6.52382 7.99294C6.48153 7.98771 6.45453 7.9871 6.41852 7.96452C6.39173 7.94771 6.38021 7.93273 6.36109 7.90767L6.28392 7.79397M6.29934 7.68028C6.29394 7.71809 6.2888 7.75599 6.28392 7.79397M6.29934 7.68028L6.28392 7.79397M8.29113 14.0783C7.48387 13.0192 6.94166 11.7473 6.76339 10.3616C6.76339 10.3616 6.72869 10.3111 6.69928 10.2858C6.6664 10.2575 6.64491 10.2426 6.60356 10.2289C6.54327 10.2091 6.50112 10.2091 6.44083 10.2289C6.39459 10.2442 6.36911 10.2603 6.33553 10.2953C6.30284 10.3293 6.2749 10.3995 6.2749 10.3995C6.81707 14.427 10.2975 17.5338 14.5102 17.5338C18.723 17.5338 22.2002 14.427 22.7424 10.3995C22.7424 10.3995 22.7041 10.2895 22.6467 10.2479C22.6046 10.2175 22.5742 10.2038 22.5222 10.2005C22.4597 10.1965 22.4228 10.216 22.3691 10.2479C22.3004 10.2886 22.233 10.3995 22.233 10.3995C22.052 11.7541 21.523 12.9987 20.7388 14.0405C20.052 13.6566 19.3035 13.3349 18.5072 13.086C18.5988 12.7615 18.6791 12.4244 18.747 12.0765C18.747 12.0765 18.7338 12.0352 18.722 12.0102C18.7094 11.9831 18.702 11.9676 18.6837 11.9438C18.6646 11.9188 18.652 11.9055 18.6263 11.887C18.5993 11.8675 18.5806 11.8599 18.5491 11.8489C18.5135 11.8364 18.4919 11.8289 18.454 11.8301C18.4068 11.8317 18.3792 11.8432 18.3391 11.868C18.303 11.8905 18.2611 11.9438 18.2611 11.9438C18.1971 12.2907 18.1206 12.6261 18.0327 12.9479C17.0043 12.6704 15.904 12.5123 14.7591 12.495V10.8543C14.7591 10.8543 14.6376 10.6458 14.5102 10.6458C14.3829 10.6458 14.2614 10.8543 14.2614 10.8543V12.4963C13.1176 12.5199 12.019 12.6841 10.9931 12.9674C10.9014 12.6337 10.8219 12.2855 10.7559 11.9249C10.7559 11.9249 10.729 11.9005 10.7101 11.887C10.6788 11.8647 10.6611 11.8495 10.6239 11.8396C10.5842 11.8291 10.5591 11.8323 10.5186 11.8396C10.4708 11.8483 10.4425 11.858 10.4037 11.887C10.372 11.9107 10.3555 11.9281 10.3367 11.9628C10.3167 11.9998 10.31 12.067 10.31 12.067C10.379 12.4223 10.4609 12.7662 10.5547 13.0971C9.74556 13.3526 8.98622 13.6834 8.29113 14.0783ZM8.63709 14.5008C9.27277 14.1343 9.96609 13.8254 10.7044 13.5842C11.219 15.1329 12.0035 16.3448 12.9376 16.9983C11.2381 16.6528 9.73935 15.7551 8.63709 14.5008ZM14.2614 12.989C13.1671 13.0122 12.1169 13.1736 11.1382 13.4518C11.8016 15.4921 12.9449 16.8881 14.2614 17.0453V12.989ZM14.7591 12.988V17.0453C16.0784 16.8877 17.224 15.4859 17.8867 13.4383C16.906 13.1641 15.8544 13.0068 14.7591 12.988ZM20.388 14.4736C19.3012 15.722 17.8234 16.6213 16.1453 16.9813C17.0696 16.3233 17.8456 15.1174 18.3557 13.5801C19.0804 13.816 19.7618 14.1169 20.388 14.4736ZM8.6833 3.75587C9.73124 2.56846 11.1353 1.70245 12.7284 1.32473C11.882 2.02542 11.1752 3.19563 10.706 4.65508C9.98448 4.41691 9.3063 4.11408 8.6833 3.75587ZM20.4121 3.78299C19.3794 2.60191 17.996 1.73497 16.4243 1.34441C17.261 2.04788 17.9595 3.21142 18.4244 4.6592C19.1323 4.42642 19.7986 4.13144 20.4121 3.78299Z" stroke="#898989" stroke-width="0.7"/>
</svg>
